<?xml version="1.0" encoding="utf-8"?>
<!-- Generator: Adobe Illustrator 18.0.0, SVG Export Plug-In . SVG Version: 6.00 Build 0)  -->
<!DOCTYPE svg PUBLIC "-//W3C//DTD SVG 1.1//EN" "http://www.w3.org/Graphics/SVG/1.1/DTD/svg11.dtd">
<svg version="1.1" id="Layer_1" xmlns="http://www.w3.org/2000/svg" xmlns:xlink="http://www.w3.org/1999/xlink" x="0px" y="0px"
	 viewBox="0 0 256 256" enable-background="new 0 0 256 256" xml:space="preserve">
<circle fill="#F17743" stroke="#FFFFFF" stroke-miterlimit="10" cx="128.1" cy="127.6" r="127.9"/>
<g>
	<path fill="#FFFFFF" d="M2,88.7"/>
	<path fill="#FFFFFF" d="M209.8,126c-4.1-7.1-9.9-12.8-17.2-17c-5.4-3.2-11-5.2-17.3-6V80.5c6.3-2.7,10.2-8.6,10.2-15.6
		c0-9.5-7.6-17.1-17-17.1c-9.5,0-17.2,7.7-17.2,17.1c0,6.9,3.7,12.9,10,15.6V103c-5.1,0.7-10.3,2.3-15.1,4.7
		c-9.8-7.4-41.9-31.8-60.6-46.1c0.4-1.6,0.8-3.3,0.8-5c0-10.5-8.5-19-18.9-19s-18.9,8.5-18.9,19c0,10.5,8.5,19,19,19
		c3.6,0,6.9-1,9.7-2.8l4,3l54.4,39.2c-2.9,2.6-5.6,5.6-7.7,9c-4.3,6.9-7,14.4-7,22.7v1.7c0,5.8,1.1,11.3,3,16.4
		c1.7,4.5,4.1,8.6,7.1,12.2l-18.1,18.1c-1.6-0.6-3.3-0.9-5-0.9c-3.9,0-7.6,1.5-10.3,4.3c-2.8,2.8-4.3,6.4-4.3,10.4
		c0,3.9,1.5,7.6,4.3,10.4c2.8,2.8,6.4,4.3,10.4,4.3s7.6-1.5,10.4-4.3c2.8-2.8,4.3-6.4,4.3-10.4c0-1.5-0.2-3-0.7-4.4l18.7-18.7
		c2.6,1.8,5.3,3.3,8.3,4.5c5.9,2.5,12.3,4.1,19.4,4.1h1.3c7.8,0,15.2-1.8,22.2-5.6c7.3-4,13-9.4,17.4-16.4c4.3-7,6.7-14.6,6.7-23.1
		v-0.4C215.8,140.7,213.9,133.1,209.8,126L209.8,126z M187,165.2c-5.1,5.6-10.9,9.1-17.5,9.1h-1.1c-3.8,0-7.4-1-11-2.9
		c-4.1-2.1-7.1-5.1-9.7-8.8c-2.6-3.7-4-7.7-4-12v-1.3c0-4.2,0.8-8.2,2.8-11.9c2.2-4.1,5.1-7.3,9-9.9c3.8-2.5,7.9-3.8,12.5-3.8h0.4
		c4.1,0,8,0.8,11.7,2.7c3.8,2,6.8,4.8,9.2,8.4c2.3,3.6,3.7,7.5,4.1,11.8c0.1,0.9,0.1,1.8,0.1,2.7C193.6,155,191.4,160.4,187,165.2
		L187,165.2z"/>
</g>
<g display="none">
	<defs>
		<path id="SVGID_1_" d="M141.1,110.6c-13.5-4.8-20.9-8.5-20.9-14.3c0-5,4.3-7.8,11.8-7.8c13.9,0,28.1,5.1,37.9,9.7l5.6-32.7
			c-7.8-3.5-23.7-9.4-45.7-9.4c-15.5,0-28.5,3.9-37.8,11.1c-9.6,7.6-14.6,18.6-14.6,31.9c0,24.1,15.4,34.3,40.4,43
			c16.1,5.5,21.5,9.4,21.5,15.4c0,5.8-5.2,9.2-14.6,9.2c-11.7,0-30.9-5.5-43.5-12.6l-5.6,33.1c10.7,5.8,30.7,11.9,51.5,11.9
			c16.5,0,30.2-3.7,39.4-10.8c10.4-7.8,15.7-19.3,15.7-34.2C182.2,129.6,166.4,119.3,141.1,110.6L141.1,110.6z"/>
	</defs>
	<use xlink:href="#SVGID_1_"  display="inline" overflow="visible" fill="#FFFFFF"/>
	<clipPath id="SVGID_2_" display="inline">
		<use xlink:href="#SVGID_1_"  overflow="visible"/>
	</clipPath>
	<rect x="-5" y="-0.3" display="inline" clip-path="url(#SVGID_2_)" fill="#FFFFFF" width="267.6" height="255.8"/>
</g>
</svg>
