<?xml version="1.0" encoding="utf-8"?>
<!-- Generator: Adobe Illustrator 18.0.0, SVG Export Plug-In . SVG Version: 6.00 Build 0)  -->
<!DOCTYPE svg PUBLIC "-//W3C//DTD SVG 1.1//EN" "http://www.w3.org/Graphics/SVG/1.1/DTD/svg11.dtd">
<svg version="1.1" id="Layer_1" xmlns="http://www.w3.org/2000/svg" xmlns:xlink="http://www.w3.org/1999/xlink" x="0px" y="0px"
	 viewBox="0 0 256 256" enable-background="new 0 0 256 256" xml:space="preserve">
<circle fill="#00A1E0" stroke="#FFFFFF" stroke-miterlimit="10" cx="128.1" cy="127.6" r="127.9"/>
<g display="none">
	<defs>
		<path id="SVGID_1_" d="M141.1,110.6c-13.5-4.8-20.9-8.5-20.9-14.3c0-5,4.3-7.8,11.8-7.8c13.9,0,28.1,5.1,37.9,9.7l5.6-32.7
			c-7.8-3.5-23.7-9.4-45.7-9.4c-15.5,0-28.5,3.9-37.8,11.1c-9.6,7.6-14.6,18.6-14.6,31.9c0,24.1,15.4,34.3,40.4,43
			c16.1,5.5,21.5,9.4,21.5,15.4c0,5.8-5.2,9.2-14.6,9.2c-11.7,0-30.9-5.5-43.5-12.6l-5.6,33.1c10.7,5.8,30.7,11.9,51.5,11.9
			c16.5,0,30.2-3.7,39.4-10.8c10.4-7.8,15.7-19.3,15.7-34.2C182.2,129.6,166.4,119.3,141.1,110.6L141.1,110.6z"/>
	</defs>
	<use xlink:href="#SVGID_1_"  display="inline" overflow="visible" fill="#FFFFFF"/>
	<clipPath id="SVGID_2_" display="inline">
		<use xlink:href="#SVGID_1_"  overflow="visible"/>
	</clipPath>
	<rect x="-5" y="-0.3" display="inline" clip-path="url(#SVGID_2_)" fill="#FFFFFF" width="267.6" height="255.8"/>
</g>
<g>
	<path fill="#FFFFFF" d="M117.9,79.6c6.3-6.5,15-10.6,24.7-10.6c12.9,0,24.1,7.2,30.1,17.8c5.2-2.3,10.9-3.6,17-3.6
		c23.2,0,42,19,42,42.4c0,23.4-18.8,42.4-42,42.4c-2.8,0-5.6-0.3-8.3-0.8c-5.3,9.4-15.3,15.7-26.8,15.7c-4.8,0-9.4-1.1-13.4-3.1
		c-5.3,12.5-17.8,21.3-32.2,21.3c-15.1,0-27.9-9.5-32.9-22.9c-2.2,0.5-4.4,0.7-6.7,0.7c-18,0-32.5-14.7-32.5-32.9
		c0-12.2,6.5-22.8,16.3-28.5c-2-4.6-3.1-9.7-3.1-15c0-20.9,16.9-37.8,37.8-37.8C100,64.7,110.9,70.5,117.9,79.6"/>
	<path fill="#00A1E0" d="M65,135.4c-0.1,0.3,0,0.4,0.1,0.4c0.4,0.3,0.7,0.5,1.1,0.7c2,1.1,3.9,1.4,5.8,1.4c4,0,6.5-2.1,6.5-5.5v-0.1
		c0-3.2-2.8-4.3-5.4-5.1l-0.3-0.1c-2-0.6-3.7-1.2-3.7-2.5v-0.1c0-1.1,1-1.9,2.5-1.9c1.7,0,3.8,0.6,5.1,1.3c0,0,0.4,0.2,0.5-0.1
		c0.1-0.2,0.7-2,0.8-2.2c0.1-0.2-0.1-0.4-0.2-0.4c-1.5-0.9-3.6-1.5-5.7-1.5l-0.4,0c-3.7,0-6.2,2.2-6.2,5.4v0.1
		c0,3.3,2.8,4.4,5.5,5.2l0.4,0.1c1.9,0.6,3.6,1.1,3.6,2.5v0.1c0,1.2-1.1,2.2-2.8,2.2c-0.7,0-2.8,0-5.1-1.5c-0.3-0.2-0.4-0.3-0.7-0.4
		c-0.1-0.1-0.4-0.2-0.5,0.2L65,135.4L65,135.4z"/>
	<path fill="#00A1E0" d="M123.5,135.4c-0.1,0.3,0,0.4,0.1,0.4c0.4,0.3,0.7,0.5,1.1,0.7c2,1.1,3.9,1.4,5.8,1.4c4,0,6.5-2.1,6.5-5.5
		v-0.1c0-3.2-2.8-4.3-5.4-5.1l-0.3-0.1c-2-0.6-3.7-1.2-3.7-2.5v-0.1c0-1.1,1-1.9,2.5-1.9c1.7,0,3.8,0.6,5.1,1.3c0,0,0.4,0.2,0.5-0.1
		c0.1-0.2,0.7-2,0.8-2.2c0.1-0.2-0.1-0.4-0.2-0.4c-1.5-0.9-3.6-1.5-5.7-1.5l-0.4,0c-3.7,0-6.2,2.2-6.2,5.4v0.1
		c0,3.3,2.8,4.4,5.5,5.2l0.4,0.1c1.9,0.6,3.6,1.1,3.6,2.5v0.1c0,1.2-1.1,2.2-2.8,2.2c-0.7,0-2.8,0-5.1-1.5c-0.3-0.2-0.4-0.3-0.7-0.4
		c-0.1,0-0.4-0.2-0.5,0.2L123.5,135.4L123.5,135.4z"/>
	<path fill="#00A1E0" d="M163.5,128.7c0,1.9-0.4,3.5-1.1,4.5c-0.7,1.1-1.8,1.6-3.2,1.6c-1.5,0-2.5-0.5-3.2-1.6
		c-0.7-1.1-1.1-2.6-1.1-4.5c0-1.9,0.4-3.5,1.1-4.5c0.7-1.1,1.7-1.6,3.2-1.6c1.5,0,2.5,0.5,3.2,1.6
		C163.1,125.3,163.5,126.8,163.5,128.7 M166.8,125.1c-0.3-1.1-0.8-2.1-1.5-2.9c-0.7-0.8-1.5-1.5-2.6-1.9c-1-0.5-2.2-0.7-3.6-0.7
		c-1.4,0-2.6,0.2-3.6,0.7c-1,0.5-1.9,1.1-2.6,1.9c-0.7,0.8-1.2,1.8-1.5,2.9c-0.3,1.1-0.5,2.3-0.5,3.6s0.2,2.5,0.5,3.6
		c0.3,1.1,0.8,2.1,1.5,2.9c0.7,0.8,1.5,1.5,2.6,1.9c1,0.5,2.2,0.7,3.6,0.7c1.4,0,2.6-0.2,3.6-0.7c1-0.5,1.9-1.1,2.6-1.9
		c0.7-0.8,1.2-1.8,1.5-2.9c0.3-1.1,0.5-2.3,0.5-3.6C167.3,127.4,167.1,126.2,166.8,125.1"/>
	<path fill="#00A1E0" d="M194.2,134.3c-0.1-0.3-0.4-0.2-0.4-0.2c-0.5,0.2-1,0.4-1.6,0.4c-0.6,0.1-1.2,0.1-1.8,0.1
		c-1.6,0-2.9-0.5-3.8-1.4c-0.9-0.9-1.4-2.5-1.4-4.6c0-1.9,0.5-3.3,1.3-4.4c0.8-1.1,2.1-1.6,3.7-1.6c1.4,0,2.4,0.2,3.5,0.5
		c0,0,0.3,0.1,0.4-0.2c0.3-0.8,0.5-1.4,0.8-2.3c0.1-0.3-0.1-0.4-0.2-0.4c-0.4-0.2-1.5-0.4-2.2-0.6c-0.7-0.1-1.6-0.2-2.5-0.2
		c-1.4,0-2.7,0.2-3.7,0.7c-1.1,0.5-2,1.1-2.7,1.9c-0.7,0.8-1.3,1.8-1.6,2.9c-0.4,1.1-0.5,2.3-0.5,3.6c0,2.8,0.7,5,2.2,6.6
		c1.5,1.6,3.7,2.5,6.6,2.5c1.7,0,3.5-0.3,4.7-0.8c0,0,0.2-0.1,0.1-0.4L194.2,134.3L194.2,134.3z"/>
	<path fill="#00A1E0" d="M200,126.9c0.2-1.1,0.5-2,0.9-2.7c0.7-1.1,1.7-1.6,3.2-1.6c1.5,0,2.5,0.6,3.2,1.6c0.5,0.7,0.7,1.6,0.7,2.7
		H200L200,126.9z M211.3,124.5c-0.3-1.1-1-2.1-1.4-2.6c-0.7-0.8-1.4-1.3-2.1-1.6c-0.9-0.4-2-0.7-3.2-0.7c-1.4,0-2.7,0.2-3.7,0.7
		c-1,0.5-1.9,1.2-2.6,2c-0.7,0.8-1.2,1.8-1.5,2.9c-0.3,1.1-0.5,2.3-0.5,3.6c0,1.3,0.2,2.5,0.5,3.6c0.3,1.1,0.9,2.1,1.6,2.9
		c0.7,0.8,1.7,1.4,2.8,1.9c1.1,0.4,2.5,0.7,4.1,0.7c3.3,0,5-0.7,5.7-1.1c0.1-0.1,0.2-0.2,0.1-0.5l-0.7-2.1c-0.1-0.3-0.4-0.2-0.4-0.2
		c-0.8,0.3-2,0.8-4.6,0.8c-1.8,0-3.1-0.5-3.9-1.3c-0.8-0.8-1.2-2-1.3-3.8l11.3,0c0,0,0.3,0,0.3-0.3C211.6,129.2,212,127,211.3,124.5
		L211.3,124.5z"/>
	<path fill="#00A1E0" d="M109.6,126.9c0.2-1.1,0.5-2,0.9-2.7c0.7-1.1,1.7-1.6,3.2-1.6c1.5,0,2.5,0.6,3.2,1.6
		c0.5,0.7,0.7,1.6,0.7,2.7H109.6L109.6,126.9z M120.8,124.5c-0.3-1.1-1-2.1-1.4-2.6c-0.7-0.8-1.4-1.3-2.1-1.6
		c-0.9-0.4-2-0.7-3.2-0.7c-1.4,0-2.7,0.2-3.7,0.7c-1,0.5-1.9,1.2-2.6,2c-0.7,0.8-1.2,1.8-1.5,2.9c-0.3,1.1-0.5,2.3-0.5,3.6
		c0,1.3,0.2,2.5,0.5,3.6c0.3,1.1,0.9,2.1,1.6,2.9c0.7,0.8,1.7,1.4,2.8,1.9c1.1,0.4,2.5,0.7,4.1,0.7c3.3,0,5-0.7,5.7-1.1
		c0.1-0.1,0.2-0.2,0.1-0.5l-0.7-2.1c-0.1-0.3-0.4-0.2-0.4-0.2c-0.8,0.3-2,0.8-4.6,0.8c-1.7,0-3-0.5-3.9-1.3c-0.8-0.8-1.2-2-1.3-3.8
		l11.3,0c0,0,0.3,0,0.3-0.3C121.2,129.2,121.5,127,120.8,124.5L120.8,124.5z"/>
	<path fill="#00A1E0" d="M85.2,134.2c-0.4-0.4-0.5-0.4-0.7-0.7c-0.2-0.3-0.3-0.8-0.3-1.5c0-1,0.3-1.7,1-2.2c0,0,1-0.8,3.3-0.8
		c1.6,0,3.1,0.3,3.1,0.3v5.1h0c0,0-1.4,0.3-3.1,0.4C86.2,135,85.2,134.2,85.2,134.2 M89.7,126.3c-0.5,0-1.1-0.1-1.8-0.1
		c-1,0-1.9,0.1-2.8,0.4c-0.9,0.2-1.7,0.6-2.4,1.1c-0.7,0.5-1.2,1.1-1.6,1.9c-0.4,0.7-0.6,1.6-0.6,2.6c0,1,0.2,1.9,0.5,2.6
		c0.3,0.7,0.8,1.3,1.5,1.8c0.6,0.5,1.4,0.8,2.3,1c0.9,0.2,1.9,0.3,3,0.3c1.2,0,2.3-0.1,3.4-0.3c1.1-0.2,2.5-0.5,2.8-0.5
		c0.4-0.1,0.8-0.2,0.8-0.2c0.3-0.1,0.3-0.4,0.3-0.4l0-10.3c0-2.3-0.6-3.9-1.8-5c-1.2-1-2.9-1.6-5.2-1.6c-0.8,0-2.2,0.1-3,0.3
		c0,0-2.5,0.5-3.5,1.3c0,0-0.2,0.1-0.1,0.4l0.8,2.1c0.1,0.3,0.4,0.2,0.4,0.2s0.1,0,0.2-0.1c2.2-1.2,4.9-1.1,4.9-1.1
		c1.2,0,2.2,0.2,2.8,0.7c0.6,0.5,0.9,1.2,0.9,2.7v0.5C90.6,126.4,89.7,126.3,89.7,126.3"/>
	<path fill="#00A1E0" d="M180.7,120.5c0.1-0.3-0.1-0.4-0.2-0.4c-0.2-0.1-1.2-0.3-1.9-0.3c-1.4-0.1-2.2,0.2-2.9,0.5
		c-0.7,0.3-1.5,0.8-1.9,1.4v-1.4c0-0.2-0.1-0.3-0.3-0.3h-2.9c-0.2,0-0.3,0.2-0.3,0.3v16.8c0,0.2,0.2,0.3,0.3,0.3h3
		c0.2,0,0.3-0.2,0.3-0.3v-8.4c0-1.1,0.1-2.3,0.4-3c0.2-0.7,0.6-1.3,1-1.7c0.4-0.4,0.9-0.7,1.4-0.8c0.5-0.2,1.1-0.2,1.5-0.2
		c0.6,0,1.2,0.2,1.2,0.2c0.2,0,0.3-0.1,0.4-0.3C180.1,122.4,180.6,120.8,180.7,120.5"/>
	<path fill="#00A1E0" d="M152.9,112.7c-0.4-0.1-0.7-0.2-1.1-0.3c-0.4-0.1-0.9-0.1-1.5-0.1c-2,0-3.7,0.6-4.8,1.7
		c-1.1,1.1-1.9,2.9-2.3,5.1l-0.1,0.8h-2.6c0,0-0.3,0-0.4,0.3l-0.4,2.4c0,0.2,0.1,0.4,0.4,0.4h2.5l-2.5,14.1
		c-0.2,1.1-0.4,2.1-0.7,2.8c-0.2,0.7-0.5,1.2-0.8,1.6c-0.3,0.4-0.6,0.6-1,0.8c-0.4,0.1-0.8,0.2-1.3,0.2c-0.3,0-0.6,0-0.9-0.1
		c-0.3-0.1-0.4-0.1-0.6-0.2c0,0-0.3-0.1-0.4,0.2c-0.1,0.2-0.8,2.1-0.8,2.3c-0.1,0.2,0,0.4,0.2,0.5c0.3,0.1,0.6,0.2,1,0.3
		c0.6,0.1,1.2,0.2,1.7,0.2c1,0,2-0.1,2.8-0.4c0.8-0.3,1.5-0.8,2.1-1.5c0.7-0.7,1.1-1.5,1.5-2.5c0.4-1,0.7-2.3,1-3.8l2.5-14.4h3.7
		c0,0,0.3,0,0.4-0.3l0.4-2.3c0-0.2-0.1-0.4-0.4-0.4h-3.6c0-0.1,0.2-1.4,0.6-2.5c0.2-0.5,0.5-0.9,0.8-1.2c0.3-0.3,0.6-0.5,0.9-0.6
		c0.4-0.1,0.8-0.2,1.2-0.2c0.3,0,0.7,0,0.9,0.1c0.3,0.1,0.5,0.1,0.6,0.1c0.4,0.1,0.4,0,0.5-0.2l0.9-2.4
		C153.2,112.8,153,112.7,152.9,112.7"/>
	<path fill="#00A1E0" d="M102.4,137.1c0,0.2-0.1,0.3-0.3,0.3h-3c-0.2,0-0.3-0.2-0.3-0.3V113c0-0.2,0.1-0.3,0.3-0.3h3
		c0.2,0,0.3,0.2,0.3,0.3V137.1L102.4,137.1z"/>
</g>
</svg>
