<?xml version="1.0" encoding="utf-8"?>
<!-- Generator: Adobe Illustrator 18.0.0, SVG Export Plug-In . SVG Version: 6.00 Build 0)  -->
<!DOCTYPE svg PUBLIC "-//W3C//DTD SVG 1.1//EN" "http://www.w3.org/Graphics/SVG/1.1/DTD/svg11.dtd">
<svg version="1.1" id="Layer_1" xmlns="http://www.w3.org/2000/svg" xmlns:xlink="http://www.w3.org/1999/xlink" x="0px" y="0px"
	 viewBox="0 0 256 256" enable-background="new 0 0 256 256" xml:space="preserve">
<circle fill="#2D94D1" stroke="#000000" stroke-miterlimit="10" cx="128.1" cy="128.6" r="127.9"/>
<g>
	<defs>
		<path id="SVGID_1_" d="M141.1,110.6c-13.5-4.8-20.9-8.5-20.9-14.3c0-5,4.3-7.8,11.8-7.8c13.9,0,28.1,5.1,37.9,9.7l5.6-32.7
			c-7.8-3.5-23.7-9.4-45.7-9.4c-15.5,0-28.5,3.9-37.8,11.1c-9.6,7.6-14.6,18.6-14.6,31.9c0,24.1,15.4,34.3,40.4,43
			c16.1,5.5,21.5,9.4,21.5,15.4c0,5.8-5.2,9.2-14.6,9.2c-11.7,0-30.9-5.5-43.5-12.6l-5.6,33.1c10.7,5.8,30.7,11.9,51.5,11.9
			c16.5,0,30.2-3.7,39.4-10.8c10.4-7.8,15.7-19.3,15.7-34.2C182.2,129.6,166.4,119.3,141.1,110.6L141.1,110.6z"/>
	</defs>
	<use xlink:href="#SVGID_1_"  overflow="visible" fill="#FFFFFF"/>
	<clipPath id="SVGID_2_">
		<use xlink:href="#SVGID_1_"  overflow="visible"/>
	</clipPath>
	<rect x="-5" y="-0.3" clip-path="url(#SVGID_2_)" fill="#FFFFFF" width="267.6" height="255.8"/>
</g>
</svg>
