<?xml version="1.0" encoding="utf-8"?>
<!-- Generator: Adobe Illustrator 19.0.0, SVG Export Plug-In . SVG Version: 6.00 Build 0)  -->
<svg version="1.1" id="Forma_1_1_" xmlns="http://www.w3.org/2000/svg" xmlns:xlink="http://www.w3.org/1999/xlink" x="0px" y="0px"
	 viewBox="0 0 612 612" style="enable-background:new 0 0 612 612;" xml:space="preserve">
<style type="text/css">
	.st0{fill-rule:evenodd;clip-rule:evenodd;}
</style>
<g id="Forma_1">
	<g>
		<path fill="#df2626" class="st0" d="M378.7,306L596.9,87.8c20.1-20.1,20.1-52.6,0-72.7C576.8-5,544.3-5,524.2,15.1L306,233.3L87.8,15.1
			C67.7-5,35.2-5,15.1,15.1C-5,35.2-5,67.7,15.1,87.8L233.3,306L15.1,524.2c-20.1,20.1-20.1,52.6,0,72.7c20.1,20.1,52.6,20.1,72.7,0
			L306,378.7l218.2,218.2c20.1,20.1,52.6,20.1,72.7,0c20.1-20.1,20.1-52.6,0-72.7L378.7,306z"/>
	</g>
</g>
</svg>
