<?xml version="1.0" encoding="utf-8"?>
<!-- Generator: Adobe Illustrator 18.0.0, SVG Export Plug-In . SVG Version: 6.00 Build 0)  -->
<!DOCTYPE svg PUBLIC "-//W3C//DTD SVG 1.1//EN" "http://www.w3.org/Graphics/SVG/1.1/DTD/svg11.dtd">
<svg version="1.1" id="Layer_1" xmlns="http://www.w3.org/2000/svg" xmlns:xlink="http://www.w3.org/1999/xlink" x="0px" y="0px"
	 viewBox="0 0 256 256" enable-background="new 0 0 256 256" xml:space="preserve">
<title>59</title>
<path fill="#0099CC" d="M0,0h256v256H0V0"/>
<g>
	<g>
		<g id="Layer_5_55_">
			<path fill="#FFFFFF" d="M226.6,122.9l-84.6-59c-3.3-2.8-6-1.6-6,2.8v24.7c0,4.4-3.6,7.9-7.9,7.9l-52.4,0.1H34.8v0.1
				c-4.3,0-7.9,3.6-7.9,7.9l0,41.6c0,4.4,3.6,7.9,7.9,7.9l92.2-0.1h0.9c4.3,0,7.9,3.6,7.9,7.9v24.7c0,4.4,2.7,5.6,6,2.8l84.6-59
				C229.9,130.3,229.9,125.7,226.6,122.9z"/>
		</g>
	</g>
</g>
</svg>
