<svg id="Layer_1" data-name="Layer 1" xmlns="http://www.w3.org/2000/svg" viewBox="0 0 122.88 122.88"><defs><style>.cls-1{fill:#3cb371;}.cls-2{fill:#fff;fill-rule:evenodd;}</style></defs><title>1</title><rect class="cls-1" width="122.88" height="122.88"/><path class="cls-2" d="M198.8,200.8h44.56a3.45,3.45,0,0,1,3.44,3.44v22.37a3.45,3.45,0,0,1-3.44,3.44h-5.18V211.89a6.39,6.39,0,0,0-6.37-6.37H195.36v-1.28a3.45,3.45,0,0,1,3.44-3.44m29.38,16.74a5.78,5.78,0,0,0-3.85-1.42c-2.39,0-4.84,1.2-4.84,3.89,0,2.47,1.74,3.26,3.35,3.76s3,0.92,3,2.3-1.29,2-2.39,2a3.77,3.77,0,0,1-2.9-1.46l-1.68,1.57a6,6,0,0,0,4.55,1.89c2.6,0,4.83-1.38,4.83-4.23,0-2.6-2.17-3.35-3.87-3.87-1.5-.47-2.53-0.82-2.53-2s1.25-1.81,2.34-1.81a3.25,3.25,0,0,1,2.43,1.14ZM208,227.64v-9.17h2c2.43,0,5.16.8,5.16,4.6,0,3.57-2.73,4.56-5.16,4.56h-2Zm-2.36,2.06h4.7c3.46,0,7.31-2,7.31-6.62,0-5-3.85-6.62-7.31-6.62h-4.7v13.24Zm-10.18-5.05,2.08-5.39,2,5.39h-4.12Zm-4.64,5.05h2.64l1.2-3h5.74l1.23,3h2.69l-5.71-13.24h-2Zm-3.54-21.25h44.56a3.45,3.45,0,0,1,3.44,3.44v22.37a3.45,3.45,0,0,1-3.44,3.44H203.9l-9.83,9.82V237.7h-6.82a3.45,3.45,0,0,1-3.44-3.44V211.89A3.45,3.45,0,0,1,187.25,208.45Zm23-14.55h44.56a3.45,3.45,0,0,1,3.44,3.44v22.37a3.45,3.45,0,0,1-3.44,3.44h-5.49V204.24a5.93,5.93,0,0,0-5.91-5.91h-36.6v-1A3.45,3.45,0,0,1,210.2,193.9Z" transform="translate(-159.74 -157.51)"/></svg>