<?xml version="1.0" encoding="utf-8"?>
<!-- Generator: Adobe Illustrator 19.0.0, SVG Export Plug-In . SVG Version: 6.00 Build 0)  -->
<svg version="1.1" id="Layer_1" xmlns="http://www.w3.org/2000/svg" xmlns:xlink="http://www.w3.org/1999/xlink" x="0px" y="0px"
	 viewBox="0 0 100 100" style="enable-background:new 0 0 100 100;" xml:space="preserve">
<style type="text/css">
	.st0{fill:#F36E21;}
</style>
<g>
	<rect x="48.5" y="30.2" class="st0" width="14.6" height="7.3"/>
	<rect x="33.9" y="44.8" class="st0" width="43.8" height="24.3"/>
	<path class="st0" d="M0,0v100h100V0H0z M88.7,30.2H70.4v7.3h11c2,0,3.7,1.6,3.7,3.7v31.7c0,2-1.6,3.7-3.7,3.7H30.3
		c-2,0-3.7-1.6-3.7-3.7V41.2c0-2,1.6-3.7,3.7-3.7h11v-7.3l-21.9,0V82c0,2-1.6,3.7-3.7,3.7S12,84,12,82V19.3c0-2,1.6-3.7,3.7-3.7
		s3.7,1.6,3.7,3.7v3.7l69.4,0c2,0,3.7,1.6,3.7,3.7C92.3,28.6,90.7,30.2,88.7,30.2z"/>
</g>
</svg>
