<?xml version="1.0" encoding="utf-8"?>
<!-- Generator: Adobe Illustrator 19.0.0, SVG Export Plug-In . SVG Version: 6.00 Build 0)  -->
<svg version="1.1" id="Forma_1_1_" xmlns="http://www.w3.org/2000/svg" xmlns:xlink="http://www.w3.org/1999/xlink" x="0px" y="0px"
	 viewBox="0 0 24 24" style="enable-background:new 0 0 24 24;" xml:space="preserve">
<style type="text/css">
	.st0{fill-rule:evenodd;clip-rule:evenodd;}
</style>
<g id="Forma_1">
	<g>
		<path class="st0" d="M12,0C5.4,0,0,5.4,0,12c0,6.6,5.4,12,12,12c6.6,0,12-5.4,12-12C24,5.4,18.6,0,12,0z M14.5,18.6
			c-0.6,0.2-1.1,0.4-1.5,0.6c-0.4,0.1-0.8,0.2-1.3,0.2c-0.7,0-1.3-0.2-1.7-0.5c-0.4-0.4-0.6-0.8-0.6-1.4c0-0.2,0-0.4,0-0.7
			c0-0.2,0.1-0.5,0.1-0.8l0.8-2.7c0.1-0.3,0.1-0.5,0.2-0.7c0-0.2,0.1-0.4,0.1-0.6c0-0.3-0.1-0.6-0.2-0.7c-0.1-0.1-0.4-0.2-0.8-0.2
			c-0.2,0-0.4,0-0.6,0.1c-0.2,0.1-0.4,0.1-0.5,0.2l0.2-0.8c0.5-0.2,1-0.4,1.5-0.5c0.5-0.1,0.9-0.2,1.3-0.2c0.7,0,1.3,0.2,1.7,0.5
			c0.4,0.4,0.6,0.8,0.6,1.4c0,0.1,0,0.3,0,0.6c0,0.3-0.1,0.6-0.2,0.8l-0.8,2.7c-0.1,0.2-0.1,0.5-0.2,0.7c0,0.3-0.1,0.5-0.1,0.6
			c0,0.4,0.1,0.6,0.2,0.7c0.2,0.1,0.4,0.2,0.8,0.2c0.2,0,0.4,0,0.6-0.1c0.2-0.1,0.4-0.1,0.5-0.2L14.5,18.6z M14.4,7.6
			C14,7.9,13.6,8,13.1,8c-0.5,0-0.9-0.2-1.3-0.5c-0.4-0.3-0.5-0.7-0.5-1.2c0-0.5,0.2-0.9,0.5-1.2c0.4-0.3,0.8-0.5,1.3-0.5
			c0.5,0,0.9,0.2,1.3,0.5c0.4,0.3,0.5,0.7,0.5,1.2C14.9,6.8,14.7,7.2,14.4,7.6z"/>
	</g>
</g>
</svg>
