<?xml version="1.0" encoding="utf-8"?>
<!-- Generator: Adobe Illustrator 18.0.0, SVG Export Plug-In . SVG Version: 6.00 Build 0)  -->
<!DOCTYPE svg PUBLIC "-//W3C//DTD SVG 1.1//EN" "http://www.w3.org/Graphics/SVG/1.1/DTD/svg11.dtd">
<svg version="1.1" id="Layer_1" xmlns="http://www.w3.org/2000/svg" xmlns:xlink="http://www.w3.org/1999/xlink" x="0px" y="0px"
	 viewBox="0 0 256 256" enable-background="new 0 0 256 256" xml:space="preserve">
<title>30</title>
<linearGradient id="SVGID_1_" gradientUnits="userSpaceOnUse" x1="-2.872184e-09" y1="256" x2="256" y2="2.875083e-09" gradientTransform="matrix(1 0 0 -1 0 256)">
	<stop  offset="0" style="stop-color:#1200FF"/>
	<stop  offset="0" style="stop-color:#0045E9"/>
	<stop  offset="0" style="stop-color:#005DE9"/>
	<stop  offset="0" style="stop-color:#00ADFF"/>
	<stop  offset="0" style="stop-color:#2799FF"/>
	<stop  offset="0" style="stop-color:#3A83FD"/>
	<stop  offset="0" style="stop-color:#3F8CFF"/>
	<stop  offset="0" style="stop-color:#00DC2D"/>
	<stop  offset="0" style="stop-color:#1966A1"/>
	<stop  offset="0.528" style="stop-color:#1966A1"/>
	<stop  offset="0.5284" style="stop-color:#00E915"/>
	<stop  offset="1" style="stop-color:#2EAE23"/>
</linearGradient>
<path opacity="0.8" fill="url(#SVGID_1_)" enable-background="new    " d="M0,0h256v256H0V0"/>
<g>
	<path fill="#FFFFFF" d="M218.2,201.7c-3.4,0-6.6,1-9.2,2.8l-55.4-55.4c4.8-5.7,7.6-13.1,7.6-21.1s-2.9-15.4-7.6-21.1l38.2-38.2
		c4.5,3.6,10.2,5.7,16.4,5.7c14.6,0,26.5-11.9,26.5-26.5s-11.9-26.5-26.5-26.5s-26.5,11.9-26.5,26.5c0,6.2,2.1,11.9,5.7,16.4
		l-38.2,38.2c-5.7-4.8-13.1-7.6-21.1-7.6s-15.4,2.9-21.1,7.6L81.5,77.1c1.8-2.6,2.8-5.8,2.8-9.2c0-9.1-7.4-16.5-16.5-16.5
		s-16.5,7.4-16.5,16.5s7.4,16.5,16.5,16.5c3.4,0,6.6-1,9.2-2.8l25.3,25.3c-4.8,5.7-7.6,13.1-7.6,21.1c0,3.9,0.7,7.6,1.9,11l-39.1,18
		c-3.6-5.3-9.6-8.8-16.5-8.8c-10.9,0-19.8,8.9-19.8,19.8c0,10.9,8.9,19.8,19.8,19.8s20-8.8,20-19.7c0-1.9-0.3-3.7-0.7-5.4l39.1-18
		c5.7,9.8,16.4,16.5,28.5,16.5l2.2,24.5c-6.9,2-11.9,8.3-11.9,15.8c0,9.1,7.4,16.5,16.5,16.5c9.1,0,16.5-7.4,16.5-16.5
		c0-8.5-6.5-15.6-14.8-16.4l-2.2-24.5c5.6-1.1,10.8-3.5,15-7l55.4,55.4c-1.8,2.6-2.8,5.8-2.8,9.2c0,9.1,7.4,16.5,16.5,16.5
		s16.5-7.4,16.5-16.5C234.7,209.1,227.3,201.7,218.2,201.7z M41.2,181.6c-7.5,0-13.6-6.1-13.6-13.6s6.1-13.6,13.6-13.6
		c5.4,0,10,3.1,12.2,7.7c0,0.1,0.1,0.1,0.1,0.2c0,0,0,0.1,0.1,0.1c0.8,1.7,1.2,3.6,1.2,5.6C54.7,175.6,48.6,181.6,41.2,181.6z
		 M208.2,27.6c11.2,0,20.2,9.1,20.2,20.2S219.3,68,208.2,68C197,68,188,58.9,188,47.8S197,27.6,208.2,27.6z M57.7,67.9
		c0-5.6,4.6-10.2,10.2-10.2s10.2,4.6,10.2,10.2s-4.6,10.2-10.2,10.2S57.7,73.5,57.7,67.9z M101.1,128c0-14.8,12.1-26.9,26.9-26.9
		s26.9,12.1,26.9,26.9s-12.1,26.9-26.9,26.9S101.1,142.8,101.1,128z M144.9,201.5c0,5.6-4.6,10.2-10.2,10.2s-10.2-4.6-10.2-10.2
		s4.6-10.2,10.2-10.2S144.9,195.8,144.9,201.5z M218.2,228.4c-5.6,0-10.2-4.6-10.2-10.2s4.6-10.2,10.2-10.2s10.2,4.6,10.2,10.2
		S223.8,228.4,218.2,228.4z"/>
	<path fill="#FFFFFF" d="M141.6,128c0,1.7,1.4,3.1,3.1,3.1s3.1-1.4,3.1-3.1c0-10.9-8.9-19.8-19.8-19.8c-1.7,0-3.1,1.4-3.1,3.1
		s1.4,3.1,3.1,3.1C135.5,114.4,141.6,120.5,141.6,128z"/>
	<path fill="#FFFFFF" d="M208.2,41c3.8,0,6.9,3.1,6.9,6.9c0,1.7,1.4,3.1,3.1,3.1c1.7,0,3.1-1.4,3.1-3.1c0-7.3-5.9-13.2-13.2-13.2
		c-1.7,0-3.1,1.4-3.1,3.1C205,39.6,206.4,41,208.2,41z"/>
	<path fill="#FFFFFF" d="M41.2,161.6c-1.7,0-3.1,1.4-3.1,3.1c0,1.7,1.4,3.1,3.1,3.1c0.1,0,0.2,0.1,0.2,0.2c0,1.7,1.4,3.1,3.1,3.1
		c1.7,0,3.1-1.4,3.1-3.1C47.6,164.5,44.7,161.6,41.2,161.6z"/>
</g>
</svg>
