<svg id="Layer_1" data-name="Layer 1" xmlns="http://www.w3.org/2000/svg" viewBox="0 0 122.88 122.88"><defs><style>.cls-1{fill:#ed0000;}.cls-1,.cls-2{fill-rule:evenodd;}.cls-2{fill:#fff;}</style></defs><title>14</title><path class="cls-1" d="M667.9,510.26H790.78V633.14H667.9V510.26" transform="translate(-667.9 -510.26)"/><path class="cls-2" d="M707.16,565.69h53.29v3.1H707.16v-3.1Zm0,21.25h24.61v2.52H707.16v-2.52Zm0,6.27h24.61v2.52H707.16V593.2Zm0-18.8h24.61v2.52H707.16v-2.52Zm0,6.27h24.61v2.52H707.16v-2.52Zm29.26-6.27h24v21.31h-24V574.41Zm-20.54-18.6h37.2v6.78h-37.2V555.8ZM692,541.6h66.79v4H695.94v48.1a2.48,2.48,0,0,0,5,0V550.53h65.81v51.26H698.53a6.58,6.58,0,0,1-6.56-6.56V541.6Z" transform="translate(-667.9 -510.26)"/></svg>