<svg id="Layer_1" data-name="Layer 1" xmlns="http://www.w3.org/2000/svg" viewBox="0 0 122.88 122.88"><defs><style>.cls-1{fill:#9932cc;}.cls-1,.cls-2{fill-rule:evenodd;}.cls-2{fill:#fff;}</style></defs><title>7</title><path class="cls-1" d="M329.13,333.88H452V456.76H329.13V333.88" transform="translate(-329.13 -333.88)"/><path class="cls-2" d="M371,421.31l10.78,0.45,0,0.09a5.71,5.71,0,1,1-10.81-.54m50.63-52a3.21,3.21,0,0,0-2.14-.79c-1.33,0-2.69.66-2.69,2.16a2.13,2.13,0,0,0,1.86,2.09c0.92,0.29,1.69.51,1.69,1.28a1.17,1.17,0,0,1-1.33,1.09,2.09,2.09,0,0,1-1.61-.81l-0.93.87a3.35,3.35,0,0,0,2.52,1c1.44,0,2.68-.77,2.68-2.35s-1.2-1.86-2.15-2.15-1.4-.46-1.4-1.13a1.14,1.14,0,0,1,1.3-1,1.8,1.8,0,0,1,1.35.63Zm-11.22,5.61v-5.09h1.09c1.35,0,2.87.45,2.87,2.55s-1.52,2.53-2.87,2.53h-1.09Zm-1.31,1.14h2.61c1.92,0,4.06-1.1,4.06-3.68,0-2.76-2.14-3.68-4.06-3.68h-2.61v7.35Zm-5.65-2.8,1.15-3,1.13,3h-2.28Zm-2.57,2.8h1.46l0.66-1.68h3.19l0.69,1.68h1.5l-3.17-7.35H404Zm6.57,9.26-3.89,9.31,16-10.5h0c5.72-2.21,9.62-6.64,9.62-11.73,0-7.31-8-13.24-17.92-13.24s-17.93,5.93-17.93,13.24C393.32,378.72,399.36,384,407.41,385.32Zm-17.47-1.93h0a4.66,4.66,0,0,1,5.74,3.21l9,32.05a4.66,4.66,0,0,1-3.21,5.74h0a4.67,4.67,0,0,1-5.21-2l-12-.5a8.1,8.1,0,1,1-15.75-.66l-4.8-.2a4,4,0,0,1-7.79,1.36l-3.79-13.43a4,4,0,0,1,7.35-2.91l4.05-2.72,23-15.47A4.67,4.67,0,0,1,389.94,383.39Z" transform="translate(-329.13 -333.88)"/></svg>