<?xml version="1.0" encoding="utf-8"?>
<!-- Generator: Adobe Illustrator 19.0.0, SVG Export Plug-In . SVG Version: 6.00 Build 0)  -->
<svg version="1.1" id="Layer_1" xmlns="http://www.w3.org/2000/svg" xmlns:xlink="http://www.w3.org/1999/xlink" x="0px" y="0px"
	 viewBox="0 0 100 100" style="enable-background:new 0 0 100 100;" xml:space="preserve">
<style type="text/css">
	.st0{fill:#9CC93C;}
</style>
<path class="st0" d="M0,0v100h100V0H0z M44.7,48.6c0,1-0.2,1.9-0.5,2.8l13.2,6.4c1.5-1.7,3.7-2.7,6.2-2.7c4.6,0,8.3,3.7,8.3,8.3
	c0,4.6-3.7,8.3-8.3,8.3c-4.6,0-8.3-3.7-8.3-8.3c0-0.4,0-0.9,0.1-1.3l-14.1-6.8c-1.4,1-3.1,1.6-4.9,1.6c-4.6,0-8.3-3.7-8.3-8.3
	c0-4.6,3.7-8.3,8.3-8.3c1.8,0,3.5,0.6,4.9,1.6l14.1-6.8c-0.1-0.4-0.1-0.9-0.1-1.3c0-4.6,3.7-8.3,8.3-8.3c4.6,0,8.3,3.7,8.3,8.3
	c0,4.6-3.7,8.3-8.3,8.3c-2.4,0-4.6-1.1-6.2-2.7l-13.2,6.4C44.5,46.7,44.7,47.7,44.7,48.6z"/>
</svg>
