<?xml version="1.0" encoding="utf-8"?>
<!-- Generator: Adobe Illustrator 18.0.0, SVG Export Plug-In . SVG Version: 6.00 Build 0)  -->
<!DOCTYPE svg PUBLIC "-//W3C//DTD SVG 1.1//EN" "http://www.w3.org/Graphics/SVG/1.1/DTD/svg11.dtd">
<svg version="1.1" id="Layer_1" xmlns="http://www.w3.org/2000/svg" xmlns:xlink="http://www.w3.org/1999/xlink" x="0px" y="0px"
	 viewBox="0 0 256 256" enable-background="new 0 0 256 256" xml:space="preserve">
<title>59</title>
<path fill="#0099CC" d="M0,0h256v256H0V0"/>
<g>
	<g id="keyboard-alt">
		<path fill="#FFFFFF" d="M385.9-102.1c6.1,0,11.5-5.4,11.5-11.5c0-6.1-5.4-11.5-11.5-11.5s-11.5,5.4-11.5,11.5
			C374.4-107.4,379.8-102.1,385.9-102.1z M332.3-102.1c6.1,0,11.5-5.4,11.5-11.5c0-6.1-5.4-11.5-11.5-11.5s-11.5,5.4-11.5,11.5
			C320.8-107.4,326.1-102.1,332.3-102.1z M359.1-48.4c19.9,0,36.8-13,43.7-30.7h-87.4C322.3-61.5,339.2-48.4,359.1-48.4z M359.1-171
			c-42.1,0-76.6,34.5-76.6,76.6s34.5,76.6,76.6,76.6s76.6-34.5,76.6-76.6S401.2-171,359.1-171z M359.1-33.1
			c-33.7,0-61.3-27.6-61.3-61.3s27.6-61.3,61.3-61.3s61.3,27.6,61.3,61.3S392.8-33.1,359.1-33.1z"/>
	</g>
</g>
<g>
	<g>
		<g>
			<path fill="#FFFFFF" d="M-160.5-212.4c6.1,0,11.1-4.9,11.1-11.1c0-6.1-4.9-11.1-11.1-11.1s-11.1,4.9-11.1,11.1
				C-171.6-217.4-166.6-212.4-160.5-212.4z"/>
			<path fill="#FFFFFF" d="M-108.9-212.4c6.1,0,11.1-4.9,11.1-11.1c0-6.1-4.9-11.1-11.1-11.1s-11.1,4.9-11.1,11.1
				C-120-217.4-115-212.4-108.9-212.4z"/>
			<path fill="#FFFFFF" d="M-134.7-175.6c-10.9,0-20.3-6-25.4-14.7h-12.3c5.9,15.1,20.6,25.8,37.7,25.8s31.8-10.7,37.7-25.8h-12.3
				C-114.4-181.5-123.8-175.6-134.7-175.6z"/>
			<path fill="#FFFFFF" d="M-134.8-278.8c-40.7,0-73.6,33-73.6,73.7s33,73.7,73.6,73.7c40.8,0,73.8-33,73.8-73.7
				S-94-278.8-134.8-278.8z M-134.7-146.1c-32.6,0-59-26.4-59-59s26.4-59,59-59s59,26.4,59,59S-102.1-146.1-134.7-146.1z"/>
		</g>
	</g>
</g>
<g>
	<path fill="#FFFFFF" d="M101.6-185.5c0-6.1,4.9-11,11-11c6.1,0,11,4.9,11,11c0,1.7-1.4,3.2-3.2,3.2s-3.2-1.4-3.2-3.2
		c0-2.6-2.1-4.7-4.7-4.7c-2.6,0-4.7,2.1-4.7,4.7c0,1.7-1.4,3.2-3.2,3.2S101.6-183.8,101.6-185.5z M45.5-185.8c0-6.1,4.9-11,11-11
		c6.1,0,11,4.9,11,11c0,1.7-1.4,3.2-3.2,3.2c-1.7,0-3.2-1.4-3.2-3.2c0-2.6-2.1-4.7-4.7-4.7c-2.6,0-4.7,2.1-4.7,4.7
		c0,1.7-1.4,3.2-3.2,3.2C47-182.7,45.5-184.1,45.5-185.8z"/>
</g>
<g>
	<g>
		<g>
			<path fill="#FFFFFF" d="M83.3-141.5c-10.9,0-20.3-6-25.4-14.7H45.5c5.9,15.1,20.6,25.8,37.7,25.8s31.8-10.7,37.7-25.8h-12.3
				C103.6-147.5,94.2-141.5,83.3-141.5z"/>
			<path fill="#FFFFFF" d="M83.2-244.7c-40.7,0-73.6,33-73.6,73.7s33,73.7,73.6,73.7c40.8,0,73.8-33,73.8-73.7S124-244.7,83.2-244.7
				z M83.3-112.1c-32.6,0-59-26.4-59-59s26.4-59,59-59s59,26.4,59,59S115.9-112.1,83.3-112.1z"/>
		</g>
	</g>
</g>
<g>
	<path fill="#FFFFFF" d="M-232.7,191.4c39.9,0,72.2-32.3,72.2-72.2S-192.8,47-232.7,47s-72.2,32.3-72.2,72.2
		S-272.5,191.4-232.7,191.4z M-232.7,60.5c32.4,0,58.6,26.3,58.6,58.6s-26.3,58.6-58.6,58.6s-58.6-26.3-58.6-58.6
		S-265.1,60.5-232.7,60.5z M-232.7,131.4c16.3,0,31.9-4.3,45.1-12c-2.1,25.2-21.6,44.9-45.1,44.9c-23.5,0-43.1-19.7-45.1-44.9
		C-264.6,127.1-249,131.4-232.7,131.4z M-268.8,96.6c0,7.5,4,13.5,9,13.5c5,0,9-6.1,9-13.5c0-7.5-4-13.5-9-13.5
		C-264.7,83.1-268.8,89.2-268.8,96.6z M-214.6,96.6c0,7.5,4,13.5,9,13.5s9-6.1,9-13.5c0-7.5-4-13.5-9-13.5S-214.6,89.2-214.6,96.6z"
		/>
</g>
<g>
	<path fill="#FFFFFF" d="M160.6,98.7l3,7.2l7.7,0.7c0.5,0,0.8,0.7,0.3,1.1l-5.9,5.1l1.8,7.6c0.1,0.5-0.4,0.9-0.9,0.7l-6.7-4l-6.7,4
		c-0.5,0.3-1-0.1-0.9-0.7l1.8-7.6l-5.9-5.1c-0.4-0.4-0.2-1,0.3-1.1l7.7-0.7l3-7.2C159.7,98.2,160.4,98.2,160.6,98.7L160.6,98.7z"/>
</g>
<g>
	<g id="keyboard-alt_1_">
		<path fill="#FFFFFF" d="M128,174c19.9,0,36.8-13,43.7-30.7H84.3C91.2,160.9,108.1,174,128,174z M128,51.4
			c-42.1,0-76.6,34.5-76.6,76.6s34.5,76.6,76.6,76.6s76.6-34.5,76.6-76.6S170.1,51.4,128,51.4z M128,189.3
			c-33.7,0-61.3-27.6-61.3-61.3S94.3,66.7,128,66.7s61.3,27.6,61.3,61.3S161.7,189.3,128,189.3z"/>
	</g>
</g>
<g>
	<path fill="#FFFFFF" d="M98.1,98.7l3,7.2l7.7,0.7c0.5,0,0.8,0.7,0.3,1.1l-5.9,5.1l1.8,7.6c0.1,0.5-0.4,0.9-0.9,0.7l-6.7-4l-6.7,4
		c-0.5,0.3-1-0.1-0.9-0.7l1.8-7.6l-5.9-5.1c-0.4-0.4-0.2-1,0.3-1.1l7.7-0.7l3-7.2C97.2,98.2,97.9,98.2,98.1,98.7L98.1,98.7z"/>
</g>
</svg>
