<svg id="Layer_1" data-name="Layer 1" xmlns="http://www.w3.org/2000/svg" viewBox="0 0 120 120"><defs><style>.cls-1,.cls-5{fill:#fff;}.cls-1,.cls-2,.cls-5,.cls-7{stroke:#252e4a;}.cls-1,.cls-4,.cls-7{stroke-linecap:round;stroke-linejoin:round;}.cls-1,.cls-2,.cls-4,.cls-5,.cls-7{stroke-width:3px;}.cls-2,.cls-6,.cls-7{fill:#579bfc;}.cls-2,.cls-5{stroke-miterlimit:10;}.cls-3{fill:#252e4a;}.cls-4{fill:none;stroke:#fff;}</style></defs><title>4all devices (any)</title><rect class="cls-1" x="10" y="10" width="100" height="79" rx="4.11" ry="4.11"/><rect class="cls-2" x="16" y="16.32" width="88" height="55.62" rx="2.05" ry="2.05"/><circle class="cls-3" cx="60" cy="80" r="4"/><line class="cls-4" x1="82" y1="65.58" x2="96.58" y2="51"/><line class="cls-4" x1="89.47" y1="67" x2="98" y2="58.47"/><rect class="cls-5" x="45" y="89" width="30" height="16"/><path class="cls-1" d="M40.75,105H79.25A4.75,4.75,0,0,1,84,109.75V110a0,0,0,0,1,0,0H36a0,0,0,0,1,0,0v-.25A4.75,4.75,0,0,1,40.75,105Z"/><rect class="cls-1" x="16" y="47" width="36.54" height="63" rx="2.71" ry="2.71"/><path class="cls-6" d="M19.78,50.15a.63.63,0,0,0-.63.63v55.44a.63.63,0,0,0,.63.63h29a.63.63,0,0,0,.63-.63V50.78a.63.63,0,0,0-.63-.63h-5a.63.63,0,0,0-.63.63h0a2.84,2.84,0,0,1-2.84,2.84h-12a2.84,2.84,0,0,1-2.84-2.84h0a.63.63,0,0,0-.63-.63Z"/><line class="cls-7" x1="30.49" y1="50.78" x2="36.16" y2="50.78"/><line class="cls-7" x1="38.68" y1="50.78" x2="38.68" y2="50.78"/><line class="cls-4" x1="34.27" y1="102.06" x2="44.6" y2="91.73"/><line class="cls-4" x1="39.56" y1="103.07" x2="45.61" y2="97.02"/></svg>