<svg id="Layer_1" data-name="Layer 1" xmlns="http://www.w3.org/2000/svg" viewBox="0 0 120 120"><defs><style>.cls-1{fill:#b2bbd5;}.cls-2{fill:#fff;}.cls-3{fill:#579bfc;}.cls-4{fill:#e6e8f0;}.cls-5{fill:#2fcf5f;}.cls-6,.cls-7{fill:none;stroke:#252e4a;stroke-width:3px;}.cls-6{stroke-linecap:round;stroke-linejoin:round;}.cls-7{stroke-miterlimit:10;}</style></defs><title>Artboard 62</title><polygon class="cls-1" points="100.75 15.65 110 43.15 89.87 49.9 88.09 44.61 82.4 27.68 80.62 22.4 100.75 15.65"/><path class="cls-2" d="M97,96.05V79.31H90.17V96.05Zm-27.83,0h7.31l.65,1.28A2.5,2.5,0,0,0,79.48,99a2.55,2.55,0,0,0,2.48-3h4V82.18H79V90L73.54,79.27,66.63,65.68A25.12,25.12,0,1,1,63,69.38l8.17,16.15h-2Z"/><rect class="cls-3" x="90.17" y="79.31" width="6.83" height="16.74"/><path class="cls-4" d="M82.4,27.68l5.69,16.93-21.5,7.21a7.61,7.61,0,0,0-14,4.15,4.53,4.53,0,0,0,0,.52L35.11,62.37l-1.42-4.23-2.85-8.47-1.42-4.23Z"/><path class="cls-3" d="M86,82.18V96.05H82a2.46,2.46,0,0,0-.11-.45L79,90V82.18Z"/><path class="cls-3" d="M81.85,95.6a2.46,2.46,0,0,1,.11.45H79V90Z"/><path class="cls-2" d="M77.13,97.33l-.65-1.28H82a2.55,2.55,0,0,1-2.48,3,2.5,2.5,0,0,1-2.35-1.67Z"/><polygon class="cls-2" points="75 93.12 76.48 96.05 75 96.05 75 93.12"/><path class="cls-2" d="M75,85.53H71.16L63,69.38a24,24,0,0,1,3.64-3.7l6.91,13.59L79,90v6H76.48L75,93.12Z"/><polygon class="cls-3" points="75 93.12 75 96.05 69.17 96.05 69.17 85.53 71.16 85.53 75 93.12"/><polygon class="cls-3" points="75 85.53 75 93.12 71.16 85.53 75 85.53"/><path class="cls-2" d="M64.78,62l1.85,3.64A24,24,0,0,0,63,69.38l-3-5.83h.18A7.53,7.53,0,0,0,64.78,62Z"/><path class="cls-5" d="M66.59,51.82l-14,4.67a4.53,4.53,0,0,1,0-.52,7.61,7.61,0,0,1,14-4.15Z"/><path class="cls-5" d="M62.32,57.21,64.78,62a7.53,7.53,0,0,1-4.56,1.52H60l-.41-.81,1.75-3.46-1.75-.82Z"/><polygon class="cls-5" points="61.38 59.28 59.63 62.74 57.88 59.28 59.63 58.46 61.38 59.28"/><path class="cls-2" d="M59.63,62.74l.41.81a5.16,5.16,0,0,1-.79-.06Z"/><path class="cls-5" d="M59.63,58.46l-1.75.82,1.75,3.46-.38.75a7.5,7.5,0,0,1-4.41-2.15l2.1-4.13Z"/><path class="cls-2" d="M59.25,63.49,42.13,97.33A2.5,2.5,0,0,1,39.77,99a2.55,2.55,0,0,1-2.36-3.4L54.84,61.34A7.5,7.5,0,0,0,59.25,63.49Z"/><path class="cls-5" d="M56.94,57.21l-2.1,4.13a7.55,7.55,0,0,1-2.2-4.85l14-4.67A7.48,7.48,0,0,1,67.83,56a7.57,7.57,0,0,1-3,6.07l-2.46-4.83-2.69,1.25Z"/><polygon class="cls-1" points="30.84 49.67 33.69 58.14 19.92 62.75 17.07 54.29 30.84 49.67"/><polygon class="cls-4" points="20.63 64.87 14.27 67 10 54.31 16.36 52.18 17.07 54.29 19.92 62.75 20.63 64.87"/><line class="cls-6" x1="17.07" y1="54.29" x2="30.84" y2="49.67"/><line class="cls-6" x1="33.69" y1="58.14" x2="19.92" y2="62.75"/><polyline class="cls-6" points="52.64 56.49 35.11 62.37 33.69 58.14 30.84 49.67 29.42 45.44 82.4 27.68"/><line class="cls-6" x1="88.09" y1="44.61" x2="66.59" y2="51.82"/><polygon class="cls-6" points="82.4 27.68 80.62 22.4 100.75 15.65 110 43.15 89.87 49.9 88.09 44.61 82.4 27.68"/><polygon class="cls-6" points="19.92 62.75 20.63 64.87 14.27 67 10 54.31 16.36 52.18 17.07 54.29 19.92 62.75"/><path class="cls-7" d="M59.25,63.49,42.13,97.33A2.5,2.5,0,0,1,39.77,99a2.55,2.55,0,0,1-2.36-3.4L54.84,61.34"/><line class="cls-7" x1="60.04" y1="63.55" x2="62.99" y2="69.38"/><line class="cls-7" x1="66.63" y1="65.68" x2="64.78" y2="62.04"/><path class="cls-7" d="M66.59,51.82A7.48,7.48,0,0,1,67.83,56a7.62,7.62,0,0,1-7.61,7.59H60a5.16,5.16,0,0,1-.79-.06,7.55,7.55,0,0,1-6.61-7,4.53,4.53,0,0,1,0-.52,7.61,7.61,0,0,1,14-4.15Z"/><path class="cls-7" d="M66.63,65.68A25.12,25.12,0,1,1,63,69.38,24,24,0,0,1,66.63,65.68Z"/><line class="cls-6" x1="97" y1="96.05" x2="99" y2="96.05"/><line class="cls-6" x1="86" y1="96.05" x2="90.17" y2="96.05"/><polyline class="cls-6" points="75 96.05 76.48 96.05 79 96.05"/><line class="cls-6" x1="67.43" y1="96.05" x2="69.17" y2="96.05"/><polygon class="cls-6" points="86 96.05 86 82.18 79 82.18 79 90 79 96.05 81.96 96.05 86 96.05"/><rect class="cls-6" x="90.17" y="79.31" width="6.83" height="16.74"/><polygon class="cls-6" points="75 93.12 75 85.53 71.16 85.53 69.17 85.53 69.17 96.05 75 96.05 75 93.12"/><polyline class="cls-6" points="90.65 68.69 94 69.65 73.54 79.27 72 80"/><line class="cls-6" x1="93.04" y1="73" x2="94" y2="69.65"/></svg>