<svg id="Layer_1" data-name="Layer 1" xmlns="http://www.w3.org/2000/svg" viewBox="0 0 120 120"><defs><style>.cls-1{fill:#fff;}.cls-2{fill:#e6e8f0;}.cls-3{fill:#b2bbd5;}.cls-4{fill:#579bfc;}.cls-5{fill:#2fcf5f;}.cls-6,.cls-7{fill:none;stroke:#252e4a;stroke-width:3px;}.cls-6{stroke-miterlimit:10;}.cls-7{stroke-linecap:round;stroke-linejoin:round;}</style></defs><title>Artboard 60</title><path class="cls-1" d="M82.5,60a25,25,0,0,1,0,50l-.89,0a4,4,0,0,0,3.26-5.54L83,100c7.87,0,14.22-1.72,14.22-3.83V88.52a.34.34,0,0,0,0-.1.41.41,0,0,0,0-.11V80.65a.34.34,0,0,0,0-.1.41.41,0,0,0,0-.11V72.79c0-2.12-6.43-3.83-14.36-3.83-5.16,0-9.68.73-12.21,1.82L68,64.62A24.82,24.82,0,0,1,82.5,60Z"/><path class="cls-2" d="M97.21,88.52v7.65c0,2.11-6.35,3.81-14.22,3.83l-3.27-7.74c1,.06,2,.09,3.13.09C90.78,92.35,97.21,90.63,97.21,88.52Z"/><path class="cls-2" d="M97.21,80.65v7.66a.41.41,0,0,1,0,.11c-.19-2.07-6.54-3.73-14.35-3.73a49,49,0,0,0-6.17.37l-.43-1a49.32,49.32,0,0,0,6.6.43C90.78,84.48,97.21,82.77,97.21,80.65Z"/><path class="cls-2" d="M97.21,72.79v7.65a.41.41,0,0,1,0,.11c-.19-2.06-6.54-3.73-14.35-3.73a43.19,43.19,0,0,0-9.28.91l-.95-2.26a41.24,41.24,0,0,0,10.23,1.14C90.78,76.61,97.21,74.9,97.21,72.79Z"/><path class="cls-1" d="M97.2,80.55a.34.34,0,0,1,0,.1h0A.38.38,0,0,0,97.2,80.55Z"/><path class="cls-1" d="M97.2,88.42a.34.34,0,0,1,0,.1h0A.38.38,0,0,0,97.2,88.42Z"/><path class="cls-3" d="M97.21,72.79H71.49l-.85-2c2.53-1.09,7-1.82,12.21-1.82C90.78,69,97.21,70.67,97.21,72.79Z"/><path class="cls-3" d="M71.49,72.79H97.21c0,2.11-6.43,3.82-14.36,3.82a41.24,41.24,0,0,1-10.23-1.14Z"/><path class="cls-1" d="M97.19,80.65h0c0,2.12-6.43,3.83-14.36,3.83a49.32,49.32,0,0,1-6.6-.43l-.1-.22a48.92,48.92,0,0,0,6.7.44C90.52,84.27,96.79,82.66,97.19,80.65Z"/><path class="cls-1" d="M97.19,88.52h0c0,2.11-6.43,3.83-14.36,3.83-1.08,0-2.12,0-3.13-.09l-.1-.23c1,.07,2.12.1,3.23.1C90.52,92.13,96.79,90.53,97.19,88.52Z"/><path class="cls-2" d="M97.2,80.55a.38.38,0,0,1,0,.1H74.81l-1.24-2.92a43.19,43.19,0,0,1,9.28-.91C90.66,76.82,97,78.49,97.2,80.55Z"/><path class="cls-2" d="M97.2,88.42a.38.38,0,0,1,0,.1h-19l-1.46-3.46a49,49,0,0,1,6.17-.37C90.66,84.69,97,86.35,97.2,88.42Z"/><path class="cls-2" d="M74.81,80.65H97.19c-.4,2-6.67,3.62-14.34,3.62a48.92,48.92,0,0,1-6.7-.44Z"/><path class="cls-2" d="M78.14,88.52h19c-.4,2-6.67,3.61-14.34,3.61-1.11,0-2.19,0-3.23-.1Z"/><circle class="cls-4" cx="92.5" cy="46" r="3"/><polygon class="cls-1" points="92.5 49 92.5 54 83.5 54 92.5 49"/><path class="cls-1" d="M84.87,104.44A4,4,0,0,1,81.61,110a24.83,24.83,0,0,1-16.45-7h8.42a2,2,0,0,0,1.84-2.78l-.35-.83a47.35,47.35,0,0,0,7.78.61H83Z"/><circle class="cls-4" cx="82.5" cy="39" r="3"/><path class="cls-2" d="M79.72,92.26,83,100h-.14a47.35,47.35,0,0,1-7.78-.61l-3.62-8.55A31.92,31.92,0,0,0,79.72,92.26Z"/><path class="cls-1" d="M81.61,110l-.42,0H16.51a4,4,0,0,1-3.69-5.56L35.85,50V19h26V50L68,64.62A24.88,24.88,0,0,0,58.8,77.05c-7.1.06-12.63,3-17.95,3-7,0-9.18-2-9.18-2l-9.4,22.22A2,2,0,0,0,24.11,103H65.16A24.83,24.83,0,0,0,81.61,110ZM58.85,64a3,3,0,1,0-3,3A3,3,0,0,0,58.85,64Zm-11-14a3,3,0,1,0-3,3A3,3,0,0,0,47.85,50Zm-4,20a3,3,0,1,0-3,3A3,3,0,0,0,43.85,70Z"/><path class="cls-1" d="M79.62,92l.1.23a31.92,31.92,0,0,1-8.27-1.42l-.11-.26A31.14,31.14,0,0,0,79.62,92Z"/><path class="cls-2" d="M78.14,88.52,79.62,92a31.14,31.14,0,0,1-8.28-1.45l-.87-2.06Z"/><path class="cls-2" d="M76.68,85.06l1.46,3.46H70.47l-.67-1.59A19.67,19.67,0,0,1,76.68,85.06Z"/><path class="cls-2" d="M76.25,84.05l.43,1a19.67,19.67,0,0,0-6.88,1.87l-1.3-3.07V80.65C68.5,82.13,71.65,83.42,76.25,84.05Z"/><path class="cls-1" d="M76.15,83.83l.1.22c-4.6-.63-7.75-1.92-7.75-3.4h0C68.8,82,71.82,83.21,76.15,83.83Z"/><path class="cls-2" d="M74.81,80.65l1.34,3.18c-4.33-.62-7.35-1.8-7.63-3.18Z"/><path class="cls-1" d="M75.42,100.22A2,2,0,0,1,73.58,103H65.16A24.89,24.89,0,0,1,57.5,85a24.63,24.63,0,0,1,1.3-8A25.45,25.45,0,0,1,66,78l2.48,5.86v4.45a.41.41,0,0,0,0,.11.34.34,0,0,0,0,.1v7.65c0,1.35,2.62,2.54,6.57,3.22Z"/><path class="cls-2" d="M71.45,90.84l3.62,8.55c-3.95-.68-6.57-1.87-6.57-3.22V88.52C68.5,89.4,69.6,90.2,71.45,90.84Z"/><circle class="cls-4" cx="72.5" cy="34" r="3"/><path class="cls-2" d="M73.57,77.73l1.24,2.92H68.52a.38.38,0,0,1,0-.1C68.61,79.42,70.56,78.41,73.57,77.73Z"/><path class="cls-2" d="M72.62,75.47l.95,2.26c-3,.68-5,1.69-5.06,2.82a.41.41,0,0,1,0-.11V72.79C68.5,73.83,70.07,74.78,72.62,75.47Z"/><path class="cls-3" d="M71.49,72.79l1.13,2.68c-2.55-.69-4.12-1.64-4.12-2.68Z"/><path class="cls-3" d="M71.49,72.79h-3c0-.74.78-1.43,2.14-2Z"/><path class="cls-1" d="M71.34,90.58l.11.26c-1.85-.64-3-1.44-3-2.32h0C68.68,89.29,69.7,90,71.34,90.58Z"/><path class="cls-1" d="M70.47,88.52l.87,2.06c-1.64-.58-2.66-1.29-2.82-2.06Z"/><path class="cls-1" d="M68,64.62l2.61,6.16c-1.36.58-2.14,1.27-2.14,2v7.65a.41.41,0,0,0,0,.11.34.34,0,0,0,0,.1v3.21L66,78a25.45,25.45,0,0,0-7.22-1A24.88,24.88,0,0,1,68,64.62Z"/><path class="cls-2" d="M69.8,86.93l.67,1.59h-2a.38.38,0,0,1,0-.1C68.56,87.89,69,87.38,69.8,86.93Z"/><path class="cls-1" d="M68.5,83.86l1.3,3.07c-.79.45-1.24,1-1.29,1.49a.41.41,0,0,1,0-.11Z"/><path class="cls-1" d="M68.51,80.55a.38.38,0,0,0,0,.1h0A.34.34,0,0,1,68.51,80.55Z"/><path class="cls-1" d="M68.51,88.42a.38.38,0,0,0,0,.1h0A.34.34,0,0,1,68.51,88.42Z"/><path class="cls-1" d="M63,10a4.5,4.5,0,0,1,0,9H35a4.5,4.5,0,0,1,0-9Z"/><path class="cls-5" d="M65.16,103h-41a2,2,0,0,1-1.84-2.78L31.67,78s2.18,2,9.18,2c5.32,0,10.85-2.89,17.95-3a24.63,24.63,0,0,0-1.3,8A24.89,24.89,0,0,0,65.16,103Z"/><circle class="cls-5" cx="55.85" cy="64" r="3"/><circle class="cls-5" cx="44.85" cy="50" r="3"/><circle class="cls-5" cx="40.85" cy="70" r="3"/><path class="cls-6" d="M35.85,19H35a4.5,4.5,0,0,1,0-9H63a4.5,4.5,0,0,1,0,9H61.85"/><path class="cls-6" d="M68,64.62,61.85,50V19h-26V50l-23,54.44A4,4,0,0,0,16.51,110H81.19l.42,0"/><path class="cls-7" d="M65.16,103h-41a2,2,0,0,1-1.84-2.78L31.67,78s2.18,2,9.18,2c5.32,0,10.85-2.89,17.95-3"/><circle class="cls-7" cx="40.85" cy="70" r="3"/><circle class="cls-7" cx="55.85" cy="64" r="3"/><circle class="cls-7" cx="44.85" cy="50" r="3"/><circle class="cls-7" cx="72.5" cy="34" r="3"/><circle class="cls-7" cx="82.5" cy="39" r="3"/><circle class="cls-7" cx="92.5" cy="46" r="3"/><path class="cls-6" d="M65.16,103A24.89,24.89,0,0,1,57.5,85a25,25,0,0,1,25-25,25,25,0,0,1,0,50l-.89,0A24.83,24.83,0,0,1,65.16,103Z"/><path class="cls-7" d="M97.21,88.52v7.65c0,2.11-6.35,3.81-14.22,3.83h-.14a47.35,47.35,0,0,1-7.78-.61c-3.95-.68-6.57-1.87-6.57-3.22V88.52"/><path class="cls-7" d="M97.2,88.42a.34.34,0,0,1,0,.1c0,2.11-6.43,3.83-14.36,3.83-1.08,0-2.12,0-3.13-.09a31.92,31.92,0,0,1-8.27-1.42c-1.85-.64-3-1.44-3-2.32a.34.34,0,0,1,0-.1"/><path class="cls-7" d="M97.21,80.65v7.66a.41.41,0,0,1,0,.11.38.38,0,0,1,0,.1c-.4,2-6.67,3.61-14.34,3.61-1.11,0-2.19,0-3.23-.1a31.14,31.14,0,0,1-8.28-1.45c-1.64-.58-2.66-1.29-2.82-2.06a.38.38,0,0,1,0-.1.41.41,0,0,1,0-.11V80.65"/><path class="cls-7" d="M97.2,80.55a.34.34,0,0,1,0,.1c0,2.12-6.43,3.83-14.36,3.83a49.32,49.32,0,0,1-6.6-.43c-4.6-.63-7.75-1.92-7.75-3.4a.34.34,0,0,1,0-.1"/><path class="cls-7" d="M97.21,72.79v7.65a.41.41,0,0,1,0,.11.38.38,0,0,1,0,.1c-.4,2-6.67,3.62-14.34,3.62a48.92,48.92,0,0,1-6.7-.44c-4.33-.62-7.35-1.8-7.63-3.18a.38.38,0,0,1,0-.1.41.41,0,0,1,0-.11V72.79"/><path class="cls-7" d="M97.21,72.79c0,2.11-6.43,3.82-14.36,3.82a41.24,41.24,0,0,1-10.23-1.14c-2.55-.69-4.12-1.64-4.12-2.68,0-.74.78-1.43,2.14-2,2.53-1.09,7-1.82,12.21-1.82C90.78,69,97.21,70.67,97.21,72.79Z"/><line class="cls-7" x1="82.5" y1="59" x2="82.5" y2="42"/><polyline class="cls-7" points="83.5 54 92.5 54 92.5 49"/><line class="cls-7" x1="72.5" y1="62" x2="72.5" y2="37"/></svg>