<svg id="Layer_1" data-name="Layer 1" xmlns="http://www.w3.org/2000/svg" viewBox="0 0 120 120"><defs><style>.cls-1{fill:none;}.cls-1,.cls-2,.cls-3{stroke:#252e4a;stroke-linecap:round;stroke-linejoin:round;stroke-width:3px;}.cls-2{fill:#579bfc;}.cls-3{fill:#fff;}</style></defs><title>B2B</title><path class="cls-1" d="M43,98.42l-.13-.06A42.12,42.12,0,0,1,19.74,72"/><path class="cls-1" d="M77,21.58A42.1,42.1,0,0,1,100.26,48"/><polyline class="cls-1" points="42 94 42.87 98.36 43 99 39 100"/><polyline class="cls-1" points="77 26 76 21 80 19"/><path class="cls-2" d="M65.33,77.32H104a0,0,0,0,1,0,0v27a2.57,2.57,0,0,1-2.57,2.57H67.9a2.57,2.57,0,0,1-2.57-2.57v-27A0,0,0,0,1,65.33,77.32Z"/><path class="cls-2" d="M60,77.25a3.52,3.52,0,0,0,3.71,3.52A3.66,3.66,0,0,0,67,77.05V73.73H60Z"/><path class="cls-3" d="M67,77.25a3.52,3.52,0,0,0,3.71,3.52,3.65,3.65,0,0,0,3.33-3.72V73.73H67Z"/><path class="cls-2" d="M74.08,77.25a3.52,3.52,0,0,0,3.71,3.52,3.66,3.66,0,0,0,3.34-3.72V73.73h-7Z"/><path class="cls-3" d="M81.13,77.25a3.52,3.52,0,0,0,3.71,3.52,3.66,3.66,0,0,0,3.33-3.72V73.73h-7Z"/><path class="cls-2" d="M88.17,77.25a3.52,3.52,0,0,0,3.71,3.52,3.66,3.66,0,0,0,3.33-3.72V73.73h-7Z"/><path class="cls-3" d="M95.21,77.25a3.52,3.52,0,0,0,3.71,3.52,3.66,3.66,0,0,0,3.33-3.72V73.73h-7Z"/><path class="cls-2" d="M102.25,77.25A3.52,3.52,0,0,0,106,80.77a3.65,3.65,0,0,0,3.33-3.72V73.73h-7Z"/><rect class="cls-3" x="79.22" y="91.13" width="10.84" height="15.77"/><path class="cls-3" d="M60,73.71l5.7-7.19A4,4,0,0,1,68.84,65h31.21a4,4,0,0,1,3,1.41l6.19,7.3Z"/><path class="cls-3" d="M65.33,98h13.9a0,0,0,0,1,0,0v8.87a0,0,0,0,1,0,0H67.42a2.09,2.09,0,0,1-2.09-2.09V98A0,0,0,0,1,65.33,98Z"/><path class="cls-3" d="M92.16,98H104a0,0,0,0,1,0,0v8.87a0,0,0,0,1,0,0H90.07a0,0,0,0,1,0,0v-6.78A2.09,2.09,0,0,1,92.16,98Z" transform="translate(194.03 204.93) rotate(180)"/><path class="cls-2" d="M15.41,26H54.59a0,0,0,0,1,0,0V53.39A2.61,2.61,0,0,1,52,56H18a2.61,2.61,0,0,1-2.61-2.61V26A0,0,0,0,1,15.41,26Z"/><path class="cls-2" d="M10,25.93a3.57,3.57,0,0,0,3.76,3.56,3.7,3.7,0,0,0,3.38-3.76V22.36H10Z"/><path class="cls-3" d="M17.14,25.93a3.57,3.57,0,0,0,3.77,3.56,3.7,3.7,0,0,0,3.38-3.76V22.36H17.14Z"/><path class="cls-2" d="M24.29,25.93a3.57,3.57,0,0,0,3.76,3.56,3.7,3.7,0,0,0,3.38-3.76V22.36H24.29Z"/><path class="cls-3" d="M31.43,25.93a3.57,3.57,0,0,0,3.76,3.56,3.7,3.7,0,0,0,3.38-3.76V22.36H31.43Z"/><path class="cls-2" d="M38.57,25.93a3.57,3.57,0,0,0,3.76,3.56,3.7,3.7,0,0,0,3.38-3.76V22.36H38.57Z"/><path class="cls-3" d="M45.71,25.93a3.57,3.57,0,0,0,3.77,3.56,3.7,3.7,0,0,0,3.38-3.76V22.36H45.71Z"/><path class="cls-2" d="M52.86,25.93a3.57,3.57,0,0,0,3.76,3.56A3.7,3.7,0,0,0,60,25.73V22.36H52.86Z"/><rect class="cls-3" x="29.5" y="40" width="11" height="16"/><path class="cls-3" d="M10,22.33,15.78,15A4.06,4.06,0,0,1,19,13.5H50.62a4.08,4.08,0,0,1,3.1,1.43L60,22.33Z"/><path class="cls-3" d="M15.41,47H29.5a0,0,0,0,1,0,0v9a0,0,0,0,1,0,0h-12a2.12,2.12,0,0,1-2.12-2.12V47A0,0,0,0,1,15.41,47Z"/><path class="cls-3" d="M42.62,47h12a0,0,0,0,1,0,0v9a0,0,0,0,1,0,0H40.5a0,0,0,0,1,0,0V49.12A2.12,2.12,0,0,1,42.62,47Z" transform="translate(95.09 103) rotate(180)"/></svg>