<svg id="Layer_1" data-name="Layer 1" xmlns="http://www.w3.org/2000/svg" viewBox="0 0 120 120"><defs><style>.cls-1{fill:none;}.cls-1,.cls-2,.cls-4{stroke:#252e4a;stroke-width:3px;}.cls-1,.cls-4{stroke-linecap:round;stroke-linejoin:round;}.cls-2,.cls-3{fill:#579bfc;}.cls-2{stroke-miterlimit:10;}.cls-4{fill:#fff;}</style></defs><title>B2B Software</title><path class="cls-1" d="M14.32,10h91.36A4.32,4.32,0,0,1,110,14.32V24a0,0,0,0,1,0,0H10a0,0,0,0,1,0,0V14.32A4.32,4.32,0,0,1,14.32,10Z"/><path class="cls-2" d="M10,24H110a0,0,0,0,1,0,0v82a4,4,0,0,1-4,4H14a4,4,0,0,1-4-4V24A0,0,0,0,1,10,24Z"/><circle class="cls-3" cx="16.5" cy="17" r="2"/><circle class="cls-3" cx="21.5" cy="17" r="2"/><circle class="cls-3" cx="26.5" cy="17" r="2"/><path class="cls-1" d="M47,97.37l-.1-.05A32.91,32.91,0,0,1,28.81,76.73"/><path class="cls-1" d="M73.56,37.32A32.91,32.91,0,0,1,91.74,58"/><polyline class="cls-1" points="46.21 93.92 46.89 97.32 46.99 97.83 43.86 98.61"/><polyline class="cls-1" points="73.56 40.77 72.78 36.87 75.91 35.3"/><path class="cls-4" d="M64.44,80.88h30.2a0,0,0,0,1,0,0V102a2,2,0,0,1-2,2H66.45a2,2,0,0,1-2-2V80.88A0,0,0,0,1,64.44,80.88Z"/><path class="cls-4" d="M60.28,80.83a2.75,2.75,0,0,0,2.9,2.75,2.87,2.87,0,0,0,2.6-2.91V78.08h-5.5Z"/><path class="cls-4" d="M65.78,80.83a2.75,2.75,0,0,0,2.9,2.75,2.86,2.86,0,0,0,2.6-2.91V78.08h-5.5Z"/><path class="cls-4" d="M71.28,80.83a2.76,2.76,0,0,0,2.9,2.75,2.87,2.87,0,0,0,2.61-2.91V78.08H71.28Z"/><path class="cls-4" d="M76.79,80.83a2.75,2.75,0,0,0,2.9,2.75,2.86,2.86,0,0,0,2.6-2.91V78.08h-5.5Z"/><path class="cls-4" d="M82.29,80.83a2.75,2.75,0,0,0,2.9,2.75,2.87,2.87,0,0,0,2.61-2.91V78.08H82.29Z"/><path class="cls-4" d="M87.8,80.83a2.75,2.75,0,0,0,2.9,2.75,2.87,2.87,0,0,0,2.6-2.91V78.08H87.8Z"/><path class="cls-4" d="M93.3,80.83a2.75,2.75,0,0,0,2.9,2.75,2.86,2.86,0,0,0,2.6-2.91V78.08H93.3Z"/><rect class="cls-4" x="75.3" y="91.67" width="8.48" height="12.33"/><path class="cls-4" d="M60.28,78.06l4.45-5.62a3.13,3.13,0,0,1,2.45-1.19h24.4A3.11,3.11,0,0,1,94,72.35l4.84,5.71Z"/><path class="cls-4" d="M64.44,97.07H75.3a0,0,0,0,1,0,0V104a0,0,0,0,1,0,0H66.08a1.64,1.64,0,0,1-1.64-1.64v-5.3A0,0,0,0,1,64.44,97.07Z"/><path class="cls-4" d="M85.41,97.07h9.22a0,0,0,0,1,0,0V104a0,0,0,0,1,0,0H83.78a0,0,0,0,1,0,0V98.7A1.64,1.64,0,0,1,85.41,97.07Z" transform="translate(178.42 201.07) rotate(180)"/><path class="cls-4" d="M25.42,40.77H56.05a0,0,0,0,1,0,0V62.18a2,2,0,0,1-2,2H27.46a2,2,0,0,1-2-2V40.77A0,0,0,0,1,25.42,40.77Z"/><path class="cls-4" d="M21.2,40.71a2.78,2.78,0,0,0,2.94,2.79,2.89,2.89,0,0,0,2.64-2.94V37.92H21.2Z"/><path class="cls-4" d="M26.78,40.71a2.78,2.78,0,0,0,2.94,2.79,2.89,2.89,0,0,0,2.64-2.94V37.92H26.78Z"/><path class="cls-4" d="M32.36,40.71A2.78,2.78,0,0,0,35.3,43.5a2.89,2.89,0,0,0,2.64-2.94V37.92H32.36Z"/><path class="cls-4" d="M37.94,40.71a2.79,2.79,0,0,0,3,2.79,2.89,2.89,0,0,0,2.64-2.94V37.92H37.94Z"/><path class="cls-4" d="M43.53,40.71a2.78,2.78,0,0,0,2.94,2.79,2.89,2.89,0,0,0,2.64-2.94V37.92H43.53Z"/><path class="cls-4" d="M49.11,40.71a2.78,2.78,0,0,0,2.94,2.79,2.89,2.89,0,0,0,2.64-2.94V37.92H49.11Z"/><path class="cls-4" d="M54.69,40.71a2.78,2.78,0,0,0,2.94,2.79,2.9,2.9,0,0,0,2.65-2.94V37.92H54.69Z"/><rect class="cls-4" x="36.44" y="51.71" width="8.6" height="12.51"/><path class="cls-4" d="M21.2,37.9l4.52-5.7A3.15,3.15,0,0,1,28.2,31H53a3.15,3.15,0,0,1,2.41,1.12l4.92,5.78Z"/><path class="cls-4" d="M25.42,57.18h11a0,0,0,0,1,0,0v7a0,0,0,0,1,0,0H27.08a1.66,1.66,0,0,1-1.66-1.66V57.18A0,0,0,0,1,25.42,57.18Z"/><path class="cls-4" d="M46.69,57.18h9.36a0,0,0,0,1,0,0v7a0,0,0,0,1,0,0H45a0,0,0,0,1,0,0V58.84A1.66,1.66,0,0,1,46.69,57.18Z" transform="translate(101.09 121.4) rotate(180)"/></svg>