<svg id="Layer_1" data-name="Layer 1" xmlns="http://www.w3.org/2000/svg" viewBox="0 0 120 120"><defs><style>.cls-1,.cls-4{fill:#579bfc;}.cls-2,.cls-5{fill:#fff;}.cls-3{fill:none;}.cls-3,.cls-4,.cls-5{stroke:#252e4a;stroke-linecap:round;stroke-linejoin:round;stroke-width:3px;}</style></defs><title>B2C</title><path class="cls-1" d="M110,96.43v7.79a1.43,1.43,0,0,1-.69,1.23c-2.1,1.23-9.17,4.55-24.31,4.55s-22.21-3.32-24.31-4.55a1.43,1.43,0,0,1-.69-1.23V96.43c0-5.72,7.86-7.14,14.29-9.29a7.8,7.8,0,0,0,1.45-.63,9.93,9.93,0,0,0,18.52,0,7.8,7.8,0,0,0,1.45.63C102.14,89.29,110,90.71,110,96.43Z"/><path class="cls-2" d="M92,79.57a7.37,7.37,0,0,1-1,1.25c-2,2-6,2-6,2s-4,0-6-2a6.86,6.86,0,0,1-1-1.25c-3.14-4.78-3.7-14.38-3.7-14.38s-.65-9.84,12.77-10.83h.14a2.08,2.08,0,0,1,2.09,2.07c7.85,0,6.42,8.57,6.42,8.57v.19S95.15,74.79,92,79.57Z"/><path class="cls-2" d="M94.26,86.51a9.93,9.93,0,0,1-18.52,0c3.85-2.09,2.67-5.89,2.25-6.94a6.86,6.86,0,0,0,1,1.25c2,2,6,2,6,2s4,0,6-2a7.37,7.37,0,0,0,1-1.25C91.59,80.62,90.41,84.42,94.26,86.51Z"/><path class="cls-3" d="M92.14,79.29s0,.1-.12.28c-.43,1.05-1.61,4.85,2.24,6.94a7.8,7.8,0,0,0,1.45.63c6.43,2.15,14.29,3.57,14.29,9.29v7.79a1.43,1.43,0,0,1-.69,1.23c-2.1,1.23-9.17,4.55-24.31,4.55s-22.21-3.32-24.31-4.55a1.43,1.43,0,0,1-.69-1.23V96.43c0-5.72,7.86-7.14,14.29-9.29a7.8,7.8,0,0,0,1.45-.63c3.85-2.09,2.67-5.89,2.25-6.94l-.13-.28"/><path class="cls-3" d="M75.71,86.43l0,.08a9.93,9.93,0,0,0,18.52,0l0-.08"/><path class="cls-3" d="M78.57,66.43S90,67.14,90,60.71c0,0,1.43,4.29,5.71,4.29,0,0,1.43-8.57-6.42-8.57a2.08,2.08,0,0,0-2.09-2.07h-.14c-13.42,1-12.77,10.83-12.77,10.83s.56,9.6,3.7,14.38a6.86,6.86,0,0,0,1,1.25c2,2,6,2,6,2s4,0,6-2a7.37,7.37,0,0,0,1-1.25c3.13-4.78,3.69-14.38,3.69-14.38"/><path class="cls-3" d="M43,98.42l-.13-.06A42.12,42.12,0,0,1,19.74,72"/><path class="cls-3" d="M77,21.58A42.1,42.1,0,0,1,100.26,48"/><polyline class="cls-3" points="42 94 42.87 98.36 43 99 39 100"/><polyline class="cls-3" points="77 26 76 21 80 19"/><path class="cls-4" d="M15.66,26.75H54.84a0,0,0,0,1,0,0V54.14a2.61,2.61,0,0,1-2.61,2.61h-34a2.61,2.61,0,0,1-2.61-2.61V26.75A0,0,0,0,1,15.66,26.75Z"/><path class="cls-4" d="M10.25,26.68A3.57,3.57,0,0,0,14,30.24a3.7,3.7,0,0,0,3.38-3.76V23.11H10.25Z"/><path class="cls-5" d="M17.39,26.68a3.57,3.57,0,0,0,3.77,3.56,3.7,3.7,0,0,0,3.38-3.76V23.11H17.39Z"/><path class="cls-4" d="M24.54,26.68a3.57,3.57,0,0,0,3.76,3.56,3.7,3.7,0,0,0,3.38-3.76V23.11H24.54Z"/><path class="cls-5" d="M31.68,26.68a3.57,3.57,0,0,0,3.76,3.56,3.7,3.7,0,0,0,3.38-3.76V23.11H31.68Z"/><path class="cls-4" d="M38.82,26.68a3.57,3.57,0,0,0,3.76,3.56A3.7,3.7,0,0,0,46,26.48V23.11H38.82Z"/><path class="cls-5" d="M46,26.68a3.57,3.57,0,0,0,3.77,3.56,3.7,3.7,0,0,0,3.38-3.76V23.11H46Z"/><path class="cls-4" d="M53.11,26.68a3.57,3.57,0,0,0,3.76,3.56,3.7,3.7,0,0,0,3.38-3.76V23.11H53.11Z"/><rect class="cls-5" x="29.75" y="40.75" width="11" height="16"/><path class="cls-5" d="M10.25,23.08,16,15.79a4.06,4.06,0,0,1,3.18-1.54H50.87A4.08,4.08,0,0,1,54,15.68l6.28,7.4Z"/><path class="cls-5" d="M15.66,47.75H29.75a0,0,0,0,1,0,0v9a0,0,0,0,1,0,0h-12a2.12,2.12,0,0,1-2.12-2.12V47.75A0,0,0,0,1,15.66,47.75Z"/><path class="cls-5" d="M42.87,47.75h12a0,0,0,0,1,0,0v9a0,0,0,0,1,0,0H40.75a0,0,0,0,1,0,0V49.87A2.12,2.12,0,0,1,42.87,47.75Z" transform="translate(95.59 104.5) rotate(180)"/></svg>