<svg id="Layer_1" data-name="Layer 1" xmlns="http://www.w3.org/2000/svg" viewBox="0 0 120 120"><defs><style>.cls-1{fill:none;}.cls-1,.cls-2,.cls-5{stroke:#252e4a;stroke-width:3px;}.cls-1,.cls-5{stroke-linecap:round;stroke-linejoin:round;}.cls-2,.cls-3{fill:#579bfc;}.cls-2{stroke-miterlimit:10;}.cls-4,.cls-5{fill:#fff;}</style></defs><title>B2C Software</title><path class="cls-1" d="M14.32,10h91.36A4.32,4.32,0,0,1,110,14.32V24a0,0,0,0,1,0,0H10a0,0,0,0,1,0,0V14.32A4.32,4.32,0,0,1,14.32,10Z"/><path class="cls-2" d="M10,24H110a0,0,0,0,1,0,0v82a4,4,0,0,1-4,4H14a4,4,0,0,1-4-4V24A0,0,0,0,1,10,24Z"/><circle class="cls-3" cx="16.5" cy="17" r="2"/><circle class="cls-3" cx="21.5" cy="17" r="2"/><circle class="cls-3" cx="26.5" cy="17" r="2"/><path class="cls-4" d="M99.15,92.65v5.94a1.09,1.09,0,0,1-.53.94c-1.6.94-7,3.47-18.53,3.47s-16.93-2.53-18.53-3.47a1.09,1.09,0,0,1-.53-.94V92.65c0-4.36,6-5.44,10.89-7.08A6.38,6.38,0,0,0,73,85.09a7.57,7.57,0,0,0,14.12,0,6.61,6.61,0,0,0,1.1.48C93.16,87.21,99.15,88.29,99.15,92.65Z"/><path class="cls-4" d="M85.44,79.8a6.17,6.17,0,0,1-.75,1c-1.54,1.56-4.6,1.56-4.6,1.56s-3.07,0-4.6-1.56a5.58,5.58,0,0,1-.74-1c-2.4-3.64-2.83-11-2.83-11s-.49-7.51,9.74-8.26h.11a1.58,1.58,0,0,1,1.59,1.58c6,0,4.89,6.53,4.89,6.53v.15S87.83,76.16,85.44,79.8Z"/><path class="cls-4" d="M87.15,85.09a7.57,7.57,0,0,1-14.12,0,4,4,0,0,0,1.72-5.29,5.58,5.58,0,0,0,.74,1c1.53,1.56,4.6,1.56,4.6,1.56s3.06,0,4.6-1.56a6.17,6.17,0,0,0,.75-1A4,4,0,0,0,87.15,85.09Z"/><path class="cls-1" d="M85.53,79.59l-.09.21a4,4,0,0,0,1.71,5.29,6.61,6.61,0,0,0,1.1.48c4.91,1.64,10.9,2.72,10.9,7.08v5.94a1.09,1.09,0,0,1-.53.94c-1.6.94-7,3.47-18.53,3.47s-16.93-2.53-18.53-3.47a1.09,1.09,0,0,1-.53-.94V92.65c0-4.36,6-5.44,10.89-7.08A6.38,6.38,0,0,0,73,85.09a4,4,0,0,0,1.72-5.29l-.1-.21"/><path class="cls-1" d="M73,85a.15.15,0,0,0,0,.06,7.57,7.57,0,0,0,14.12,0,.32.32,0,0,1,0-.06"/><path class="cls-1" d="M75.19,69.78s8.71.54,8.71-4.36c0,0,1.09,3.27,4.35,3.27,0,0,1.1-6.53-4.89-6.53a1.58,1.58,0,0,0-1.59-1.58h-.11c-10.23.75-9.74,8.26-9.74,8.26s.43,7.32,2.83,11a5.58,5.58,0,0,0,.74,1c1.53,1.56,4.6,1.56,4.6,1.56s3.06,0,4.6-1.56a6.17,6.17,0,0,0,.75-1c2.39-3.64,2.81-11,2.81-11"/><path class="cls-1" d="M48.07,94.17l-.1,0A32.13,32.13,0,0,1,30.34,74"/><path class="cls-1" d="M74,35.59A32.07,32.07,0,0,1,91.72,55.73"/><polyline class="cls-1" points="47.31 90.8 47.97 94.13 48.07 94.61 45.02 95.38"/><polyline class="cls-1" points="73.99 38.96 73.23 35.15 76.28 33.62"/><path class="cls-5" d="M27.22,39.53H57.1a0,0,0,0,1,0,0V60.41a2,2,0,0,1-2,2H29.21a2,2,0,0,1-2-2V39.53A0,0,0,0,1,27.22,39.53Z"/><path class="cls-5" d="M23.1,39.48A2.71,2.71,0,0,0,26,42.19a2.82,2.82,0,0,0,2.58-2.87V36.75H23.1Z"/><path class="cls-5" d="M28.55,39.48a2.71,2.71,0,0,0,2.87,2.71A2.81,2.81,0,0,0,34,39.32V36.75H28.55Z"/><path class="cls-5" d="M34,39.48a2.71,2.71,0,0,0,2.87,2.71,2.82,2.82,0,0,0,2.58-2.87V36.75H34Z"/><path class="cls-5" d="M39.44,39.48a2.71,2.71,0,0,0,2.87,2.71,2.81,2.81,0,0,0,2.57-2.87V36.75H39.44Z"/><path class="cls-5" d="M44.88,39.48a2.71,2.71,0,0,0,2.87,2.71,2.82,2.82,0,0,0,2.58-2.87V36.75H44.88Z"/><path class="cls-5" d="M50.33,39.48a2.71,2.71,0,0,0,2.87,2.71,2.81,2.81,0,0,0,2.57-2.87V36.75H50.33Z"/><path class="cls-5" d="M55.77,39.48a2.71,2.71,0,0,0,2.87,2.71,2.81,2.81,0,0,0,2.58-2.87V36.75H55.77Z"/><rect class="cls-5" x="37.97" y="50.2" width="8.39" height="12.2"/><path class="cls-5" d="M23.1,36.73l4.41-5.56A3.08,3.08,0,0,1,29.93,30H54.07a3.1,3.1,0,0,1,2.36,1.09l4.79,5.64Z"/><path class="cls-5" d="M27.22,55.54H38a0,0,0,0,1,0,0V62.4a0,0,0,0,1,0,0H28.84a1.62,1.62,0,0,1-1.62-1.62V55.54A0,0,0,0,1,27.22,55.54Z"/><path class="cls-5" d="M48,55.54H57.1a0,0,0,0,1,0,0V62.4a0,0,0,0,1,0,0H46.35a0,0,0,0,1,0,0V57.16A1.62,1.62,0,0,1,48,55.54Z" transform="translate(103.45 117.94) rotate(180)"/></svg>