<svg id="Layer_1" data-name="Layer 1" xmlns="http://www.w3.org/2000/svg" viewBox="0 0 120 120"><defs><style>.cls-1{fill:#579bfc;}.cls-1,.cls-2,.cls-3{stroke:#252e4a;stroke-linecap:round;stroke-linejoin:round;stroke-width:3px;}.cls-2{fill:#fff;}.cls-3{fill:none;}</style></defs><title>BizDev</title><circle class="cls-1" cx="60" cy="60" r="50"/><circle class="cls-2" cx="60" cy="28.21" r="7.95"/><circle class="cls-2" cx="60" cy="91.79" r="7.95"/><rect class="cls-2" x="29" y="47" width="22.26" height="14.31"/><rect class="cls-2" x="68.74" y="47" width="22.26" height="14.31"/><rect class="cls-2" x="68.74" y="67.15" width="22.26" height="14.31"/><path class="cls-3" d="M60,36.15v4.77H78.28a1.59,1.59,0,0,1,1.59,1.59v3.18"/><path class="cls-3" d="M60,36.15v4.77H41.72a1.59,1.59,0,0,0-1.59,1.59v3.18"/><line class="cls-3" x1="79.87" y1="62" x2="79.87" y2="67.15"/><path class="cls-3" d="M40.13,62V89.41a3.18,3.18,0,0,0,3.18,3.18h8.74"/></svg>