<?xml version="1.0" encoding="utf-8"?>
<!-- Generator: Adobe Illustrator 18.0.0, SVG Export Plug-In . SVG Version: 6.00 Build 0)  -->
<!DOCTYPE svg PUBLIC "-//W3C//DTD SVG 1.1//EN" "http://www.w3.org/Graphics/SVG/1.1/DTD/svg11.dtd">
<svg version="1.1" id="Layer_1" xmlns="http://www.w3.org/2000/svg" xmlns:xlink="http://www.w3.org/1999/xlink" x="0px" y="0px"
	 viewBox="0 0 256 256" enable-background="new 0 0 256 256" xml:space="preserve">
<title>59</title>
<path fill="#0099CC" d="M0,0h256v256H0V0"/>
<g>
	<g id="keyboard-alt">
		<path fill="#FFFFFF" d="M154.8,120.3c6.1,0,11.5-5.4,11.5-11.5c0-6.1-5.4-11.5-11.5-11.5s-11.5,5.4-11.5,11.5
			C143.3,115,148.7,120.3,154.8,120.3z M101.2,120.3c6.1,0,11.5-5.4,11.5-11.5c0-6.1-5.4-11.5-11.5-11.5c-6.1,0-11.5,5.4-11.5,11.5
			C89.7,115,95.1,120.3,101.2,120.3z M128,174c19.9,0,36.8-13,43.7-30.7H84.3C91.2,160.9,108.1,174,128,174z M128,51.4
			c-42.1,0-76.6,34.5-76.6,76.6s34.5,76.6,76.6,76.6s76.6-34.5,76.6-76.6S170.1,51.4,128,51.4z M128,189.3
			c-33.7,0-61.3-27.6-61.3-61.3S94.3,66.7,128,66.7s61.3,27.6,61.3,61.3S161.7,189.3,128,189.3z"/>
	</g>
</g>
<g>
	<g>
		<g>
			<path fill="#FFFFFF" d="M-198.1,160.9c6.1,0,11.1-4.9,11.1-11.1c0-6.1-4.9-11.1-11.1-11.1s-11.1,4.9-11.1,11.1
				C-209.1,156-204.2,160.9-198.1,160.9z"/>
			<path fill="#FFFFFF" d="M-146.5,160.9c6.1,0,11.1-4.9,11.1-11.1c0-6.1-4.9-11.1-11.1-11.1c-6.1,0-11.1,4.9-11.1,11.1
				C-157.5,156-152.6,160.9-146.5,160.9z"/>
			<path fill="#FFFFFF" d="M-172.3,197.8c-10.9,0-20.3-6-25.4-14.7H-210c5.9,15.1,20.6,25.8,37.7,25.8s31.8-10.7,37.7-25.8h-12.3
				C-152,191.8-161.4,197.8-172.3,197.8z"/>
			<path fill="#FFFFFF" d="M-172.4,94.6c-40.7,0-73.6,33-73.6,73.7s33,73.7,73.6,73.7c40.8,0,73.8-33,73.8-73.7
				S-131.6,94.6-172.4,94.6z M-172.3,227.3c-32.6,0-59-26.4-59-59s26.4-59,59-59s59,26.4,59,59S-139.7,227.3-172.3,227.3z"/>
		</g>
	</g>
</g>
<g>
	<path fill="#FFFFFF" d="M64.9-142.9c0-6.1,4.9-11,11-11c6.1,0,11,4.9,11,11c0,1.7-1.4,3.2-3.2,3.2s-3.2-1.4-3.2-3.2
		c0-2.6-2.1-4.7-4.7-4.7c-2.6,0-4.7,2.1-4.7,4.7c0,1.7-1.4,3.2-3.2,3.2S64.9-141.2,64.9-142.9z M8.8-143.2c0-6.1,4.9-11,11-11
		c6.1,0,11,4.9,11,11c0,1.7-1.4,3.2-3.2,3.2c-1.7,0-3.2-1.4-3.2-3.2c0-2.6-2.1-4.7-4.7-4.7c-2.6,0-4.7,2.1-4.7,4.7
		c0,1.7-1.4,3.2-3.2,3.2C10.2-140.1,8.8-141.5,8.8-143.2z"/>
</g>
<g>
	<g>
		<g>
			<path fill="#FFFFFF" d="M46.6-98.9c-10.9,0-20.3-6-25.4-14.7H8.8c5.9,15.1,20.6,25.8,37.7,25.8s31.8-10.7,37.7-25.8H72
				C66.8-104.9,57.5-98.9,46.6-98.9z"/>
			<path fill="#FFFFFF" d="M46.5-202.1c-40.7,0-73.6,33-73.6,73.7s33,73.7,73.6,73.7c40.8,0,73.8-33,73.8-73.7
				S87.3-202.1,46.5-202.1z M46.6-69.5c-32.6,0-59-26.4-59-59s26.4-59,59-59s59,26.4,59,59S79.2-69.5,46.6-69.5z"/>
		</g>
	</g>
</g>
<g>
	<path fill="#FFFFFF" d="M-170.7,43.6c39.9,0,72.2-32.3,72.2-72.2s-32.3-72.2-72.2-72.2s-72.2,32.3-72.2,72.2
		S-210.6,43.6-170.7,43.6z M-170.7-87.3c32.4,0,58.6,26.3,58.6,58.6S-138.4,30-170.7,30s-58.6-26.3-58.6-58.6
		S-203.1-87.3-170.7-87.3z M-170.7-16.4c16.3,0,31.9-4.3,45.1-12c-2.1,25.2-21.6,44.9-45.1,44.9c-23.5,0-43.1-19.7-45.1-44.9
		C-202.6-20.7-187.1-16.4-170.7-16.4z M-206.8-51.2c0,7.5,4,13.5,9,13.5c5,0,9-6.1,9-13.5s-4-13.5-9-13.5
		C-202.8-64.7-206.8-58.6-206.8-51.2z M-152.7-51.2c0,7.5,4,13.5,9,13.5s9-6.1,9-13.5s-4-13.5-9-13.5S-152.7-58.6-152.7-51.2z"/>
</g>
<g>
	<path fill="#FFFFFF" d="M-495.9-84.1l3,7.2l7.7,0.7c0.5,0,0.8,0.7,0.3,1.1l-5.9,5.1l1.8,7.6c0.1,0.5-0.4,0.9-0.9,0.7l-6.7-4l-6.7,4
		c-0.5,0.3-1-0.1-0.9-0.7l1.8-7.6l-5.9-5.1c-0.4-0.4-0.2-1,0.3-1.1l7.7-0.7l3-7.2C-496.8-84.6-496.1-84.6-495.9-84.1L-495.9-84.1z"
		/>
</g>
<g>
	<g id="keyboard-alt_1_">
		<path fill="#FFFFFF" d="M-528.5-8.7c19.9,0,36.8-13,43.7-30.7h-87.4C-565.3-21.8-548.4-8.7-528.5-8.7z M-528.5-131.3
			c-42.1,0-76.6,34.5-76.6,76.6s34.5,76.6,76.6,76.6s76.6-34.5,76.6-76.6S-486.4-131.3-528.5-131.3z M-528.5,6.6
			c-33.7,0-61.3-27.6-61.3-61.3s27.6-61.3,61.3-61.3s61.3,27.6,61.3,61.3S-494.8,6.6-528.5,6.6z"/>
	</g>
</g>
<g>
	<path fill="#FFFFFF" d="M-558.4-84.1l3,7.2l7.7,0.7c0.5,0,0.8,0.7,0.3,1.1l-5.9,5.1l1.8,7.6c0.1,0.5-0.4,0.9-0.9,0.7l-6.7-4l-6.7,4
		c-0.5,0.3-1-0.1-0.9-0.7l1.8-7.6l-5.9-5.1c-0.4-0.4-0.2-1,0.3-1.1l7.7-0.7l3-7.2C-559.3-84.6-558.6-84.6-558.4-84.1L-558.4-84.1z"
		/>
</g>
</svg>
