<svg id="Layer_1" data-name="Layer 1" xmlns="http://www.w3.org/2000/svg" viewBox="0 0 120 120"><defs><style>.cls-1{fill:#fff;}.cls-2{fill:#579bfc;}.cls-3{fill:none;stroke:#252e4a;stroke-linecap:round;stroke-linejoin:round;stroke-width:3px;}</style></defs><title>Company Service All</title><rect class="cls-1" x="23" y="17.75" width="45" height="10"/><rect class="cls-1" x="23" y="36.75" width="45" height="10"/><rect class="cls-1" x="23" y="93" width="45" height="10"/><rect class="cls-1" x="23" y="55.5" width="45" height="10"/><rect class="cls-1" x="23" y="74.25" width="45" height="10"/><path class="cls-2" d="M68,103V93H23v10Zm0-18.75v-10H23v10Zm0-37.5v-10H23v10Zm0-19v-10H23v10ZM23,65.5H68v-10H23Zm52.5-23V110h-60V10h60Z"/><polygon class="cls-1" points="101.75 42.5 101.75 110 75.5 110 75.5 42.5 89.66 42.5 101.75 42.5"/><polyline class="cls-3" points="15.5 110 15.5 10 75.5 10 75.5 42.5"/><polygon class="cls-3" points="89.66 42.5 101.75 42.5 101.75 110 75.5 110 75.5 42.5 89.66 42.5"/><line class="cls-3" x1="89.66" y1="25" x2="89.66" y2="42.5"/><line class="cls-3" x1="81.75" y1="53.75" x2="95.5" y2="53.75"/><line class="cls-3" x1="81.75" y1="62.5" x2="95.5" y2="62.5"/><line class="cls-3" x1="81.75" y1="71.25" x2="95.5" y2="71.25"/><line class="cls-3" x1="81.75" y1="80" x2="95.5" y2="80"/><line class="cls-3" x1="81.75" y1="88.75" x2="95.5" y2="88.75"/><line class="cls-3" x1="81.75" y1="97.5" x2="95.5" y2="97.5"/><rect class="cls-3" x="23" y="55.5" width="45" height="10"/><rect class="cls-3" x="23" y="74.25" width="45" height="10"/><rect class="cls-3" x="23" y="93" width="45" height="10"/><rect class="cls-3" x="23" y="36.75" width="45" height="10"/><rect class="cls-3" x="23" y="17.75" width="45" height="10"/><line class="cls-3" x1="10" y1="110" x2="110" y2="110"/></svg>