<svg id="Layer_1" data-name="Layer 1" xmlns="http://www.w3.org/2000/svg" viewBox="0 0 120 120"><defs><style>.cls-1{fill:#579bfc;}.cls-1,.cls-2{stroke:#252e4a;stroke-linecap:round;stroke-linejoin:round;stroke-width:3px;}.cls-2{fill:#fff;}</style></defs><title>CPG</title><path class="cls-1" d="M10,35.5,58.18,10.93a4,4,0,0,1,3.64,0L110,35.5,60,61Z"/><path class="cls-1" d="M60,61v49l48-26.85a4,4,0,0,0,2-3.49V36Z"/><polygon class="cls-2" points="66 83.77 66 99 81.54 90.3 81.54 76 66 83.77"/><path class="cls-2" d="M60,61v49L12.05,83.15A4,4,0,0,1,10,79.66V36Z"/><polygon class="cls-2" points="27.08 45 27.08 72.08 30.77 70.85 36.92 77 36.92 49.92 27.08 45"/><polygon class="cls-2" points="36.92 49.92 87 24 77 19 27.08 45 36.92 49.92"/></svg>