<?xml version="1.0" encoding="utf-8"?>
<!-- Generator: Adobe Illustrator 23.0.0, SVG Export Plug-In . SVG Version: 6.00 Build 0)  -->
<svg version="1.1" id="Layer_1" xmlns="http://www.w3.org/2000/svg" xmlns:xlink="http://www.w3.org/1999/xlink" x="0px" y="0px"
	 viewBox="0 0 120 120" style="enable-background:new 0 0 120 120;" xml:space="preserve">
<style type="text/css">
	.st0{fill:#FFFFFF;}
	.st1{fill:#579BFC;}
	.st2{fill:none;stroke:#252E4A;stroke-width:3;stroke-linecap:round;stroke-linejoin:round;}
	.st3{fill:#579BFC;stroke:#252E4A;stroke-width:3;stroke-linecap:round;stroke-linejoin:round;}
</style>
<title>Management</title>
<path class="st0" d="M59.9,44.3c0,0-4.8,0-7.3-2.5C47.8,36.9,47,23,47,23s-0.8-11.9,15.4-13h0.2c1.4,0,2.5,1.1,2.5,2.5c0,0,0,0,0,0
	c9.5,0,7.8,10.3,7.8,10.3V23c0,0-0.8,13.9-5.7,18.8C64.8,44.3,59.9,44.3,59.9,44.3z"/>
<path class="st1" d="M44.5,50.3l8.6,25.8v0.7c-13.5-0.8-20.2-4-22.4-5.3c-0.5-0.3-0.9-0.9-0.9-1.5v-9.4
	C29.9,53.8,36.8,52.9,44.5,50.3z"/>
<polygon class="st1" points="63.3,49.4 62,56.1 61.7,56.1 58.3,56.1 58,56.1 56.7,49.4 "/>
<path class="st1" d="M75.5,50.3c7.8,2.6,14.6,3.5,14.6,10.3V70c0,0.6-0.3,1.2-0.8,1.5c-2.2,1.3-8.8,4.4-22.4,5.3v-0.7L75.5,50.3z"/>
<path class="st1" d="M53.1,76.1l5.2-19.8v-0.3h3.4v0.3l5.2,19.8v0.7C64.8,76.9,62.5,77,60,77s-4.8-0.1-6.9-0.2L53.1,76.1z"/>
<path class="st2" d="M52.2,24.5c0,0,13.8,0.9,13.8-6.9c0,0,1.7,5.2,6.9,5.2c0,0,1.7-10.3-7.8-10.3c0-1.4-1.1-2.5-2.5-2.5
	c0,0,0,0,0,0h-0.2C46.2,11.1,47,23,47,23s0.8,13.9,5.6,18.8c2.4,2.5,7.3,2.5,7.3,2.5s4.9,0,7.3-2.5c4.9-4.9,5.7-18.8,5.7-18.8"/>
<path class="st2" d="M58.3,56.3l-5.2,19.8l-8.6-25.8c-7.8,2.6-14.6,3.5-14.6,10.3V70c0,0.6,0.3,1.2,0.8,1.5
	c2.2,1.3,8.8,4.4,22.4,5.3c2.1,0.2,4.4,0.2,6.9,0.2s4.8-0.1,6.9-0.2c13.5-0.8,20.2-4,22.4-5.3c0.5-0.3,0.9-0.9,0.8-1.5v-9.4
	c0-6.9-6.9-7.8-14.6-10.3l-8.6,25.9l-5.2-19.8"/>
<polygon class="st2" points="58.3,56.1 58,56.1 56.7,49.4 63.3,49.4 62,56.1 61.7,56.1 "/>
<circle class="st3" cx="19" cy="101" r="9"/>
<circle class="st3" cx="60" cy="101" r="9"/>
<circle class="st3" cx="101" cy="101" r="9"/>
<line class="st2" x1="60" y1="77" x2="60" y2="92"/>
<path class="st2" d="M60,85H23c-2.2,0-4,1.8-4,4v3"/>
<path class="st2" d="M61,85h37c2.2,0,4,1.8,4,4v3"/>
<circle class="st3" cx="80.5" cy="102" r="7.2"/>
<circle class="st3" cx="39.5" cy="101.5" r="7.2"/>
<line class="st2" x1="39.5" y1="85.5" x2="39.5" y2="93.5"/>
<line class="st2" x1="80.5" y1="86.5" x2="80.5" y2="94.5"/>
</svg>
