<svg id="Layer_1" data-name="Layer 1" xmlns="http://www.w3.org/2000/svg" viewBox="0 0 120 120"><defs><style>.cls-1{fill:#fff;}.cls-1,.cls-2,.cls-4{stroke:#252e4a;stroke-width:3px;}.cls-1,.cls-4{stroke-linecap:round;stroke-linejoin:round;}.cls-2,.cls-3{fill:#579bfc;}.cls-2{stroke-miterlimit:10;}.cls-4{fill:none;}</style></defs><title>eCommerce</title><path class="cls-1" d="M14.32,10h91.36A4.32,4.32,0,0,1,110,14.32V24a0,0,0,0,1,0,0H10a0,0,0,0,1,0,0V14.32A4.32,4.32,0,0,1,14.32,10Z"/><path class="cls-2" d="M10,24H110a0,0,0,0,1,0,0v82a4,4,0,0,1-4,4H14a4,4,0,0,1-4-4V24A0,0,0,0,1,10,24Z"/><circle class="cls-3" cx="16.5" cy="17" r="2"/><circle class="cls-3" cx="21.5" cy="17" r="2"/><circle class="cls-3" cx="26.5" cy="17" r="2"/><path class="cls-4" d="M22,36h8L43,80H42a3,3,0,0,0-3,3h0a3,3,0,0,0,3,3H83"/><path class="cls-1" d="M34,48H87.36a2,2,0,0,1,1.93,2.54L81.82,77.08A4,4,0,0,1,78,80H43Z"/><circle class="cls-1" cx="48" cy="90.5" r="4.5"/><circle class="cls-1" cx="73.5" cy="90.5" r="4.5"/><rect class="cls-1" x="47" y="68" width="18" height="12"/><rect class="cls-1" x="52" y="58" width="13" height="10"/><rect class="cls-1" x="65" y="61" width="13" height="19"/></svg>