<svg id="Layer_1" data-name="Layer 1" xmlns="http://www.w3.org/2000/svg" viewBox="0 0 120 120"><defs><style>.cls-1{fill:#fff;}.cls-2{fill:#579bfc;}.cls-3{fill:none;stroke:#252e4a;stroke-linecap:round;stroke-linejoin:round;stroke-width:3px;}</style></defs><title>Employee</title><path class="cls-1" d="M79.05,29.06v.34s-1.21,20.79-8.44,28.11c-3.6,3.67-10.84,3.67-10.84,3.67s-7.22,0-10.84-3.67c-7.22-7.32-8.42-28.11-8.42-28.11s-1.16-17.7,23-19.46h.28a3.73,3.73,0,0,1,3.74,3.71C81.62,13.64,79.05,29.06,79.05,29.06Z"/><path class="cls-2" d="M104.83,85.59v14a2.56,2.56,0,0,1-1.25,2.21c-3.26,1.91-13.18,6.62-33.38,7.87l-.06-1L83,70.17C94.55,74,104.83,75.32,104.83,85.59Z"/><path class="cls-2" d="M70.14,108.71l.06,1c-3.18.2-6.62.31-10.34.31s-7.15-.11-10.34-.31l.06-1,7.71-29.55v-.4h5.14v.4Z"/><polygon class="cls-2" points="64.86 68.77 62.86 78.77 62.43 78.77 57.29 78.77 56.86 78.77 54.87 68.77 64.86 68.77"/><path class="cls-2" d="M36.74,70.17l12.84,38.54-.06,1c-20.19-1.25-30.12-6-33.37-7.87a2.56,2.56,0,0,1-1.25-2.21v-14C14.9,75.32,25.18,74,36.74,70.17Z"/><path class="cls-3" d="M48.21,31.63s20.55,1.29,20.55-10.27c0,0,2.57,7.7,10.29,7.7,0,0,2.57-15.42-11.56-15.42a3.73,3.73,0,0,0-3.74-3.71h-.28c-24.12,1.76-23,19.46-23,19.46s1.2,20.79,8.42,28.11c3.62,3.67,10.84,3.67,10.84,3.67s7.24,0,10.84-3.67c7.23-7.32,8.44-28.11,8.44-28.11"/><path class="cls-3" d="M57.29,79.16l-7.71,29.55L36.74,70.17C25.18,74,14.9,75.32,14.9,85.59v14a2.56,2.56,0,0,0,1.25,2.21c3.25,1.91,13.18,6.62,33.37,7.87,3.19.2,6.62.31,10.34.31s7.16-.11,10.34-.31c20.2-1.25,30.12-6,33.38-7.87a2.56,2.56,0,0,0,1.25-2.21v-14C104.83,75.32,94.55,74,83,70.17L70.14,108.71,62.43,79.16"/><polygon class="cls-3" points="57.29 78.77 56.86 78.77 54.87 68.77 64.86 68.77 62.86 78.77 62.43 78.77 57.29 78.77"/></svg>