<svg id="Layer_1" data-name="Layer 1" xmlns="http://www.w3.org/2000/svg" viewBox="0 0 120 120"><defs><style>.cls-1{fill:#fff;}.cls-1,.cls-2{stroke:#252e4a;stroke-linecap:round;stroke-linejoin:round;stroke-width:3px;}.cls-2{fill:#579bfc;}</style></defs><title>Entertainment</title><path class="cls-1" d="M21.89,98.84a3.69,3.69,0,0,0-.56-.74A3.75,3.75,0,1,0,16,103.4a3.52,3.52,0,0,0,.74.56,3.36,3.36,0,1,0,6.31,1.19,3.36,3.36,0,1,0-1.18-6.31Z"/><path class="cls-1" d="M40.83,30.22A4.92,4.92,0,0,0,41,29a5,5,0,0,0-10,0,4.92,4.92,0,0,0,.17,1.22A4.49,4.49,0,1,0,36,37.3a4.49,4.49,0,1,0,4.83-7.08Z"/><path class="cls-1" d="M44.17,32.78A4.92,4.92,0,0,0,44,34a5,5,0,0,0,10,0,4.92,4.92,0,0,0-.17-1.22A4.49,4.49,0,1,0,49,25.7a4.49,4.49,0,1,0-4.83,7.08Z"/><path class="cls-1" d="M77.83,30.22A4.92,4.92,0,0,0,78,29a5,5,0,0,0-10,0,4.92,4.92,0,0,0,.17,1.22A4.49,4.49,0,1,0,73,37.3a4.49,4.49,0,1,0,4.83-7.08Z"/><path class="cls-1" d="M82.83,21.22A4.92,4.92,0,0,0,83,20a5,5,0,0,0-10,0,4.92,4.92,0,0,0,.17,1.22A4.49,4.49,0,1,0,78,28.3a4.49,4.49,0,1,0,4.83-7.08Z"/><path class="cls-1" d="M62.83,20.22A4.92,4.92,0,0,0,63,19a5,5,0,0,0-10,0,4.92,4.92,0,0,0,.17,1.22A4.49,4.49,0,1,0,58,27.3a4.49,4.49,0,1,0,4.83-7.08Z"/><path class="cls-1" d="M80.17,33.78A4.92,4.92,0,0,0,80,35a5,5,0,0,0,10,0,4.92,4.92,0,0,0-.17-1.22A4.49,4.49,0,1,0,85,26.7a4.49,4.49,0,1,0-4.83,7.08Z"/><path class="cls-1" d="M38.17,22.78A4.92,4.92,0,0,0,38,24a5,5,0,0,0,10,0,4.92,4.92,0,0,0-.17-1.22A4.49,4.49,0,1,0,43,15.7a4.49,4.49,0,1,0-4.83,7.08Z"/><path class="cls-1" d="M65.83,30.22A4.92,4.92,0,0,0,66,29a5,5,0,0,0-10,0,4.92,4.92,0,0,0,.17,1.22A4.49,4.49,0,1,0,61,37.3a4.49,4.49,0,1,0,4.83-7.08Z"/><path class="cls-1" d="M69.83,16.22A4.92,4.92,0,0,0,70,15a5,5,0,0,0-10,0,4.92,4.92,0,0,0,.17,1.22A4.49,4.49,0,1,0,65,23.3a4.49,4.49,0,1,0,4.83-7.08Z"/><path class="cls-1" d="M58.83,16.22A4.92,4.92,0,0,0,59,15a5,5,0,0,0-10,0,4.92,4.92,0,0,0,.17,1.22A4.49,4.49,0,1,0,54,23.3a4.49,4.49,0,1,0,4.83-7.08Z"/><path class="cls-1" d="M72.83,21.22A4.92,4.92,0,0,0,73,20a5,5,0,0,0-10,0,4.92,4.92,0,0,0,.17,1.22A4.49,4.49,0,1,0,68,28.3a4.49,4.49,0,1,0,4.83-7.08Z"/><path class="cls-1" d="M34.83,100.22A4.92,4.92,0,0,0,35,99a5,5,0,0,0-10,0,4.92,4.92,0,0,0,.17,1.22A4.49,4.49,0,1,0,30,107.3a4.49,4.49,0,1,0,4.83-7.08Z"/><rect class="cls-2" x="22" y="36" width="76" height="12" rx="6" ry="6"/><path class="cls-2" d="M60,48H30l6.6,58.45a4,4,0,0,0,4,3.55H79.43a4,4,0,0,0,4-3.55L90,48Z"/><path class="cls-2" d="M30,48l6.6,58.45a4,4,0,0,0,4,3.55H49L45,48Z"/><path class="cls-2" d="M30,48l5.06,58.45c.17,2,1.49,3.55,3,3.55h6.46L41.5,48Z"/><polygon class="cls-1" points="53 48 55 110 44.57 110 40 48 53 48"/><path class="cls-2" d="M90,48l-5.06,58.45c-.17,2-1.49,3.55-3,3.55H75.43L78.5,48Z"/><polygon class="cls-1" points="67 48 65 110 75.43 110 80 48 67 48"/><circle class="cls-1" cx="60" cy="77" r="18"/><circle class="cls-2" cx="60" cy="77" r="8"/></svg>