<svg id="Layer_1" data-name="Layer 1" xmlns="http://www.w3.org/2000/svg" viewBox="0 0 120 120"><defs><style>.cls-1,.cls-5{fill:#579bfc;}.cls-1,.cls-2,.cls-3{stroke:#252e4a;stroke-linecap:round;stroke-linejoin:round;stroke-width:3px;}.cls-2{fill:none;}.cls-3,.cls-4{fill:#fff;}</style></defs><title>everywhere</title><circle class="cls-1" cx="60" cy="60" r="50"/><path class="cls-2" d="M73.71,46.55a63.2,63.2,0,0,1,8.74-2.27"/><circle class="cls-3" cx="90.65" cy="43.82" r="9.35"/><path class="cls-4" d="M77,61.35a26.16,26.16,0,0,1-5.2,15.12L70.63,76c0-2.18-2.17-3.26-6.51-1.09s-8.68-5.43-8.68-8.68,5.43-7.6,7.6-8.68,1.08-8.69,0-9.77-5.43,1.08-5.43,5.42-5.43,9.77-7.6,9.77-5.42-3.25-4.34-5.42,0-6.52,0-10.86,11.94-9.76,11.94-9.76L58,35.54A26.25,26.25,0,0,1,77,60.76C77,61,77,61.15,77,61.35Z"/><path class="cls-5" d="M70.63,76l1.14.51a26.25,26.25,0,0,1-45.77-7l.14,0c1.08,1.09,6.51,3.26,9.77,4.34s5.42,7.6,7.59,9.77S52.18,82.47,50,80.3s-2.17-8.69-4.34-9.77-6.51-2.17-9.76-4.34,0-6.51,2.17-11.94-7.6-7.6-8.69-7.6l-.55-.34A26.26,26.26,0,0,1,58,35.54l-.39,1.35s-11.94,5.42-11.94,9.76,1.09,8.69,0,10.86,2.17,5.42,4.34,5.42,7.6-5.42,7.6-9.77S62,46.65,63,47.74s2.17,8.68,0,9.77-7.6,5.42-7.6,8.68S59.78,77,64.12,74.87,70.63,73.78,70.63,76Z"/><path class="cls-4" d="M50,80.3c2.17,2.17-4.34,5.42-6.51,3.25s-4.34-8.68-7.59-9.77-8.69-3.25-9.77-4.34l-.14,0a26.3,26.3,0,0,1,2-21.75c.28-.49.58-1,.88-1.43l.55.34c1.09,0,10.86,2.17,8.69,7.6S32.65,64,35.91,66.19s7.59,3.25,9.76,4.34S47.84,78.13,50,80.3Z"/><path class="cls-2" d="M58,35.54A26.25,26.25,0,0,1,77,60.76c0,.2,0,.39,0,.59A26.23,26.23,0,1,1,28,47.74c.28-.49.58-1,.88-1.43A26.26,26.26,0,0,1,58,35.54Z"/><path class="cls-2" d="M29.39,46.65c1.09,0,10.86,2.17,8.69,7.6S32.65,64,35.91,66.19s7.59,3.25,9.76,4.34,2.17,7.6,4.34,9.77-4.34,5.42-6.51,3.25-4.34-8.68-7.59-9.77-8.69-3.25-9.77-4.34"/><path class="cls-2" d="M57.61,36.89s-11.94,5.42-11.94,9.76,1.09,8.69,0,10.86,2.17,5.42,4.34,5.42,7.6-5.42,7.6-9.77S62,46.65,63,47.74s2.17,8.68,0,9.77-7.6,5.42-7.6,8.68S59.78,77,64.12,74.87s6.51-1.09,6.51,1.09"/><path class="cls-2" d="M75,69.44s-1.09-4.34-3.26-4.34c-2,0,4.13-1.79,5.25-3.75a1.22,1.22,0,0,0,.18-.59"/><path class="cls-2" d="M92.63,45c2,4.06-12.2,15.13-31.71,24.72S24,83.83,22,79.76c-.81-1.63,1-4.38,4.71-7.72"/></svg>