<svg id="Layer_1" data-name="Layer 1" xmlns="http://www.w3.org/2000/svg" viewBox="0 0 120 120"><defs><style>.cls-1{fill:#579bfc;}.cls-1,.cls-2{stroke:#252e4a;stroke-linecap:round;stroke-linejoin:round;stroke-width:3px;}.cls-2{fill:#fff;}.cls-3{fill:#252e4a;}</style></defs><title>Finance_1</title><path class="cls-1" d="M73,20.75A10.88,10.88,0,0,1,84.08,9.88,11.1,11.1,0,0,1,94.75,21.11V50L94,110H30a8,8,0,0,1-8-8V21Z"/><path class="cls-2" d="M83.88,10S73,10.62,73,20.88H10S9,10.12,22,10.12,83.88,10,83.88,10Z"/><rect class="cls-2" x="30" y="35" width="24" height="19"/><rect class="cls-2" x="62" y="35" width="24" height="19"/><rect class="cls-2" x="30" y="66" width="24" height="19"/><rect class="cls-2" x="62" y="66" width="24" height="19"/><polyline class="cls-2" points="31 53 38 45 41 48 47 43"/><polyline class="cls-2" points="63 42 69 48 74 43 79 46"/><polyline class="cls-2" points="30 83 38 73 43 79 48 72"/><polyline class="cls-2" points="62 72 69 77 71 75 76 76 81 71"/><line class="cls-2" x1="30" y1="93" x2="68.35" y2="93"/><line class="cls-2" x1="30" y1="102" x2="75" y2="102"/><circle class="cls-2" cx="89.5" cy="89.5" r="20.5"/><path class="cls-3" d="M90.66,79v1.25a7.22,7.22,0,0,1,2.14.52,4.17,4.17,0,0,1,1.56,1.16,5.17,5.17,0,0,1,.81,1.22,2.84,2.84,0,0,1,.28,1.16,1.4,1.4,0,0,1-.42,1,1.49,1.49,0,0,1-2.51-.81,2.66,2.66,0,0,0-1.86-1.94v4.85c1,.26,1.73.5,2.31.72A4.83,4.83,0,0,1,94.5,89a4.37,4.37,0,0,1,1.11,1.54,4.78,4.78,0,0,1,.39,2A5.28,5.28,0,0,1,95.38,95a5,5,0,0,1-1.84,1.89,6.5,6.5,0,0,1-2.88.87v2.9a2.79,2.79,0,0,1-.13,1,.57.57,0,0,1-.59.31.67.67,0,0,1-.59-.26,1.47,1.47,0,0,1-.17-.79V97.81a7.82,7.82,0,0,1-2.38-.64A5.88,5.88,0,0,1,85.1,96a5.23,5.23,0,0,1-1-1.52,4.13,4.13,0,0,1-.32-1.54,1.42,1.42,0,0,1,.43-1,1.48,1.48,0,0,1,1.09-.45,1.51,1.51,0,0,1,.89.25,1.23,1.23,0,0,1,.5.69,14.36,14.36,0,0,0,.55,1.46,2.75,2.75,0,0,0,.7.92,3.08,3.08,0,0,0,1.25.64V90a14.78,14.78,0,0,1-2.61-1,4.57,4.57,0,0,1-1.7-1.51,5,5,0,0,1,.63-5.81,5.73,5.73,0,0,1,3.68-1.49V79c0-.65.25-1,.74-1S90.66,78.32,90.66,79Zm-1.48,8V82.49a4.07,4.07,0,0,0-1.52.76,2.17,2.17,0,0,0,0,2.84A4.86,4.86,0,0,0,89.18,87Zm1.48,3.46v5.1a3.18,3.18,0,0,0,1.82-.94,2.4,2.4,0,0,0,.64-1.66,2,2,0,0,0-.62-1.56A5,5,0,0,0,90.66,90.41Z"/></svg>