<svg id="Layer_1" data-name="Layer 1" xmlns="http://www.w3.org/2000/svg" viewBox="0 0 120 120"><defs><style>.cls-1{fill:#579bfc;}.cls-1,.cls-2{stroke:#252e4a;stroke-linecap:round;stroke-linejoin:round;stroke-width:3px;}.cls-2{fill:#fff;}</style></defs><title>finance</title><path class="cls-1" d="M96,110H27a4,4,0,0,1-4-4V27L39,10H96a4,4,0,0,1,4,4v92A4,4,0,0,1,96,110Z"/><rect class="cls-2" x="32" y="42" width="10" height="10"/><rect class="cls-2" x="42" y="42" width="50" height="10"/><rect class="cls-1" x="31" y="24" width="61" height="10"/><rect class="cls-2" x="32" y="52" width="10" height="10"/><rect class="cls-2" x="42" y="52" width="50" height="10"/><rect class="cls-2" x="32" y="62" width="10" height="10"/><rect class="cls-2" x="42" y="62" width="50" height="10"/><rect class="cls-2" x="32" y="72" width="10" height="10"/><rect class="cls-2" x="42" y="72" width="50" height="10"/><rect class="cls-2" x="32" y="82" width="10" height="10"/><rect class="cls-2" x="42" y="82" width="50" height="10"/><rect class="cls-2" x="32" y="92" width="10" height="10"/><rect class="cls-2" x="42" y="92" width="50" height="10"/><path class="cls-2" d="M111,96.12v9.25c0,2.56-7.77,4.63-17.35,4.63s-17.36-2.07-17.36-4.63V96.12"/><ellipse class="cls-2" cx="93.65" cy="96.12" rx="17.35" ry="4.63"/><path class="cls-2" d="M104.06,84.55V93.8c0,2.56-7.77,4.63-17.35,4.63S69.35,96.36,69.35,93.8V84.55"/><ellipse class="cls-2" cx="86.71" cy="84.55" rx="17.35" ry="4.63"/><path class="cls-2" d="M111,74.14v9.25C111,86,103.23,88,93.65,88S76.29,86,76.29,83.39V74.14"/><ellipse class="cls-2" cx="93.65" cy="74.14" rx="17.35" ry="4.63"/><path class="cls-2" d="M105.22,64.88v9.26c0,2.55-7.77,4.62-17.36,4.62s-17.35-2.07-17.35-4.62V64.88"/><ellipse class="cls-2" cx="87.86" cy="64.88" rx="17.35" ry="4.63"/><path class="cls-2" d="M110.11,55.23v9.25c0,2.56-7.77,4.63-17.36,4.63S75.4,67,75.4,64.48V55.23"/><ellipse class="cls-2" cx="92.75" cy="55.23" rx="17.35" ry="4.63"/><polygon class="cls-2" points="23 27 38 27 38 10 23 27"/></svg>