<svg id="Layer_1" data-name="Layer 1" xmlns="http://www.w3.org/2000/svg" viewBox="0 0 120 120"><defs><style>.cls-1{fill:#579bfc;}.cls-1,.cls-2{stroke:#252e4a;stroke-linecap:round;stroke-linejoin:round;stroke-width:3px;}.cls-2{fill:#fff;}</style></defs><title>Finance</title><path class="cls-1" d="M73,20.75A10.88,10.88,0,0,1,84.08,9.88,11.1,11.1,0,0,1,94.75,21.11V50L94,110H30a8,8,0,0,1-8-8V21Z"/><path class="cls-2" d="M83.88,10S73,10.62,73,20.87H10S9,10.12,22,10.12,83.88,10,83.88,10Z"/><rect class="cls-2" x="30" y="35" width="24" height="19"/><rect class="cls-2" x="62" y="35" width="24" height="19"/><rect class="cls-2" x="30" y="66" width="24" height="19"/><rect class="cls-2" x="62" y="66" width="24" height="19"/><polyline class="cls-2" points="31 53 38 45 41 48 47 43"/><polyline class="cls-2" points="63 42 69 48 74 43 79 46"/><polyline class="cls-2" points="30 83 38 73 43 79 48 72"/><polyline class="cls-2" points="62 72 69 77 71 75 76 76 81 71"/><path class="cls-2" d="M110,96.12v9.25c0,2.56-7.77,4.63-17.35,4.63s-17.36-2.07-17.36-4.63V96.12"/><ellipse class="cls-2" cx="92.65" cy="96.12" rx="17.35" ry="4.63"/><path class="cls-2" d="M103.06,84.55V93.8c0,2.56-7.77,4.63-17.35,4.63S68.35,96.36,68.35,93.8V84.55"/><ellipse class="cls-2" cx="85.71" cy="84.55" rx="17.35" ry="4.63"/><path class="cls-2" d="M110,74.14v9.25C110,86,102.23,88,92.65,88S75.29,86,75.29,83.39V74.14"/><ellipse class="cls-2" cx="92.65" cy="74.14" rx="17.35" ry="4.63"/><path class="cls-2" d="M104.22,64.88v9.26c0,2.55-7.77,4.62-17.36,4.62s-17.35-2.07-17.35-4.62V64.88"/><ellipse class="cls-2" cx="86.86" cy="64.88" rx="17.35" ry="4.63"/><path class="cls-2" d="M109.11,55.23v9.25c0,2.56-7.77,4.63-17.36,4.63S74.4,67,74.4,64.48V55.23"/><ellipse class="cls-2" cx="91.75" cy="55.23" rx="17.35" ry="4.63"/><line class="cls-2" x1="30" y1="93" x2="68.35" y2="93"/><line class="cls-2" x1="30" y1="102" x2="75" y2="102"/></svg>