<svg id="Layer_1" data-name="Layer 1" xmlns="http://www.w3.org/2000/svg" viewBox="0 0 120 120"><defs><style>.cls-1{fill:#fff;stroke-linecap:round;stroke-linejoin:round;}.cls-1,.cls-2{stroke:#252e4a;stroke-width:3px;}.cls-2,.cls-3{fill:#579bfc;}.cls-2{stroke-miterlimit:10;}.cls-4{fill:#252e4a;}</style></defs><title>Freemium</title><path class="cls-1" d="M14.32,10h91.36A4.32,4.32,0,0,1,110,14.32V24a0,0,0,0,1,0,0H10a0,0,0,0,1,0,0V14.32A4.32,4.32,0,0,1,14.32,10Z"/><path class="cls-2" d="M10,24H110a0,0,0,0,1,0,0v82a4,4,0,0,1-4,4H14a4,4,0,0,1-4-4V24a0,0,0,0,1,0,0Z"/><circle class="cls-3" cx="16.5" cy="17" r="2"/><circle class="cls-3" cx="21.5" cy="17" r="2"/><circle class="cls-3" cx="26.5" cy="17" r="2"/><rect class="cls-1" x="21" y="35" width="79" height="11"/><rect class="cls-1" x="21" y="53" width="20" height="19"/><rect class="cls-1" x="50" y="53" width="20" height="19"/><rect class="cls-1" x="80" y="53" width="20" height="19"/><rect class="cls-1" x="21" y="79" width="20" height="19"/><rect class="cls-1" x="50" y="79" width="20" height="19"/><rect class="cls-1" x="80" y="79" width="20" height="19"/><circle class="cls-1" cx="87" cy="87" r="23"/><path class="cls-4" d="M87.85,75V76.4a8,8,0,0,1,2.31.55,4.52,4.52,0,0,1,1.69,1.27,5,5,0,0,1,.87,1.32A3,3,0,0,1,93,80.79a1.57,1.57,0,0,1-1.57,1.55A1.57,1.57,0,0,1,89.85,81a2.84,2.84,0,0,0-2-2.09v5.25q1.56.44,2.49.78A5.2,5.2,0,0,1,92,86a4.68,4.68,0,0,1,1.2,1.65,5.12,5.12,0,0,1,.43,2.12A5.57,5.57,0,0,1,93,92.43a5.28,5.28,0,0,1-2,2,7,7,0,0,1-3.11,1v3.14a2.91,2.91,0,0,1-.15,1.09.62.62,0,0,1-.64.34.68.68,0,0,1-.63-.28,1.5,1.5,0,0,1-.19-.86v-3.4a7.87,7.87,0,0,1-2.58-.7,6,6,0,0,1-1.84-1.32,5.33,5.33,0,0,1-1.09-1.64,4.26,4.26,0,0,1-.36-1.67A1.51,1.51,0,0,1,80.85,89,1.55,1.55,0,0,1,82,88.55a1.65,1.65,0,0,1,1,.27,1.33,1.33,0,0,1,.54.74c.23.69.42,1.22.59,1.59a3.13,3.13,0,0,0,.77,1,3.44,3.44,0,0,0,1.35.69V87a14.77,14.77,0,0,1-2.82-1,4.7,4.7,0,0,1-1.85-1.63A5.44,5.44,0,0,1,82.25,78a6.2,6.2,0,0,1,4-1.61V75.06c0-.71.27-1.06.8-1.06S87.85,74.34,87.85,75Zm-1.61,8.66V78.86a4.47,4.47,0,0,0-1.65.83,2.37,2.37,0,0,0,0,3.08A5.05,5.05,0,0,0,86.24,83.69Zm1.61,3.75V93a3.46,3.46,0,0,0,2-1,2.58,2.58,0,0,0,.7-1.79,2.15,2.15,0,0,0-.68-1.7A5.52,5.52,0,0,0,87.85,87.44Z"/></svg>