<svg id="Layer_1" data-name="Layer 1" xmlns="http://www.w3.org/2000/svg" viewBox="0 0 120 120"><defs><style>.cls-1{fill:#579bfc;}.cls-1,.cls-2{stroke:#252e4a;stroke-linecap:round;stroke-linejoin:round;stroke-width:3px;}.cls-2{fill:#fff;}</style></defs><title>general</title><path class="cls-1" d="M102.17,110H17.83A3.92,3.92,0,0,1,14,106V61h92v45A3.92,3.92,0,0,1,102.17,110Z"/><path class="cls-2" d="M110,50.68V37a4,4,0,0,0-4-4H14a4,4,0,0,0-4,4V50.68A22.06,22.06,0,0,0,27.33,72.22C38,74.56,51.14,77,60,77s22-2.44,32.67-4.78A22.06,22.06,0,0,0,110,50.68Z"/><rect class="cls-2" x="50" y="69" width="20" height="14"/><rect class="cls-2" x="53" y="83" width="14" height="27"/><path class="cls-1" d="M69.74,10H50.26A10.26,10.26,0,0,0,40,20.26V33h9.57V23.07A5.07,5.07,0,0,1,54.64,18H65.36a5.07,5.07,0,0,1,5.07,5.07V33H80V20.26A10.26,10.26,0,0,0,69.74,10Z"/><line class="cls-1" x1="55" y1="76" x2="65" y2="76"/></svg>