<svg id="Layer_1" data-name="Layer 1" xmlns="http://www.w3.org/2000/svg" viewBox="0 0 120 120"><defs><style>.cls-1{fill:#579bfc;}.cls-1,.cls-2{stroke:#252e4a;stroke-linecap:round;stroke-linejoin:round;stroke-width:3px;}.cls-2{fill:#fff;}</style></defs><title>Health</title><circle class="cls-1" cx="60" cy="60" r="50"/><path class="cls-2" d="M81,51.5H69v-12A3.46,3.46,0,0,0,65.54,36H54.46A3.46,3.46,0,0,0,51,39.46v12H39A3.46,3.46,0,0,0,35.5,55V66A3.46,3.46,0,0,0,39,69.5H51v12A3.46,3.46,0,0,0,54.46,85H65.54A3.46,3.46,0,0,0,69,81.54v-12H81A3.46,3.46,0,0,0,84.5,66V55A3.46,3.46,0,0,0,81,51.5Z"/></svg>