<svg id="Layer_1" data-name="Layer 1" xmlns="http://www.w3.org/2000/svg" viewBox="0 0 120 120"><defs><style>.cls-1,.cls-3{fill:#579bfc;}.cls-1,.cls-2,.cls-3,.cls-4{stroke:#252e4a;stroke-width:3px;}.cls-1{stroke-miterlimit:10;}.cls-2{fill:#fff;}.cls-2,.cls-3,.cls-4{stroke-linecap:round;stroke-linejoin:round;}.cls-4{fill:none;}</style></defs><title>HR</title><path class="cls-1" d="M60,31.69A31.32,31.32,0,1,0,91.33,63,31.32,31.32,0,0,0,60,31.69ZM60,86A23,23,0,1,1,83,63,23,23,0,0,1,60,86Z"/><path class="cls-2" d="M79,88.25h0L96.44,105.7a4.42,4.42,0,0,0,6.26,0h0a4.42,4.42,0,0,0,0-6.26L85.25,82h0A24.86,24.86,0,0,1,79,88.25Z"/><circle class="cls-3" cx="60.01" cy="53.07" r="6.96"/><path class="cls-3" d="M72.54,72.56a12.53,12.53,0,0,0-25.06,0A66.41,66.41,0,0,0,60,74,66.27,66.27,0,0,0,72.54,72.56Z"/><circle class="cls-2" cx="100.63" cy="56.65" r="5.21"/><path class="cls-2" d="M110,71.23a9.38,9.38,0,0,0-18.75,0,49.65,49.65,0,0,0,9.37,1A49.69,49.69,0,0,0,110,71.23Z"/><circle class="cls-2" cx="19.38" cy="56.65" r="5.21"/><path class="cls-2" d="M28.75,71.23a9.38,9.38,0,0,0-18.75,0,49.69,49.69,0,0,0,9.38,1A49.65,49.65,0,0,0,28.75,71.23Z"/><path class="cls-4" d="M82,63.07a4.6,4.6,0,0,1-2.09-8.7"/><path class="cls-4" d="M82,63.07a8.28,8.28,0,0,0-8.28,8.27,44.71,44.71,0,0,0,6.19.85"/><path class="cls-4" d="M38,63.07a4.6,4.6,0,0,0,2.09-8.7"/><path class="cls-4" d="M38,63.07a8.28,8.28,0,0,1,8.28,8.27s-3.94.64-7.28.85"/><line class="cls-4" x1="60" y1="13" x2="60" y2="24.25"/><line class="cls-4" x1="78.75" y1="16.65" x2="74.53" y2="27.08"/><line class="cls-4" x1="94.76" y1="27.06" x2="86.94" y2="35.15"/><line class="cls-4" x1="40.78" y1="16.65" x2="45" y2="27.08"/><line class="cls-4" x1="24.77" y1="27.06" x2="32.59" y2="35.15"/></svg>