<svg id="Layer_1" data-name="Layer 1" xmlns="http://www.w3.org/2000/svg" viewBox="0 0 120 120"><defs><style>.cls-1{fill:#fff;}.cls-1,.cls-2,.cls-4{stroke:#252e4a;}.cls-1,.cls-3,.cls-4{stroke-linecap:round;stroke-linejoin:round;}.cls-1,.cls-2,.cls-3,.cls-4{stroke-width:3px;}.cls-2,.cls-3{fill:#579bfc;}.cls-2{stroke-miterlimit:10;}.cls-3{stroke:#fff;}.cls-4{fill:none;}</style></defs><title>Artboard 18</title><rect class="cls-1" x="29" y="10" width="62" height="100" rx="4" ry="4"/><path class="cls-2" d="M67.12,99.84,32.25,110A3.26,3.26,0,0,1,29,106.75V13.25A3.26,3.26,0,0,1,32.25,10L67.12,20.16A4,4,0,0,1,70,24V96A4,4,0,0,1,67.12,99.84Z"/><path class="cls-3" d="M64,72V90a2.63,2.63,0,0,1-1.9,2.53l-23,6.69A2.14,2.14,0,0,1,37,97.08V21.92a2.14,2.14,0,0,1,2.14-2.14l23,6.69A2.63,2.63,0,0,1,64,29V47"/><ellipse class="cls-3" cx="63" cy="59.5" rx="3" ry="4.5"/><line class="cls-4" x1="103" y1="60" x2="80" y2="60"/><polyline class="cls-4" points="85 54 79 60 85 66"/></svg>