<svg id="Layer_1" data-name="Layer 1" xmlns="http://www.w3.org/2000/svg" viewBox="0 0 120 120"><defs><style>.cls-1,.cls-4{fill:#fff;}.cls-1,.cls-2,.cls-4,.cls-5{stroke:#252e4a;stroke-width:3px;}.cls-1,.cls-5{stroke-linecap:round;stroke-linejoin:round;}.cls-2,.cls-5{fill:#579bfc;}.cls-2,.cls-4{stroke-miterlimit:10;}.cls-3{fill:#252e4a;}</style></defs><title>IT</title><rect class="cls-1" x="10" y="10" width="100" height="79" rx="4.11" ry="4.11"/><rect class="cls-2" x="16" y="16.32" width="88" height="55.62" rx="2.05" ry="2.05"/><circle class="cls-3" cx="60" cy="80" r="4"/><rect class="cls-4" x="45" y="89" width="30" height="16"/><path class="cls-1" d="M40.75,105H79.25A4.75,4.75,0,0,1,84,109.75V110a0,0,0,0,1,0,0H36a0,0,0,0,1,0,0v-.25A4.75,4.75,0,0,1,40.75,105Z"/><path class="cls-1" d="M78.47,57.87,53.13,33.65a7.81,7.81,0,0,0-2.06-8.28,8.81,8.81,0,0,0-8.57-2,.52.52,0,0,0-.22.87l4.89,4.65a3,3,0,0,1,.31,4.1,3.24,3.24,0,0,1-4.64.22l-5-4.61a.57.57,0,0,0-.92.22,7.86,7.86,0,0,0,2.15,8,8.84,8.84,0,0,0,9.18,1.79L73.49,62.78a3.71,3.71,0,0,0,5.38-.34A3.35,3.35,0,0,0,78.47,57.87Z"/><path class="cls-1" d="M41.38,57.87,66.73,33.65a7.83,7.83,0,0,1,2-8.28,8.81,8.81,0,0,1,8.57-2,.52.52,0,0,1,.22.87l-4.89,4.65a3,3,0,0,0-.3,4.1,3.24,3.24,0,0,0,4.64.22l5-4.61a.56.56,0,0,1,.91.22,7.82,7.82,0,0,1-2.15,8,8.83,8.83,0,0,1-9.17,1.79L46.36,62.78A3.7,3.7,0,0,1,41,62.44,3.35,3.35,0,0,1,41.38,57.87Z"/><path class="cls-1" d="M75.83,48.59v-.16a2.26,2.26,0,0,0-2.26-2.26h0a2.27,2.27,0,0,1-2.14-1.54A10.86,10.86,0,0,0,71,43.47a2.28,2.28,0,0,1,.41-2.62h0a2.25,2.25,0,0,0,0-3.2l-.11-.11a2.26,2.26,0,0,0-3.19,0h0a2.3,2.3,0,0,1-2.62.42,11.79,11.79,0,0,0-1.16-.48,2.28,2.28,0,0,1-1.55-2.14h0a2.26,2.26,0,0,0-2.26-2.26h-.15a2.26,2.26,0,0,0-2.26,2.26h0a2.28,2.28,0,0,1-1.55,2.14,11.79,11.79,0,0,0-1.16.48,2.3,2.3,0,0,1-2.62-.42h0a2.26,2.26,0,0,0-3.19,0l-.11.11a2.25,2.25,0,0,0,0,3.2h0a2.28,2.28,0,0,1,.41,2.62,10.86,10.86,0,0,0-.48,1.16,2.27,2.27,0,0,1-2.14,1.54h0A2.26,2.26,0,0,0,45,48.43v.16a2.26,2.26,0,0,0,2.26,2.26h0a2.28,2.28,0,0,1,2.14,1.55c.14.39.3.78.48,1.16a2.26,2.26,0,0,1-.41,2.61h0a2.25,2.25,0,0,0,0,3.2l.11.11a2.24,2.24,0,0,0,3.19,0h0a2.3,2.3,0,0,1,2.62-.42,11.79,11.79,0,0,0,1.16.48,2.29,2.29,0,0,1,1.55,2.15h0A2.26,2.26,0,0,0,60.32,64h.15a2.26,2.26,0,0,0,2.26-2.26h0a2.29,2.29,0,0,1,1.55-2.15,11.79,11.79,0,0,0,1.16-.48,2.3,2.3,0,0,1,2.62.42h0a2.24,2.24,0,0,0,3.19,0l.11-.11a2.25,2.25,0,0,0,0-3.2h0A2.26,2.26,0,0,1,71,53.56c.18-.38.34-.77.48-1.16a2.28,2.28,0,0,1,2.14-1.55h0A2.26,2.26,0,0,0,75.83,48.59Z"/><circle class="cls-5" cx="59.46" cy="48.82" r="4.14"/></svg>