<svg id="Layer_1" data-name="Layer 1" xmlns="http://www.w3.org/2000/svg" viewBox="0 0 120 120"><defs><style>.cls-1,.cls-4{fill:#fff;}.cls-1,.cls-2,.cls-4{stroke:#252e4a;stroke-width:3px;}.cls-1{stroke-linecap:round;stroke-linejoin:round;}.cls-2{fill:#579bfc;}.cls-2,.cls-4{stroke-miterlimit:10;}.cls-3{fill:#252e4a;}</style></defs><title>IT_1</title><rect class="cls-1" x="10" y="10" width="100" height="79" rx="4.11" ry="4.11"/><rect class="cls-2" x="16.5" y="16" width="88" height="55.62" rx="2.05" ry="2.05"/><circle class="cls-3" cx="60" cy="80" r="4"/><rect class="cls-4" x="45" y="89" width="30" height="16"/><path class="cls-1" d="M40.75,105H79.25A4.75,4.75,0,0,1,84,109.75V110a0,0,0,0,1,0,0H36a0,0,0,0,1,0,0v-.25A4.75,4.75,0,0,1,40.75,105Z"/><path class="cls-1" d="M81,44.11v-.22a3.08,3.08,0,0,0-3.08-3.07h0A3.11,3.11,0,0,1,75,38.72a15.67,15.67,0,0,0-.66-1.59,3.1,3.1,0,0,1,.57-3.55h0a3.06,3.06,0,0,0,0-4.35l-.15-.15a3.06,3.06,0,0,0-4.35,0h0a3.1,3.1,0,0,1-3.55.57A15.67,15.67,0,0,0,65.28,29a3.11,3.11,0,0,1-2.1-2.91h0A3.08,3.08,0,0,0,60.11,23h-.22a3.08,3.08,0,0,0-3.07,3.08h0A3.11,3.11,0,0,1,54.72,29a15.67,15.67,0,0,0-1.59.66,3.1,3.1,0,0,1-3.55-.57h0a3.06,3.06,0,0,0-4.35,0l-.15.15a3.06,3.06,0,0,0,0,4.35h0a3.1,3.1,0,0,1,.57,3.55A15.67,15.67,0,0,0,45,38.72a3.11,3.11,0,0,1-2.91,2.1h0A3.08,3.08,0,0,0,39,43.89v.22a3.08,3.08,0,0,0,3.08,3.07h0A3.11,3.11,0,0,1,45,49.28a15.67,15.67,0,0,0,.66,1.59,3.1,3.1,0,0,1-.57,3.55h0a3.06,3.06,0,0,0,0,4.35l.15.15a3.06,3.06,0,0,0,4.35,0h0a3.1,3.1,0,0,1,3.55-.57,15.67,15.67,0,0,0,1.59.66,3.11,3.11,0,0,1,2.1,2.91h0A3.08,3.08,0,0,0,59.89,65h.22a3.08,3.08,0,0,0,3.07-3.08h0A3.11,3.11,0,0,1,65.28,59a15.67,15.67,0,0,0,1.59-.66,3.1,3.1,0,0,1,3.55.57h0a3.06,3.06,0,0,0,4.35,0l.15-.15a3.06,3.06,0,0,0,0-4.35h0a3.1,3.1,0,0,1-.57-3.55A15.67,15.67,0,0,0,75,49.28a3.11,3.11,0,0,1,2.91-2.1h0A3.08,3.08,0,0,0,81,44.11Z"/><circle class="cls-2" cx="60" cy="44" r="5"/></svg>