<svg id="Layer_1" data-name="Layer 1" xmlns="http://www.w3.org/2000/svg" viewBox="0 0 120 120"><defs><style>.cls-1{fill:#fff;}.cls-2{fill:#579bfc;}.cls-3{fill:none;stroke:#252e4a;stroke-linecap:round;stroke-linejoin:round;stroke-width:3px;}</style></defs><title>Marketplace</title><path class="cls-1" d="M42,35.21a7.37,7.37,0,0,1-1,1.25c-2,2-6,2-6,2s-4,0-6-2a6.86,6.86,0,0,1-1-1.25c-3.14-4.78-3.7-14.38-3.7-14.38S23.64,11,37.06,10h.16a2.07,2.07,0,0,1,2.07,2.07c7.85,0,6.42,8.57,6.42,8.57v.19S45.15,30.43,42,35.21Z"/><path class="cls-2" d="M60,52.07v7.79a1.41,1.41,0,0,1-.69,1.23c-2.1,1.23-9.17,4.55-24.31,4.55s-22.21-3.32-24.31-4.55A1.41,1.41,0,0,1,10,59.86V52.07c0-5.71,7.86-7.14,14.29-9.29a7.8,7.8,0,0,0,1.45-.63,9.93,9.93,0,0,0,18.52,0,7.8,7.8,0,0,0,1.45.63C52.14,44.93,60,46.36,60,52.07Z"/><path class="cls-1" d="M25.74,42.15c3.85-2.09,2.67-5.89,2.25-6.94a6.86,6.86,0,0,0,1,1.25c2,2,6,2,6,2s4,0,6-2a7.37,7.37,0,0,0,1-1.25c-.43,1-1.61,4.85,2.24,6.94a9.93,9.93,0,0,1-18.52,0Z"/><path class="cls-2" d="M110,96.43v7.79a1.43,1.43,0,0,1-.69,1.23c-2.1,1.23-9.17,4.55-24.31,4.55s-22.21-3.32-24.31-4.55a1.43,1.43,0,0,1-.69-1.23V96.43c0-5.72,7.86-7.14,14.29-9.29a7.8,7.8,0,0,0,1.45-.63,9.93,9.93,0,0,0,18.52,0,7.8,7.8,0,0,0,1.45.63C102.14,89.29,110,90.71,110,96.43Z"/><path class="cls-1" d="M78,79.57c-3.14-4.78-3.7-14.38-3.7-14.38s-.65-9.84,12.77-10.83h.14a2.08,2.08,0,0,1,2.09,2.07c7.85,0,6.42,8.57,6.42,8.57v.19s-.56,9.6-3.69,14.38a7.37,7.37,0,0,1-1,1.25c-2,2-6,2-6,2s-4,0-6-2A6.86,6.86,0,0,1,78,79.57Z"/><path class="cls-1" d="M94.26,86.51a9.93,9.93,0,0,1-18.52,0c3.85-2.09,2.67-5.89,2.25-6.94a6.86,6.86,0,0,0,1,1.25c2,2,6,2,6,2s4,0,6-2a7.37,7.37,0,0,0,1-1.25C91.59,80.62,90.41,84.42,94.26,86.51Z"/><path class="cls-3" d="M92.14,79.29s0,.1-.12.28c-.43,1.05-1.61,4.85,2.24,6.94a7.8,7.8,0,0,0,1.45.63c6.43,2.15,14.29,3.57,14.29,9.29v7.79a1.43,1.43,0,0,1-.69,1.23c-2.1,1.23-9.17,4.55-24.31,4.55s-22.21-3.32-24.31-4.55a1.43,1.43,0,0,1-.69-1.23V96.43c0-5.72,7.86-7.14,14.29-9.29a7.8,7.8,0,0,0,1.45-.63c3.85-2.09,2.67-5.89,2.25-6.94l-.13-.28"/><path class="cls-3" d="M75.71,86.43l0,.08a9.93,9.93,0,0,0,18.52,0l0-.08"/><path class="cls-3" d="M78.57,66.43S90,67.14,90,60.71c0,0,1.43,4.29,5.71,4.29,0,0,1.43-8.57-6.42-8.57a2.08,2.08,0,0,0-2.09-2.07h-.14c-13.42,1-12.77,10.83-12.77,10.83s.56,9.6,3.7,14.38a6.86,6.86,0,0,0,1,1.25c2,2,6,2,6,2s4,0,6-2a7.37,7.37,0,0,0,1-1.25c3.13-4.78,3.69-14.38,3.69-14.38"/><path class="cls-3" d="M42.14,34.93s0,.1-.12.28c-.43,1-1.61,4.85,2.24,6.94a7.8,7.8,0,0,0,1.45.63C52.14,44.93,60,46.36,60,52.07v7.79a1.41,1.41,0,0,1-.69,1.23c-2.1,1.23-9.17,4.55-24.31,4.55s-22.21-3.32-24.31-4.55A1.41,1.41,0,0,1,10,59.86V52.07c0-5.71,7.86-7.14,14.29-9.29a7.8,7.8,0,0,0,1.45-.63c3.85-2.09,2.67-5.89,2.25-6.94l-.13-.28"/><path class="cls-3" d="M25.71,42.07l0,.08a9.93,9.93,0,0,0,18.52,0l0-.08"/><path class="cls-3" d="M28.57,22.07S40,22.78,40,16.36c0,0,1.43,4.28,5.71,4.28,0,0,1.43-8.57-6.42-8.57A2.07,2.07,0,0,0,37.22,10h-.16C23.64,11,24.29,20.83,24.29,20.83s.56,9.6,3.7,14.38a6.86,6.86,0,0,0,1,1.25c2,2,6,2,6,2s4,0,6-2a7.37,7.37,0,0,0,1-1.25c3.13-4.78,3.69-14.38,3.69-14.38"/><path class="cls-3" d="M43,98.42l-.13-.06A42.12,42.12,0,0,1,19.74,72"/><path class="cls-3" d="M77,21.58A42.1,42.1,0,0,1,100.26,48"/><polyline class="cls-3" points="42 94 42.87 98.36 43 99 39 100"/><polyline class="cls-3" points="77 26 76 21 80 19"/></svg>