<svg id="Layer_1" data-name="Layer 1" xmlns="http://www.w3.org/2000/svg" viewBox="0 0 120 120"><defs><style>.cls-1{fill:#3773c8;}.cls-1,.cls-2,.cls-3,.cls-4{stroke:#252e4a;stroke-linecap:round;stroke-linejoin:round;stroke-width:3px;}.cls-2{fill:#fff;}.cls-3{fill:#579bfc;}.cls-4{fill:none;}</style></defs><title>marketing</title><rect class="cls-1" x="10" y="51" width="5" height="9"/><path class="cls-2" d="M19,41H44a0,0,0,0,1,0,0V70a0,0,0,0,1,0,0H19a4,4,0,0,1-4-4V45A4,4,0,0,1,19,41Z"/><polygon class="cls-3" points="44 41 75 28 75 84 44 70 44 41"/><path class="cls-3" d="M41,70l-5,9,4,10.6A4,4,0,0,1,36.23,95H28.28a4,4,0,0,1-3.92-3.22L20,70Z"/><path class="cls-2" d="M75,65a9,9,0,0,0,0-18Z"/><path class="cls-4" d="M86.33,43.67a17.45,17.45,0,0,1,0,24.66"/><path class="cls-4" d="M92.91,37.09a26.73,26.73,0,0,1,0,37.82"/><path class="cls-4" d="M99.5,30.5a36.07,36.07,0,0,1,0,51"/></svg>