<svg id="Layer_1" data-name="Layer 1" xmlns="http://www.w3.org/2000/svg" viewBox="0 0 120 120"><defs><style>.cls-1{fill:#3773c8;}.cls-1,.cls-2,.cls-3,.cls-4{stroke:#252e4a;stroke-linecap:round;stroke-linejoin:round;stroke-width:3px;}.cls-2{fill:#fff;}.cls-3{fill:#579bfc;}.cls-4{fill:none;}</style></defs><title>martech</title><rect class="cls-1" x="10" y="41" width="5" height="9"/><path class="cls-2" d="M19,31H44a0,0,0,0,1,0,0V60a0,0,0,0,1,0,0H19a4,4,0,0,1-4-4V35A4,4,0,0,1,19,31Z"/><polygon class="cls-3" points="44 31 75 18 75 74 44 60 44 31"/><path class="cls-3" d="M41,60l-5,9,4,10.6A4,4,0,0,1,36.23,85H28.28a4,4,0,0,1-3.92-3.22L20,60Z"/><path class="cls-2" d="M75,55a9,9,0,0,0,0-18Z"/><path class="cls-4" d="M86.33,33.67a17.45,17.45,0,0,1,0,24.66"/><path class="cls-4" d="M92.91,27.09a26.73,26.73,0,0,1,0,37.82"/><path class="cls-4" d="M99.5,20.5a36.07,36.07,0,0,1,0,51"/><circle class="cls-2" cx="85" cy="85" r="25"/><ellipse class="cls-4" cx="85" cy="85" rx="9" ry="19"/><ellipse class="cls-4" cx="85" cy="85" rx="9" ry="19" transform="translate(-30.19 119.35) rotate(-61.61)"/><ellipse class="cls-4" cx="85" cy="85" rx="19" ry="9" transform="translate(-30.19 50.65) rotate(-28.39)"/><circle class="cls-3" cx="85" cy="85" r="5"/></svg>