<svg id="Layer_1" data-name="Layer 1" xmlns="http://www.w3.org/2000/svg" viewBox="0 0 120 120"><defs><style>.cls-1{fill:#fff;}.cls-1,.cls-2,.cls-3{stroke:#252e4a;}.cls-1,.cls-3,.cls-4{stroke-linecap:round;stroke-linejoin:round;}.cls-1,.cls-2,.cls-3,.cls-4{stroke-width:3px;}.cls-2,.cls-3{fill:#579bfc;}.cls-2{stroke-miterlimit:10;}.cls-4{fill:none;stroke:#fff;}</style></defs><title>1mobile</title><rect class="cls-1" x="31" y="10" width="58" height="100" rx="4.31" ry="4.31"/><path class="cls-2" d="M37,15a1,1,0,0,0-1,1v88a1,1,0,0,0,1,1H83a1,1,0,0,0,1-1V16a1,1,0,0,0-1-1H75a1,1,0,0,0-1,1h0a4.51,4.51,0,0,1-4.51,4.51h-19A4.51,4.51,0,0,1,46,16h0a1,1,0,0,0-1-1Z"/><line class="cls-3" x1="54" y1="16" x2="63" y2="16"/><line class="cls-3" x1="67" y1="16" x2="67" y2="16"/><line class="cls-4" x1="60" y1="97.4" x2="76.4" y2="81"/><line class="cls-4" x1="68.4" y1="99" x2="78" y2="89.4"/></svg>