<?xml version="1.0" encoding="utf-8"?>
<!-- Generator: Adobe Illustrator 18.0.0, SVG Export Plug-In . SVG Version: 6.00 Build 0)  -->
<!DOCTYPE svg PUBLIC "-//W3C//DTD SVG 1.1//EN" "http://www.w3.org/Graphics/SVG/1.1/DTD/svg11.dtd">
<svg version="1.1" id="Capa_1" xmlns="http://www.w3.org/2000/svg" xmlns:xlink="http://www.w3.org/1999/xlink" x="0px" y="0px"
	 viewBox="0 64.2 612 608" enable-background="new 0 64.2 612 608" xml:space="preserve">
<g>
	<path fill="#176ECB" d="M302.8,672.1c46.5,0.5,93.2-10.1,135.1-30.3c6.2-3,8.8-10.4,5.8-16.6c-3-6.2-10.4-8.8-16.6-5.8
		c-38.6,18.6-81.5,28.2-124.1,27.6c-44.6-0.5-87.5-11.3-127.4-32.2C39.4,543.1-12.8,374,58.9,237.9s240.9-188.4,377-116.6
		s188.5,240.9,116.6,377c-3.2,5.9-0.9,13.6,5.1,16.7c6.1,3.2,13.6,0.9,16.7-5.1c78.2-148.2,21.2-332.2-127-410.6
		S115.3,78.2,37.1,226.4S15.9,558.6,164.1,637C206.9,659.6,254.9,671.7,302.8,672.1z"/>
</g>
<g>
	<path fill="#176ECB" d="M303.2,622.9c38.4,0.3,77.1-8.3,111.8-25c5-2.5,7.2-8.6,4.7-13.7c-2.5-5-8.6-7.2-13.7-4.7
		c-32,15.4-67.4,23.3-102.5,23c-37-0.3-72.4-9.3-105.4-26.7c-112.7-59.4-156-199.3-96.5-311.8s199.3-156,312-96.5
		s155.9,199.3,96.4,311.8c-2.6,5-0.8,11.2,4.2,13.8c5,2.6,11.2,0.8,13.8-4.2c64.6-122.5,17.5-274.8-105-339.5S148,131.9,83.4,254.4
		s-17.5,274.8,105,339.5C223.9,612.5,263.5,622.6,303.2,622.9z"/>
</g>
<g>
	<path fill="#176ECB" d="M597.2,535.7c-11.3-13-27.1-21.7-44.4-24.2l-39.5-6.2v-69c0-16.3-13.4-29.7-29.7-29.7H483
		c-16.3,0-29.7,13.4-29.7,29.7v110.6l-40.5-17.5c-8.2-3.4-17.6-2.6-25,2.2c-7.4,4.9-12,13.2-12,22v0.3c0,7.5,3.3,14.7,8.8,19.9
		l69,61.2v29.7c0,4.2,3.4,7.8,7.8,7.8c4.2,0,7.8-3.4,7.8-7.8v-33c0-2.2-0.9-4.2-2.5-5.8l-71.5-63.4c-2.4-2.1-3.8-5.1-3.8-8.3V554
		c0-3.8,1.8-7.2,5-9.3c3.2-2.1,7-2.4,10.5-0.9l51.6,22c0.5,0.1,0.9,0.3,1.4,0.5c0.8,0.1,1.6,0.1,2.4,0.1c0.1,0,0.1,0,0.3,0
		c0.1,0,0.3,0,0.5,0c0.1,0,0.3,0,0.5-0.1c0.1,0,0.1,0,0.3-0.1c0.1,0,0.3-0.1,0.5-0.1c0.1,0,0.1,0,0.3-0.1c0.1,0,0.3-0.1,0.5-0.1
		c0.1,0,0.1,0,0.3-0.1c0.1,0,0.3-0.1,0.3-0.1c0.1,0,0.1-0.1,0.3-0.1c0.1,0,0.1-0.1,0.3-0.1c0.1,0,0.1-0.1,0.3-0.1
		c0.1,0,0.1-0.1,0.1-0.1c0.1-0.1,0.1-0.1,0.3-0.3l0.1-0.1c0.1-0.1,0.1-0.1,0.3-0.3c0-0.1,0.1-0.1,0.1-0.3c0.1-0.1,0.1-0.1,0.1-0.3
		c0.1-0.1,0.1-0.3,0.3-0.5l0.1-0.1c0.3-0.7,0.7-1.4,0.8-2.2c0.1-0.5,0.1-1.1,0.1-1.6V436.9c0-7.9,6.4-14.3,14.3-14.3h0.5
		c7.9,0,14.3,6.4,14.3,14.3v74c0,0.3,0,0.7,0,0.8c-0.5,4.1,2.4,7.8,6.4,8.3l46.1,7.2c0,0,0,0,0.1,0c27.9,3.9,49,28.2,49,56.3v0.8
		c0,13-3.2,25.9-9.1,37.6l-20.9,40.1c-1.8,3.8-0.5,8.3,3.3,10.4c1.1,0.7,2.4,0.9,3.6,0.9c2.9,0,5.5-1.6,6.7-4.1l20.9-40.1
		c7.1-13.7,10.8-29.1,10.8-44.6v-0.9C614.9,565.6,608.6,548.8,597.2,535.7z"/>
</g>
<g enable-background="new    ">
	<path fill="#176ECB" d="M304.3,248.5c0,19.4-15.4,34.1-36,34.1c-20.5,0-35.9-14.6-35.9-34.1c0-19.4,15.4-33.7,35.9-33.7
		C288.9,214.8,304.3,229.2,304.3,248.5z M249.7,248.6c0,11.2,8.6,19.9,18.8,19.9c10.3,0,18.4-8.6,18.4-19.9s-8.2-19.7-18.4-19.7
		S249.7,237.4,249.7,248.6z"/>
	<path fill="#176ECB" d="M359.7,281.8l-30.6-41v41h-15.9v-66.5h14.9l30.7,41v-41h15.8v66.5H359.7z"/>
</g>
<g enable-background="new    ">
	<path fill="#176ECB" d="M118.8,329.3c20.9,0,35.3,13.5,35.3,33.3c0,19.7-14.6,33.3-36,33.3H90.2v-66.5H118.8z M107.1,382.4h12.1
		c10.4,0,17.8-8,17.8-19.7c0-11.8-7.8-19.9-18.5-19.9h-11.3V382.4z"/>
	<path fill="#176ECB" d="M180,342.6v13.2h31.7v13.3H180v13.4h36.2v13.3h-53.1v-66.5h52.1v13.3H180z"/>
	<path fill="#176ECB" d="M285.3,395.8l-0.1-43.2l-16,36.6h-11l-16-36.6v43.2h-15.1v-66.6h18.5l18.1,39.6l18.1-39.6h18.4v66.6H285.3z
		"/>
	<path fill="#176ECB" d="M328.7,383.6l-4.8,12.3h-17.4l28.7-66.5h17.4l28,66.5h-18.1l-4.8-12.3H328.7z M343.3,346.2l-9.7,24.6h19.2
		L343.3,346.2z"/>
	<path fill="#176ECB" d="M433.2,395.8l-30.6-41v41h-15.9v-66.5h14.9l30.7,41v-41h15.8v66.5H433.2z"/>
	<path fill="#176ECB" d="M490,329.3c20.9,0,35.3,13.5,35.3,33.3c0,19.7-14.6,33.3-36,33.3h-27.9v-66.5H490z M478.4,382.4h12.1
		c10.4,0,17.8-8,17.8-19.7c0-11.8-7.8-19.9-18.5-19.9h-11.3V382.4z"/>
</g>
</svg>
