<svg id="Layer_1" data-name="Layer 1" xmlns="http://www.w3.org/2000/svg" viewBox="0 0 120 120"><defs><style>.cls-1{fill:#579bfc;}.cls-1,.cls-2{stroke:#252e4a;stroke-linecap:round;stroke-linejoin:round;stroke-width:3px;}.cls-2{fill:#fff;}</style></defs><title>On-Prem</title><path class="cls-1" d="M10,40H110a0,0,0,0,1,0,0v66a4,4,0,0,1-4,4H14a4,4,0,0,1-4-4V40A0,0,0,0,1,10,40Z"/><path class="cls-2" d="M110,40H10l9.09-27.26A4,4,0,0,1,22.88,10H97.12a4,4,0,0,1,3.79,2.74Z"/><polygon class="cls-2" points="51 10 48 40 48 72 60 60 72 72 72 40 69 10 51 10"/><line class="cls-2" x1="48" y1="40" x2="72" y2="40"/><rect class="cls-2" x="73" y="83.21" width="26" height="15.79"/></svg>