<?xml version="1.0" encoding="utf-8"?>
<!-- Generator: Adobe Illustrator 18.0.0, SVG Export Plug-In . SVG Version: 6.00 Build 0)  -->
<!DOCTYPE svg PUBLIC "-//W3C//DTD SVG 1.1//EN" "http://www.w3.org/Graphics/SVG/1.1/DTD/svg11.dtd">
<svg version="1.1" id="Layer_1" xmlns="http://www.w3.org/2000/svg" xmlns:xlink="http://www.w3.org/1999/xlink" x="0px" y="0px"
	 viewBox="0 0 256 256" enable-background="new 0 0 256 256" xml:space="preserve">
<title>59</title>
<path fill="#0099CC" d="M0,0h256v256H0V0"/>
<g>
	<g id="keyboard-alt">
		<path fill="#FFFFFF" d="M385.9-102.1c6.1,0,11.5-5.4,11.5-11.5c0-6.1-5.4-11.5-11.5-11.5s-11.5,5.4-11.5,11.5
			C374.4-107.4,379.8-102.1,385.9-102.1z M332.3-102.1c6.1,0,11.5-5.4,11.5-11.5c0-6.1-5.4-11.5-11.5-11.5s-11.5,5.4-11.5,11.5
			C320.8-107.4,326.1-102.1,332.3-102.1z M359.1-48.4c19.9,0,36.8-13,43.7-30.7h-87.4C322.3-61.5,339.2-48.4,359.1-48.4z M359.1-171
			c-42.1,0-76.6,34.5-76.6,76.6s34.5,76.6,76.6,76.6s76.6-34.5,76.6-76.6S401.2-171,359.1-171z M359.1-33.1
			c-33.7,0-61.3-27.6-61.3-61.3s27.6-61.3,61.3-61.3s61.3,27.6,61.3,61.3S392.8-33.1,359.1-33.1z"/>
	</g>
</g>
<g>
	<g>
		<g>
			<path fill="#FFFFFF" d="M-160.5-212.4c6.1,0,11.1-4.9,11.1-11.1c0-6.1-4.9-11.1-11.1-11.1s-11.1,4.9-11.1,11.1
				C-171.6-217.4-166.6-212.4-160.5-212.4z"/>
			<path fill="#FFFFFF" d="M-108.9-212.4c6.1,0,11.1-4.9,11.1-11.1c0-6.1-4.9-11.1-11.1-11.1s-11.1,4.9-11.1,11.1
				C-120-217.4-115-212.4-108.9-212.4z"/>
			<path fill="#FFFFFF" d="M-134.7-175.6c-10.9,0-20.3-6-25.4-14.7h-12.3c5.9,15.1,20.6,25.8,37.7,25.8s31.8-10.7,37.7-25.8h-12.3
				C-114.4-181.5-123.8-175.6-134.7-175.6z"/>
			<path fill="#FFFFFF" d="M-134.8-278.8c-40.7,0-73.6,33-73.6,73.7s33,73.7,73.6,73.7c40.8,0,73.8-33,73.8-73.7
				S-94-278.8-134.8-278.8z M-134.7-146.1c-32.6,0-59-26.4-59-59s26.4-59,59-59s59,26.4,59,59S-102.1-146.1-134.7-146.1z"/>
		</g>
	</g>
</g>
<g>
	<path fill="#FFFFFF" d="M101.6-185.5c0-6.1,4.9-11,11-11c6.1,0,11,4.9,11,11c0,1.7-1.4,3.2-3.2,3.2s-3.2-1.4-3.2-3.2
		c0-2.6-2.1-4.7-4.7-4.7c-2.6,0-4.7,2.1-4.7,4.7c0,1.7-1.4,3.2-3.2,3.2S101.6-183.8,101.6-185.5z M45.5-185.8c0-6.1,4.9-11,11-11
		c6.1,0,11,4.9,11,11c0,1.7-1.4,3.2-3.2,3.2c-1.7,0-3.2-1.4-3.2-3.2c0-2.6-2.1-4.7-4.7-4.7c-2.6,0-4.7,2.1-4.7,4.7
		c0,1.7-1.4,3.2-3.2,3.2C47-182.7,45.5-184.1,45.5-185.8z"/>
</g>
<g>
	<g>
		<g>
			<path fill="#FFFFFF" d="M83.3-141.5c-10.9,0-20.3-6-25.4-14.7H45.5c5.9,15.1,20.6,25.8,37.7,25.8s31.8-10.7,37.7-25.8h-12.3
				C103.6-147.5,94.2-141.5,83.3-141.5z"/>
			<path fill="#FFFFFF" d="M83.2-244.7c-40.7,0-73.6,33-73.6,73.7s33,73.7,73.6,73.7c40.8,0,73.8-33,73.8-73.7S124-244.7,83.2-244.7
				z M83.3-112.1c-32.6,0-59-26.4-59-59s26.4-59,59-59s59,26.4,59,59S115.9-112.1,83.3-112.1z"/>
		</g>
	</g>
</g>
<g>
	<path fill="#FFFFFF" d="M128,200.2c39.9,0,72.2-32.3,72.2-72.2S167.9,55.8,128,55.8S55.8,88.1,55.8,128S88.1,200.2,128,200.2z
		 M128,69.4c32.4,0,58.6,26.3,58.6,58.6s-26.3,58.6-58.6,58.6S69.4,160.4,69.4,128S95.6,69.4,128,69.4z M128,140.2
		c16.3,0,31.9-4.3,45.1-12c-2.1,25.2-21.6,44.9-45.1,44.9c-23.5,0-43.1-19.7-45.1-44.9C96.1,135.9,111.7,140.2,128,140.2z
		 M91.9,105.4c0,7.5,4,13.5,9,13.5s9-6.1,9-13.5c0-7.5-4-13.5-9-13.5S91.9,98,91.9,105.4z M146,105.4c0,7.5,4,13.5,9,13.5
		s9-6.1,9-13.5c0-7.5-4-13.5-9-13.5S146,98,146,105.4z"/>
</g>
<g>
	<path fill="#FFFFFF" d="M-495.9-84.1l3,7.2l7.7,0.7c0.5,0,0.8,0.7,0.3,1.1l-5.9,5.1l1.8,7.6c0.1,0.5-0.4,0.9-0.9,0.7l-6.7-4l-6.7,4
		c-0.5,0.3-1-0.1-0.9-0.7l1.8-7.6l-5.9-5.1c-0.4-0.4-0.2-1,0.3-1.1l7.7-0.7l3-7.2C-496.8-84.6-496.1-84.6-495.9-84.1L-495.9-84.1z"
		/>
</g>
<g>
	<g id="keyboard-alt_1_">
		<path fill="#FFFFFF" d="M-528.5-8.7c19.9,0,36.8-13,43.7-30.7h-87.4C-565.3-21.8-548.4-8.7-528.5-8.7z M-528.5-131.3
			c-42.1,0-76.6,34.5-76.6,76.6s34.5,76.6,76.6,76.6s76.6-34.5,76.6-76.6S-486.4-131.3-528.5-131.3z M-528.5,6.6
			c-33.7,0-61.3-27.6-61.3-61.3s27.6-61.3,61.3-61.3s61.3,27.6,61.3,61.3S-494.8,6.6-528.5,6.6z"/>
	</g>
</g>
<g>
	<path fill="#FFFFFF" d="M-558.4-84.1l3,7.2l7.7,0.7c0.5,0,0.8,0.7,0.3,1.1l-5.9,5.1l1.8,7.6c0.1,0.5-0.4,0.9-0.9,0.7l-6.7-4l-6.7,4
		c-0.5,0.3-1-0.1-0.9-0.7l1.8-7.6l-5.9-5.1c-0.4-0.4-0.2-1,0.3-1.1l7.7-0.7l3-7.2C-559.3-84.6-558.6-84.6-558.4-84.1L-558.4-84.1z"
		/>
</g>
</svg>
