<svg id="Layer_1" data-name="Layer 1" xmlns="http://www.w3.org/2000/svg" viewBox="0 0 120 120"><defs><style>.cls-1{fill:#579bfc;stroke-linecap:round;stroke-linejoin:round;}.cls-1,.cls-2{stroke:#252e4a;stroke-width:3px;}.cls-2{fill:#fff;stroke-miterlimit:10;}</style></defs><title>prediction</title><polygon class="cls-1" points="33.69 60.81 19.91 65.43 17.07 56.97 30.84 52.35 33.69 60.81"/><polygon class="cls-1" points="88.09 47.28 35.11 65.04 29.42 48.12 82.4 30.36 88.09 47.28"/><polygon class="cls-1" points="110 45.82 89.87 52.57 80.62 25.07 100.75 18.32 110 45.82"/><polygon class="cls-1" points="20.63 67.55 14.27 69.68 10 56.98 16.36 54.85 20.63 67.55"/><path class="cls-2" d="M37.41,98.27,56.94,59.89,61.38,62,42.13,100a2.51,2.51,0,0,1-1.48,1.51h0A2.54,2.54,0,0,1,37.41,98.27Z"/><path class="cls-2" d="M81.85,98.27,62.32,59.89,57.88,62,77.13,100a2.46,2.46,0,0,0,1.48,1.51h0A2.54,2.54,0,0,0,81.85,98.27Z"/><ellipse class="cls-2" cx="60.22" cy="58.64" rx="7.61" ry="7.6"/></svg>