<svg id="Layer_1" data-name="Layer 1" xmlns="http://www.w3.org/2000/svg" viewBox="0 0 120 120"><defs><style>.cls-1{fill:#579bfc;}.cls-1,.cls-2{stroke:#252e4a;stroke-linecap:round;stroke-linejoin:round;stroke-width:3px;}.cls-2{fill:#fff;}</style></defs><title>Product</title><path class="cls-1" d="M10,38.2h94a0,0,0,0,1,0,0v62a3.76,3.76,0,0,1-3.76,3.76H13.76A3.76,3.76,0,0,1,10,100.24v-62A0,0,0,0,1,10,38.2Z"/><path class="cls-2" d="M104,38.2H10l8.54-25.63A3.77,3.77,0,0,1,22.11,10H91.89a3.77,3.77,0,0,1,3.57,2.57Z"/><polygon class="cls-2" points="48.54 10 45.72 38.2 45.72 68.28 57 57 68.28 68.28 68.28 38.2 65.46 10 48.54 10"/><line class="cls-2" x1="45.72" y1="38.2" x2="68.28" y2="38.2"/><rect class="cls-2" x="73" y="83.21" width="26" height="15.79"/><circle class="cls-2" cx="85" cy="85" r="25"/><path class="cls-1" d="M104,85.1v-.2a2.79,2.79,0,0,0-2.78-2.78h0a2.81,2.81,0,0,1-2.64-1.9A13.84,13.84,0,0,0,98,78.79a2.81,2.81,0,0,1,.51-3.22h0a2.78,2.78,0,0,0,0-3.94l-.13-.13a2.78,2.78,0,0,0-3.94,0h0a2.81,2.81,0,0,1-3.22.51,13.84,13.84,0,0,0-1.43-.59,2.81,2.81,0,0,1-1.9-2.64h0A2.79,2.79,0,0,0,85.1,66h-.2a2.79,2.79,0,0,0-2.78,2.78h0a2.81,2.81,0,0,1-1.9,2.64,13.84,13.84,0,0,0-1.43.59,2.81,2.81,0,0,1-3.22-.51h0a2.78,2.78,0,0,0-3.94,0l-.13.13a2.78,2.78,0,0,0,0,3.94h0A2.81,2.81,0,0,1,72,78.79a13.84,13.84,0,0,0-.59,1.43,2.81,2.81,0,0,1-2.64,1.9h0A2.79,2.79,0,0,0,66,84.9v.2a2.79,2.79,0,0,0,2.78,2.78h0a2.81,2.81,0,0,1,2.64,1.9A13.84,13.84,0,0,0,72,91.21a2.81,2.81,0,0,1-.51,3.22h0a2.78,2.78,0,0,0,0,3.94l.13.13a2.78,2.78,0,0,0,3.94,0h0A2.81,2.81,0,0,1,78.79,98a13.84,13.84,0,0,0,1.43.59,2.81,2.81,0,0,1,1.9,2.64h0A2.79,2.79,0,0,0,84.9,104h.2a2.79,2.79,0,0,0,2.78-2.78h0a2.81,2.81,0,0,1,1.9-2.64A13.84,13.84,0,0,0,91.21,98a2.81,2.81,0,0,1,3.22.51h0a2.78,2.78,0,0,0,3.94,0l.13-.13a2.78,2.78,0,0,0,0-3.94h0A2.81,2.81,0,0,1,98,91.21a13.84,13.84,0,0,0,.59-1.43,2.81,2.81,0,0,1,2.64-1.9h0A2.79,2.79,0,0,0,104,85.1Z"/><circle class="cls-2" cx="85" cy="85" r="5.18"/></svg>