<svg id="Layer_1" data-name="Layer 1" xmlns="http://www.w3.org/2000/svg" viewBox="0 0 120 120"><defs><style>.cls-1{fill:#579bfc;stroke-miterlimit:10;}.cls-1,.cls-2{stroke:#252e4a;stroke-width:3px;}.cls-2{fill:#fff;stroke-linecap:round;stroke-linejoin:round;}</style></defs><title>Pro Service</title><path class="cls-1" d="M107.61,91.91,45.46,32.77a16.71,16.71,0,0,0-4.39-17.71A18.82,18.82,0,0,0,22.75,10.8a1.1,1.1,0,0,0-.48,1.85l10.46,10a6.32,6.32,0,0,1,.65,8.76,6.93,6.93,0,0,1-9.92.46L12.68,22a1.21,1.21,0,0,0-1.95.48,16.73,16.73,0,0,0,4.6,17.11A18.91,18.91,0,0,0,35,43.4l62,59a7.94,7.94,0,0,0,11.5-.71A7.21,7.21,0,0,0,107.61,91.91Z"/><path class="cls-2" d="M79.6,80.05h0a4.89,4.89,0,0,1,0-7.13l7.49-7.13a5.47,5.47,0,0,1,7.48,0h0a4.89,4.89,0,0,1,0,7.13l-7.48,7.13A5.48,5.48,0,0,1,79.6,80.05Z"/><path class="cls-2" d="M73.85,71.27h0a4.87,4.87,0,0,1,0-7.13L81.33,57a5.47,5.47,0,0,1,7.48,0h0a4.87,4.87,0,0,1,0,7.13l-7.48,7.13A5.47,5.47,0,0,1,73.85,71.27Z"/><path class="cls-2" d="M67.52,63h0a4.87,4.87,0,0,1,0-7.13L75,48.78a5.47,5.47,0,0,1,7.48,0h0a4.87,4.87,0,0,1,0,7.13L75,63A5.47,5.47,0,0,1,67.52,63Z"/><path class="cls-2" d="M57.16,58.65h0a4.87,4.87,0,0,1,0-7.13l7.48-7.13a5.47,5.47,0,0,1,7.48,0h0a4.87,4.87,0,0,1,0,7.13l-7.48,7.13A5.47,5.47,0,0,1,57.16,58.65Z"/><path class="cls-2" d="M58,78.13c9.78-9.33-1.15-20.85-1.15-20.85l7.79,7.43a9.66,9.66,0,0,0,13.19,0h0a2.64,2.64,0,0,0,0-3.88L61.47,45.21C58.59,42.47,48.81,43,44.78,46.86S41.9,70.45,41.9,70.45L35,77,58,99l5.75-5.48h0a6.75,6.75,0,0,0,9.21,0L81,85.81l-19-18.11"/><path class="cls-1" d="M47.7,108.88,24,86.28A3.64,3.64,0,0,1,24,81l5.3-5a4.17,4.17,0,0,1,5.68,0L58.68,98.5a3.65,3.65,0,0,1,0,5.33l-5.3,5A4.17,4.17,0,0,1,47.7,108.88Z"/></svg>