<svg id="Layer_1" data-name="Layer 1" xmlns="http://www.w3.org/2000/svg" viewBox="0 0 120 120"><defs><style>.cls-1,.cls-4,.cls-5{fill:#fff;}.cls-1,.cls-2,.cls-4{stroke:#252e4a;stroke-width:3px;}.cls-1{stroke-linecap:round;stroke-linejoin:round;}.cls-2{fill:#579bfc;}.cls-2,.cls-4{stroke-miterlimit:10;}.cls-3{fill:#252e4a;}</style></defs><title>R&amp;amp;D</title><rect class="cls-1" x="10" y="10" width="100" height="79" rx="4.11" ry="4.11"/><rect class="cls-2" x="16.5" y="16" width="88" height="55.62" rx="2.05" ry="2.05"/><circle class="cls-3" cx="60" cy="80" r="4"/><rect class="cls-4" x="45" y="89" width="30" height="16"/><path class="cls-1" d="M40.75,105H79.25A4.75,4.75,0,0,1,84,109.75V110a0,0,0,0,1,0,0H36a0,0,0,0,1,0,0v-.25A4.75,4.75,0,0,1,40.75,105Z"/><path class="cls-5" d="M54.06,48.57v4.77L37.09,46V41.9l17-7.35v4.81L42.23,43.91Z"/><path class="cls-5" d="M64.56,34.45,59.83,53.9c-.15.64-.29,1.15-.41,1.52a1.91,1.91,0,0,1-.54.87,1.55,1.55,0,0,1-1.05.31c-1.15,0-1.73-.49-1.73-1.48a14,14,0,0,1,.34-1.94l4.71-19.46a8.65,8.65,0,0,1,.71-2.13A1.39,1.39,0,0,1,63.17,31a1.87,1.87,0,0,1,1.3.4,1.47,1.47,0,0,1,.44,1.12A9.78,9.78,0,0,1,64.56,34.45Z"/><path class="cls-5" d="M83.91,46l-17,7.39V48.6L78.8,44,66.94,39.36V34.61l17,7.33Z"/></svg>