<svg id="Layer_1" data-name="Layer 1" xmlns="http://www.w3.org/2000/svg" viewBox="0 0 120 120"><defs><style>.cls-1{fill:#579bfc;}.cls-1,.cls-2{stroke:#252e4a;stroke-linecap:round;stroke-linejoin:round;stroke-width:3px;}.cls-2{fill:#fff;}</style></defs><title>Retailer</title><path class="cls-1" d="M24,50H96a0,0,0,0,1,0,0v55a5,5,0,0,1-5,5H29a5,5,0,0,1-5-5V50A0,0,0,0,1,24,50Z"/><path class="cls-1" d="M10,49.86a7.15,7.15,0,0,0,14.29,0V42.71H10Z"/><path class="cls-2" d="M24.29,49.86a7.14,7.14,0,0,0,14.28,0V42.71H24.29Z"/><path class="cls-1" d="M38.57,49.86a7.15,7.15,0,0,0,14.29,0V42.71H38.57Z"/><path class="cls-2" d="M52.86,49.86a7.14,7.14,0,0,0,14.28,0V42.71H52.86Z"/><path class="cls-1" d="M67.14,49.86a7.15,7.15,0,0,0,14.29,0V42.71H67.14Z"/><path class="cls-2" d="M81.43,49.86a7.14,7.14,0,0,0,14.28,0V42.71H81.43Z"/><path class="cls-1" d="M95.71,49.86a7.15,7.15,0,0,0,14.29,0V42.71H95.71Z"/><rect class="cls-2" x="49" y="78" width="22" height="32"/><polygon class="cls-2" points="10 42.67 24 25 95 25 110 42.67 10 42.67"/><rect class="cls-1" x="24" y="10" width="71" height="15"/><path class="cls-2" d="M24,92H49a0,0,0,0,1,0,0v18a0,0,0,0,1,0,0H28a4,4,0,0,1-4-4V92A0,0,0,0,1,24,92Z"/><path class="cls-2" d="M75,92H96a0,0,0,0,1,0,0v18a0,0,0,0,1,0,0H71a0,0,0,0,1,0,0V96A4,4,0,0,1,75,92Z" transform="translate(167 202) rotate(180)"/></svg>