<svg id="Layer_1" data-name="Layer 1" xmlns="http://www.w3.org/2000/svg" viewBox="0 0 120 120"><defs><style>.cls-1{fill:#579bfc;}.cls-1,.cls-2,.cls-4{stroke:#252e4a;stroke-linecap:round;stroke-linejoin:round;stroke-width:3px;}.cls-2{fill:#fff;}.cls-3{fill:#252e4a;}.cls-4{fill:none;}</style></defs><title>sales</title><rect class="cls-1" x="10" y="14" width="100" height="8" rx="4" ry="4"/><path class="cls-2" d="M104,89H16a4,4,0,0,1-4-4V22h96V85A4,4,0,0,1,104,89Z"/><path class="cls-3" d="M40.19,40.51v1a5.2,5.2,0,0,1,1.63.39,3.19,3.19,0,0,1,1.19.88,3.91,3.91,0,0,1,.61.93,2.11,2.11,0,0,1,.22.88,1.09,1.09,0,0,1-1.11,1.09,1.09,1.09,0,0,1-1.12-.94,2,2,0,0,0-1.42-1.47v3.69c.74.2,1.32.39,1.76.55a3.76,3.76,0,0,1,1.16.72A3.21,3.21,0,0,1,44,49.36a3.59,3.59,0,0,1,.3,1.48,3.91,3.91,0,0,1-.48,1.9,3.83,3.83,0,0,1-1.39,1.44,5,5,0,0,1-2.2.66v2.21a2,2,0,0,1-.1.76.42.42,0,0,1-.44.24.48.48,0,0,1-.45-.19,1.08,1.08,0,0,1-.13-.61V54.86a5.71,5.71,0,0,1-1.82-.49A4.45,4.45,0,0,1,36,53.44a3.74,3.74,0,0,1-.77-1.15,3.16,3.16,0,0,1-.25-1.17,1,1,0,0,1,.34-.77,1.09,1.09,0,0,1,.83-.34,1.2,1.2,0,0,1,.67.18,1,1,0,0,1,.38.53,11.39,11.39,0,0,0,.42,1.11,2.35,2.35,0,0,0,.53.71,2.4,2.4,0,0,0,1,.48V48.9a10.93,10.93,0,0,1-2-.73A3.32,3.32,0,0,1,35.79,47a3.8,3.8,0,0,1,.47-4.42,4.32,4.32,0,0,1,2.81-1.13v-.94c0-.5.18-.75.56-.75S40.19,40,40.19,40.51Zm-1.12,6.08V43.2a2.93,2.93,0,0,0-1.16.58,1.64,1.64,0,0,0,0,2.16A3.52,3.52,0,0,0,39.07,46.59Zm1.12,2.64v3.88a2.48,2.48,0,0,0,1.39-.72,1.85,1.85,0,0,0,.49-1.26,1.5,1.5,0,0,0-.48-1.19A3.72,3.72,0,0,0,40.19,49.23Z"/><polyline class="cls-4" points="27 29.63 27 79.37 94 79.37"/><rect class="cls-1" x="35.12" y="65.16" width="8.12" height="14.21"/><rect class="cls-1" x="63.55" y="49.93" width="8.12" height="29.44"/><rect class="cls-1" x="78.77" y="43.84" width="8.12" height="35.53"/><rect class="cls-1" x="49.33" y="57.04" width="8.12" height="22.33"/><polyline class="cls-4" points="71.67 29.63 78.77 31.66 48.32 49.93"/><line class="cls-1" x1="76.74" y1="38.77" x2="78.77" y2="31.66"/><line class="cls-1" x1="60" y1="89" x2="60" y2="99"/><circle class="cls-1" cx="60" cy="102" r="4"/></svg>