<svg id="Layer_1" data-name="Layer 1" xmlns="http://www.w3.org/2000/svg" viewBox="0 0 120 120"><defs><style>.cls-1{fill:#252e4a;}.cls-2{fill:none;}.cls-2,.cls-3{stroke:#252e4a;stroke-linecap:round;stroke-linejoin:round;stroke-width:3px;}.cls-3{fill:#579bfc;}</style></defs><title>Sales</title><path class="cls-1" d="M29.69,39.12v1.43a8,8,0,0,1,2.43.58,4.73,4.73,0,0,1,1.77,1.32,5.77,5.77,0,0,1,.92,1.39,3.2,3.2,0,0,1,.33,1.31,1.66,1.66,0,0,1-1.66,1.63,1.65,1.65,0,0,1-1.68-1.4,3,3,0,0,0-2.11-2.2v5.51c1.1.3,2,.57,2.62.82a5.38,5.38,0,0,1,1.74,1.07,4.93,4.93,0,0,1,1.26,1.74,5.44,5.44,0,0,1,.45,2.22,5.91,5.91,0,0,1-.71,2.83A5.66,5.66,0,0,1,33,59.52a7.49,7.49,0,0,1-3.27,1v3.3A3.18,3.18,0,0,1,29.54,65a.65.65,0,0,1-.67.35A.74.74,0,0,1,28.2,65a1.72,1.72,0,0,1-.19-.9V60.54a8.47,8.47,0,0,1-2.7-.73,6.4,6.4,0,0,1-1.94-1.38,5.82,5.82,0,0,1-1.14-1.73A4.48,4.48,0,0,1,21.86,55a1.62,1.62,0,0,1,.49-1.15,1.66,1.66,0,0,1,1.24-.5,1.81,1.81,0,0,1,1,.27,1.51,1.51,0,0,1,.57.78A14.52,14.52,0,0,0,25.79,56a3.13,3.13,0,0,0,.8,1A3.59,3.59,0,0,0,28,57.8V51.64a16.47,16.47,0,0,1-3-1.09,5,5,0,0,1-1.94-1.72,5.67,5.67,0,0,1,.71-6.59A6.47,6.47,0,0,1,28,40.55V39.14Q28,38,28.85,38C29.41,38,29.69,38.39,29.69,39.12ZM28,48.2V43.13a4.59,4.59,0,0,0-1.73.87,2,2,0,0,0-.62,1.64,2,2,0,0,0,.58,1.58A5.33,5.33,0,0,0,28,48.2Zm1.68,3.93v5.8a3.7,3.7,0,0,0,2.07-1.07A2.76,2.76,0,0,0,32.49,55a2.26,2.26,0,0,0-.71-1.78A5.72,5.72,0,0,0,29.69,52.13Z"/><polyline class="cls-2" points="10 22.88 10 97.12 110 97.12"/><rect class="cls-3" x="22.12" y="75.91" width="12.12" height="21.21"/><rect class="cls-3" x="64.55" y="53.18" width="12.12" height="43.94"/><rect class="cls-3" x="87.27" y="44.09" width="12.12" height="53.03"/><rect class="cls-3" x="43.33" y="63.79" width="12.12" height="33.33"/><polyline class="cls-2" points="76.67 22.88 87.27 25.91 41.82 53.18"/><line class="cls-3" x1="84.24" y1="36.52" x2="87.27" y2="25.91"/></svg>