<svg id="Layer_1" data-name="Layer 1" xmlns="http://www.w3.org/2000/svg" viewBox="0 0 120 120"><defs><style>.cls-1{fill:#579bfc;}.cls-1,.cls-2{stroke:#252e4a;stroke-linecap:round;stroke-linejoin:round;stroke-width:3px;}.cls-2{fill:#fff;}.cls-3{fill:#252e4a;}</style></defs><title>Security_1</title><path class="cls-1" d="M31.71,51.56H89a8,8,0,0,1,8,8V102a8,8,0,0,1-8,8H32.27a8,8,0,0,1-8-8V59A7.44,7.44,0,0,1,31.71,51.56Z"/><path class="cls-2" d="M39.85,30.78a20.78,20.78,0,1,1,41.56,0V51.56H39.85Z"/><path class="cls-2" d="M49.13,31.5a11.5,11.5,0,1,1,23,0V51.56h-23Z"/><circle class="cls-2" cx="60" cy="81" r="17"/><path class="cls-3" d="M53.17,80.13l4.33,4.34,11-11a1.44,1.44,0,0,1,2,0h0a1.44,1.44,0,0,1,0,2L58.88,87.71a1.87,1.87,0,0,1-2.73,0l-5.08-5.54a1.45,1.45,0,0,1,0-2h0A1.47,1.47,0,0,1,53.17,80.13Z"/></svg>