<svg id="Layer_1" data-name="Layer 1" xmlns="http://www.w3.org/2000/svg" viewBox="0 0 120 120"><defs><style>.cls-1{fill:#579bfc;}.cls-1,.cls-2{stroke:#252e4a;stroke-linecap:round;stroke-linejoin:round;stroke-width:3px;}.cls-2{fill:#fff;}.cls-3{fill:#252e4a;}</style></defs><title>Security</title><path class="cls-1" d="M96,25,60,10,24,25S10,93,60,110C110,93,96,25,96,25Z"/><path class="cls-2" d="M86.66,34.08,60,23,33.34,34.08S23,84.44,60,97C97,84.44,86.66,34.08,86.66,34.08Z"/><circle class="cls-2" cx="89.88" cy="90" r="20"/><path class="cls-3" d="M50.39,57.9l5.9,5.9,15-15a2,2,0,0,1,2.77,0h0a2,2,0,0,1,0,2.74L58.18,68.21a2.55,2.55,0,0,1-3.73,0l-6.91-7.54a2,2,0,0,1,.05-2.73h0A2,2,0,0,1,50.39,57.9Z"/><rect class="cls-1" x="82.51" y="88.29" width="14.74" height="11.84"/><path class="cls-2" d="M85.66,84.08a4.22,4.22,0,0,1,8.43,0v4.21H85.66Z"/></svg>