<?xml version="1.0" encoding="utf-8"?>
<!-- Generator: Adobe Illustrator 23.0.0, SVG Export Plug-In . SVG Version: 6.00 Build 0)  -->
<svg version="1.1" id="Layer_1" xmlns="http://www.w3.org/2000/svg" xmlns:xlink="http://www.w3.org/1999/xlink" x="0px" y="0px"
	 viewBox="0 0 120 120" style="enable-background:new 0 0 120 120;" xml:space="preserve">
<style type="text/css">
	.st0{fill:#FFFFFF;}
	.st1{fill:#579BFC;}
	.st2{fill:none;stroke:#252E4A;stroke-width:3;stroke-linecap:round;stroke-linejoin:round;}
	.st3{fill:#FFFFFF;stroke:#252E4A;stroke-width:3;stroke-linecap:round;stroke-linejoin:round;}
	.st4{font-family:'AvenirNext-DemiBold';}
	.st5{font-size:24px;}
</style>
<title>CEO</title>
<path class="st0" d="M79.2,29.3v0.3c0,0-1.2,20.8-8.4,28.1c-3.6,3.7-10.9,3.7-10.9,3.7s-7.2,0-10.9-3.7c-7.2-7.3-8.4-28.1-8.4-28.1
	s-1.2-17.7,23-19.5h0.3c2.1,0,3.7,1.7,3.7,3.7C81.8,13.8,79.2,29.3,79.2,29.3z"/>
<path class="st1" d="M36.9,70.4L49.7,109l-0.1,1c-20.2-1.2-30.1-6-33.4-7.9c-0.8-0.5-1.3-1.3-1.2-2.2v-14
	C15,75.5,25.3,74.3,36.9,70.4z"/>
<path class="st1" d="M105,85.8v14c0,0.9-0.5,1.7-1.2,2.2c-3.3,1.9-13.2,6.6-33.4,7.9l-0.1-1l12.8-38.5C94.7,74.3,105,75.5,105,85.8z
	"/>
<polygon class="st1" points="65,69 63,79 62.6,79 57.4,79 57,79 55,69 "/>
<path class="st1" d="M70.3,109l0.1,1c-3.2,0.2-6.6,0.3-10.3,0.3s-7.2-0.1-10.3-0.3l0.1-1l7.7-29.6V79h5.1v0.4L70.3,109z"/>
<path class="st2" d="M48.3,31.8c0,0,20.6,1.3,20.6-10.3c0,0,2.6,7.7,10.3,7.7c0,0,2.6-15.4-11.6-15.4c0-2.1-1.7-3.7-3.7-3.7h-0.3
	c-24.1,1.8-23,19.5-23,19.5s1.2,20.8,8.4,28.1c3.6,3.7,10.9,3.7,10.9,3.7s7.2,0,10.8-3.7c7.3-7.3,8.5-28.1,8.5-28.1"/>
<path class="st2" d="M57.4,79.4L49.7,109L36.9,70.4C25.3,74.3,15,75.5,15,85.8v14c0,0.9,0.5,1.7,1.2,2.2c3.3,1.9,13.2,6.6,33.4,7.9
	c3.2,0.2,6.6,0.3,10.3,0.3s7.2-0.1,10.3-0.3c20.2-1.2,30.1-6,33.4-7.9c0.8-0.5,1.3-1.3,1.2-2.2v-14c0-10.3-10.3-11.6-21.9-15.4
	L70.3,109l-7.7-29.6"/>
<polygon class="st2" points="57.4,79 57,79 55,69 65,69 63,79 62.6,79 "/>
<circle class="st3" cx="89.5" cy="89.5" r="20.5"/>
<text transform="matrix(1 0 0 1 75.6149 98.7064)" class="st4 st5">VP</text>
</svg>
