<svg id="Layer_1" data-name="Layer 1" xmlns="http://www.w3.org/2000/svg" viewBox="0 0 120 120"><defs><style>.cls-1,.cls-4{fill:#fff;}.cls-1,.cls-2{stroke:#252e4a;}.cls-1,.cls-5{stroke-linecap:round;stroke-linejoin:round;}.cls-1,.cls-2,.cls-5{stroke-width:3px;}.cls-2,.cls-3{fill:#579bfc;}.cls-2{stroke-miterlimit:10;}.cls-5{fill:none;stroke:#fff;}</style></defs><title>2web</title><path class="cls-1" d="M14.32,10h91.36A4.32,4.32,0,0,1,110,14.32V24a0,0,0,0,1,0,0H10a0,0,0,0,1,0,0V14.32A4.32,4.32,0,0,1,14.32,10Z"/><path class="cls-2" d="M10,24H110a0,0,0,0,1,0,0v82a4,4,0,0,1-4,4H14a4,4,0,0,1-4-4V24A0,0,0,0,1,10,24Z"/><circle class="cls-3" cx="16.5" cy="17" r="2"/><circle class="cls-3" cx="21.5" cy="17" r="2"/><circle class="cls-3" cx="26.5" cy="17" r="2"/><circle class="cls-4" cx="53" cy="98" r="2"/><circle class="cls-4" cx="60" cy="98" r="2"/><circle class="cls-4" cx="67" cy="98" r="2"/><circle class="cls-5" cx="60" cy="60" r="27"/><ellipse class="cls-5" cx="60" cy="60" rx="11" ry="27"/><line class="cls-5" x1="33" y1="60" x2="87" y2="60"/><line class="cls-5" x1="36" y1="48" x2="84" y2="48"/><line class="cls-5" x1="36" y1="72" x2="84" y2="72"/></svg>