<?xml version="1.0" encoding="utf-8"?>
<!-- Generator: Adobe Illustrator 18.0.0, SVG Export Plug-In . SVG Version: 6.00 Build 0)  -->
<!DOCTYPE svg PUBLIC "-//W3C//DTD SVG 1.1//EN" "http://www.w3.org/Graphics/SVG/1.1/DTD/svg11.dtd">
<svg version="1.1" id="Layer_1" xmlns="http://www.w3.org/2000/svg" xmlns:xlink="http://www.w3.org/1999/xlink" x="0px" y="0px"
	 viewBox="0 90 612 612" enable-background="new 0 90 612 612" xml:space="preserve">
<g>
	<path fill="#3C92CA" d="M334.8,363c-3.1-1.5-5.2-4.9-5.2-8.6v-36.7c0-2.4,1.2-4.9,3.4-6.4c2.8-1.8,4.3-4.6,4.3-8v-37.9
		c0-14.7-11.9-26.6-26.6-26.6h-8.3c-14.7,0-26.6,11.9-26.6,26.6v37.9c0,3.1,1.5,6.1,4.3,8c2.1,1.5,3.4,4,3.4,6.4v36.7
		c0,3.4-2.1,6.7-5.2,8.6c-4.9,2.4-29.7,15-52.6,33.7c-2.4,2.1-4,5.2-4,8.3v18.4h169.5V405c0-3.1-1.5-6.1-4-8.3
		C364.1,377.9,339.4,365.1,334.8,363z"/>
	<path fill="#3C92CA" d="M306,90C137.1,90,0,227.1,0,396s137.1,306,306,306s306-137.1,306-306S474.9,90,306,90z M174.4,336.9
		c2.1,1.5,3.4,3.7,3.4,6.4v28.5c0,3.4-1.8,6.7-5.2,8.3c-3.7,1.8-22.9,11.3-40.4,25.7c-1.5,1.2-2.4,3.1-2.4,5.2v12.5h55.1
		c4.3,0,7.6,3.4,7.6,7.6s-3.4,7.6-7.6,7.6h-62.4c-4.3,0-7.6-3.4-7.6-7.6V411c0-6.7,3.1-12.9,8-17.1c15.6-12.9,32.1-22,39.8-26V347
		c-3.7-4-5.8-9.2-5.8-14.7V303c0-18.7,15.3-34.3,34.3-34.3h6.4c18.7,0,34.3,15.3,34.3,34.3v29.4c0,5.5-2.1,10.7-5.8,14.7v10.7
		c0,4.3-3.4,7.6-7.7,7.6s-7.6-3.4-7.6-7.6v-14.1c0-2.4,1.2-4.9,3.4-6.4c1.5-0.9,2.4-2.8,2.4-4.6v-29.4c0-10.4-8.6-18.7-18.7-18.7
		h-6.4c-10.4,0-18.7,8.6-18.7,18.7v29.4C172,334.2,172.9,336,174.4,336.9z M279.7,600.7l-9.8-9.8l17.4-17.4l9.8,9.8L279.7,600.7z
		 M258.9,564.6v-13.8h24.8v13.8H258.9z M287.3,541.7l-17.4-17.4l9.8-9.8l17.4,17.4L287.3,541.7z M320.1,611.7h-13.8v-24.8h13.8
		V611.7z M320.1,528.2h-13.8v-24.8h13.8V528.2z M346.4,600.7L329,583.3l9.8-9.8l17.4,17.4L346.4,600.7z M367.2,564.6h-24.8v-13.8
		h24.8V564.6z M406.7,430.9c0,4.3-3.4,7.6-7.6,7.6H213.9c-4.3,0-7.6-3.4-7.6-7.6v-26c0-8,3.4-15.3,9.5-20.2
		c20.8-17.1,43.1-29.4,52.3-34v-29.4c-4.9-4.6-8-11-8-18.1v-37.9c0-23.3,18.7-41.9,41.9-41.9h8.3c23.3,0,41.9,18.7,41.9,41.9v37.9
		c0,6.7-2.8,13.5-7.6,18.1v29.4c9.2,4.6,31.5,16.8,52.3,34c6.1,4.9,9.5,12.2,9.5,20.2L406.7,430.9L406.7,430.9z M497.2,430.9
		c0,4.3-3.4,7.6-7.7,7.6h-61.8c-4.3,0-7.6-3.4-7.6-7.6s3.4-7.6,7.6-7.6h54.2v-12.5c0-2.1-0.9-3.7-2.4-5.2
		c-17.7-14.4-36.7-24.2-40.4-25.7c-3.1-1.5-5.2-4.6-5.2-8.3v-28.5c0-2.4,1.2-4.9,3.4-6.4c1.5-0.9,2.4-2.8,2.4-4.6v-29.4
		c0-10.4-8.6-18.7-18.7-18.7h-6.4c-10.4,0-18.7,8.6-18.7,18.7V332c0,1.8,0.9,3.7,2.4,4.6c2.1,1.5,3.4,3.7,3.4,6.4v13.5
		c0,4.3-3.4,7.7-7.7,7.7s-7.6-3.4-7.6-7.7V347c-3.7-4-5.8-9.2-5.8-14.7V303c0-19,15.3-34.3,34.3-34.3h6.4
		c18.7,0,34.3,15.3,34.3,34.3v29.4c0,5.5-2.1,10.7-5.8,14.7v20.8c7.6,4,24.2,13.2,39.8,26c5.2,4.3,8,10.4,8,17.1v19.9H497.2z"/>
</g>
</svg>
