<?xml version="1.0" encoding="utf-8"?>
<!-- Generator: Adobe Illustrator 23.0.0, SVG Export Plug-In . SVG Version: 6.00 Build 0)  -->
<svg version="1.1" id="Layer_1" xmlns="http://www.w3.org/2000/svg" xmlns:xlink="http://www.w3.org/1999/xlink" x="0px" y="0px"
	 viewBox="0 0 612 612" style="enable-background:new 0 0 612 612;" xml:space="preserve">
<style type="text/css">
	.st0{fill:#61D095;}
	.st1{enable-background:new    ;}
	.st2{fill:#FFFFFF;}
</style>
<g id="XMLID_2_">
	<path id="XMLID_13_" class="st0" d="M306,0C137.1,0,0,137.1,0,306s137.1,306,306,306s306-137.1,306-306S474.9,0,306,0z"/>
</g>
<g class="st1">
	<path class="st2" d="M166.8,249.3h27L239.1,378h-27.2l-8.6-27.4h-46.4l-8.5,27.4h-26.5L166.8,249.3z M163,330.7h34l-11.5-37.1
		c-0.6-1.7-1.2-3.7-1.7-5.9c-0.5-2.3-1.1-4.4-1.7-6.5c-0.6-2.4-1.2-4.9-1.8-7.4h-0.4c-0.7,2.5-1.4,5-2,7.4c-0.6,2-1.2,4.2-1.7,6.5
		c-0.5,2.3-1.1,4.3-1.7,5.9L163,330.7z"/>
	<path class="st2" d="M249.9,249.3h59c6.2,0,11.9,0.9,17,2.6c5.1,1.7,9.4,4.2,13,7.3c3.6,3.1,6.4,6.9,8.4,11.2c2,4.4,3,9.3,3,14.7
		c0,7.6-1.9,14.1-5.6,19.5c-3.7,5.5-9.7,9.3-18,11.6v0.5c5.9,1.7,10.4,4.5,13.6,8.4c3.2,3.9,5.2,9.8,6,17.5c0.5,4.6,0.8,8.8,1,12.7
		c0.2,3.9,0.4,7.4,0.7,10.3c0.3,3,0.7,5.5,1.3,7.4c0.6,1.9,1.4,3.1,2.5,3.6v1.3h-25c-0.8-0.4-1.5-1.5-2-3.3
		c-0.5-1.9-0.9-4.2-1.2-6.9c-0.3-2.8-0.6-5.8-0.8-9.2c-0.2-3.4-0.5-6.8-0.7-10.3c-0.6-7.1-2.9-12.5-6.9-16.3
		c-4-3.8-10.1-5.7-18.3-5.7H276V378h-26.1V249.3z M276,306.2h27.7c7.2,0,12.5-1.6,16-4.9c3.5-3.3,5.2-7.5,5.2-12.7
		c0-5.3-1.7-9.6-5-13c-3.4-3.4-8.5-5.1-15.5-5.1H276V306.2z"/>
	<path class="st2" d="M367.1,249.3h59c6.2,0,11.9,0.9,17,2.6c5.1,1.7,9.5,4.2,13,7.3c3.6,3.1,6.4,6.9,8.4,11.2c2,4.4,3,9.3,3,14.7
		c0,7.6-1.9,14.1-5.6,19.5c-3.7,5.5-9.7,9.3-18,11.6v0.5c5.9,1.7,10.4,4.5,13.6,8.4c3.2,3.9,5.2,9.8,6,17.5c0.5,4.6,0.8,8.8,1,12.7
		c0.2,3.9,0.4,7.4,0.7,10.3c0.3,3,0.7,5.5,1.4,7.4c0.6,1.9,1.4,3.1,2.5,3.6v1.3h-25c-0.8-0.4-1.5-1.5-2-3.3
		c-0.5-1.9-0.9-4.2-1.2-6.9c-0.3-2.8-0.6-5.8-0.8-9.2c-0.2-3.4-0.5-6.8-0.7-10.3c-0.6-7.1-2.9-12.5-6.9-16.3
		c-4-3.8-10.1-5.7-18.3-5.7h-21.1V378h-26.1V249.3z M393.2,306.2h27.7c7.2,0,12.5-1.6,16-4.9c3.5-3.3,5.2-7.5,5.2-12.7
		c0-5.3-1.7-9.6-5-13c-3.4-3.4-8.5-5.1-15.5-5.1h-28.4V306.2z"/>
</g>
</svg>
