<?xml version="1.0" encoding="utf-8"?>
<!-- Generator: Adobe Illustrator 18.0.0, SVG Export Plug-In . SVG Version: 6.00 Build 0)  -->
<!DOCTYPE svg PUBLIC "-//W3C//DTD SVG 1.1//EN" "http://www.w3.org/Graphics/SVG/1.1/DTD/svg11.dtd">
<svg version="1.1" id="Layer_1" xmlns="http://www.w3.org/2000/svg" xmlns:xlink="http://www.w3.org/1999/xlink" x="0px" y="0px"
	 viewBox="0 90 612 612" enable-background="new 0 90 612 612" xml:space="preserve">
<g id="XMLID_2_">
	<path id="XMLID_13_" fill="#994D1A" d="M306,90C137.1,90,0,227.1,0,396s137.1,306,306,306s306-137.1,306-306S474.9,90,306,90z"/>
</g>
<g>
	<path fill="#FFFFFF" d="M438.9,222.5H173.1c-3.1,0-5.6,2.5-5.6,5.6v265.7c0,3.1,2.5,5.6,5.6,5.6s5.6-2.5,5.6-5.6V282.6h226.8
		c3.1,0,5.6-2.5,5.6-5.6s-2.5-5.6-5.6-5.6H178.8v-37.6h254.5v254.5H229.9c-3.1,0-5.6,2.5-5.6,5.6s2.5,5.6,5.6,5.6h209
		c3.1,0,5.6-2.5,5.6-5.6V228.1C444.5,225,442,222.5,438.9,222.5z"/>
	<path fill="#FFFFFF" d="M193.5,248.6c-1,1.1-1.6,2.5-1.6,4s0.6,2.9,1.6,4c1.1,1,2.5,1.6,4,1.6s2.9-0.6,4-1.6c1-1.1,1.6-2.5,1.6-4
		s-0.6-2.9-1.6-4c-1.1-1-2.5-1.6-4-1.6C196,246.9,194.6,247.5,193.5,248.6z"/>
	<path fill="#FFFFFF" d="M212.3,248.6c-1.1,1.1-1.7,2.5-1.7,4s0.6,2.9,1.7,4c1,1,2.5,1.6,4,1.6s2.9-0.6,4-1.6c1.1-1.1,1.7-2.5,1.7-4
		s-0.6-2.9-1.7-4c-1-1-2.5-1.6-4-1.6C214.8,246.9,213.3,247.5,212.3,248.6z"/>
	<path fill="#FFFFFF" d="M231.1,248.6c-1,1.1-1.6,2.5-1.6,4s0.6,2.9,1.6,4c1.1,1,2.5,1.7,4,1.7s2.9-0.6,4-1.7s1.7-2.5,1.7-4
		s-0.6-2.9-1.7-4c-1.1-1-2.5-1.7-4-1.7S232.1,247.5,231.1,248.6z"/>
</g>
<text transform="matrix(1 0 0 1 259.6 641.5645)" fill="#FFFFFF" font-family="'NHaasGroteskDSW02-65Md'" font-size="140.8193">A</text>
</svg>
