<?xml version="1.0" encoding="utf-8"?>
<!-- Generator: Adobe Illustrator 18.0.0, SVG Export Plug-In . SVG Version: 6.00 Build 0)  -->
<!DOCTYPE svg PUBLIC "-//W3C//DTD SVG 1.1//EN" "http://www.w3.org/Graphics/SVG/1.1/DTD/svg11.dtd">
<svg version="1.1" id="Layer_1" xmlns="http://www.w3.org/2000/svg" xmlns:xlink="http://www.w3.org/1999/xlink" x="0px" y="0px"
	 viewBox="0 90 612 612" enable-background="new 0 90 612 612" xml:space="preserve">
<g id="XMLID_2_">
	<path id="XMLID_13_" fill="#197B99" d="M306,90C137.1,90,0,227.1,0,396s137.1,306,306,306s306-137.1,306-306S474.9,90,306,90z"/>
</g>
<g>
	<g>
		<g>
			<polygon fill="#FFFFFF" points="358.2,369.4 378.9,381.2 420.2,357.6 358.2,320.7 			"/>
			<path fill="#FFFFFF" d="M483.7,294.1l14.8-26.6c11.8-20.7-22.1-44.3-38.4-53.1c-16.2-8.9-53.1-28.1-64.9-5.9L374.5,244
				c-20.7-4.4-44.3-7.4-67.9-7.4c-122.5,0-221.4,66.4-221.4,147.6s98.9,147.6,221.4,147.6c0,0,0,0,1.5,0c1.5,17.7-19.2,47.2-48.7,62
				c116.6,0,169.7-87.1,169.7-87.1c59-26.6,97.4-70.8,97.4-122.5C529.5,350.2,511.7,319.2,483.7,294.1z M187,425.5
				c-11.8,0-20.7-8.9-20.7-20.7s8.9-20.7,20.7-20.7s20.7,8.9,20.7,20.7S197.4,425.5,187,425.5z M241.6,425.5
				c-11.8,0-20.7-8.9-20.7-20.7s8.9-20.7,20.7-20.7s20.7,8.9,20.7,20.7S253.4,425.5,241.6,425.5z M296.2,425.5
				c-11.8,0-20.7-8.9-20.7-20.7s8.9-20.7,20.7-20.7c11.8,0,20.7,8.9,20.7,20.7C316.9,416.6,308.1,425.5,296.2,425.5z M427.6,362
				l-42.8,23.6l-35.4,19.2V365v-48.7l59-101.8c2.9-5.9,23.6,0,45.7,11.8s36.9,26.6,32.5,32.5L427.6,362z"/>
		</g>
	</g>
</g>
</svg>
