<?xml version="1.0" encoding="utf-8"?>
<!-- Generator: Adobe Illustrator 18.0.0, SVG Export Plug-In . SVG Version: 6.00 Build 0)  -->
<!DOCTYPE svg PUBLIC "-//W3C//DTD SVG 1.1//EN" "http://www.w3.org/Graphics/SVG/1.1/DTD/svg11.dtd">
<svg version="1.1" id="Layer_1" xmlns="http://www.w3.org/2000/svg" xmlns:xlink="http://www.w3.org/1999/xlink" x="0px" y="0px"
	 viewBox="0 90 612 612" enable-background="new 0 90 612 612" xml:space="preserve">
<g id="XMLID_2_">
	<path id="XMLID_13_" fill="#197B99" d="M306,90C137.1,90,0,227.1,0,396s137.1,306,306,306s306-137.1,306-306S474.9,90,306,90z"/>
</g>
<g>
	<g>
		<g>
			<polygon fill="#FFFFFF" points="349.8,330.4 367.7,340.6 403.5,320.1 349.8,288.2 			"/>
			<path fill="#FFFFFF" d="M458.5,265.1l12.8-23c10.2-17.9-19.1-38.4-33.3-46c-14-7.7-46-24.3-56.2-5.1l-17.9,30.8
				c-17.9-3.8-38.4-6.4-58.8-6.4c-106.1,0-191.8,57.5-191.8,127.9S199,471.2,305.1,471.2c0,0,0,0,1.3,0
				c1.3,15.3-16.6,40.9-42.2,53.7c101,0,147-75.5,147-75.5c51.1-23,84.4-61.3,84.4-106.1C498.2,313.7,482.8,286.9,458.5,265.1z
				 M201.4,379c-10.2,0-17.9-7.7-17.9-17.9s7.7-17.9,17.9-17.9s17.9,7.7,17.9,17.9S210.4,379,201.4,379z M248.7,379
				c-10.2,0-17.9-7.7-17.9-17.9s7.7-17.9,17.9-17.9s17.9,7.7,17.9,17.9S259,379,248.7,379z M296,379c-10.2,0-17.9-7.7-17.9-17.9
				s7.7-17.9,17.9-17.9c10.2,0,17.9,7.7,17.9,17.9C314,371.3,306.4,379,296,379z M409.9,324l-37.1,20.4L342.1,361v-34.5v-42.2
				l51.1-88.2c2.5-5.1,20.4,0,39.6,10.2s32,23,28.2,28.2L409.9,324z"/>
		</g>
	</g>
</g>
<g>
	<g>
		<path fill="#FFFFFF" d="M364,552.5c-1.7-1.4-4.1-1-5.3,0.5l-61.4,77.2l-20-25.2c-1.4-1.7-3.8-1.9-5.3-0.5
			c-1.7,1.4-1.9,3.8-0.5,5.5l22.2,27.9c0.7,1.2,1.9,1.9,3.3,1.9c0.2,0,0.3,0,0.7-0.2c0.2,0,0.2,0,0.3,0c1.2,0,2.4-0.5,3.1-1.6
			l63.6-80.1C365.9,556.3,365.8,553.8,364,552.5L364,552.5z"/>
		<path fill="#FFFFFF" d="M356.5,591.1c-2.1,0-3.8,1.7-3.8,3.8V659c0,2.1-1.7,4-3.8,4H258c-2.1,0-3.8-1.7-3.8-4v-91.9
			c0-2.1,1.7-3.8,3.8-3.8h63c2.1,0,3.8-1.7,3.8-4c0-2.1-1.7-3.8-3.8-3.8h-63c-6.4,0-11.5,5.2-11.5,11.7v91.9
			c0,6.4,5.2,11.7,11.5,11.7h90.8c6.4,0,11.5-5.2,11.5-11.7V595C360.2,592.8,358.5,591.1,356.5,591.1L356.5,591.1z"/>
	</g>
</g>
</svg>
