<?xml version="1.0" encoding="utf-8"?>
<!-- Generator: Adobe Illustrator 19.0.0, SVG Export Plug-In . SVG Version: 6.00 Build 0)  -->
<svg version="1.1" id="Layer_1" xmlns="http://www.w3.org/2000/svg" xmlns:xlink="http://www.w3.org/1999/xlink" x="0px" y="0px"
	 viewBox="0 0 200 200" style="enable-background:new 0 0 200 200;" xml:space="preserve">
<style type="text/css">
	.st0{fill:#1BBC9B;}
</style>
<g id="XMLID_2_">
	<path id="XMLID_13_" class="st0" d="M100,0C44.8,0,0,44.8,0,100c0,55.2,44.8,100,100,100s100-44.8,100-100C200,44.8,155.2,0,100,0z
		 M78.4,90.2c0,0.7-0.4,1.1-1.1,1.1h-6.6c-0.7,0-1.1-0.4-1.1-1.1V85c0-1.7-0.9-2.6-2.6-2.6h-3.4c-1.8,0-2.6,0.9-2.6,2.6V115
		c0,1.8,0.9,2.6,2.6,2.6H67c1.7,0,2.6-0.9,2.6-2.6v-5.3c0-0.7,0.3-1.1,1.1-1.1h6.6c0.7,0,1.1,0.4,1.1,1.1v7.1c0,6.2-3.4,9.5-9.5,9.5
		h-7.4c-6.2,0-9.6-3.3-9.6-9.5V83.1c0-6.2,3.4-9.5,9.6-9.5h7.4c6.1,0,9.5,3.3,9.5,9.5V90.2z M116.1,126.4h-7c-0.6,0-0.9-0.3-1.1-0.9
		l-1.8-9.6H94.5l-1.8,9.6c-0.1,0.6-0.5,0.9-1.1,0.9h-7.1c-0.7,0-1.1-0.4-0.9-1.1l10.9-50.7c0.1-0.7,0.5-0.9,1.1-0.9h9.2
		c0.6,0,1,0.3,1.1,0.9l10.9,50.7C117.1,126,116.9,126.4,116.1,126.4z M148.1,90.2c0,0.7-0.4,1.1-1.1,1.1h-6.6
		c-0.7,0-1.1-0.4-1.1-1.1V85c0-1.7-0.9-2.6-2.6-2.6h-3.4c-1.8,0-2.6,0.9-2.6,2.6V115c0,1.8,0.9,2.6,2.6,2.6h3.4
		c1.7,0,2.6-0.9,2.6-2.6v-5.3c0-0.7,0.3-1.1,1.1-1.1h6.6c0.7,0,1.1,0.4,1.1,1.1v7.1c0,6.2-3.4,9.5-9.5,9.5h-7.4
		c-6.2,0-9.6-3.3-9.6-9.5V83.1c0-6.2,3.4-9.5,9.6-9.5h7.4c6.1,0,9.5,3.3,9.5,9.5V90.2z"/>
	<polygon id="XMLID_16_" class="st0" points="96.1,108.2 104.5,108.2 100.3,85.2 	"/>
</g>
</svg>
