<?xml version="1.0" encoding="utf-8"?>
<!-- Generator: Adobe Illustrator 18.0.0, SVG Export Plug-In . SVG Version: 6.00 Build 0)  -->
<!DOCTYPE svg PUBLIC "-//W3C//DTD SVG 1.1//EN" "http://www.w3.org/Graphics/SVG/1.1/DTD/svg11.dtd">
<svg version="1.1" id="Layer_1" xmlns="http://www.w3.org/2000/svg" xmlns:xlink="http://www.w3.org/1999/xlink" x="0px" y="0px"
	 viewBox="0 90.2 612 611.8" enable-background="new 0 90.2 612 611.8" xml:space="preserve">
<g id="XMLID_3_">
	<path id="XMLID_16_" fill="#BA280C" d="M306,90C137.1,90,0,227.1,0,396s137.1,306,306,306s306-137.1,306-306S474.9,90,306,90z"/>
</g>
<g>
	<g id="_x33_6_24_">
		<g>
			<path fill="#FFFFFF" d="M245.9,309.5h96.8c2.5,0,4.6-2.1,4.6-4.6s-2.1-4.6-4.6-4.6h-96.8c-2.5,0-4.6,2.1-4.6,4.6
				C241.3,307.5,243.3,309.5,245.9,309.5z"/>
			<path fill="#FFFFFF" d="M159.3,354.6h96.8c2.5,0,4.6-2.1,4.6-4.6s-2.1-4.6-4.6-4.6h-96.8c-2.5,0-4.6,2.1-4.6,4.6
				S156.7,354.6,159.3,354.6z"/>
			<path fill="#FFFFFF" d="M185.3,402c0,2.5,2.1,4.6,4.6,4.6h96.8c2.5,0,4.6-2.1,4.6-4.6s-2.1-4.6-4.6-4.6h-96.8
				C187.3,397.4,185.3,399.4,185.3,402z"/>
			<path fill="#FFFFFF" d="M240.7,455.5h-87c-2.5,0-4.6,2.1-4.6,4.6s2.1,4.6,4.6,4.6h87c2.5,0,4.6-2.1,4.6-4.6
				S243.2,455.5,240.7,455.5z"/>
			<path fill="#FFFFFF" d="M397.2,338.4c13.9,0,25.2-11.3,25.2-25.2S411.1,288,397.2,288c-13.9,0-25.2,11.3-25.2,25.2
				C372.1,327.2,383.3,338.4,397.2,338.4z"/>
			<path fill="#FFFFFF" d="M438.6,331.2c-14.5,20.2-33.8,22.6-54.6,10.2c-1.4-0.8-7.7-4.3-9.1-5.1c-33.5-19.9-67-12.1-89.4,19.3
				c-9.5,13.4,12.5,26,21.9,12.8c11.6-16.2,26.3-20.9,42.5-15.8c-8.3,14.3-15.5,28.6-25.7,48.8c-10.2,20.2-32.7,36.4-54.3,23.8
				c-15.6-9.1-29.7,13.3-14.1,22.4c29.5,17.2,64.1,6.7,81.8-15.8c0.6,0.3,1.3,0.6,2,0.9c14.4,5,33.3,18.4,39.1,23.1
				c5.8,4.7,15.7,28.9,21.5,41c7.1,14.7,30.2,4,23-10.8c-6.7-13.8-17.8-41.3-26.6-48.2c-7-5.6-20.6-16-32.1-21.8
				c7.8-15.1,15.9-30,24.5-44.7c27.2,8.3,53.1-1.5,71.6-27.3C470.1,330.6,448.1,318,438.6,331.2z"/>
		</g>
	</g>
</g>
</svg>
