<?xml version="1.0" encoding="utf-8"?>
<!-- Generator: Adobe Illustrator 18.0.0, SVG Export Plug-In . SVG Version: 6.00 Build 0)  -->
<!DOCTYPE svg PUBLIC "-//W3C//DTD SVG 1.1//EN" "http://www.w3.org/Graphics/SVG/1.1/DTD/svg11.dtd">
<svg version="1.1" id="Layer_1" xmlns="http://www.w3.org/2000/svg" xmlns:xlink="http://www.w3.org/1999/xlink" x="0px" y="0px"
	 viewBox="0 90 612 612" enable-background="new 0 90 612 612" xml:space="preserve">
<g id="XMLID_2_">
	<path id="XMLID_13_" fill="#17997A" d="M306,90C137.1,90,0,227.1,0,396s137.1,306,306,306s306-137.1,306-306S474.9,90,306,90z"/>
</g>
<g>
	<g>
		<path fill="#FFFFFF" d="M306,257c-76.8,0-139,62.2-139,139s62.2,139,139,139s139-62.2,139-139S382.8,257,306,257z M306.4,461.6
			L306.4,461.6h-0.8h-59.4c0-43.4,38.1-43.4,46.6-54.8l1-5.2c-11.9-6-20.3-20.6-20.3-37.5c0-22.4,14.6-40.5,32.5-40.5
			c18,0,32.5,18.1,32.5,40.5c0,16.8-8.2,31.3-20,37.4l1.1,5.9c9.3,10.8,46.1,11.5,46.1,54.2H306.4z"/>
	</g>
</g>
<g>
	<g>
		<path fill="#FFFFFF" d="M543.8,319.3c-10-36.4-27.8-68.1-54-95.4c-20.2-21-43.4-37.1-69.3-48c-26-11-52.6-16.7-80.2-16.7v27
			c48.5,0,96.3,19.5,131.7,56.5c22.8,23.8,38.4,51.7,47.1,83.3c8.7,31.7,10,63.5,3.2,95.6c-6.7,32.1-20.4,60.6-41.3,85.5l-36.2-36.9
			v92l90.2,1.4l-36.2-37.7c24.1-28.5,40.1-61.1,48-97.5C554.7,391.9,553.7,355.5,543.8,319.3z"/>
		<path fill="#FFFFFF" d="M102.7,449.4c-8.7-32-9.7-64.3-3-96.8s20.6-61.6,41.5-86.8l36.2,37.9v-93.6l-90.2-1l35.9,37.6
			c-24.1,28.8-40.1,61.8-48,98.7s-7,73.8,3,110.7c9.9,36.7,27.8,68.7,54,96.3c20.2,21.3,43.4,37.5,69.3,48.6
			c26,11.1,52.9,16.9,80.7,16.9V591c-49.2,0-96.3-20-131.9-57.7C127.5,509.3,111.4,481.4,102.7,449.4z"/>
	</g>
</g>
</svg>
