<?xml version="1.0" encoding="utf-8"?>
<!-- Generator: Adobe Illustrator 18.0.0, SVG Export Plug-In . SVG Version: 6.00 Build 0)  -->
<!DOCTYPE svg PUBLIC "-//W3C//DTD SVG 1.1//EN" "http://www.w3.org/Graphics/SVG/1.1/DTD/svg11.dtd">
<svg version="1.1" id="Layer_1_2_" xmlns="http://www.w3.org/2000/svg" xmlns:xlink="http://www.w3.org/1999/xlink" x="0px" y="0px"
	 viewBox="0 90 612 612" enable-background="new 0 90 612 612" xml:space="preserve">
<g id="_x3C_Group_x3E__xA0_Image_1_">
</g>
<path fill="#3B5998" d="M306,90C136.9,90,0,226.9,0,396s136.9,306,306,306s306-136.9,306-306S474.9,90,306,90z M390.2,245.1
	L390.2,245.1H347c-11.6,0-19.7,10.1-19.7,22.3v19.1h62l-10.1,62.8h-51.9v168h-63.6v-168h-42v-62.8h42v-32.1
	c1.1-36.5,14.1-71.2,75.6-73.5v-0.4h51L390.2,245.1L390.2,245.1L390.2,245.1z"/>
<g>
	<g>
		<path fill="#FFFFFF" d="M341.9,550.3H235.8c-4.9,0-8.9,4.1-8.9,8.9v63.6c0,4.9,4.1,8.9,8.9,8.9h6.9v23.8c0,1.6,0.9,2.8,2.3,3.4
			c0.5,0.2,0.9,0.3,1.4,0.3c0.9,0,1.9-0.3,2.7-1.1l26.3-26.3h5.3c2,0,3.8-1.7,3.8-3.8s-1.7-3.8-3.8-3.8h-7c-0.9,0-1.7,0.5-2.3,1.1
			l-21,21c0,0,0-18.6,0-18.8c-0.2-1.9-1.7-3.4-3.8-3.4H236c-0.8,0-1.4-0.6-1.4-1.4v-63.6c0-0.8,0.6-1.4,1.4-1.4h106
			c0.8,0,1.4,0.6,1.4,1.4v24.4c0,2,1.7,3.8,3.8,3.8c2,0,3.8-1.7,3.8-3.8v-24.4C350.8,554.4,346.9,550.3,341.9,550.3z"/>
	</g>
</g>
<g>
	<g>
		<path fill="#FFFFFF" d="M376.2,596.1h-74.3c-4.9,0-8.9,4.1-8.9,8.9v43.4c0,4.9,4.1,8.9,8.9,8.9h46.5l18.8,18.8
			c0.8,0.8,1.7,1.1,2.7,1.1c0.5,0,0.9-0.2,1.4-0.3c1.4-0.6,2.3-1.9,2.3-3.4v-16.3h2.5c4.9,0,8.9-4.1,8.9-8.9v-43.4
			C385.1,600,381,596.1,376.2,596.1z M377.6,648.4c0,0.8-0.6,1.4-1.4,1.4h-6.3c-2,0-3.6,1.6-3.8,3.4c0,0.2,0,11.3,0,11.3L352.6,651
			l0,0l-0.2-0.2c-0.6-0.6-1.6-0.9-2.5-0.9h-48.1c-0.8,0-1.4-0.6-1.4-1.4v-43.4c0-0.8,0.6-1.4,1.4-1.4h74.3c0.8,0,1.4,0.6,1.4,1.4
			L377.6,648.4L377.6,648.4z"/>
	</g>
</g>
<g>
	<g>
		<path fill="#FFFFFF" d="M339.1,622.9c-2,0-3.8,1.7-3.8,3.8c0,2,1.7,3.8,3.8,3.8c2,0,3.8-1.7,3.8-3.8
			C342.8,624.6,341.1,622.9,339.1,622.9z"/>
	</g>
</g>
<g>
	<g>
		<path fill="#FFFFFF" d="M322.8,575.1H255c-2,0-3.8,1.7-3.8,3.8s1.7,3.8,3.8,3.8h67.8c2,0,3.8-1.7,3.8-3.8S325,575.1,322.8,575.1z"
			/>
	</g>
</g>
<g>
	<g>
		<path fill="#FFFFFF" d="M280.6,599.7h-25.8c-2,0-3.8,1.7-3.8,3.8c0,2,1.7,3.8,3.8,3.8h25.8c2,0,3.8-1.7,3.8-3.8
			S282.8,599.7,280.6,599.7z"/>
	</g>
</g>
<g>
	<g>
		<path fill="#FFFFFF" d="M321.7,622.9c-2,0-3.8,1.7-3.8,3.8c0,2,1.7,3.8,3.8,3.8c2,0,3.8-1.7,3.8-3.8
			C325.4,624.6,323.7,622.9,321.7,622.9z"/>
	</g>
</g>
<g>
	<g>
		<path fill="#FFFFFF" d="M356.4,622.9c-2,0-3.8,1.7-3.8,3.8c0,2,1.7,3.8,3.8,3.8c2,0,3.8-1.7,3.8-3.8
			C360,624.6,358.5,622.9,356.4,622.9z"/>
	</g>
</g>
</svg>
