<?xml version="1.0" encoding="utf-8"?>
<!-- Generator: Adobe Illustrator 18.0.0, SVG Export Plug-In . SVG Version: 6.00 Build 0)  -->
<!DOCTYPE svg PUBLIC "-//W3C//DTD SVG 1.1//EN" "http://www.w3.org/Graphics/SVG/1.1/DTD/svg11.dtd">
<svg version="1.1" id="Layer_1" xmlns="http://www.w3.org/2000/svg" xmlns:xlink="http://www.w3.org/1999/xlink" x="0px" y="0px"
	 viewBox="0 90 612 612" enable-background="new 0 90 612 612" xml:space="preserve">
<path id="XMLID_6_" fill="#DD4B39" d="M306,90C137.1,90,0,227.1,0,396s137.1,306,306,306s306-137.1,306-306S474.9,90,306,90z
	 M421.3,396c0,82-66.7,149-149,149s-148.7-67-148.7-149s66.7-149,149-149c9,0,64.6,10.7,90.9,30.9l-34.6,45
	c-16.2-12.5-35.8-19-56-19c-51.4-0.3-92.7,41.3-92.7,92.1s41.3,92.1,92.1,92.1c41,0,75.6-26.9,87.8-63.6h-87.8v-56.9h149V396z"/>
<text transform="matrix(1 0 0 1 432 467.4479)" fill="#FFFFFF" font-family="'PTSans-CaptionBold'" font-size="250">+</text>
</svg>
