<?xml version="1.0" encoding="utf-8"?>
<!-- Generator: Adobe Illustrator 18.0.0, SVG Export Plug-In . SVG Version: 6.00 Build 0)  -->
<!DOCTYPE svg PUBLIC "-//W3C//DTD SVG 1.1//EN" "http://www.w3.org/Graphics/SVG/1.1/DTD/svg11.dtd">
<svg version="1.1" id="Layer_1" xmlns="http://www.w3.org/2000/svg" xmlns:xlink="http://www.w3.org/1999/xlink" x="0px" y="0px"
	 viewBox="0 90 612 612" enable-background="new 0 90 612 612" xml:space="preserve">
<path id="XMLID_6_" fill="#DD4B39" d="M306,90C137.1,90,0,227.1,0,396s137.1,306,306,306s306-137.1,306-306S474.9,90,306,90z
	 M440.3,417.6c0,82-66.7,149-149,149s-148.7-67-148.7-149s66.7-149,149-149c9,0,64.6,10.7,90.9,30.9l-34.6,45
	c-16.2-12.5-35.8-19-56-19c-51.4-0.3-92.7,41.3-92.7,92.1s41.3,92.1,92.1,92.1c41,0,75.6-26.9,87.8-63.6h-87.8v-56.9h149V417.6z"/>
<path fill="#FFFFFF" d="M456.8,192.3c-37.4,0-67.6,25.9-67.6,57.8c0,19.6,11.4,37,28.8,47.4l-0.2,22.4l22.7-13.5
	c5.3,1.1,10.6,1.8,16.2,1.8c37.3,0,67.6-26,67.6-57.9C524.3,218.3,494.1,192.3,456.8,192.3z M426.6,230.9c-1.9,1.6-3.4,3-4.6,4.5
	c-1.2,1.3-2.1,3.3-2.5,5.6c1.2,0,2.5,0.8,4.1,2.4c1.3,1.6,2.2,3.5,2.2,5.6c0,1.9-0.8,3.7-2.3,5.6c-1.6,1.8-3.5,2.7-5.8,2.7
	s-4.4-1-5.9-2.9c-1.6-1.9-2.4-4.4-2.4-7.1c0-4.2,1.3-8.6,4.2-13.2c2.9-4.6,6.4-8,10.5-10.3l3.3,6.8L426.6,230.9z M447.3,230.9
	c-1.9,1.6-3.4,3-4.6,4.5c-1.2,1.3-2.1,3.3-2.5,5.6c1.2,0,2.5,0.8,4.1,2.4c1.6,1.6,2.3,3.5,2.3,5.6c0,1.9-0.8,3.7-2.4,5.6
	c-1.6,1.8-3.5,2.7-5.8,2.7s-4.4-1-5.9-2.9c-1.6-1.9-2.4-4.4-2.4-7.1c0-4.2,1.3-8.6,4.2-13.2s6.2-8,10.4-10.3l3.4,6.8L447.3,230.9z
	 M477.1,272.1c-2.9,4.6-6.2,8-10.4,10.3l-3.4-6.8l0.4-0.4c1.9-1.6,3.4-3,4.6-4.5c1.2-1.3,2.1-3.3,2.5-5.6c-1.2,0-2.5-0.8-4.1-2.4
	c-1.5-1.6-2.3-3.5-2.3-5.6c0-1.9,0.8-3.7,2.4-5.6c1.6-1.8,3.5-2.7,5.8-2.7s4.4,1,5.9,2.9c1.6,1.9,2.4,4.4,2.4,7.1
	C481.2,263.2,479.8,267.5,477.1,272.1z M497.7,272.1c-2.9,4.6-6.4,8-10.5,10.3l-3.3-6.8l0.4-0.4c1.9-1.6,3.4-3,4.6-4.5
	c1.2-1.3,2.1-3.3,2.5-5.6c-1.2,0-2.5-0.8-4.1-2.4c-1.3-1.6-2.2-3.5-2.2-5.6c0-1.9,0.8-3.7,2.3-5.6c1.6-1.8,3.5-2.7,5.8-2.7
	s4.4,1,5.9,2.9c1.6,1.9,2.4,4.4,2.4,7.1C501.9,263.2,500.5,267.5,497.7,272.1z"/>
</svg>
