<?xml version="1.0" encoding="utf-8"?>
<!-- Generator: Adobe Illustrator 18.0.0, SVG Export Plug-In . SVG Version: 6.00 Build 0)  -->
<!DOCTYPE svg PUBLIC "-//W3C//DTD SVG 1.1//EN" "http://www.w3.org/Graphics/SVG/1.1/DTD/svg11.dtd">
<svg version="1.1" id="Layer_1" xmlns="http://www.w3.org/2000/svg" xmlns:xlink="http://www.w3.org/1999/xlink" x="0px" y="0px"
	 viewBox="0 90 612 612" enable-background="new 0 90 612 612" xml:space="preserve">
<path id="XMLID_6_" fill="#DD4B39" d="M306,90C137.1,90,0,227.1,0,396s137.1,306,306,306s306-137.1,306-306S474.9,90,306,90z
	 M425.3,364.6c0,82-66.7,149-149,149s-148.7-67-148.7-149s66.7-149,149-149c9,0,64.6,10.7,90.9,30.9l-34.6,45
	c-16.2-12.5-35.8-19-56-19c-51.4-0.3-92.7,41.3-92.7,92.1s41.3,92.1,92.1,92.1c41,0,75.6-26.9,87.8-63.6h-87.8v-56.9h149V364.6z"/>
<text transform="matrix(1 0 0 1 433 436)" fill="#FFFFFF" font-family="'PTSans-CaptionBold'" font-size="250">+</text>
<g>
	<g>
		<path fill="#FFFFFF" d="M332.9,553.3H226.8c-4.9,0-8.9,4.1-8.9,8.9v63.6c0,4.9,4.1,8.9,8.9,8.9h6.9v23.8c0,1.6,0.9,2.8,2.3,3.4
			c0.5,0.2,0.9,0.3,1.4,0.3c0.9,0,1.9-0.3,2.7-1.1l26.3-26.3h5.3c2,0,3.8-1.7,3.8-3.8c0-2-1.7-3.8-3.8-3.8h-7
			c-0.9,0-1.7,0.5-2.3,1.1l-21,21c0,0,0-18.6,0-18.8c-0.2-1.9-1.7-3.4-3.8-3.4H227c-0.8,0-1.4-0.6-1.4-1.4v-63.6
			c0-0.8,0.6-1.4,1.4-1.4h106c0.8,0,1.4,0.6,1.4,1.4v24.4c0,2,1.7,3.8,3.8,3.8c2,0,3.8-1.7,3.8-3.8v-24.4
			C341.8,557.3,337.9,553.3,332.9,553.3z"/>
	</g>
</g>
<g>
	<g>
		<path fill="#FFFFFF" d="M367.2,599h-74.3c-4.9,0-8.9,4.1-8.9,8.9v43.4c0,4.9,4.1,8.9,8.9,8.9h46.5l18.8,18.8
			c0.8,0.8,1.7,1.1,2.7,1.1c0.5,0,0.9-0.2,1.4-0.3c1.4-0.6,2.3-1.9,2.3-3.4v-16.3h2.5c4.9,0,8.9-4.1,8.9-8.9v-43.4
			C376.1,602.9,372,599,367.2,599z M368.6,651.3c0,0.8-0.6,1.4-1.4,1.4h-6.3c-2,0-3.6,1.6-3.8,3.4c0,0.2,0,11.3,0,11.3L343.7,654
			l0,0l-0.2-0.2c-0.6-0.6-1.6-0.9-2.5-0.9h-48.1c-0.8,0-1.4-0.6-1.4-1.4v-43.4c0-0.8,0.6-1.4,1.4-1.4h74.3c0.8,0,1.4,0.6,1.4,1.4
			V651.3z"/>
	</g>
</g>
<g>
	<g>
		<path fill="#FFFFFF" d="M330.1,625.8c-2,0-3.8,1.7-3.8,3.8c0,2,1.7,3.8,3.8,3.8s3.8-1.7,3.8-3.8
			C333.8,627.5,332.1,625.8,330.1,625.8z"/>
	</g>
</g>
<g>
	<g>
		<path fill="#FFFFFF" d="M313.8,578H246c-2,0-3.8,1.7-3.8,3.8s1.7,3.8,3.8,3.8h67.8c2,0,3.8-1.7,3.8-3.8S316,578,313.8,578z"/>
	</g>
</g>
<g>
	<g>
		<path fill="#FFFFFF" d="M271.6,602.6h-25.8c-2,0-3.8,1.7-3.8,3.8s1.7,3.8,3.8,3.8h25.8c2,0,3.8-1.7,3.8-3.8
			S273.8,602.6,271.6,602.6z"/>
	</g>
</g>
<g>
	<g>
		<path fill="#FFFFFF" d="M312.7,625.8c-2,0-3.8,1.7-3.8,3.8c0,2,1.7,3.8,3.8,3.8c2,0,3.8-1.7,3.8-3.8S314.7,625.8,312.7,625.8z"/>
	</g>
</g>
<g>
	<g>
		<path fill="#FFFFFF" d="M347.4,625.8c-2,0-3.8,1.7-3.8,3.8c0,2,1.7,3.8,3.8,3.8c2,0,3.8-1.7,3.8-3.8
			C351,627.5,349.5,625.8,347.4,625.8z"/>
	</g>
</g>
</svg>
