<?xml version="1.0" encoding="utf-8"?>
<!-- Generator: Adobe Illustrator 19.0.0, SVG Export Plug-In . SVG Version: 6.00 Build 0)  -->
<svg version="1.1" id="Layer_1" xmlns="http://www.w3.org/2000/svg" xmlns:xlink="http://www.w3.org/1999/xlink" x="0px" y="0px"
	 viewBox="150 -150 500 500" style="enable-background:new 150 -150 500 500;" xml:space="preserve">
<style type="text/css">
	.st0{clip-path:url(#SVGID_2_);fill:url(#SVGID_3_);}
	.st1{fill:#FFFFFF;}
</style>
<g>
	<g>
		<defs>
			<path id="SVGID_1_" d="M400.5-150.5C262.2-150.5,150-38.3,150,100c0,138.4,112.2,250.5,250.5,250.5
				C538.9,350.5,651,238.3,651,100C651.1-38.3,538.9-150.5,400.5-150.5z"/>
		</defs>
		<clipPath id="SVGID_2_">
			<use xlink:href="#SVGID_1_"  style="overflow:visible;"/>
		</clipPath>
		
			<radialGradient id="SVGID_3_" cx="339.9441" cy="-260.4258" r="0.7951" gradientTransform="matrix(209.9023 -611.7883 611.7883 209.9023 88263.9922 262987.5)" gradientUnits="userSpaceOnUse">
			<stop  offset="0" style="stop-color:#FFD676"/>
			<stop  offset="0.2463" style="stop-color:#F2A454"/>
			<stop  offset="0.3793" style="stop-color:#F05C3C"/>
			<stop  offset="0.6995" style="stop-color:#C22F86"/>
			<stop  offset="0.9568" style="stop-color:#6666AD"/>
			<stop  offset="0.9852" style="stop-color:#5C6CB2"/>
			<stop  offset="1" style="stop-color:#5C6CB2"/>
		</radialGradient>
		<polygon class="st0" points="-10.8,297.4 199.2,-314.8 812.1,-104.5 602,507.7 		"/>
	</g>
</g>
<g>
	<path class="st1" d="M457.7,242.3H343.3c-44.8,0-81.3-36.5-81.3-81.3V39c0-44.8,36.5-81.3,81.3-81.3h114.3
		c44.8,0,81.3,36.5,81.3,81.3v122C539,205.8,502.5,242.3,457.7,242.3z M343.3-21.5c-33.3,0-60.5,27.1-60.5,60.5v122
		c0,33.3,27.1,60.5,60.5,60.5h114.3c33.3,0,60.4-27.1,60.4-60.5V39c0-33.3-27.1-60.5-60.4-60.5H343.3z"/>
	<path class="st1" d="M400.5,175.2c-41.7,0-75.6-33.9-75.6-75.6c0-20.6,8.4-40.6,23.2-54.9c14.4-14,33.1-21.3,52.8-20.7
		c23.5,0.7,43.1,8.6,56.5,22.9c12.7,13.6,19.2,31.9,18.7,52.9l0,0c-0.4,20.2-8.4,39-22.4,53.1C439.5,167.3,420.6,175.2,400.5,175.2z
		 M398.8,49.4c-12.2,0-23.9,4.8-32.9,13.6c-9.8,9.5-15.5,22.9-15.5,36.6c0,27.6,22.5,50.1,50.1,50.1c27.5,0,49.5-22.1,50.1-50.4
		c0.3-14.3-3.8-26.3-11.9-35c-8.7-9.3-22-14.4-38.6-14.9C399.7,49.5,399.2,49.4,398.8,49.4z"/>
	<path class="st1" d="M495.6,21.9c0,9.7-7.9,17.6-17.6,17.6s-17.6-7.9-17.6-17.6S468.3,4.3,478,4.3C487.7,4.2,495.6,12.1,495.6,21.9
		"/>
</g>
</svg>
