<?xml version="1.0" encoding="utf-8"?>
<!-- Generator: Adobe Illustrator 18.0.0, SVG Export Plug-In . SVG Version: 6.00 Build 0)  -->
<!DOCTYPE svg PUBLIC "-//W3C//DTD SVG 1.1//EN" "http://www.w3.org/Graphics/SVG/1.1/DTD/svg11.dtd">
<svg version="1.1" id="Layer_1" xmlns="http://www.w3.org/2000/svg" xmlns:xlink="http://www.w3.org/1999/xlink" x="0px" y="0px"
	 viewBox="0 113.6 612 613.2" enable-background="new 0 113.6 612 613.2" xml:space="preserve">
<g>
	<g>
		<g>
			<g>
				<g>
					<defs>
						<path id="SVGID_1_" d="M306,113.6C136.7,113.6-0.6,250.9-0.6,420.2c0,169.4,137.3,306.6,306.6,306.6
							c169.4,0,306.6-137.3,306.6-306.6C612.7,250.9,475.4,113.6,306,113.6z"/>
					</defs>
					<clipPath id="SVGID_2_">
						<use xlink:href="#SVGID_1_"  overflow="visible"/>
					</clipPath>
					
						<radialGradient id="SVGID_3_" cx="339.6743" cy="1052.5343" r="0.7951" gradientTransform="matrix(256.9204 -748.8289 -748.8289 -256.9204 701074 525501.25)" gradientUnits="userSpaceOnUse">
						<stop  offset="0" style="stop-color:#FFD676"/>
						<stop  offset="0.2463" style="stop-color:#F2A454"/>
						<stop  offset="0.3793" style="stop-color:#F05C3C"/>
						<stop  offset="0.6995" style="stop-color:#C22F86"/>
						<stop  offset="0.9568" style="stop-color:#6666AD"/>
						<stop  offset="0.9852" style="stop-color:#5C6CB2"/>
						<stop  offset="1" style="stop-color:#5C6CB2"/>
					</radialGradient>
					<polygon clip-path="url(#SVGID_2_)" fill="url(#SVGID_3_)" points="-197.4,661.8 59.6,-87.5 809.8,169.9 552.6,919.2 					"/>
				</g>
			</g>
		</g>
	</g>
</g>
<g>
	<path fill="#FFFFFF" d="M376,554.4H236c-54.8,0-99.5-44.7-99.5-99.5V305.5c0-54.8,44.7-99.5,99.5-99.5h139.9
		c54.8,0,99.5,44.7,99.5,99.5v149.3C475.5,509.7,430.8,554.4,376,554.4z M236,231.5c-40.8,0-74.1,33.2-74.1,74.1v149.3
		c0,40.8,33.2,74.1,74.1,74.1h139.9c40.8,0,73.9-33.2,73.9-74.1V305.5c0-40.8-33.2-74.1-73.9-74.1H236V231.5z"/>
	<path fill="#FFFFFF" d="M306,472.2c-51,0-92.5-41.5-92.5-92.5c0-25.2,10.3-49.7,28.4-67.2c17.6-17.1,40.5-26.1,64.6-25.3
		c28.8,0.9,52.8,10.5,69.2,28c15.5,16.6,23.5,39,22.9,64.7l0,0c-0.5,24.7-10.3,47.7-27.4,65C353.7,462.6,330.6,472.2,306,472.2z
		 M303.9,318.2c-14.9,0-29.3,5.9-40.3,16.6c-12,11.6-19,28-19,44.8c0,33.8,27.5,61.3,61.3,61.3c33.7,0,60.6-27.1,61.3-61.7
		c0.4-17.5-4.7-32.2-14.6-42.8c-10.6-11.4-26.9-17.6-47.2-18.2C305,318.4,304.4,318.2,303.9,318.2z"/>
	<path fill="#FFFFFF" d="M422.4,284.6c0,11.9-9.7,21.5-21.5,21.5s-21.5-9.7-21.5-21.5S389,263,400.9,263
		C412.7,262.9,422.4,272.6,422.4,284.6"/>
</g>
<g>
	<g>
		<path fill="#FFFFFF" d="M341.8,576.6h-106c-4.9,0-8.9,4.1-8.9,8.9v63.6c0,4.9,4.1,8.9,8.9,8.9h6.9v23.8c0,1.6,0.9,2.8,2.3,3.4
			c0.5,0.2,0.9,0.3,1.4,0.3c0.9,0,1.9-0.3,2.7-1.1l26.3-26.3h5.3c2,0,3.8-1.7,3.8-3.8c0-2-1.7-3.8-3.8-3.8h-7
			c-0.9,0-1.7,0.5-2.3,1.1l-21,21c0,0,0-18.6,0-18.8c-0.2-1.9-1.7-3.4-3.8-3.4h-10.7c-0.8,0-1.4-0.6-1.4-1.4v-63.6
			c0-0.8,0.6-1.4,1.4-1.4H342c0.8,0,1.4,0.6,1.4,1.4v24.4c0,2,1.7,3.8,3.8,3.8c2,0,3.8-1.7,3.8-3.8v-24.4
			C350.8,580.7,346.8,576.6,341.8,576.6z"/>
	</g>
</g>
<g>
	<g>
		<path fill="#FFFFFF" d="M376.1,622.3h-74.3c-4.9,0-8.9,4.1-8.9,8.9v43.4c0,4.9,4.1,8.9,8.9,8.9h46.5l18.8,18.8
			c0.8,0.8,1.7,1.1,2.7,1.1c0.5,0,0.9-0.2,1.4-0.3c1.4-0.6,2.3-1.9,2.3-3.4v-16.3h2.5c4.9,0,8.9-4.1,8.9-8.9v-43.4
			C385.1,626.2,381,622.3,376.1,622.3z M377.5,674.6c0,0.8-0.6,1.4-1.4,1.4h-6.3c-2,0-3.6,1.6-3.8,3.4c0,0.2,0,11.3,0,11.3
			l-13.5-13.5l0,0l-0.2-0.2c-0.6-0.6-1.6-0.9-2.5-0.9h-48.1c-0.8,0-1.4-0.6-1.4-1.4v-43.4c0-0.8,0.6-1.4,1.4-1.4H376
			c0.8,0,1.4,0.6,1.4,1.4v43.3H377.5z"/>
	</g>
</g>
<g>
	<g>
		<path fill="#FFFFFF" d="M339,649.1c-2,0-3.8,1.7-3.8,3.8c0,2,1.7,3.8,3.8,3.8c2,0,3.8-1.7,3.8-3.8S341,649.1,339,649.1z"/>
	</g>
</g>
<g>
	<g>
		<path fill="#FFFFFF" d="M322.7,601.3h-67.8c-2,0-3.8,1.7-3.8,3.8c0,2,1.7,3.8,3.8,3.8h67.8c2,0,3.8-1.7,3.8-3.8
			C326.5,603.1,324.9,601.3,322.7,601.3z"/>
	</g>
</g>
<g>
	<g>
		<path fill="#FFFFFF" d="M280.6,625.9h-25.8c-2,0-3.8,1.7-3.8,3.8c0,2,1.7,3.8,3.8,3.8h25.8c2,0,3.8-1.7,3.8-3.8
			C284.3,627.7,282.8,625.9,280.6,625.9z"/>
	</g>
</g>
<g>
	<g>
		<path fill="#FFFFFF" d="M321.6,649.1c-2,0-3.8,1.7-3.8,3.8c0,2,1.7,3.8,3.8,3.8c2,0,3.8-1.7,3.8-3.8S323.7,649.1,321.6,649.1z"/>
	</g>
</g>
<g>
	<g>
		<path fill="#FFFFFF" d="M356.4,649.1c-2,0-3.8,1.7-3.8,3.8c0,2,1.7,3.8,3.8,3.8s3.8-1.7,3.8-3.8
			C360,650.8,358.4,649.1,356.4,649.1z"/>
	</g>
</g>
</svg>
