<svg id="Layer_1" data-name="Layer 1" xmlns="http://www.w3.org/2000/svg" viewBox="0 0 120 120"><defs><style>.cls-1,.cls-2{fill:#579bfc;}.cls-2,.cls-3,.cls-4{stroke:#252e4a;stroke-linecap:round;stroke-linejoin:round;stroke-width:3px;}.cls-3{fill:#fff;}.cls-4{fill:#3773c8;}</style></defs><title>1 LEAD2MQL</title><circle class="cls-1" cx="60" cy="60" r="50"/><ellipse class="cls-2" cx="60" cy="38.69" rx="29" ry="5.09"/><circle class="cls-3" cx="47.83" cy="27.17" r="10.17"/><circle class="cls-3" cx="69.92" cy="40.3" r="8.92"/><path class="cls-3" d="M89,39.08,66.27,61.81V73.93L53.73,79.06V61.81L31,39.08s2.35,4.71,29,4.71S89,39.08,89,39.08Z"/><circle class="cls-3" cx="60" cy="85" r="18"/><rect class="cls-4" x="47.94" y="81.66" width="1.63" height="2.93"/><path class="cls-3" d="M50.89,78.4H59a0,0,0,0,1,0,0v9.45a0,0,0,0,1,0,0H50.89a1.32,1.32,0,0,1-1.32-1.32V79.72A1.32,1.32,0,0,1,50.89,78.4Z"/><polygon class="cls-2" points="59.02 78.4 69.13 74.17 69.13 92.42 59.02 87.85 59.02 78.4"/><path class="cls-2" d="M58,87.85l-1.62,2.94,1.29,3.45A1.3,1.3,0,0,1,56.49,96H53.9a1.31,1.31,0,0,1-1.28-1l-1.42-7.1Z"/><path class="cls-3" d="M69.12,86.22a2.93,2.93,0,1,0,0-5.86Z"/></svg>