<?xml version="1.0" encoding="utf-8"?>
<!-- Generator: Adobe Illustrator 18.0.0, SVG Export Plug-In . SVG Version: 6.00 Build 0)  -->
<!DOCTYPE svg PUBLIC "-//W3C//DTD SVG 1.1//EN" "http://www.w3.org/Graphics/SVG/1.1/DTD/svg11.dtd">
<svg version="1.1" id="Layer_1" xmlns="http://www.w3.org/2000/svg" xmlns:xlink="http://www.w3.org/1999/xlink" x="0px" y="0px"
	 viewBox="0 90.1 612 613.1" enable-background="new 0 90.1 612 613.1" xml:space="preserve">
<path fill="#0E76A8" d="M305.4,90.1C136.1,90.1-1.1,227.3-1.1,396.6s137.2,306.6,306.5,306.6c169.4,0,306.6-137.3,306.6-306.6
	S474.8,90.1,305.4,90.1z M200,228.4c15.9,0,28.8,12.9,28.8,28.8S215.9,286,200,286s-28.8-12.9-28.8-28.8
	C171.2,241.2,184.2,228.4,200,228.4z M229,496.3h-57.4V305H229V496.3z M458.9,496.3h-57.4V392c0-21.4-6.2-42.8-31.3-42.8
	c-25.2,0-45.3,21.4-45.3,43.3v103.8h-57.7V304.4h57.7v26.7c17.6-22.4,42.6-32.7,70.5-32.7s63.6,14,63.6,89.4v108.6h-0.1L458.9,496.3
	L458.9,496.3z"/>
<g>
	<g>
		<path fill="#FFFFFF" d="M341.9,540.2H235.8c-4.9,0-8.9,4.1-8.9,8.9v63.6c0,4.9,4.1,8.9,8.9,8.9h6.9v23.8c0,1.6,0.9,2.8,2.3,3.4
			c0.5,0.2,0.9,0.3,1.4,0.3c0.9,0,1.9-0.3,2.7-1.1l26.3-26.3h5.3c2,0,3.8-1.7,3.8-3.8c0-2-1.7-3.8-3.8-3.8h-7
			c-0.9,0-1.7,0.5-2.3,1.1l-21,21c0,0,0-18.6,0-18.8c-0.2-1.9-1.7-3.4-3.8-3.4H236c-0.8,0-1.4-0.6-1.4-1.4V549
			c0-0.8,0.6-1.4,1.4-1.4h106c0.8,0,1.4,0.6,1.4,1.4v24.4c0,2,1.7,3.8,3.8,3.8c2,0,3.8-1.7,3.8-3.8V549
			C350.8,544.3,346.9,540.2,341.9,540.2z"/>
	</g>
</g>
<g>
	<g>
		<path fill="#FFFFFF" d="M376.2,586h-74.3c-4.9,0-8.9,4.1-8.9,8.9v43.4c0,4.9,4.1,8.9,8.9,8.9h46.5l18.8,18.8
			c0.8,0.8,1.7,1.1,2.7,1.1c0.5,0,0.9-0.2,1.4-0.3c1.4-0.6,2.3-1.9,2.3-3.4v-16.3h2.5c4.9,0,8.9-4.1,8.9-8.9v-43.4
			C385.1,589.9,381,586,376.2,586z M377.6,638.3c0,0.8-0.6,1.4-1.4,1.4h-6.3c-2,0-3.6,1.6-3.8,3.4c0,0.2,0,11.3,0,11.3L352.7,641
			l0,0l-0.2-0.2c-0.6-0.6-1.6-0.9-2.5-0.9h-48.1c-0.8,0-1.4-0.6-1.4-1.4v-43.4c0-0.8,0.6-1.4,1.4-1.4h74.3c0.8,0,1.4,0.6,1.4,1.4
			V638.3z"/>
	</g>
</g>
<g>
	<g>
		<path fill="#FFFFFF" d="M339.1,612.8c-2,0-3.8,1.7-3.8,3.8c0,2,1.7,3.8,3.8,3.8s3.8-1.7,3.8-3.8
			C342.8,614.5,341.1,612.8,339.1,612.8z"/>
	</g>
</g>
<g>
	<g>
		<path fill="#FFFFFF" d="M322.8,565H255c-2,0-3.8,1.7-3.8,3.8c0,2,1.7,3.8,3.8,3.8h67.8c2,0,3.8-1.7,3.8-3.8
			C326.5,566.7,325,565,322.8,565z"/>
	</g>
</g>
<g>
	<g>
		<path fill="#FFFFFF" d="M280.6,589.6h-25.8c-2,0-3.8,1.7-3.8,3.8c0,2,1.7,3.8,3.8,3.8h25.8c2,0,3.8-1.7,3.8-3.8
			S282.8,589.6,280.6,589.6z"/>
	</g>
</g>
<g>
	<g>
		<path fill="#FFFFFF" d="M321.7,612.8c-2,0-3.8,1.7-3.8,3.8c0,2,1.7,3.8,3.8,3.8c2,0,3.8-1.7,3.8-3.8
			C325.4,614.5,323.7,612.8,321.7,612.8z"/>
	</g>
</g>
<g>
	<g>
		<path fill="#FFFFFF" d="M356.4,612.8c-2,0-3.8,1.7-3.8,3.8c0,2,1.7,3.8,3.8,3.8c2,0,3.8-1.7,3.8-3.8
			C360,614.5,358.5,612.8,356.4,612.8z"/>
	</g>
</g>
</svg>
