<?xml version="1.0" encoding="utf-8"?>
<!-- Generator: Adobe Illustrator 18.0.0, SVG Export Plug-In . SVG Version: 6.00 Build 0)  -->
<!DOCTYPE svg PUBLIC "-//W3C//DTD SVG 1.1//EN" "http://www.w3.org/Graphics/SVG/1.1/DTD/svg11.dtd">
<svg version="1.1" id="Layer_1" xmlns="http://www.w3.org/2000/svg" xmlns:xlink="http://www.w3.org/1999/xlink" x="0px" y="0px"
	 viewBox="0 90 612 612" enable-background="new 0 90 612 612" xml:space="preserve">
<path id="XMLID_12_" fill="#34495E" d="M306,90C137.1,90,0,227.1,0,396s137.1,306,306,306s306-137.1,306-306S474.9,90,306,90z
	 M263.8,470.1c0,2.1-0.9,3.1-3.1,3.1h-69.2c-1.8,0-3.1-0.9-3.1-3.1V321.9c0-1.8,1.2-3.1,3.1-3.1h20.2c2.1,0,3.1,1.2,3.1,3.1v125.8
	h45.9c2.1,0,3.1,1.2,3.1,3.1V470.1z M337.2,341.2c0,1.8-0.9,3.1-3.1,3.1h-22.3v125.8c0,2.1-0.9,3.1-3.1,3.1h-20.2
	c-1.8,0-3.1-0.9-3.1-3.1V344.3h-22.3c-1.8,0-3.1-1.2-3.1-3.1v-19.3c0-1.8,1.2-3.1,3.1-3.1h71c2.1,0,3.1,1.2,3.1,3.1V341.2z
	 M441.9,322.9l-32.7,146.9c-0.6,2.4-1.8,3.4-4.3,3.4h-19.3c-2.4,0-3.7-1.2-4.3-3.4l-32.4-146.9c-0.6-2.8,0.6-4.3,3.4-4.3h18.4
	c2.4,0,3.7,1.2,4.3,3.4l20,103.4L415.5,322c0.6-2.4,1.8-3.4,4.3-3.4h18.4C441.3,318.9,442.5,320.4,441.9,322.9z"/>
</svg>
