<svg id="Layer_1" data-name="Layer 1" xmlns="http://www.w3.org/2000/svg" viewBox="0 0 120 120"><defs><style>.cls-1,.cls-2{fill:#579bfc;}.cls-2,.cls-3,.cls-4{stroke:#252e4a;stroke-linecap:round;stroke-linejoin:round;stroke-width:3px;}.cls-3{fill:#fff;}.cls-4{fill:#3773c8;}</style></defs><title>Marketing Qualified Leads</title><circle class="cls-1" cx="60" cy="60" r="50"/><ellipse class="cls-2" cx="60" cy="44.99" rx="35.93" ry="6.31"/><circle class="cls-3" cx="61" cy="38" r="20"/><rect class="cls-4" x="49" y="35.04" width="1.65" height="2.97"/><path class="cls-3" d="M52,31.74h8.24a0,0,0,0,1,0,0V41.3a0,0,0,0,1,0,0H52A1.32,1.32,0,0,1,50.65,40V33.06A1.32,1.32,0,0,1,52,31.74Z"/><polygon class="cls-2" points="60.21 31.74 70.44 27.45 70.44 45.92 60.21 41.3 60.21 31.74"/><path class="cls-2" d="M59.22,41.3l-1.65,3,1.31,3.5a1.31,1.31,0,0,1-1.23,1.78H55a1.34,1.34,0,0,1-1.3-1.06L52.3,41.3Z"/><path class="cls-3" d="M70.44,39.65a3,3,0,0,0,0-5.93Z"/><path class="cls-3" d="M95.93,45.48,67.77,73.64v15L52.23,95V73.64L24.07,45.48S27,51.3,60,51.3,95.93,45.48,95.93,45.48Z"/></svg>