<?xml version="1.0" encoding="UTF-8"?>
<svg width="100px" height="100px" viewBox="0 0 100 100" version="1.1" xmlns="http://www.w3.org/2000/svg" xmlns:xlink="http://www.w3.org/1999/xlink">
    <!-- Generator: Sketch 50.2 (55047) - http://www.bohemiancoding.com/sketch -->
    <title>MQL2SQL-Velocity</title>
    <desc>Created with Sketch.</desc>
    <defs></defs>
    <g id="MQL2SQL-Velocity" stroke="none" stroke-width="1" fill="none" fill-rule="evenodd">
        <g id="2-MQL2SQL" fill-rule="nonzero">
            <circle id="Oval" fill="#579BFC" cx="50" cy="50" r="50"></circle>
            <circle id="Oval" fill="#579BFC" cx="50" cy="50" r="50"></circle>
            <ellipse id="Oval" stroke="#252E4A" stroke-width="3" fill="#579BFC" stroke-linecap="round" stroke-linejoin="round" cx="50" cy="28.69" rx="29" ry="5.09"></ellipse>
            <circle id="Oval" stroke="#252E4A" stroke-width="3" fill="#FFFFFF" stroke-linecap="round" stroke-linejoin="round" cx="50" cy="23.5" r="17.5"></circle>
            <rect id="Rectangle-path" stroke="#252E4A" stroke-width="3" fill="#3773C8" stroke-linecap="round" stroke-linejoin="round" x="40.16" y="21.2" width="1.4" height="2.52"></rect>
            <path d="M42.88,18.39 L49.69,18.39 L49.69,26.52 L42.88,26.52 C42.1509841,26.52 41.56,25.9290159 41.56,25.2 L41.56,19.71 C41.56,18.9809841 42.1509841,18.39 42.88,18.39 Z" id="Shape" stroke="#252E4A" stroke-width="3" fill="#FFFFFF" stroke-linecap="round" stroke-linejoin="round"></path>
            <polygon id="Shape" stroke="#252E4A" stroke-width="3" fill="#579BFC" stroke-linecap="round" stroke-linejoin="round" points="49.68 18.39 58.37 14.75 58.37 30.44 49.68 26.52"></polygon>
            <path d="M48.84,26.52 L47.44,29 L48.56,32 C48.6868477,32.3449003 48.6380562,32.7299425 48.4291895,33.032302 C48.2203228,33.3346614 47.8774708,33.5165698 47.51,33.52 L45.28,33.52 C44.7424692,33.5199346 44.280787,33.1379975 44.18,32.61 L43,26.52 L48.84,26.52 Z" id="Shape" stroke="#252E4A" stroke-width="3" fill="#579BFC" stroke-linecap="round" stroke-linejoin="round"></path>
            <path d="M58.37,25.12 C59.6025053,24.9284891 60.5115415,23.8672954 60.5115415,22.62 C60.5115415,21.3727046 59.6025053,20.3115109 58.37,20.12 L58.37,25.12 Z" id="Shape" stroke="#252E4A" stroke-width="3" fill="#FFFFFF" stroke-linecap="round" stroke-linejoin="round"></path>
            <path d="M79,29.08 L56.27,51.81 L56.27,63.93 L43.73,69.06 L43.73,51.81 L21,29.08 C21,29.08 23.35,33.79 50,33.79 C76.65,33.79 79,29.08 79,29.08 Z" id="Shape" stroke="#252E4A" stroke-width="3" fill="#FFFFFF" stroke-linecap="round" stroke-linejoin="round"></path>
            <circle id="Oval" stroke="#252E4A" stroke-width="3" fill="#FFFFFF" stroke-linecap="round" stroke-linejoin="round" cx="50" cy="75" r="18"></circle>
            <circle id="Oval" stroke="#252E4A" stroke-width="3" fill="#579BFC" stroke-linecap="round" stroke-linejoin="round" cx="50" cy="75" r="12"></circle>
            <path d="M50.49,68.17 L50.49,68.93 C50.9329072,68.9693198 51.3675886,69.0737781 51.78,69.24 C52.143432,69.3971863 52.465265,69.6368491 52.72,69.94 C52.9165471,70.1609387 53.0783932,70.4104513 53.2,70.68 C53.3108212,70.8936542 53.3723297,71.1294369 53.38,71.37 C53.381848,71.6006254 53.2876532,71.821621 53.12,71.98 C52.9578465,72.1481887 52.7336156,72.242221 52.5,72.24 C52.0551657,72.2544529 51.6711541,71.9308476 51.61,71.49 C51.4730353,70.9297269 51.045124,70.4865331 50.49,70.33 L50.49,73.25 C51.07,73.41 51.49,73.55 51.88,73.68 C52.2203688,73.809271 52.5327057,74.0027841 52.8,74.25 C53.0848231,74.5067895 53.3130071,74.8201167 53.47,75.17 C53.6328353,75.5418439 53.7146484,75.9440917 53.71,76.35 C53.7100222,76.873818 53.579415,77.3893727 53.33,77.85 C53.0707875,78.3233556 52.6913734,78.7200158 52.23,79 C51.6975389,79.3044451 51.1021969,79.4823634 50.49,79.52 L50.49,81.27 C50.5049542,81.4733756 50.477718,81.6776473 50.41,81.87 C50.3490035,82.0045264 50.2060411,82.0821346 50.06,82.06 C49.9223799,82.0739285 49.7870141,82.017526 49.7,81.91 C49.6207967,81.7630929 49.5860511,81.5963138 49.6,81.43 L49.6,79.53 C49.1040572,79.4853857 48.6199242,79.3533494 48.17,79.14 C47.7956,78.9585821 47.4568761,78.7113136 47.17,78.41 C46.9152353,78.1444957 46.7088003,77.8365353 46.56,77.5 C46.436646,77.2053502 46.3721015,76.8894219 46.37,76.57 C46.3747599,76.3583442 46.456534,76.1556867 46.6,76 C46.7720456,75.8209022 47.0117573,75.7228383 47.26,75.73 C47.4480015,75.7233809 47.6333515,75.7758385 47.79,75.88 C47.9399461,75.9719841 48.0477013,76.1192495 48.09,76.29 C48.22,76.67 48.33,76.97 48.42,77.17 C48.526474,77.3822775 48.672408,77.572331 48.85,77.73 C49.0658505,77.9150666 49.3231078,78.0454104 49.6,78.11 L49.6,74.81 C49.0470385,74.6758347 48.5104875,74.4813349 48,74.23 C47.0778898,73.7879132 46.516169,72.8306143 46.58,71.81 C46.5473401,71.0652573 46.8263476,70.3405625 47.35,69.81 C47.9577874,69.2529455 48.745885,68.9334465 49.57,68.91 L49.57,68.17 C49.57,67.77 49.72,67.58 50.01,67.58 C50.3,67.58 50.49,67.79 50.49,68.17 Z M49.6,73 L49.6,70.3 C49.265271,70.3892495 48.952237,70.5457665 48.68,70.76 C48.4455278,70.9861218 48.3244758,71.3052589 48.35,71.63 C48.3255816,71.9418525 48.4388502,72.2487738 48.66,72.47 C48.9387224,72.7020317 49.2572071,72.8816029 49.6,73 Z M50.49,75.08 L50.49,78.16 C50.9077557,78.0912189 51.2929076,77.8916402 51.59,77.59 C51.8360858,77.3151977 51.9714866,76.9588798 51.97,76.59 C51.9938048,76.2370455 51.8580011,75.8920309 51.6,75.65 C51.2749249,75.3807284 50.896684,75.1830891 50.49,75.07 L50.49,75.08 Z" id="Shape" fill="#FFFFFF"></path>
        </g>
        <path d="M78,64 C71.9248678,64 67,59.0751322 67,53 C67,46.9248678 71.9248678,42 78,42 C84.0751322,42 89,46.9248678 89,53" id="Shape" stroke="#252E4A" stroke-width="3" fill="#FFFFFF" fill-rule="nonzero" stroke-linecap="round" stroke-linejoin="round"></path>
        <path d="M89,53 C89,59.0751322 84.0751322,64 78,64" id="Shape" fill="#FFFFFF" fill-rule="nonzero"></path>
        <path d="M89,53 C89,53.34 89,53.67 89,54" id="Shape" stroke="#252E4A" stroke-width="3" stroke-linecap="round" stroke-linejoin="round"></path>
        <path d="M88,57.67 C86.6383331,60.618616 84.0432167,62.8147653 80.91,63.67" id="Shape" stroke="#252E4A" stroke-width="3" stroke-linecap="round" stroke-linejoin="round" stroke-dasharray="1.91"></path>
        <path d="M79,64 C78.67,64 78.34,64 78,64" id="Shape" stroke="#252E4A" stroke-width="3" stroke-linecap="round" stroke-linejoin="round"></path>
        <polyline id="Shape" stroke="#252E4A" stroke-width="3" fill="#FFFFFF" fill-rule="nonzero" stroke-linecap="round" stroke-linejoin="round" points="78 47 78 53 80.5 55.5"></polyline>
        <polyline id="Shape" stroke="#252E4A" stroke-width="3" fill="#FFFFFF" fill-rule="nonzero" stroke-linecap="round" stroke-linejoin="round" points="91 52 89 54 87 52"></polyline>
    </g>
</svg>