<svg id="Layer_1" data-name="Layer 1" xmlns="http://www.w3.org/2000/svg" viewBox="0 0 120 120"><defs><style>.cls-1,.cls-2{fill:#579bfc;}.cls-2,.cls-3,.cls-4{stroke:#252e4a;stroke-linecap:round;stroke-linejoin:round;stroke-width:3px;}.cls-3,.cls-5{fill:#fff;}.cls-4{fill:#3773c8;}</style></defs><title>2 MQL2SQL</title><circle class="cls-1" cx="60" cy="60" r="50"/><circle class="cls-1" cx="60" cy="60" r="50"/><ellipse class="cls-2" cx="60" cy="38.69" rx="29" ry="5.09"/><circle class="cls-3" cx="60" cy="33.5" r="17.5"/><rect class="cls-4" x="50.16" y="31.2" width="1.4" height="2.52"/><path class="cls-3" d="M52.88,28.39h6.81a0,0,0,0,1,0,0v8.13a0,0,0,0,1,0,0H52.88a1.32,1.32,0,0,1-1.32-1.32V29.71A1.32,1.32,0,0,1,52.88,28.39Z"/><polygon class="cls-2" points="59.68 28.39 68.37 24.75 68.37 40.44 59.68 36.52 59.68 28.39"/><path class="cls-2" d="M58.84,36.52,57.44,39l1.12,3a1.13,1.13,0,0,1-1.05,1.52H55.28a1.12,1.12,0,0,1-1.1-.91L53,36.52Z"/><path class="cls-3" d="M68.37,35.12a2.53,2.53,0,0,0,0-5Z"/><path class="cls-3" d="M89,39.08,66.27,61.81V73.93L53.73,79.06V61.81L31,39.08s2.35,4.71,29,4.71S89,39.08,89,39.08Z"/><circle class="cls-3" cx="60" cy="85" r="18"/><circle class="cls-2" cx="60" cy="85" r="12"/><path class="cls-5" d="M60.49,78.17v.76a4.52,4.52,0,0,1,1.29.31,2.55,2.55,0,0,1,.94.7,2.92,2.92,0,0,1,.48.74,1.61,1.61,0,0,1,.18.69.83.83,0,0,1-.26.61.85.85,0,0,1-.62.26.87.87,0,0,1-.89-.75,1.6,1.6,0,0,0-1.12-1.16v2.92c.58.16,1,.3,1.39.43a2.84,2.84,0,0,1,.92.57,2.76,2.76,0,0,1,.67.92,2.86,2.86,0,0,1,.24,1.18,3.15,3.15,0,0,1-.38,1.5A3.07,3.07,0,0,1,62.23,89a4,4,0,0,1-1.74.52v1.75a1.48,1.48,0,0,1-.08.6.33.33,0,0,1-.35.19.41.41,0,0,1-.36-.15.86.86,0,0,1-.1-.48V89.53a4.22,4.22,0,0,1-1.43-.39,3.47,3.47,0,0,1-1-.73,3.16,3.16,0,0,1-.61-.91,2.45,2.45,0,0,1-.19-.93A.87.87,0,0,1,56.6,86a.88.88,0,0,1,.66-.27.9.9,0,0,1,.53.15.67.67,0,0,1,.3.41c.13.38.24.68.33.88a1.87,1.87,0,0,0,.43.56,1.77,1.77,0,0,0,.75.38V84.81A7.77,7.77,0,0,1,58,84.23a2.51,2.51,0,0,1-1.42-2.42,2.68,2.68,0,0,1,.77-2,3.43,3.43,0,0,1,2.22-.9v-.74c0-.4.15-.59.44-.59S60.49,77.79,60.49,78.17ZM59.6,83V80.3a2.55,2.55,0,0,0-.92.46,1.09,1.09,0,0,0-.33.87,1.07,1.07,0,0,0,.31.84A3,3,0,0,0,59.6,83Zm.89,2.08v3.08a2,2,0,0,0,1.1-.57,1.49,1.49,0,0,0,.38-1,1.18,1.18,0,0,0-.37-.94A3,3,0,0,0,60.49,85.07Z"/></svg>