<?xml version="1.0" encoding="utf-8"?>
<!-- Generator: Adobe Illustrator 18.0.0, SVG Export Plug-In . SVG Version: 6.00 Build 0)  -->
<!DOCTYPE svg PUBLIC "-//W3C//DTD SVG 1.1//EN" "http://www.w3.org/Graphics/SVG/1.1/DTD/svg11.dtd">
<svg version="1.1" id="Layer_1" xmlns="http://www.w3.org/2000/svg" xmlns:xlink="http://www.w3.org/1999/xlink" x="0px" y="0px"
	 viewBox="0 87.6 612 612" enable-background="new 0 87.6 612 612" xml:space="preserve">
<g id="XMLID_10_">
	<path id="XMLID_11_" fill="#F2784B" d="M303.6,522.4c9.2,0,16.8-7.6,16.8-16.8s-7.6-16.8-16.8-16.8s-16.8,7.7-16.8,16.8
		C287.1,514.7,294.4,522.4,303.6,522.4z"/>
	<path id="XMLID_12_" fill="#F2784B" d="M262.3,403.6c0,9.5,7.7,17.1,17.1,17.1h163.4c9.5,0,17.1-7.6,17.1-17.1v-61.5l-197.7-27.5
		L262.3,403.6L262.3,403.6z"/>
	<path id="XMLID_13_" fill="#F2784B" d="M435.2,522.4c9.2,0,16.8-7.6,16.8-16.8s-7.6-16.8-16.8-16.8s-16.8,7.7-16.8,16.8
		C418.4,514.7,426,522.4,435.2,522.4z"/>
	<path id="XMLID_16_" fill="#F2784B" d="M306,87.6c-168.9,0-306,136.8-306,306c0,168.9,137.1,306,306,306s306-137.1,306-306
		C612,224.3,474.9,87.6,306,87.6z M476.8,403.6c0,18.7-15,33.7-33.7,33.7H279.5c-6.4,0-12.2-1.8-17.1-4.6V455
		c0,9.5,7.7,17.1,17.1,17.1h155.4c18.4,0,33.4,15,33.4,33.4c0,18.4-15,33.4-33.4,33.4s-33.4-15-33.4-33.4c0-6.1,1.5-11.9,4.6-16.8
		h-73.7c3.1,4.9,4.6,10.7,4.6,16.8c0,18.4-15,33.4-33.4,33.4s-33.4-15-33.4-33.4c0-6.1,1.8-11.9,4.9-17.1
		c-16.5-2.1-29.4-16.2-29.4-33.4V274.5L206,257.7c-4.3-1.8-6.1-6.7-4.3-10.7c1.8-4.3,6.7-6.1,10.7-4.3l45,19c0.3,0,0.6,0.3,0.9,0.3
		c0,0,0,0,0.3,0c0,0,0.3,0.3,0.6,0.3l0.3,0.3c0,0,0.3,0,0.3,0.3c0.3,0,0.3,0.3,0.3,0.3l0.3,0.3l0.6,0.6l0.3,0.3c0,0,0,0.3,0.3,0.3
		c0,0,0,0.3,0.3,0.3l0.3,0.3v0.3c0,0.3,0.3,0.3,0.3,0.6v0.3l0.3,0.6v0.3c0,0.3,0,0.3,0,0.6s0,0.3,0,0.6v0.3c0,0.3,0,0.6,0,0.9V298
		L470,326.5h0.3c0.3,0,0.3,0,0.6,0h0.3h0.3h0.3l0.3,0.3l0.6,0.3l0.3,0.3c0,0,0.3,0,0.3,0.3l0.3,0.3l0.3,0.3l0.3,0.3
		c0,0,0.3,0,0.3,0.3l0.3,0.3l0.3,0.3l0.3,0.3l0.3,0.3c0,0,0,0.3,0.3,0.3l0.3,0.3c0,0,0,0.3,0.3,0.3c0,0.3,0,0.3,0.3,0.3v0.3v0.3
		c0,0.3,0,0.3,0,0.3v0.3v0.3v0.3v70.4h-0.1L476.8,403.6L476.8,403.6z"/>
</g>
<text transform="matrix(1 0 0 1 75.9961 512.6041)" fill="#FFFFFF" font-family="'PTSerif-Bold'" font-size="250">#</text>
</svg>
