<svg id="Layer_1" data-name="Layer 1" xmlns="http://www.w3.org/2000/svg" viewBox="0 0 120 120"><defs><style>.cls-1,.cls-2{fill:#579bfc;}.cls-2,.cls-3,.cls-5{stroke:#252e4a;stroke-linecap:round;stroke-linejoin:round;stroke-width:3px;}.cls-3,.cls-4{fill:#fff;}.cls-5{fill:none;}</style></defs><title>4 OPP2ACC</title><circle class="cls-1" cx="60" cy="60" r="50"/><circle class="cls-1" cx="60" cy="60" r="50"/><ellipse class="cls-2" cx="60" cy="38.69" rx="29" ry="5.09"/><circle class="cls-3" cx="60" cy="33.5" r="17.5"/><line class="cls-2" x1="70" y1="41.94" x2="60.25" y2="32.94"/><circle class="cls-2" cx="59.89" cy="32.89" r="8.89"/><path class="cls-4" d="M60.25,27.83v.56a3.56,3.56,0,0,1,1,.23,2,2,0,0,1,.69.52,2,2,0,0,1,.36.55,1.17,1.17,0,0,1,.13.51.58.58,0,0,1-.19.45.62.62,0,0,1-.46.19.64.64,0,0,1-.66-.55,1.17,1.17,0,0,0-.83-.86v2.16c.43.12.78.23,1,.32a2.27,2.27,0,0,1,.68.42,1.92,1.92,0,0,1,.5.69,2,2,0,0,1,.17.87A2.39,2.39,0,0,1,62.36,35a2.27,2.27,0,0,1-.82.84,2.88,2.88,0,0,1-1.29.39v1.3a1.18,1.18,0,0,1-.06.44c0,.1-.12.14-.26.14a.28.28,0,0,1-.26-.11.65.65,0,0,1-.08-.35V36.24A3.29,3.29,0,0,1,58.53,36a2.56,2.56,0,0,1-.76-.55,2.32,2.32,0,0,1-.45-.67,1.77,1.77,0,0,1-.14-.69.61.61,0,0,1,.19-.45.66.66,0,0,1,.49-.2.71.71,0,0,1,.39.11.57.57,0,0,1,.23.31,6,6,0,0,0,.24.65,1.2,1.2,0,0,0,.31.41,1.48,1.48,0,0,0,.56.29V32.75a6.33,6.33,0,0,1-1.16-.43,2,2,0,0,1-.76-.67,2,2,0,0,1-.29-1.13A2,2,0,0,1,58,29.06a2.6,2.6,0,0,1,1.64-.67v-.55c0-.29.11-.43.33-.43S60.25,27.55,60.25,27.83Zm-.66,3.57v-2a1.73,1.73,0,0,0-.68.34.82.82,0,0,0-.24.64.79.79,0,0,0,.23.63A2.17,2.17,0,0,0,59.59,31.4Zm.66,1.54v2.28a1.43,1.43,0,0,0,.81-.42,1,1,0,0,0,.29-.74.87.87,0,0,0-.28-.7A2.4,2.4,0,0,0,60.25,32.94Z"/><path class="cls-3" d="M89,39.08l-22.7,22.7v12.1L53.74,79V61.78L31,39.08s2.35,4.7,29,4.7S89,39.08,89,39.08Z"/><circle class="cls-3" cx="59.94" cy="84.75" r="18"/><path class="cls-1" d="M70.28,90.64v3.22a.6.6,0,0,1-.29.51c-.87.51-3.79,1.88-10,1.88s-9.18-1.37-10-1.88a.61.61,0,0,1-.28-.51V90.64c0-2.36,3.25-3,5.9-3.84a3.11,3.11,0,0,0,.61-.26,4.1,4.1,0,0,0,7.65,0,2.78,2.78,0,0,0,.6.26C67,87.69,70.28,88.28,70.28,90.64Z"/><path class="cls-4" d="M64.37,77.65v.08s-.23,4-1.53,5.94a3,3,0,0,1-.41.52,4.11,4.11,0,0,1-5,0,3.62,3.62,0,0,1-.41-.52c-1.3-2-1.53-5.94-1.53-5.94s-.27-4.07,5.28-4.48h.06a.86.86,0,0,1,.86.85C65,74.1,64.37,77.65,64.37,77.65Z"/><path class="cls-4" d="M63.77,86.54a4.1,4.1,0,0,1-7.65,0A2.17,2.17,0,0,0,57,83.67a3.62,3.62,0,0,0,.41.52,4.11,4.11,0,0,0,5,0,3,3,0,0,0,.41-.52A2.17,2.17,0,0,0,63.77,86.54Z"/><path class="cls-5" d="M62.89,83.55l0,.12a2.17,2.17,0,0,0,.93,2.87,2.78,2.78,0,0,0,.6.26c2.66.89,5.91,1.48,5.91,3.84v3.22a.6.6,0,0,1-.29.51c-.87.51-3.79,1.88-10,1.88s-9.18-1.37-10-1.88a.61.61,0,0,1-.28-.51V90.64c0-2.36,3.25-3,5.9-3.84a3.11,3.11,0,0,0,.61-.26A2.17,2.17,0,0,0,57,83.67l0-.12"/><path class="cls-5" d="M56.1,86.51l0,0a4.1,4.1,0,0,0,7.65,0v0"/><path class="cls-5" d="M57.28,78.24S62,78.53,62,75.88a2.63,2.63,0,0,0,2.36,1.77S65,74.1,61.71,74.1a.86.86,0,0,0-.86-.85h-.06c-5.55.41-5.28,4.48-5.28,4.48s.23,4,1.53,5.94a3.62,3.62,0,0,0,.41.52,4.11,4.11,0,0,0,5,0,3,3,0,0,0,.41-.52c1.3-2,1.53-5.94,1.53-5.94"/></svg>