<svg id="Layer_1" data-name="Layer 1" xmlns="http://www.w3.org/2000/svg" viewBox="0 0 120 120"><defs><style>.cls-1,.cls-4{fill:#579bfc;}.cls-2,.cls-3,.cls-5{fill:#fff;}.cls-2,.cls-3,.cls-4{stroke:#252e4a;stroke-width:3px;}.cls-2,.cls-4{stroke-linecap:round;stroke-linejoin:round;}.cls-3{stroke-miterlimit:10;}</style></defs><title>Oppotunities</title><circle class="cls-1" cx="60" cy="60" r="50"/><path class="cls-2" d="M62.83,70.62h0L84.57,92.38a5.52,5.52,0,0,0,7.81,0h0a5.52,5.52,0,0,0,0-7.81L70.62,62.83h0A30.76,30.76,0,0,1,62.83,70.62Z"/><path class="cls-3" d="M59,33A26,26,0,1,0,85,59,26,26,0,0,0,59,33Zm0,43.51A17.53,17.53,0,1,1,76.51,59,17.52,17.52,0,0,1,59,76.51Z"/><circle class="cls-4" cx="58.98" cy="58.98" r="17.53"/><path class="cls-5" d="M60.32,48.67v1.14a6.83,6.83,0,0,1,1.94.46,3.92,3.92,0,0,1,1.41,1.06,4.38,4.38,0,0,1,.74,1.11,2.61,2.61,0,0,1,.26,1.05,1.26,1.26,0,0,1-.39.92A1.36,1.36,0,0,1,62,53.67a2.37,2.37,0,0,0-1.68-1.75v4.4c.87.24,1.57.46,2.09.65a4.44,4.44,0,0,1,1.39.86,4,4,0,0,1,1,1.39A4.3,4.3,0,0,1,65.16,61a4.76,4.76,0,0,1-.56,2.26A4.44,4.44,0,0,1,62.93,65a5.9,5.9,0,0,1-2.61.8V68.4a2.51,2.51,0,0,1-.12.91.52.52,0,0,1-.54.29.58.58,0,0,1-.53-.24,1.32,1.32,0,0,1-.16-.72V65.79a6.58,6.58,0,0,1-2.16-.59,4.93,4.93,0,0,1-1.54-1.1,4.5,4.5,0,0,1-.92-1.38,3.57,3.57,0,0,1-.3-1.4A1.39,1.39,0,0,1,55.44,60a1.35,1.35,0,0,1,.8.22,1.19,1.19,0,0,1,.46.63,11.19,11.19,0,0,0,.5,1.32,2.41,2.41,0,0,0,.64.84A2.81,2.81,0,0,0,59,63.6V58.68a14,14,0,0,1-2.37-.88,3.91,3.91,0,0,1-1.54-1.37,4,4,0,0,1-.59-2.28,4.06,4.06,0,0,1,1.15-3A5.26,5.26,0,0,1,59,49.81V48.69c0-.6.23-.89.67-.89S60.32,48.09,60.32,48.67ZM59,55.92V51.87a3.71,3.71,0,0,0-1.38.7,2,2,0,0,0,0,2.58A4.34,4.34,0,0,0,59,55.92Zm1.35,3.15V63.7A2.86,2.86,0,0,0,62,62.84a2.14,2.14,0,0,0,.58-1.5A1.79,1.79,0,0,0,62,59.92,4.42,4.42,0,0,0,60.32,59.07Z"/><line class="cls-4" x1="60" y1="26" x2="60" y2="18"/><line class="cls-4" x1="35.96" y1="35.96" x2="30.3" y2="30.3"/><line class="cls-4" x1="26" y1="60" x2="18" y2="60"/><line class="cls-4" x1="35.96" y1="84.04" x2="30.3" y2="89.7"/><line class="cls-4" x1="60" y1="94" x2="60" y2="102"/><line class="cls-4" x1="94" y1="60" x2="102" y2="60"/><line class="cls-4" x1="84.04" y1="35.96" x2="89.7" y2="30.3"/></svg>