<?xml version="1.0" encoding="utf-8"?>
<!-- Generator: Adobe Illustrator 18.0.0, SVG Export Plug-In . SVG Version: 6.00 Build 0)  -->
<!DOCTYPE svg PUBLIC "-//W3C//DTD SVG 1.1//EN" "http://www.w3.org/Graphics/SVG/1.1/DTD/svg11.dtd">
<svg version="1.1" id="Layer_1" xmlns="http://www.w3.org/2000/svg" xmlns:xlink="http://www.w3.org/1999/xlink" x="0px" y="0px"
	 viewBox="0 89.4 612 613.2" enable-background="new 0 89.4 612 613.2" xml:space="preserve">
<path fill="#C8232C" d="M305.4,89.4C136.1,89.4-1.1,226.7-1.1,396s137.2,306.6,306.6,306.6C474.8,702.6,612,565.3,612,396
	S474.8,89.4,305.4,89.4z M336,500.7c-24.6,0-47.6-12.9-55.6-27.4c0,0-13.2,50.7-16,60.5c-9.8,34.6-38.8,69.3-41,72.1
	c-1.6,2-5,1.3-5.4-1.2c-0.6-4.4-8-48.1,0.6-83.6l29.3-120c0,0-7.2-14.1-7.2-34.9c0-32.7,19.5-57,43.8-57c20.7,0,30.7,15.1,30.7,33
	c0,20.2-13.2,50.3-20.1,78.1c-5.8,23.4,12.1,42.5,35.9,42.5c43.1,0,72.1-53.6,72.1-117c0-48.2-33.5-84.3-94.6-84.3
	c-68.9,0-111.9,49.8-111.9,105.4c0,19.2,5.9,32.7,15.1,43.2c4.2,4.8,4.8,6.7,3.3,12.2l-4.7,17.7c-1.5,5.6-6.2,7.6-11.4,5.5
	c-31.8-12.6-46.5-46.3-46.5-84.1c0-62.5,54.5-137.6,162.4-137.6c86.8,0,143.9,60.8,143.9,126.1C458.6,436.1,409.1,500.7,336,500.7z"
	/>
</svg>
