<?xml version="1.0" encoding="utf-8"?>
<!-- Generator: Adobe Illustrator 18.0.0, SVG Export Plug-In . SVG Version: 6.00 Build 0)  -->
<!DOCTYPE svg PUBLIC "-//W3C//DTD SVG 1.1//EN" "http://www.w3.org/Graphics/SVG/1.1/DTD/svg11.dtd">
<svg version="1.1" id="Layer_1" xmlns="http://www.w3.org/2000/svg" xmlns:xlink="http://www.w3.org/1999/xlink" x="0px" y="0px"
	 viewBox="0 178.8 612 613.2" enable-background="new 0 178.8 612 613.2" xml:space="preserve">
<path fill="#C8232C" d="M305.4,178.8C136.1,178.8-1.1,316.1-1.1,485.4S136.1,792,305.5,792C474.8,792,612,654.7,612,485.4
	S474.8,178.8,305.4,178.8z M336,510.1c-24.6,0-47.6-12.9-55.6-27.4c0,0-13.2,50.7-16,60.5c-9.8,34.6-38.8,69.3-41,72.1
	c-1.6,2-5,1.3-5.4-1.2c-0.6-4.4-8-48.1,0.6-83.6l29.3-120c0,0-7.2-14.1-7.2-34.9c0-32.7,19.5-57,43.8-57c20.7,0,30.7,15.1,30.7,33
	c0,20.2-13.2,50.3-20.1,78.1c-5.8,23.4,12.1,42.5,35.9,42.5c43.1,0,72.1-53.6,72.1-117c0-48.2-33.5-84.3-94.6-84.3
	c-68.9,0-111.9,49.8-111.9,105.4c0,19.2,5.9,32.7,15.1,43.2c4.2,4.8,4.8,6.7,3.3,12.2l-4.7,17.7c-1.5,5.6-6.2,7.6-11.4,5.5
	c-31.8-12.6-46.5-46.3-46.5-84.1c0-62.5,54.5-137.6,162.4-137.6c86.8,0,143.9,60.8,143.9,126.1C458.6,445.5,409.1,510.1,336,510.1z"
	/>
<g>
	<g>
		<path fill="#FFFFFF" d="M341.9,635H235.8c-4.9,0-8.9,4.1-8.9,8.9v63.6c0,4.9,4.1,8.9,8.9,8.9h6.9v23.8c0,1.6,0.9,2.8,2.3,3.4
			c0.5,0.2,0.9,0.3,1.4,0.3c0.9,0,1.9-0.3,2.7-1.1l26.3-26.3h5.3c2,0,3.8-1.7,3.8-3.8s-1.7-3.8-3.8-3.8h-7c-0.9,0-1.7,0.5-2.3,1.1
			l-21,21c0,0,0-18.6,0-18.8c-0.2-1.9-1.7-3.4-3.8-3.4H236c-0.8,0-1.4-0.6-1.4-1.4v-63.6c0-0.8,0.6-1.4,1.4-1.4h106
			c0.8,0,1.4,0.6,1.4,1.4v24.4c0,2,1.7,3.8,3.8,3.8c2,0,3.8-1.7,3.8-3.8v-24.4C350.8,639.1,346.9,635,341.9,635z"/>
	</g>
</g>
<g>
	<g>
		<path fill="#FFFFFF" d="M376.2,680.8h-74.3c-4.9,0-8.9,4.1-8.9,8.9v43.4c0,4.9,4.1,8.9,8.9,8.9h46.5l18.8,18.8
			c0.8,0.8,1.7,1.1,2.7,1.1c0.5,0,0.9-0.2,1.4-0.3c1.4-0.6,2.3-1.9,2.3-3.4v-16.3h2.5c4.9,0,8.9-4.1,8.9-8.9v-43.4
			C385.1,684.7,381,680.8,376.2,680.8z M377.6,733.1c0,0.8-0.6,1.4-1.4,1.4h-6.3c-2,0-3.6,1.6-3.8,3.4c0,0.2,0,11.3,0,11.3
			l-13.5-13.5l0,0l-0.2-0.2c-0.6-0.6-1.6-0.9-2.5-0.9h-48.1c-0.8,0-1.4-0.6-1.4-1.4v-43.4c0-0.8,0.6-1.4,1.4-1.4h74.3
			c0.8,0,1.4,0.6,1.4,1.4L377.6,733.1L377.6,733.1z"/>
	</g>
</g>
<g>
	<g>
		<path fill="#FFFFFF" d="M339.1,707.6c-2,0-3.8,1.7-3.8,3.8c0,2,1.7,3.8,3.8,3.8c2,0,3.8-1.7,3.8-3.8
			C342.8,709.3,341.1,707.6,339.1,707.6z"/>
	</g>
</g>
<g>
	<g>
		<path fill="#FFFFFF" d="M322.8,659.8H255c-2,0-3.8,1.7-3.8,3.8s1.7,3.8,3.8,3.8h67.8c2,0,3.8-1.7,3.8-3.8S325,659.8,322.8,659.8z"
			/>
	</g>
</g>
<g>
	<g>
		<path fill="#FFFFFF" d="M280.6,684.4h-25.8c-2,0-3.8,1.7-3.8,3.8c0,2,1.7,3.8,3.8,3.8h25.8c2,0,3.8-1.7,3.8-3.8
			S282.8,684.4,280.6,684.4z"/>
	</g>
</g>
<g>
	<g>
		<path fill="#FFFFFF" d="M321.7,707.6c-2,0-3.8,1.7-3.8,3.8c0,2,1.7,3.8,3.8,3.8c2,0,3.8-1.7,3.8-3.8
			C325.4,709.3,323.7,707.6,321.7,707.6z"/>
	</g>
</g>
<g>
	<g>
		<path fill="#FFFFFF" d="M356.4,707.6c-2,0-3.8,1.7-3.8,3.8c0,2,1.7,3.8,3.8,3.8c2,0,3.8-1.7,3.8-3.8
			C360,709.3,358.5,707.6,356.4,707.6z"/>
	</g>
</g>
</svg>
