<?xml version="1.0" encoding="utf-8"?>
<!-- Generator: Adobe Illustrator 19.0.0, SVG Export Plug-In . SVG Version: 6.00 Build 0)  -->
<svg version="1.1" id="Layer_1" xmlns="http://www.w3.org/2000/svg" xmlns:xlink="http://www.w3.org/1999/xlink" x="0px" y="0px"
	 viewBox="0 0 200 200" style="enable-background:new 0 0 200 200;" xml:space="preserve">
<style type="text/css">
	.st0{fill:#F2784B;}
</style>
<g id="XMLID_10_">
	<path id="XMLID_11_" class="st0" d="M85.5,141.3c3,0,5.5-2.5,5.5-5.5c0-3-2.5-5.5-5.5-5.5c-3,0-5.5,2.5-5.5,5.5
		C80.1,138.8,82.5,141.3,85.5,141.3z"/>
	<path id="XMLID_12_" class="st0" d="M72,102.5c0,3.1,2.5,5.6,5.6,5.6h53.4c3.1,0,5.6-2.5,5.6-5.6V82.4L72,73.4V102.5z"/>
	<path id="XMLID_13_" class="st0" d="M128.5,141.3c3,0,5.5-2.5,5.5-5.5c0-3-2.5-5.5-5.5-5.5c-3,0-5.5,2.5-5.5,5.5
		C123,138.8,125.5,141.3,128.5,141.3z"/>
	<path id="XMLID_16_" class="st0" d="M100-0.8C44.8-0.8,0,43.9,0,99.2c0,55.2,44.8,100,100,100s100-44.8,100-100
		C200,43.9,155.2-0.8,100-0.8z M142.1,102.5c0,6.1-4.9,11-11,11H77.6c-2.1,0-4-0.6-5.6-1.5v7.3c0,3.1,2.5,5.6,5.6,5.6h50.8
		c6,0,10.9,4.9,10.9,10.9c0,6-4.9,10.9-10.9,10.9c-6,0-10.9-4.9-10.9-10.9c0-2,0.5-3.9,1.5-5.5H94.9c1,1.6,1.5,3.5,1.5,5.5
		c0,6-4.9,10.9-10.9,10.9s-10.9-4.9-10.9-10.9c0-2,0.6-3.9,1.6-5.6c-5.4-0.7-9.6-5.3-9.6-10.9v-59l-13-5.5c-1.4-0.6-2-2.2-1.4-3.5
		c0.6-1.4,2.2-2,3.5-1.4l14.7,6.2c0.1,0,0.2,0.1,0.3,0.1c0,0,0,0,0.1,0c0,0,0.1,0.1,0.2,0.1c0,0,0.1,0.1,0.1,0.1c0,0,0.1,0,0.1,0.1
		c0.1,0,0.1,0.1,0.1,0.1l0.1,0.1l0.2,0.2c0,0,0.1,0.1,0.1,0.1c0,0,0,0.1,0.1,0.1c0,0,0,0.1,0.1,0.1c0,0,0.1,0.1,0.1,0.1
		c0,0,0,0.1,0,0.1c0,0.1,0.1,0.1,0.1,0.2c0,0,0,0.1,0,0.1l0.1,0.2c0,0,0,0.1,0,0.1c0,0.1,0,0.1,0,0.2c0,0.1,0,0.1,0,0.2
		c0,0,0,0.1,0,0.1c0,0.1,0,0.2,0,0.3V68l67.7,9.3c0,0,0.1,0,0.1,0c0.1,0,0.1,0,0.2,0c0,0,0.1,0,0.1,0c0,0,0.1,0,0.1,0
		c0,0,0.1,0,0.1,0l0.1,0.1l0.2,0.1c0,0,0.1,0.1,0.1,0.1c0,0,0.1,0,0.1,0.1c0,0,0.1,0.1,0.1,0.1c0,0,0.1,0.1,0.1,0.1l0.1,0.1
		c0,0,0.1,0,0.1,0.1c0,0,0.1,0.1,0.1,0.1c0,0,0.1,0.1,0.1,0.1c0,0,0.1,0.1,0.1,0.1c0,0,0.1,0.1,0.1,0.1c0,0,0,0.1,0.1,0.1l0.1,0.1
		c0,0,0,0.1,0.1,0.1c0,0.1,0,0.1,0.1,0.1c0,0,0,0.1,0,0.1c0,0,0,0.1,0,0.1c0,0.1,0,0.1,0,0.1c0,0,0,0.1,0,0.1c0,0,0,0.1,0,0.1
		c0,0,0,0.1,0,0.1V102.5z"/>
</g>
</svg>
