<?xml version="1.0" encoding="UTF-8"?>
<svg width="100px" height="100px" viewBox="0 0 100 100" version="1.1" xmlns="http://www.w3.org/2000/svg" xmlns:xlink="http://www.w3.org/1999/xlink">
    <!-- Generator: Sketch 50.2 (55047) - http://www.bohemiancoding.com/sketch -->
    <title>SQL2OPP-Velocity</title>
    <desc>Created with Sketch.</desc>
    <defs></defs>
    <g id="Page-1" stroke="none" stroke-width="1" fill="none" fill-rule="evenodd">
        <g id="SQL2OPP-Velocity">
            <g id="Group">
                <g id="3-SQL2OPP" fill-rule="nonzero">
                    <circle id="Oval" fill="#579BFC" cx="50" cy="50" r="50"></circle>
                    <circle id="Oval" fill="#579BFC" cx="50" cy="50" r="50"></circle>
                    <ellipse id="Oval" stroke="#252E4A" stroke-width="3" fill="#579BFC" stroke-linecap="round" stroke-linejoin="round" cx="50" cy="28.69" rx="29" ry="5.09"></ellipse>
                    <circle id="Oval" stroke="#252E4A" stroke-width="3" fill="#FFFFFF" stroke-linecap="round" stroke-linejoin="round" cx="50" cy="23.5" r="17.5"></circle>
                    <circle id="Oval" stroke="#252E4A" stroke-width="3" fill="#579BFC" stroke-linecap="round" stroke-linejoin="round" cx="50" cy="24" r="12"></circle>
                    <path d="M50.49,17.17 L50.49,17.93 C50.9329072,17.9693198 51.3675886,18.0737781 51.78,18.24 C52.143432,18.3971863 52.465265,18.6368491 52.72,18.94 C52.9165471,19.1609387 53.0783932,19.4104513 53.2,19.68 C53.3108212,19.8936542 53.3723297,20.1294369 53.38,20.37 C53.381848,20.6006254 53.2876532,20.821621 53.12,20.98 C52.9578465,21.1481887 52.7336156,21.242221 52.5,21.24 C52.0551657,21.2544529 51.6711541,20.9308476 51.61,20.49 C51.4730353,19.9297269 51.045124,19.4865331 50.49,19.33 L50.49,22.25 C51.07,22.41 51.49,22.55 51.88,22.68 C52.2203688,22.809271 52.5327057,23.0027841 52.8,23.25 C53.0848231,23.5067895 53.3130071,23.8201167 53.47,24.17 C53.6328353,24.5418439 53.7146484,24.9440917 53.71,25.35 C53.7100222,25.873818 53.579415,26.3893727 53.33,26.85 C53.0707875,27.3233556 52.6913734,27.7200158 52.23,28 C51.6975389,28.3044451 51.1021969,28.4823634 50.49,28.52 L50.49,30.27 C50.5049542,30.4733756 50.477718,30.6776473 50.41,30.87 C50.3490035,31.0045264 50.2060411,31.0821346 50.06,31.06 C49.9223799,31.0739285 49.7870141,31.017526 49.7,30.91 C49.6207967,30.7630929 49.5860511,30.5963138 49.6,30.43 L49.6,28.53 C49.1040572,28.4853857 48.6199242,28.3533494 48.17,28.14 C47.7956,27.9585821 47.4568761,27.7113136 47.17,27.41 C46.9152353,27.1444957 46.7088003,26.8365353 46.56,26.5 C46.436646,26.2053502 46.3721015,25.8894219 46.37,25.57 C46.3747599,25.3583442 46.456534,25.1556867 46.6,25 C46.7720456,24.8209022 47.0117573,24.7228383 47.26,24.73 C47.4480015,24.7233809 47.6333515,24.7758385 47.79,24.88 C47.9399461,24.9719841 48.0477013,25.1192495 48.09,25.29 C48.22,25.67 48.33,25.97 48.42,26.17 C48.526474,26.3822775 48.672408,26.572331 48.85,26.73 C49.0658505,26.9150666 49.3231078,27.0454104 49.6,27.11 L49.6,23.81 C49.0470385,23.6758347 48.5104875,23.4813349 48,23.23 C47.0778898,22.7879132 46.516169,21.8306143 46.58,20.81 C46.5473401,20.0652573 46.8263476,19.3405625 47.35,18.81 C47.9577874,18.2529455 48.745885,17.9334465 49.57,17.91 L49.57,17.17 C49.57,16.77 49.72,16.58 50.01,16.58 C50.3,16.58 50.49,16.79 50.49,17.17 Z M49.6,22 L49.6,19.3 C49.265271,19.3892495 48.952237,19.5457665 48.68,19.76 C48.4455278,19.9861218 48.3244758,20.3052589 48.35,20.63 C48.3255816,20.9418525 48.4388502,21.2487738 48.66,21.47 C48.9387224,21.7020317 49.2572071,21.8816029 49.6,22 Z M50.49,24.08 L50.49,27.16 C50.9077557,27.0912189 51.2929076,26.8916402 51.59,26.59 C51.8360858,26.3151977 51.9714866,25.9588798 51.97,25.59 C51.9938048,25.2370455 51.8580011,24.8920309 51.6,24.65 C51.2749249,24.3807284 50.896684,24.1830891 50.49,24.07 L50.49,24.08 Z" id="Shape" fill="#FFFFFF"></path>
                    <path d="M79,29.08 L56.27,51.81 L56.27,63.93 L43.73,69.06 L43.73,51.81 L21,29.08 C21,29.08 23.35,33.79 50,33.79 C76.65,33.79 79,29.08 79,29.08 Z" id="Shape" stroke="#252E4A" stroke-width="3" fill="#FFFFFF" stroke-linecap="round" stroke-linejoin="round"></path>
                    <circle id="Oval" stroke="#252E4A" stroke-width="3" fill="#FFFFFF" stroke-linecap="round" stroke-linejoin="round" cx="50" cy="75" r="18"></circle>
                    <path d="M60,84 L50.25,75" id="Shape" stroke="#252E4A" stroke-width="3" fill="#579BFC" stroke-linecap="round" stroke-linejoin="round"></path>
                    <circle id="Oval" stroke="#252E4A" stroke-width="3" fill="#579BFC" stroke-linecap="round" stroke-linejoin="round" cx="49.89" cy="74.94" r="8.89"></circle>
                    <path d="M50.25,69.89 L50.25,70.45 C50.5934846,70.4727211 50.9311037,70.5503735 51.25,70.68 C51.5166997,70.798354 51.7527382,70.9762381 51.94,71.2 C52.0885994,71.3591997 52.2102001,71.5416007 52.3,71.74 C52.3816626,71.9014352 52.4260858,72.0791277 52.43,72.26 C52.4321103,72.4299167 52.3632478,72.5930122 52.24,72.71 C52.117336,72.8309348 51.9522525,72.8991215 51.78,72.9 C51.4529287,72.9089102 51.170216,72.6733162 51.12,72.35 C51.0229175,71.9302163 50.7047531,71.5967187 50.29,71.48 L50.29,73.65 C50.6294583,73.7364837 50.9633968,73.843344 51.29,73.97 C51.5397231,74.0686803 51.7699578,74.210884 51.97,74.39 C52.1831424,74.5785171 52.3536044,74.8103455 52.47,75.07 C52.5876321,75.3446906 52.6455773,75.641234 52.64,75.94 C52.6430843,76.326624 52.5503201,76.7079879 52.37,77.05 C52.1780278,77.4018812 51.8947592,77.6955133 51.55,77.9 C51.1568956,78.1301933 50.7147926,78.2638523 50.26,78.29 L50.26,79.58 C50.2685706,79.7324421 50.2482123,79.885129 50.2,80.03 C50.1530968,80.128334 50.0479137,80.1849711 49.94,80.17 C49.8404179,80.1789504 49.7429215,80.1377019 49.68,80.06 C49.6211653,79.9494807 49.5935109,79.8250357 49.6,79.7 L49.6,78.3 C49.2289028,78.2613947 48.8670759,78.1599478 48.53,78 C47.9893724,77.7573962 47.5581461,77.322606 47.32,76.78 C47.2256952,76.5622894 47.178006,76.3272495 47.18,76.09 C47.1824196,75.9210026 47.2505702,75.7595931 47.37,75.64 C47.4982819,75.5078976 47.6759184,75.4353929 47.86,75.44 C47.9979254,75.4380033 48.1334456,75.476227 48.25,75.55 C48.3562883,75.6276598 48.4364924,75.735761 48.48,75.86 C48.5456544,76.0816969 48.6258277,76.2988328 48.72,76.51 C48.794801,76.6689684 48.9001327,76.8116758 49.03,76.93 C49.1943941,77.062464 49.3853924,77.1579631 49.59,77.21 L49.59,74.8 C49.1906551,74.6978613 48.8021669,74.5572018 48.43,74.38 C47.8804863,74.048437 47.5117507,73.4847951 47.4280762,72.8484793 C47.3444016,72.2121634 47.5548853,71.5723551 48,71.11 C48.4500019,70.7007219 49.0319399,70.4665274 49.64,70.45 L49.64,69.9 C49.64,69.61 49.75,69.46 49.97,69.46 C50.19,69.46 50.25,69.6 50.25,69.89 Z M49.59,73.45 L49.59,71.45 C49.3401816,71.5147927 49.1079049,71.6343469 48.91,71.8 C48.7383034,71.9666993 48.6502501,72.2015083 48.67,72.44 C48.6509323,72.6705482 48.7351857,72.8976661 48.9,73.06 C49.1016798,73.2347286 49.3362859,73.367332 49.59,73.45 Z M50.25,75 L50.25,77.27 C50.5586183,77.2222038 50.8431054,77.074692 51.06,76.85 C51.2547498,76.6539913 51.3597192,76.3861384 51.35,76.11 C51.3677396,75.8491798 51.2644742,75.5947044 51.07,75.42 C50.8313106,75.2207482 50.5511718,75.0772624 50.25,75 Z" id="Shape" fill="#FFFFFF"></path>
                </g>
                <path d="M78,64 C71.9248678,64 67,59.0751322 67,53 C67,46.9248678 71.9248678,42 78,42 C84.0751322,42 89,46.9248678 89,53" id="Shape" stroke="#252E4A" stroke-width="3" fill="#FFFFFF" fill-rule="nonzero" stroke-linecap="round" stroke-linejoin="round"></path>
                <path d="M89,53 C89,59.0751322 84.0751322,64 78,64" id="Shape" fill="#FFFFFF" fill-rule="nonzero"></path>
                <path d="M89,53 C89,53.34 89,53.67 89,54" id="Shape" stroke="#252E4A" stroke-width="3" stroke-linecap="round" stroke-linejoin="round"></path>
                <path d="M88,57.67 C86.6383331,60.618616 84.0432167,62.8147653 80.91,63.67" id="Shape" stroke="#252E4A" stroke-width="3" stroke-linecap="round" stroke-linejoin="round" stroke-dasharray="1.91"></path>
                <path d="M79,64 C78.67,64 78.34,64 78,64" id="Shape" stroke="#252E4A" stroke-width="3" stroke-linecap="round" stroke-linejoin="round"></path>
                <polyline id="Shape" stroke="#252E4A" stroke-width="3" fill="#FFFFFF" fill-rule="nonzero" stroke-linecap="round" stroke-linejoin="round" points="78 47 78 53 80.5 55.5"></polyline>
                <polyline id="Shape" stroke="#252E4A" stroke-width="3" fill="#FFFFFF" fill-rule="nonzero" stroke-linecap="round" stroke-linejoin="round" points="91 52 89 54 87 52"></polyline>
            </g>
        </g>
    </g>
</svg>