<?xml version="1.0" encoding="utf-8"?>
<!-- Generator: Adobe Illustrator 18.0.0, SVG Export Plug-In . SVG Version: 6.00 Build 0)  -->
<!DOCTYPE svg PUBLIC "-//W3C//DTD SVG 1.1//EN" "http://www.w3.org/Graphics/SVG/1.1/DTD/svg11.dtd">
<svg version="1.1" id="Layer_1_2_" xmlns="http://www.w3.org/2000/svg" xmlns:xlink="http://www.w3.org/1999/xlink" x="0px" y="0px"
	 viewBox="0 90 612 612" enable-background="new 0 90 612 612" xml:space="preserve">
<g id="_x3C_Group_x3E__xA0_Image_1_">
</g>
<path fill="#1DA1F2" d="M306,90C136.9,90,0,226.9,0,396s136.9,306,306,306s306-136.9,306-306S474.9,90,306,90z M439.6,329.8v8.4
	c0,88.8-70.4,191.5-197.2,191.5c-39.5,0-76-11.3-105.6-29.6c5.7,0,11.3,1.5,16.8,1.5c32.3,0,62-11.3,85.9-28.1
	c-31.1,0-56.3-19.7-64.9-46.4c4.2,1.5,8.4,1.5,12.8,1.5c5.7,0,12.8-1.5,18.3-2.7c-32.3-5.7-56.3-33.8-56.3-66.4V358
	c9.9,5.7,19.7,8.4,31.1,8.4c-18.3-12.8-31.1-32.3-31.1-56.3c0-12.8,2.7-23.9,9.9-33.8c33.8,40.7,85.9,67.6,142.4,70.4
	c-1.5-4.2-1.5-9.9-1.5-15.5c0-36.8,31.1-67.6,68.9-67.6c19.7,0,38,8.4,50.6,21c15.5-2.7,31.1-8.4,43.7-16.8
	c-5.7,15.5-15.5,29.6-31.1,36.8c14.1-1.5,26.7-5.7,39.5-11.3C465,308.6,453.6,320,439.6,329.8z"/>
</svg>
