<?xml version="1.0" encoding="utf-8"?>
<!-- Generator: Adobe Illustrator 18.0.0, SVG Export Plug-In . SVG Version: 6.00 Build 0)  -->
<!DOCTYPE svg PUBLIC "-//W3C//DTD SVG 1.1//EN" "http://www.w3.org/Graphics/SVG/1.1/DTD/svg11.dtd">
<svg version="1.1" id="Layer_1_2_" xmlns="http://www.w3.org/2000/svg" xmlns:xlink="http://www.w3.org/1999/xlink" x="0px" y="0px"
	 viewBox="0 90 612 612" enable-background="new 0 90 612 612" xml:space="preserve">
<g id="_x3C_Group_x3E__xA0_Image_1_">
</g>
<path fill="#1DA1F2" d="M306,90C136.9,90,0,226.9,0,396s136.9,306,306,306s306-136.9,306-306S474.9,90,306,90z M439.6,300.8v8.4
	c0,88.8-70.4,191.5-197.2,191.5c-39.5,0-76-11.3-105.6-29.6c5.7,0,11.3,1.5,16.8,1.5c32.3,0,62-11.3,85.9-28.1
	c-31.1,0-56.3-19.7-64.9-46.4c4.2,1.5,8.4,1.5,12.8,1.5c5.7,0,12.8-1.5,18.3-2.7c-32.3-5.7-56.3-33.8-56.3-66.4V329
	c9.9,5.7,19.7,8.4,31.1,8.4c-18.3-12.8-31.1-32.3-31.1-56.3c0-12.8,2.7-23.9,9.9-33.8c33.8,40.7,85.9,67.6,142.4,70.4
	c-1.5-4.2-1.5-9.9-1.5-15.5c0-36.8,31.1-67.6,68.9-67.6c19.7,0,38,8.4,50.6,21c15.5-2.7,31.1-8.4,43.7-16.8
	c-5.7,15.5-15.5,29.6-31.1,36.8c14.1-1.5,26.7-5.7,39.5-11.3C465,279.6,453.6,291,439.6,300.8z"/>
<g>
	<g>
		<path fill="#FFFFFF" d="M341.9,543.3H235.8c-4.9,0-8.9,4.1-8.9,8.9v63.6c0,4.9,4.1,8.9,8.9,8.9h6.9v23.8c0,1.6,0.9,2.8,2.3,3.4
			c0.5,0.2,0.9,0.3,1.4,0.3c0.9,0,1.9-0.3,2.7-1.1l26.3-26.3h5.3c2,0,3.8-1.7,3.8-3.8c0-2-1.7-3.8-3.8-3.8h-7
			c-0.9,0-1.7,0.5-2.3,1.1l-21,21c0,0,0-18.6,0-18.8c-0.2-1.9-1.7-3.4-3.8-3.4H236c-0.8,0-1.4-0.6-1.4-1.4v-63.6
			c0-0.8,0.6-1.4,1.4-1.4h106c0.8,0,1.4,0.6,1.4,1.4v24.4c0,2,1.7,3.8,3.8,3.8c2,0,3.8-1.7,3.8-3.8v-24.4
			C350.8,547.3,346.9,543.3,341.9,543.3z"/>
	</g>
</g>
<g>
	<g>
		<path fill="#FFFFFF" d="M376.2,589h-74.3c-4.9,0-8.9,4.1-8.9,8.9v43.4c0,4.9,4.1,8.9,8.9,8.9h46.5l18.8,18.8
			c0.8,0.8,1.7,1.1,2.7,1.1c0.5,0,0.9-0.2,1.4-0.3c1.4-0.6,2.3-1.9,2.3-3.4v-16.3h2.5c4.9,0,8.9-4.1,8.9-8.9v-43.4
			C385.1,592.9,381,589,376.2,589z M377.6,641.3c0,0.8-0.6,1.4-1.4,1.4h-6.3c-2,0-3.6,1.6-3.8,3.4c0,0.2,0,11.3,0,11.3L352.7,644
			l0,0l-0.2-0.2c-0.6-0.6-1.6-0.9-2.5-0.9h-48.1c-0.8,0-1.4-0.6-1.4-1.4v-43.4c0-0.8,0.6-1.4,1.4-1.4h74.3c0.8,0,1.4,0.6,1.4,1.4
			V641.3z"/>
	</g>
</g>
<g>
	<g>
		<path fill="#FFFFFF" d="M339.1,615.8c-2,0-3.8,1.7-3.8,3.8c0,2,1.7,3.8,3.8,3.8c2,0,3.8-1.7,3.8-3.8
			C342.8,617.5,341.1,615.8,339.1,615.8z"/>
	</g>
</g>
<g>
	<g>
		<path fill="#FFFFFF" d="M322.8,568H255c-2,0-3.8,1.7-3.8,3.8s1.7,3.8,3.8,3.8h67.8c2,0,3.8-1.7,3.8-3.8S325,568,322.8,568z"/>
	</g>
</g>
<g>
	<g>
		<path fill="#FFFFFF" d="M280.6,592.6h-25.8c-2,0-3.8,1.7-3.8,3.8s1.7,3.8,3.8,3.8h25.8c2,0,3.8-1.7,3.8-3.8
			S282.8,592.6,280.6,592.6z"/>
	</g>
</g>
<g>
	<g>
		<path fill="#FFFFFF" d="M321.7,615.8c-2,0-3.8,1.7-3.8,3.8c0,2,1.7,3.8,3.8,3.8c2,0,3.8-1.7,3.8-3.8S323.7,615.8,321.7,615.8z"/>
	</g>
</g>
<g>
	<g>
		<path fill="#FFFFFF" d="M356.4,615.8c-2,0-3.8,1.7-3.8,3.8c0,2,1.7,3.8,3.8,3.8c2,0,3.8-1.7,3.8-3.8
			C360,617.5,358.5,615.8,356.4,615.8z"/>
	</g>
</g>
</svg>
