<?xml version="1.0" encoding="utf-8"?>
<!-- Generator: Adobe Illustrator 18.0.0, SVG Export Plug-In . SVG Version: 6.00 Build 0)  -->
<!DOCTYPE svg PUBLIC "-//W3C//DTD SVG 1.1//EN" "http://www.w3.org/Graphics/SVG/1.1/DTD/svg11.dtd">
<svg version="1.1" id="Layer_1" xmlns="http://www.w3.org/2000/svg" xmlns:xlink="http://www.w3.org/1999/xlink" x="0px" y="0px"
	 viewBox="0 89.4 612 613.2" enable-background="new 0 89.4 612 613.2" xml:space="preserve">
<path fill="#C8232C" d="M305.4,89.4C136.1,89.4-1.1,226.7-1.1,396s137.2,306.6,306.6,306.6C474.8,702.6,612,565.3,612,396
	S474.8,89.4,305.4,89.4z"/>
<g>
	<path fill="#FFFFFF" d="M315.3,534.7L315.3,534.7c-44.1,0-92.1-1.4-142.6-4.1c-29.9-1.6-53-24.7-56.3-56
		c-5.5-52.4-5.5-105.2,0-157.1c3.3-31.1,26.4-54.1,56.3-56c87.2-5.5,176.9-5.5,266.8,0c30.2,1.8,52.8,24.3,56.3,56
		c5.5,50.1,5.5,102.9,0,157.1c-3.2,31.3-25.8,53.8-56.2,56C401.1,533.3,359.4,534.7,315.3,534.7z M305,272.2
		c-43.9,0-88.2,1.4-131.5,4.1c-22.8,1.4-39.8,18.6-42.4,42.7c-5.4,50.8-5.4,102.6,0,154c2.6,24.3,19.6,41.4,42.3,42.7
		c50.3,2.7,98,4.1,141.8,4.1c43.7,0,85.1-1.4,123.1-4.1c23-1.7,40-18.8,42.5-42.7c5.4-53.1,5.4-104.9,0-154
		c-2.7-24.2-19.7-41.3-42.4-42.7C393.8,273.6,348.9,272.2,305,272.2z M268.1,343.3v102.2l98.1-50.7L268.1,343.3z"/>
</g>
</svg>
