<?xml version="1.0" encoding="utf-8"?>
<!-- Generator: Adobe Illustrator 18.0.0, SVG Export Plug-In . SVG Version: 6.00 Build 0)  -->
<!DOCTYPE svg PUBLIC "-//W3C//DTD SVG 1.1//EN" "http://www.w3.org/Graphics/SVG/1.1/DTD/svg11.dtd">
<svg version="1.1" id="Layer_1" xmlns="http://www.w3.org/2000/svg" xmlns:xlink="http://www.w3.org/1999/xlink" x="0px" y="0px"
	 viewBox="0 89.4 612 613.2" enable-background="new 0 89.4 612 613.2" xml:space="preserve">
<path fill="#C8232C" d="M305.4,89.4C136.1,89.4-1.1,226.7-1.1,396s137.2,306.6,306.6,306.6C474.8,702.6,612,565.3,612,396
	S474.8,89.4,305.4,89.4z"/>
<g>
	<path fill="#FFFFFF" d="M315.3,502.7L315.3,502.7c-44.1,0-92.1-1.4-142.6-4.1c-29.9-1.6-53-24.7-56.3-56
		c-5.5-52.4-5.5-105.2,0-157.1c3.3-31.1,26.4-54.1,56.3-56c87.2-5.5,176.9-5.5,266.8,0c30.2,1.8,52.8,24.3,56.3,56
		c5.5,50.1,5.5,102.9,0,157.1c-3.2,31.3-25.8,53.8-56.2,56C401.1,501.3,359.4,502.7,315.3,502.7z M305,240.2
		c-43.9,0-88.2,1.4-131.5,4.1c-22.8,1.4-39.8,18.6-42.4,42.7c-5.4,50.8-5.4,102.6,0,154c2.6,24.3,19.6,41.4,42.3,42.7
		c50.3,2.7,98,4.1,141.8,4.1c43.7,0,85.1-1.4,123.1-4.1c23-1.7,40-18.8,42.5-42.7c5.4-53.1,5.4-104.9,0-154
		c-2.7-24.2-19.7-41.3-42.4-42.7C393.8,241.6,348.9,240.2,305,240.2z M268.1,311.3v102.2l98.1-50.7L268.1,311.3z"/>
</g>
<g>
	<g>
		<path fill="#FFFFFF" d="M341.9,550H235.8c-4.9,0-8.9,4.1-8.9,8.9v63.6c0,4.9,4.1,8.9,8.9,8.9h6.9v23.8c0,1.6,0.9,2.8,2.3,3.4
			c0.5,0.2,0.9,0.3,1.4,0.3c0.9,0,1.9-0.3,2.7-1.1l26.3-26.3h5.3c2,0,3.8-1.7,3.8-3.8c0-2-1.7-3.8-3.8-3.8h-7
			c-0.9,0-1.7,0.5-2.3,1.1l-21,21c0,0,0-18.6,0-18.8c-0.2-1.9-1.7-3.4-3.8-3.4H236c-0.8,0-1.4-0.6-1.4-1.4v-63.6
			c0-0.8,0.6-1.4,1.4-1.4H342c0.8,0,1.4,0.6,1.4,1.4v24.4c0,2,1.7,3.8,3.8,3.8c2,0,3.8-1.7,3.8-3.8v-24.4
			C350.8,554.1,346.9,550,341.9,550z"/>
	</g>
</g>
<g>
	<g>
		<path fill="#FFFFFF" d="M376.2,595.7h-74.3c-4.9,0-8.9,4.1-8.9,8.9v43.4c0,4.9,4.1,8.9,8.9,8.9h46.5l18.8,18.8
			c0.8,0.8,1.7,1.1,2.7,1.1c0.5,0,0.9-0.2,1.4-0.3c1.4-0.6,2.3-1.9,2.3-3.4v-16.3h2.5c4.9,0,8.9-4.1,8.9-8.9v-43.4
			C385.1,599.7,381,595.7,376.2,595.7z M377.6,648.1c0,0.8-0.6,1.4-1.4,1.4h-6.3c-2,0-3.6,1.6-3.8,3.4c0,0.2,0,11.3,0,11.3
			l-13.5-13.5l0,0l-0.2-0.2c-0.6-0.6-1.6-0.9-2.5-0.9h-48.1c-0.8,0-1.4-0.6-1.4-1.4v-43.4c0-0.8,0.6-1.4,1.4-1.4h74.3
			c0.8,0,1.4,0.6,1.4,1.4V648.1z"/>
	</g>
</g>
<g>
	<g>
		<path fill="#FFFFFF" d="M339.1,622.5c-2,0-3.8,1.7-3.8,3.8c0,2,1.7,3.8,3.8,3.8s3.8-1.7,3.8-3.8
			C342.8,624.3,341.1,622.5,339.1,622.5z"/>
	</g>
</g>
<g>
	<g>
		<path fill="#FFFFFF" d="M322.8,574.8h-67.8c-2,0-3.8,1.7-3.8,3.8c0,2,1.7,3.8,3.8,3.8h67.8c2,0,3.8-1.7,3.8-3.8
			C326.5,576.5,325,574.8,322.8,574.8z"/>
	</g>
</g>
<g>
	<g>
		<path fill="#FFFFFF" d="M280.6,599.3h-25.8c-2,0-3.8,1.7-3.8,3.8c0,2,1.7,3.8,3.8,3.8h25.8c2,0,3.8-1.7,3.8-3.8
			C284.4,601.1,282.8,599.3,280.6,599.3z"/>
	</g>
</g>
<g>
	<g>
		<path fill="#FFFFFF" d="M321.7,622.5c-2,0-3.8,1.7-3.8,3.8c0,2,1.7,3.8,3.8,3.8c2,0,3.8-1.7,3.8-3.8
			C325.4,624.3,323.7,622.5,321.7,622.5z"/>
	</g>
</g>
<g>
	<g>
		<path fill="#FFFFFF" d="M356.4,622.5c-2,0-3.8,1.7-3.8,3.8c0,2,1.7,3.8,3.8,3.8c2,0,3.8-1.7,3.8-3.8
			C360,624.3,358.5,622.5,356.4,622.5z"/>
	</g>
</g>
</svg>
