<?xml version="1.0" encoding="UTF-8"?>
<svg width="36px" height="36px" viewBox="0 0 36 36" version="1.1" xmlns="http://www.w3.org/2000/svg" xmlns:xlink="http://www.w3.org/1999/xlink">
    <!-- Generator: Sketch 52.2 (67145) - http://www.bohemiancoding.com/sketch -->
    <title>Group 2</title>
    <desc>Created with Sketch.</desc>
    <g id="Page-1" stroke="none" stroke-width="1" fill="none" fill-rule="evenodd">
        <g id="Group-2">
            <g id="Group">
                <g id="outbrain-icon" fill="#F28520">
                    <g id="Rectangle">
                        <rect x="0" y="0" width="36" height="36" rx="3"></rect>
                    </g>
                </g>
                <path d="M14.6765617,18.7485755 C15.6811131,18.7485755 16.4954629,19.5629253 16.4954629,20.5674767 C16.4954629,21.5720281 15.6811131,22.3863779 14.6765617,22.3863779 C13.6720103,22.3863779 12.8576605,21.5720281 12.8576605,20.5674767 C12.8576605,19.5629253 13.6720103,18.7485755 14.6765617,18.7485755 Z M21.3230729,18.7485755 C22.3276243,18.7485755 23.1419741,19.5629253 23.1419741,20.5674767 C23.1419741,21.5720281 22.3276243,22.3863779 21.3230729,22.3863779 C20.3185215,22.3863779 19.5041717,21.5720281 19.5041717,20.5674767 C19.5041708,20.0844812 19.6962738,19.6213176 20.0381238,19.280109 C20.3799737,18.9389004 20.8434972,18.7476676 21.3264919,18.7485755 L21.3230729,18.7485755 Z M17.6921085,20.9709172 C17.4909647,22.5251655 16.1410436,23.6716729 14.5747344,23.6185476 C13.0084253,23.5654224 11.7392904,22.3300833 11.6439201,20.765778 L9.54808088,20.765778 L9.54808088,20.8649286 C9.54808088,25.309612 13.3294808,28.8858727 17.9895604,28.8858727 C22.6496399,28.8858727 26.4310398,25.2959361 26.4310398,20.8649286 L26.4310398,20.765778 L24.3454576,20.765778 C24.2500873,22.3300833 22.9809524,23.5654224 21.4146432,23.6185476 C19.8483341,23.6716729 18.498413,22.5251655 18.2972692,20.9709172 L17.6784325,20.9709172 L17.6921085,20.9709172 Z M14.6765617,17.5211591 C16.0433716,17.5208927 17.2422537,18.4329943 17.6066338,19.7503388 L18.3895819,19.7503388 C18.7323494,18.5020923 19.8280791,17.6078921 21.1197026,17.522349 C22.411326,17.436806 23.6154123,18.1786914 24.1198045,19.3708312 L26.3011183,19.3708312 C26.0900176,18.3060375 25.6578975,17.2973691 25.032674,16.4099883 C22.4032225,16.2940651 19.9053032,15.2273467 18.0032363,13.4081175 C16.1011694,15.2273467 13.6032501,16.2940651 10.9737986,16.4099883 C10.3485751,17.2973691 9.91645505,18.3060375 9.70535429,19.3708312 L11.8832492,19.3708312 C12.3598513,18.2504619 13.4590336,17.5226069 14.6765617,17.5211591 Z M17.9998173,5.5 C23.0555215,5.5 27.6134085,8.54548272 29.5481427,13.2163443 C31.4828769,17.8872059 30.4134456,23.2636002 26.8385229,26.8385229 C23.2636002,30.4134456 17.8872059,31.4828769 13.2163443,29.5481427 C8.54548272,27.6134085 5.5,23.0555215 5.5,17.9998173 C5.50090665,14.6846596 6.8187175,11.5056423 9.16352918,9.16211299 C11.5083409,6.81858368 14.6880786,5.50251209 18.0032363,5.50341899 L17.9998173,5.5 Z" id="Shape" fill="#FFFFFF"></path>
            </g>
        </g>
    </g>
</svg>