<svg xmlns="http://www.w3.org/2000/svg" width="36" height="36" viewBox="0 0 36 36">
    <g fill="none" fill-rule="evenodd">
        <rect width="36" height="36" fill="#4162C8" rx="3"/>
        <circle cx="14" cy="15" r="4" fill-rule="nonzero" stroke="#FFF" stroke-width="2"/>
        <circle cx="23" cy="15" r="4" fill-rule="nonzero" stroke="#FFF" stroke-width="2"/>
        <path fill="#FFF" d="M11 20c.78.56 1.842 1.1 3.187 1.62a11.369 11.369 0 0 0 8.28 0c1.346-.52 2.383-1.06 3.113-1.62v2.025c-.87.65-1.937 1.222-3.203 1.717-1.265.496-2.617.743-4.057.743-1.44 0-2.805-.247-4.095-.743-1.29-.495-2.365-1.067-3.225-1.717V20z"/>
        <path fill="#FFF" d="M11 21c.78.56 1.842 1.1 3.187 1.62a11.369 11.369 0 0 0 8.28 0c1.346-.52 2.383-1.06 3.113-1.62v2.025c-.87.65-1.937 1.222-3.203 1.717-1.265.496-2.617.743-4.057.743-1.44 0-2.805-.247-4.095-.743-1.29-.495-2.365-1.067-3.225-1.717V21z"/>
    </g>
</svg>
