<svg xmlns="http://www.w3.org/2000/svg" width="36" height="36" viewBox="0 0 36 36">
    <g fill="none" fill-rule="evenodd">
        <rect width="36" height="36" fill="#52A4FF" rx="3"/>
        <path fill="#FFF" fill-rule="nonzero" d="M14 23h-3a1 1 0 0 1 0-2h3v2zM25 13H11a1 1 0 0 1 0-2h14a1 1 0 0 1 0 2zM14 18h-3a1 1 0 0 1 0-2h3v2zM25.707 23.293l-2.274-2.274A3.947 3.947 0 0 0 24 19c0-2.206-1.794-4-4-4s-4 1.794-4 4 1.794 4 4 4c.74 0 1.424-.215 2.019-.567l2.274 2.274 1.414-1.414zM20 21c-1.103 0-2-.897-2-2s.897-2 2-2 2 .897 2 2-.897 2-2 2z"/>
    </g>
</svg>
