<?xml version="1.0" encoding="iso-8859-1"?>
<!-- Generator: Adobe Illustrator 19.0.0, SVG Export Plug-In . SVG Version: 6.00 Build 0)  -->
<svg xmlns="http://www.w3.org/2000/svg" xmlns:xlink="http://www.w3.org/1999/xlink" version="1.1" id="Layer_1" x="0px" y="0px" viewBox="0 0 488.401 488.401" style="enable-background:new 0 0 488.401 488.401;" xml:space="preserve" width="512px" height="512px">
<g>
	<g>
		<path d="M465.3,145.05h-43.5c-17.7,0-21.8-14.7-12.6-25.3c15.2-17.2,7.1-43-20.2-44.5c-27.3,1-35.4,27.3-20.2,44    c9.1,10.1,5.1,25.3-12.6,25.3h-42.5c-12.6,0-23.3,10.1-23.3,23.3v43v12.1c-0.5,0-0.5,0-1,0H211v-21.8c0-2-2.5-3-4.6-1.5l-51.1,42    c-1.5,1.5-1.5,4,0,5.6l51.1,42c2,1.5,4.6,0,4.6-2v-21.8h78.2c0.5,0,0.5,0,1,0v12.6v43c0,12.6,10.1,23.3,23.3,23.3H356    c17.7,0,21.8,14.7,12.6,24.8c-15.2,17.2-7.1,43,20.2,44c27.3-1,35.4-27.3,20.2-44c-9.1-10.1-5.1-24.8,12.6-24.8h43    c13.2,0,23.8-10.6,23.8-23.8v-30.4v-13.2c-0.5-17.2-15.2-21.2-25.3-12.1c-17.2,15.2-43.5,7.1-44.5-20.2    c1-27.3,27.3-35.4,44.5-20.2c10.1,9.1,24.8,5.1,25.3-12.1v-11.6v-31.4v-1C488.5,155.65,478.4,145.05,465.3,145.05z" fill="#FFFFFF"/>
	</g>
</g>
<g>
	<g>
		<path d="M244.7,145.45h-43.5c-17.7,0-21.8-15.2-12.6-25.3c15.2-17.2,7.1-43.5-20.2-44.5c-27.3,1-35.4,26.8-20.2,44    c9.1,10.1,5.1,25.3-12.6,25.3H93.1c-13.2,0-23.3,10.6-23.3,23.3v43.5c0,17.7-15.2,21.8-25.3,12.6c-17.2-15.2-43.5-7.1-44.5,20.2    c1,27.3,27.3,35.4,44,20.2c10.1-9.1,25.3-5.1,25.3,12.6v43c0,13.2,10.6,23.3,23.3,23.3h42.5c17.7,0,21.8,14.7,12.6,24.8    c-15.2,16.7-7.1,43,20.2,44c27.3-1,35.4-26.8,20.2-44c-9.1-10.1-5.1-24.8,12.6-24.8h43c13.2,0,23.8-10.6,23.8-23.8v-30.4v-2.3    h-34.4c-0.5,13.7-11.7,24.8-25.3,24.8c-6.1,0-11.6-2-16.2-5.6l-51.1-42c-6.1-5.1-9.6-12.1-9.6-20.2c0-8.1,3.5-15.2,9.6-20.2    l51.6-42c4.6-3.5,10.1-5.6,16.2-5.6c13.7,0,24.8,11.1,25.3,24.8H268v-0.5v-31.4v-0.5C268,155.55,257.4,145.45,244.7,145.45z" fill="#FFFFFF"/>
	</g>
</g>
<g>
</g>
<g>
</g>
<g>
</g>
<g>
</g>
<g>
</g>
<g>
</g>
<g>
</g>
<g>
</g>
<g>
</g>
<g>
</g>
<g>
</g>
<g>
</g>
<g>
</g>
<g>
</g>
<g>
</g>
</svg>
