<?xml version="1.0" encoding="utf-8"?>
<svg viewBox="0 0 500 201.63" xmlns="http://www.w3.org/2000/svg"><path d="m398.45 119.15 61.94-65.3h-127.53a4.76 4.76 0 0 0 -4.57 4.52v13.17c-11.9-19.28-35.23-32.38-62.07-32.38-35.06 0-64.14 22.37-69.54 51.66v-37h-22.22a18.73 18.73 0 0 0 -13.37 6l-43 47.8-43-47.8a18.68 18.68 0 0 0 -13.37-6h-22.19v95.44h25.93a4.84 4.84 0 0 0 4.54-4.63h0v-44.78l48.07 53.54 48-53.54v44.78a4.83 4.83 0 0 0 4.56 4.66h25.94v-38.77c5.4 29.29 34.48 51.66 69.54 51.66 38.92 0 70.47-27.54 70.47-61.51a54.27 54.27 0 0 0 -2.58-16.67h56.19l-61.77 65.3h127.42a4.75 4.75 0 0 0 4.57-4.53h0v-25.62zm-132.24 12.08c-19.32 0-35-13.68-35-30.56s15.67-30.56 35-30.56 35 13.68 35 30.56-15.66 30.56-35 30.56z" fill="#4dbdeb"/></svg>