<svg version="1.1" xmlns="http://www.w3.org/2000/svg" xmlns:xlink="http://www.w3.org/1999/xlink" viewBox="0 0 614.6 134.2" xml:space="preserve">
	<path style="fill: #203232;" d="M50.6,27.1c-11.9,0-18.8,5.4-22.1,9c-0.4-3.2-2.5-7.3-10.7-7.3H0v18.6h7.3c1.2,0,1.6,0.4,1.6,1.6v85.1h21.2 v-31.9c0-0.9,0-1.7,0-2.4c3.3,3,9.6,7.2,19.5,7.2c20.7,0,35.2-16.4,35.2-40C84.9,43.2,71.1,27.1,50.6,27.1 M46.3,88.6 c-11.4,0-16.6-10.9-16.6-21.1c0-16,8.7-21.7,16.9-21.7c10,0,16.8,8.6,16.8,21.5C63.4,82,54.8,88.6,46.3,88.6 M113.4,85.2 c0,1.2,0.5,1.6,1.6,1.6h7.3v18.5h-19c-7.6,0-11.2-3.6-11.2-11.3V49.1c0-1.2-0.4-1.6-1.6-1.6h-7.3V28.8h19c7.5,0,11.2,3.7,11.2,11.3 V85.2 M168.8,27.1c-11.9,0-18.8,5.4-22.2,9c-0.4-3.2-2.5-7.3-10.7-7.3h-17.8v18.6h7.3c1.2,0,1.6,0.4,1.6,1.6v85.1h21.2v-31.9 c0-0.9,0-1.7,0-2.4c3.3,3,9.7,7.2,19.5,7.2c20.7,0,35.2-16.4,35.2-40C203.1,43.2,189.3,27.1,168.8,27.1 M164.5,88.6 c-11.4,0-16.6-10.9-16.6-21.1c0-16,8.7-21.7,16.9-21.7c10,0,16.8,8.6,16.8,21.5C181.5,82,173,88.6,164.5,88.6 M243,27.1 c-22.9,0-38.8,16.5-38.8,40c0,23.2,17.2,40,41,40c18.7,0,30.1-11.1,30.6-11.5l0.9-0.8l-9.2-15.3l-1.4,1.3c-0.1,0.1-8.5,7.8-19.6,7.8 c-10.6,0-18.4-6.5-20.3-16.7h50.3l0.1-1.4c0-0.2,0.5-4.7,0.5-6.9C277.1,41.7,263.4,27.1,243,27.1 M227,56c2.3-7.5,8.1-11.8,16-11.8 c6.4,0,11.3,4.9,12.2,11.8H227z M354.3,85.2V11.3c0-7.6-3.7-11.3-11.3-11.3h-19v18.6h7.3c1.2,0,1.6,0.4,1.6,1.6v13.4 c-3.1-2.8-9.2-6.5-19.8-6.5c-20.6,0-35,16.5-35,40c0,23.9,13.8,40,34.2,40c11.7,0,18.5-5.4,21.8-9.2c0.4,3.3,2.6,7.5,10.5,7.5H363 V86.9h-7.1C354.7,86.9,354.3,86.4,354.3,85.2 M316.4,88.6c-10.1,0-16.6-8.4-16.6-21.5c0-12.7,6.8-21.2,16.9-21.2 c11.5,0,16.6,10.6,16.6,21.1C333.3,82.9,324.6,88.6,316.4,88.6 M410.3,27.8c1.7,0,3.5,0.3,3.6,0.3l1.3,0.2v21.1l-1.8-0.3 c0,0-1.8-0.3-4.2-0.3c-6.9,0-15.4,3.8-18.5,14.3c-1,3.6-1.5,7.5-1.5,11.5v30.6h-21.2V49.1c0-1.2-0.4-1.6-1.6-1.6h-7.3V28.8h18.2 c7.5,0,11.3,3.5,11.3,10.5V41C393.3,32.9,401.4,27.8,410.3,27.8 M445.3,85.2c0,1.2,0.5,1.6,1.6,1.6h7.3v18.5h-19 c-7.6,0-11.2-3.6-11.2-11.3V49.1c0-1.2-0.4-1.6-1.6-1.6H417V28.8h17.2c7.5,0,11.2,3.7,11.2,11.3V85.2 M525.4,47.4h-3.3 c-1.7,0-2.2,0.6-2.6,1.6l-21.4,56.3h-23.9L452.9,49c-0.4-1-0.9-1.6-2.6-1.6h-3.1V28.8h12c6.7,0,10.1,2.2,12.3,7.9l13.8,38.6 c0.5,1.4,1,3.1,1.4,4.6c0.4-1.5,0.8-3.1,1.3-4.6l13.8-38.6c2.1-5.6,5.6-7.9,12.3-7.9h11.3V47.4z M562,27.1 c-22.9,0-38.8,16.5-38.8,40c0,23.2,17.2,40,41,40c18.7,0,30.1-11.1,30.6-11.5l0.9-0.8l-9.2-15.3l-1.4,1.3c-0.1,0.1-8.5,7.8-19.5,7.8 c-10.6,0-18.4-6.5-20.3-16.7h50.3l0.1-1.4c0-0.2,0.4-4.7,0.4-6.9C596.1,41.7,582.4,27.1,562,27.1 M545.9,56 c2.3-7.5,8.1-11.8,16-11.8c6.4,0,11.3,4.9,12.2,11.8H545.9z M111.9,19.9H93V0h18.9V19.9z M443.9,19.9h-18.9V0h18.9V19.9z  M595.7,27.1h7.7v1.7h-2.8v7.7h-2.1v-7.7h-2.8V27.1z M614.6,27.1v9.4h-1.9v-6.7h0l-2.3,6.7h-1.6l-2.3-6.6h0v6.6h-1.9v-9.4h2.9 l2.2,6.5h0l2.1-6.5H614.6z"/>
</svg>
