<?xml version="1.0" encoding="utf-8"?>
<!-- Generator: Adobe Illustrator 19.1.0, SVG Export Plug-In . SVG Version: 6.00 Build 0)  -->
<svg version="1.1" id="Layer_1" xmlns="http://www.w3.org/2000/svg" xmlns:xlink="http://www.w3.org/1999/xlink" x="0px" y="0px"
	 viewBox="0 0 185 36" style="enable-background:new 0 0 185 36;" xml:space="preserve">
<style type="text/css">
	.st0{fill:#E69000;}
	.st1{fill:url(#SVGID_1_);}
	.st2{fill:#FFEF66;}
	.st3{fill:#A1CEEF;}
	.st4{fill:url(#SVGID_2_);}
	.st5{fill:#1A97D5;}
	.st6{fill:url(#SVGID_3_);}
	.st7{fill:#A3CF9E;}
	.st8{fill:#6EB75E;}
	.st9{fill:url(#SVGID_4_);}
	.st10{fill:#E63932;}
	.st11{fill:#7B1713;}
	.st12{fill:#FFFFFF;}
	.st13{fill:url(#SVGID_5_);}
	.st14{fill:url(#SVGID_6_);}
	.st15{fill:url(#SVGID_7_);}
	.st16{fill:url(#SVGID_8_);}
</style>
<g>
	<polygon class="st0" points="104.4,7.6 104.4,32.4 101.1,35.7 100.9,11.5 	"/>
	
		<linearGradient id="SVGID_1_" gradientUnits="userSpaceOnUse" x1="89.64" y1="793.0372" x2="89.64" y2="816.2012" gradientTransform="matrix(1 0 0 1 0 -781.2)">
		<stop  offset="5.618000e-03" style="stop-color:#FFE400"/>
		<stop  offset="1" style="stop-color:#F9B900"/>
	</linearGradient>
	<rect x="78.3" y="11.5" class="st1" width="22.6" height="24.2"/>
	<polygon class="st2" points="81.9,7.6 78.3,11.5 101.1,11.5 104.4,7.6 	"/>
	<polygon class="st3" points="53.9,8.6 76.2,5.6 74.3,10.9 53.1,14.3 53.3,10.4 	"/>
	
		<linearGradient id="SVGID_2_" gradientUnits="userSpaceOnUse" x1="53.5896" y1="795.4679" x2="76.3008" y2="813.7056" gradientTransform="matrix(1 0 0 1 0 -781.2)">
		<stop  offset="5.618000e-03" style="stop-color:#1989CA"/>
		<stop  offset="1" style="stop-color:#025D99"/>
	</linearGradient>
	<polygon class="st4" points="74.3,10.9 77.3,32.7 55.4,35.7 52.4,14.7 53.7,13.7 	"/>
	<polyline class="st5" points="76.2,5.6 76.2,5.8 79.1,27.9 77.3,32.7 74.3,10.9 	"/>
	<g>
		
			<linearGradient id="SVGID_3_" gradientUnits="userSpaceOnUse" x1="40.536" y1="796.1234" x2="40.536" y2="816.4175" gradientTransform="matrix(1 0 0 1 0 -781.2)">
			<stop  offset="0" style="stop-color:#209838"/>
			<stop  offset="1" style="stop-color:#008449"/>
		</linearGradient>
		<polygon class="st6" points="35,6.8 54.9,15.7 45.9,36 26.2,27.1 		"/>
	</g>
	<polygon class="st7" points="33,0 35,6.8 54.9,15.7 53.1,9.2 	"/>
	<polygon class="st8" points="33,0 25.1,18.7 26.2,27.1 35,6.8 	"/>
	
		<linearGradient id="SVGID_4_" gradientUnits="userSpaceOnUse" x1="11.0236" y1="794.1415" x2="14.5135" y2="815.2111" gradientTransform="matrix(1 0 0 1 0 -781.2)">
		<stop  offset="0" style="stop-color:#D41525"/>
		<stop  offset="1" style="stop-color:#B91B2A"/>
	</linearGradient>
	<polygon class="st9" points="22,10.9 25.3,32.3 3.5,35.7 0,14.3 	"/>
	<polygon class="st10" points="0,14.3 1.6,6.6 23.6,3.2 22,10.9 	"/>
	<polygon class="st11" points="23.6,3.2 26.8,24.6 25.3,32.3 22,10.9 	"/>
	<path class="st12" d="M97.5,20.2c-0.4-1.2-1.2-2.2-2-3c-0.9-0.9-1.9-1.4-2.9-1.9c-1-0.4-2.2-0.7-3.5-0.7c-1.2,0-2.3,0.1-3.5,0.7
		c-1,0.4-2,1-2.9,1.9c-0.9,0.9-1.6,1.9-2,3c-0.4,1.2-0.7,2.3-0.7,3.7c0,1.3,0.1,2.6,0.7,3.7c0.4,1.2,1,2.2,1.9,3
		c0.9,0.9,1.7,1.4,2.9,1.9c1.2,0.4,2.2,0.7,3.5,0.7c1.2,0,2.3-0.1,3.3-0.7c1-0.4,2-1,2.9-1.9c0.9-0.9,1.6-1.9,2-3
		c0.4-1.2,0.7-2.3,0.7-3.7C98.2,22.6,98.1,21.3,97.5,20.2z M92.9,28.2c-0.9,1-2,1.6-3.6,1.6s-2.7-0.6-3.6-1.6s-1.3-2.4-1.3-4.3
		c0-1.9,0.4-3.3,1.3-4.5c0.9-1,2-1.6,3.6-1.6s2.7,0.6,3.6,1.6c0.9,1,1.3,2.4,1.3,4.5C94.2,25.8,93.7,27.2,92.9,28.2z M14.5,23.3
		L14.5,23.3L14.5,23.3L14.5,23.3L14.5,23.3z M19.7,28.9c-0.1-0.1-0.4-0.3-0.7-0.4c-0.3-0.1-0.7-0.1-1-0.1s-0.9,0-1.3,0.1l-5.6,1
		c0-0.4,0.3-1,0.7-1.7c0.4-0.9,1-1.7,1.9-2.9l0,0c0.3-0.4,0.6-0.7,0.7-0.9c0.1-0.1,0.3-0.3,0.4-0.6c1.3-1.7,2.2-3.2,2.4-4.2
		c0.1-0.6,0.3-1.3,0.3-1.9c0-0.1,0-0.3,0-0.6c0-0.4,0-0.9-0.1-1.3c0-0.4-0.1-0.7-0.3-1c-0.1-0.3-0.3-0.4-0.6-0.6
		c-0.1-0.1-0.6-0.1-1-0.1c-0.3,0-0.9,0-1.3,0.1l-6.6,1.2c-0.9,0.1-1.4,0.4-1.9,0.7c-0.3,0.3-0.4,0.7-0.4,1c0,0.1,0,0.1,0,0.3
		c0,0.6,0.4,1,0.9,1.2c0.3,0.1,0.6,0.1,1,0.1c0.3,0,0.6,0,0.9,0l5.6-1c0,0,0,0.1,0,0.3c0,0.3,0,0.7-0.1,1c-0.1,0.4-0.6,1.2-1.2,1.9
		c-0.1,0.1-0.4,0.6-0.9,1c-1.4,1.9-2.6,3.3-3.2,4.8l0,0l0,0c-0.4,0.9-0.9,1.7-1,2.6c-0.1,0.4-0.1,1-0.1,1.4c0,0.3,0,0.7,0,1
		c0,0.4,0.1,0.9,0.3,1C7.6,32.7,7.8,33,8.1,33c0.1,0.1,0.6,0.1,1,0.1c0.6,0,1.3,0,2.3-0.3l6-1c1-0.1,1.9-0.4,2.3-0.9
		c0.3-0.3,0.6-0.7,0.6-1.2c0-0.1,0-0.3,0-0.3C20,29.4,19.9,29.1,19.7,28.9z M47.1,14.4c-0.9-0.9-1.7-1.4-2.9-1.9
		c-1-0.4-2.2-0.7-3.3-0.7l0,0c-1.2,0-2.3,0.3-3.3,0.7l0,0c-1.2,0.6-2.2,1.2-3,2.2c-0.9,0.9-1.6,2-2,3.3c-0.6,1.3-0.9,2.4-0.9,3.7
		c0,0.1,0,0.3,0,0.4c0,1.2,0.1,2.2,0.6,3.2c0.4,1.2,1,2,1.9,2.9c0.9,0.9,1.7,1.4,2.9,1.9l0,0c1,0.4,2.2,0.7,3.3,0.7l0,0
		c1.2,0,2.3-0.3,3.3-0.7l0,0l0,0c1.2-0.6,2.2-1.2,3-2.2c0.9-1,1.6-2,2-3.3c0.6-1.3,0.9-2.6,0.9-3.7c0-0.1,0-0.3,0-0.3
		c0-1.2-0.1-2.2-0.6-3.3C48.4,16.3,47.8,15.3,47.1,14.4z M44.9,23.2c-0.7,1.7-1.7,2.9-2.9,3.6c-0.7,0.3-1.3,0.6-2,0.6
		c-0.6,0-1.2-0.1-1.9-0.4c-1.4-0.6-2.2-1.6-2.6-2.9c-0.1-0.4-0.1-1-0.1-1.4c0-1,0.3-2,0.7-3.2c0.7-1.9,1.7-3,2.9-3.7
		c0.7-0.3,1.3-0.6,2-0.6c0.6,0,1.2,0.1,1.9,0.4c1.3,0.6,2.2,1.6,2.6,2.9c0.1,0.4,0.1,0.9,0.1,1.4C45.6,20.9,45.4,22,44.9,23.2z
		 M70.6,15.1c0-0.7-0.3-1.2-0.7-1.6c-0.3-0.3-0.7-0.4-1-0.4c-0.1,0-0.1,0-0.3,0c-0.6,0-1,0.3-1.3,0.9c-0.1,0.3-0.3,0.7-0.3,1.2
		c0,0.1,0,0.3,0,0.6l0.9,5.6l-6.3,1l-0.9-5.6c0-0.7-0.3-1.2-0.7-1.6c-0.3-0.3-0.7-0.4-1-0.4c0,0-0.1,0-0.3,0c-0.6,0-1,0.3-1.3,0.9
		c-0.1,0.3-0.3,0.7-0.3,1.2c0,0.1,0,0.3,0,0.6L59.2,32c0,0.7,0.3,1.2,0.7,1.6c0.3,0.3,0.7,0.4,1.2,0.4c0.1,0,0.3,0,0.4,0
		c0.6,0,1-0.3,1.2-0.9c0.1-0.3,0.3-0.7,0.3-1.2c0-0.1,0-0.3,0-0.6l-0.9-5.8l6.3-1l0.9,5.8c0,0.7,0.3,1.2,0.7,1.6
		c0.3,0.3,0.7,0.4,1.2,0.4c0.1,0,0.1,0,0.3,0c0.6,0,1-0.3,1.3-0.9c0.1-0.3,0.3-0.7,0.3-1.2c0-0.1,0-0.3,0-0.6L70.6,15.1z"/>
</g>
<g>
	<path d="M130.2,23.6l4.1,0.4c-0.3,2.4-1.2,4.4-2.8,6c-1.6,1.6-3.7,2.4-6.4,2.4c-2.2,0-4-0.6-5.4-1.7c-1.4-1.1-2.4-2.6-3.2-4.5
		c-0.7-1.9-1.1-4-1.1-6.3c0-3.7,0.9-6.7,2.6-9s4.2-3.5,7.2-3.5c2.4,0,4.4,0.7,6,2.2c1.6,1.5,2.6,3.6,3,6.4l-4.1,0.4
		c-0.7-3.7-2.4-5.5-4.9-5.5c-1.6,0-2.9,0.8-3.8,2.3c-0.9,1.5-1.4,3.7-1.4,6.6c0,2.9,0.5,5.2,1.5,6.7c1,1.5,2.3,2.3,3.9,2.3
		c1.3,0,2.4-0.5,3.3-1.5C129.6,26.2,130.1,25,130.2,23.6z"/>
	<path d="M156.7,32h-4.6l-3.8-10h-6.2v10h-4.4V7.7h10.5c2.9,0,5.1,0.7,6.5,2c1.4,1.3,2.1,3,2.1,5.1c0,3.1-1.5,5.3-4.4,6.4L156.7,32z
		 M142.1,18.5h5.4c1.6,0,2.8-0.3,3.5-1c0.8-0.7,1.2-1.6,1.2-2.7c0-1.1-0.4-1.9-1.1-2.6c-0.8-0.7-1.8-1-3.2-1h-5.8V18.5z"/>
	<path d="M185,32h-4.5V10.8L173.8,32h-2.3l-6.8-21.3V32h-3.6V7.7h6.9l5.1,15.7l5-15.7h6.9V32z"/>
</g>
<g>
	<polygon class="st0" points="104.4,7.6 104.4,32.4 101.1,35.7 100.9,11.5 	"/>
	
		<linearGradient id="SVGID_5_" gradientUnits="userSpaceOnUse" x1="89.64" y1="793.0372" x2="89.64" y2="816.2012" gradientTransform="matrix(1 0 0 1 0 -781.2)">
		<stop  offset="5.618000e-03" style="stop-color:#FFE400"/>
		<stop  offset="1" style="stop-color:#F9B900"/>
	</linearGradient>
	<rect x="78.3" y="11.5" class="st13" width="22.6" height="24.2"/>
	<polygon class="st2" points="81.9,7.6 78.3,11.5 101.1,11.5 104.4,7.6 	"/>
	<polygon class="st3" points="53.9,8.6 76.2,5.6 74.3,10.9 53.1,14.3 53.3,10.4 	"/>
	
		<linearGradient id="SVGID_6_" gradientUnits="userSpaceOnUse" x1="53.5896" y1="795.4679" x2="76.3008" y2="813.7056" gradientTransform="matrix(1 0 0 1 0 -781.2)">
		<stop  offset="5.618000e-03" style="stop-color:#1989CA"/>
		<stop  offset="1" style="stop-color:#025D99"/>
	</linearGradient>
	<polygon class="st14" points="74.3,10.9 77.3,32.7 55.4,35.7 52.4,14.7 53.7,13.7 	"/>
	<polyline class="st5" points="76.2,5.6 76.2,5.8 79.1,27.9 77.3,32.7 74.3,10.9 	"/>
	<g>
		
			<linearGradient id="SVGID_7_" gradientUnits="userSpaceOnUse" x1="40.536" y1="796.1234" x2="40.536" y2="816.4175" gradientTransform="matrix(1 0 0 1 0 -781.2)">
			<stop  offset="0" style="stop-color:#209838"/>
			<stop  offset="1" style="stop-color:#008449"/>
		</linearGradient>
		<polygon class="st15" points="35,6.8 54.9,15.7 45.9,36 26.2,27.1 		"/>
	</g>
	<polygon class="st7" points="33,0 35,6.8 54.9,15.7 53.1,9.2 	"/>
	<polygon class="st8" points="33,0 25.1,18.7 26.2,27.1 35,6.8 	"/>
	
		<linearGradient id="SVGID_8_" gradientUnits="userSpaceOnUse" x1="11.0236" y1="794.1415" x2="14.5135" y2="815.2111" gradientTransform="matrix(1 0 0 1 0 -781.2)">
		<stop  offset="0" style="stop-color:#D41525"/>
		<stop  offset="1" style="stop-color:#B91B2A"/>
	</linearGradient>
	<polygon class="st16" points="22,10.9 25.3,32.3 3.5,35.7 0,14.3 	"/>
	<polygon class="st10" points="0,14.3 1.6,6.6 23.6,3.2 22,10.9 	"/>
	<polygon class="st11" points="23.6,3.2 26.8,24.6 25.3,32.3 22,10.9 	"/>
	<path class="st12" d="M97.5,20.2c-0.4-1.2-1.2-2.2-2-3c-0.9-0.9-1.9-1.4-2.9-1.9c-1-0.4-2.2-0.7-3.5-0.7c-1.2,0-2.3,0.1-3.5,0.7
		c-1,0.4-2,1-2.9,1.9c-0.9,0.9-1.6,1.9-2,3c-0.4,1.2-0.7,2.3-0.7,3.7c0,1.3,0.1,2.6,0.7,3.7c0.4,1.2,1,2.2,1.9,3
		c0.9,0.9,1.7,1.4,2.9,1.9c1.2,0.4,2.2,0.7,3.5,0.7c1.2,0,2.3-0.1,3.3-0.7c1-0.4,2-1,2.9-1.9c0.9-0.9,1.6-1.9,2-3
		c0.4-1.2,0.7-2.3,0.7-3.7C98.2,22.6,98.1,21.3,97.5,20.2z M92.9,28.2c-0.9,1-2,1.6-3.6,1.6s-2.7-0.6-3.6-1.6s-1.3-2.4-1.3-4.3
		c0-1.9,0.4-3.3,1.3-4.5c0.9-1,2-1.6,3.6-1.6s2.7,0.6,3.6,1.6c0.9,1,1.3,2.4,1.3,4.5C94.2,25.8,93.7,27.2,92.9,28.2z M14.5,23.3
		L14.5,23.3L14.5,23.3L14.5,23.3L14.5,23.3z M19.7,28.9c-0.1-0.1-0.4-0.3-0.7-0.4c-0.3-0.1-0.7-0.1-1-0.1s-0.9,0-1.3,0.1l-5.6,1
		c0-0.4,0.3-1,0.7-1.7c0.4-0.9,1-1.7,1.9-2.9l0,0c0.3-0.4,0.6-0.7,0.7-0.9c0.1-0.1,0.3-0.3,0.4-0.6c1.3-1.7,2.2-3.2,2.4-4.2
		c0.1-0.6,0.3-1.3,0.3-1.9c0-0.1,0-0.3,0-0.6c0-0.4,0-0.9-0.1-1.3c0-0.4-0.1-0.7-0.3-1c-0.1-0.3-0.3-0.4-0.6-0.6
		c-0.1-0.1-0.6-0.1-1-0.1c-0.3,0-0.9,0-1.3,0.1l-6.6,1.2c-0.9,0.1-1.4,0.4-1.9,0.7c-0.3,0.3-0.4,0.7-0.4,1c0,0.1,0,0.1,0,0.3
		c0,0.6,0.4,1,0.9,1.2c0.3,0.1,0.6,0.1,1,0.1c0.3,0,0.6,0,0.9,0l5.6-1c0,0,0,0.1,0,0.3c0,0.3,0,0.7-0.1,1c-0.1,0.4-0.6,1.2-1.2,1.9
		c-0.1,0.1-0.4,0.6-0.9,1c-1.4,1.9-2.6,3.3-3.2,4.8l0,0l0,0c-0.4,0.9-0.9,1.7-1,2.6c-0.1,0.4-0.1,1-0.1,1.4c0,0.3,0,0.7,0,1
		c0,0.4,0.1,0.9,0.3,1C7.6,32.7,7.8,33,8.1,33c0.1,0.1,0.6,0.1,1,0.1c0.6,0,1.3,0,2.3-0.3l6-1c1-0.1,1.9-0.4,2.3-0.9
		c0.3-0.3,0.6-0.7,0.6-1.2c0-0.1,0-0.3,0-0.3C20,29.4,19.9,29.1,19.7,28.9z M47.1,14.4c-0.9-0.9-1.7-1.4-2.9-1.9
		c-1-0.4-2.2-0.7-3.3-0.7l0,0c-1.2,0-2.3,0.3-3.3,0.7l0,0c-1.2,0.6-2.2,1.2-3,2.2c-0.9,0.9-1.6,2-2,3.3c-0.6,1.3-0.9,2.4-0.9,3.7
		c0,0.1,0,0.3,0,0.4c0,1.2,0.1,2.2,0.6,3.2c0.4,1.2,1,2,1.9,2.9c0.9,0.9,1.7,1.4,2.9,1.9l0,0c1,0.4,2.2,0.7,3.3,0.7l0,0
		c1.2,0,2.3-0.3,3.3-0.7l0,0l0,0c1.2-0.6,2.2-1.2,3-2.2c0.9-1,1.6-2,2-3.3c0.6-1.3,0.9-2.6,0.9-3.7c0-0.1,0-0.3,0-0.3
		c0-1.2-0.1-2.2-0.6-3.3C48.4,16.3,47.8,15.3,47.1,14.4z M44.9,23.2c-0.7,1.7-1.7,2.9-2.9,3.6c-0.7,0.3-1.3,0.6-2,0.6
		c-0.6,0-1.2-0.1-1.9-0.4c-1.4-0.6-2.2-1.6-2.6-2.9c-0.1-0.4-0.1-1-0.1-1.4c0-1,0.3-2,0.7-3.2c0.7-1.9,1.7-3,2.9-3.7
		c0.7-0.3,1.3-0.6,2-0.6c0.6,0,1.2,0.1,1.9,0.4c1.3,0.6,2.2,1.6,2.6,2.9c0.1,0.4,0.1,0.9,0.1,1.4C45.6,20.9,45.4,22,44.9,23.2z
		 M70.6,15.1c0-0.7-0.3-1.2-0.7-1.6c-0.3-0.3-0.7-0.4-1-0.4c-0.1,0-0.1,0-0.3,0c-0.6,0-1,0.3-1.3,0.9c-0.1,0.3-0.3,0.7-0.3,1.2
		c0,0.1,0,0.3,0,0.6l0.9,5.6l-6.3,1l-0.9-5.6c0-0.7-0.3-1.2-0.7-1.6c-0.3-0.3-0.7-0.4-1-0.4c0,0-0.1,0-0.3,0c-0.6,0-1,0.3-1.3,0.9
		c-0.1,0.3-0.3,0.7-0.3,1.2c0,0.1,0,0.3,0,0.6L59.2,32c0,0.7,0.3,1.2,0.7,1.6c0.3,0.3,0.7,0.4,1.2,0.4c0.1,0,0.3,0,0.4,0
		c0.6,0,1-0.3,1.2-0.9c0.1-0.3,0.3-0.7,0.3-1.2c0-0.1,0-0.3,0-0.6l-0.9-5.8l6.3-1l0.9,5.8c0,0.7,0.3,1.2,0.7,1.6
		c0.3,0.3,0.7,0.4,1.2,0.4c0.1,0,0.1,0,0.3,0c0.6,0,1-0.3,1.3-0.9c0.1-0.3,0.3-0.7,0.3-1.2c0-0.1,0-0.3,0-0.6L70.6,15.1z"/>
</g>
<g>
	<path d="M130.2,23.6l4.1,0.4c-0.3,2.4-1.2,4.4-2.8,6c-1.6,1.6-3.7,2.4-6.4,2.4c-2.2,0-4-0.6-5.4-1.7c-1.4-1.1-2.4-2.6-3.2-4.5
		c-0.7-1.9-1.1-4-1.1-6.3c0-3.7,0.9-6.7,2.6-9s4.2-3.5,7.2-3.5c2.4,0,4.4,0.7,6,2.2c1.6,1.5,2.6,3.6,3,6.4l-4.1,0.4
		c-0.7-3.7-2.4-5.5-4.9-5.5c-1.6,0-2.9,0.8-3.8,2.3c-0.9,1.5-1.4,3.7-1.4,6.6c0,2.9,0.5,5.2,1.5,6.7c1,1.5,2.3,2.3,3.9,2.3
		c1.3,0,2.4-0.5,3.3-1.5C129.6,26.2,130.1,25,130.2,23.6z"/>
	<path d="M156.7,32h-4.6l-3.8-10h-6.2v10h-4.4V7.7h10.5c2.9,0,5.1,0.7,6.5,2c1.4,1.3,2.1,3,2.1,5.1c0,3.1-1.5,5.3-4.4,6.4L156.7,32z
		 M142.1,18.5h5.4c1.6,0,2.8-0.3,3.5-1c0.8-0.7,1.2-1.6,1.2-2.7c0-1.1-0.4-1.9-1.1-2.6c-0.8-0.7-1.8-1-3.2-1h-5.8V18.5z"/>
	<path d="M185,32h-4.5V10.8L173.8,32h-2.3l-6.8-21.3V32h-3.6V7.7h6.9l5.1,15.7l5-15.7h6.9V32z"/>
</g>
</svg>
