<?xml version="1.0" encoding="utf-8"?>
<!-- Generator: Adobe Illustrator 18.0.0, SVG Export Plug-In . SVG Version: 6.00 Build 0)  -->
<!DOCTYPE svg PUBLIC "-//W3C//DTD SVG 1.1//EN" "http://www.w3.org/Graphics/SVG/1.1/DTD/svg11.dtd">
<svg version="1.1" id="Capa_1" xmlns="http://www.w3.org/2000/svg" xmlns:xlink="http://www.w3.org/1999/xlink" x="0px" y="0px"
	 viewBox="0 0 512 512" enable-background="new 0 0 512 512" xml:space="preserve">
<g>
	<path fill="#0099CC" d="M475.3,33.3H349.1V20c0-11.1-9-20-20-20c-11.1,0-20,9-20,20v13.3H202.9V20c0-11.1-9-20-20-20s-20,9-20,20
		v13.3H36.7c-11.1,0-20,9-20,20V492c0,11.1,9,20,20,20h438.6c11.1,0,20-9,20-20V53.3C495.3,42.3,486.4,33.3,475.3,33.3z M162.9,73.4
		v26.4c0,11.1,9,20,20,20s20-9,20-20V73.4h106.1v26.4c0,11.1,9,20,20,20c11.1,0,20-9,20-20V73.4h106.1V143H56.7V73.4H162.9z
		 M56.7,471.9V183h398.5v288.9L56.7,471.9L56.7,471.9z"/>
	<path fill="#0099CC" d="M345.4,288.2l-49.3-7.2L274,236.4c-3.4-6.8-10.3-11.2-18-11.2c-7.6,0-14.6,4.3-18,11.2L216,281.1l-49.3,7.2
		c-7.6,1.1-13.8,6.4-16.2,13.6c-2.4,7.3-0.4,15.2,5.1,20.5l35.7,34.8l-8.4,49.1c-1.3,7.5,1.8,15.1,8,19.6c6.2,4.5,14.4,5.1,21.1,1.5
		l44.1-23.2l44.1,23.2c2.9,1.5,6.1,2.3,9.3,2.3c0,0,0,0,0.1,0c11.1,0,20-9,20-20c0-1.7-0.2-3.3-0.6-4.9l-8.2-47.6l35.7-34.8
		c5.5-5.3,7.4-13.3,5.1-20.5C359.2,294.6,352.9,289.3,345.4,288.2z M285.2,335.8c-4.7,4.6-6.9,11.2-5.8,17.7l3.3,19.5l-17.5-9.2
		c-2.9-1.5-6.1-2.3-9.3-2.3s-6.4,0.8-9.3,2.3l-17.5,9.2l3.3-19.5c1.1-6.5-1-13.1-5.8-17.7l-14.1-13.8l19.6-2.8
		c6.5-0.9,12.2-5,15.1-11l8.7-17.7l8.7,17.7c2.9,5.9,8.6,10,15.1,11l19.6,2.8L285.2,335.8z"/>
</g>
</svg>
