<?xml version="1.0" encoding="utf-8"?>
<!-- Generator: Adobe Illustrator 18.0.0, SVG Export Plug-In . SVG Version: 6.00 Build 0)  -->
<!DOCTYPE svg PUBLIC "-//W3C//DTD SVG 1.1//EN" "http://www.w3.org/Graphics/SVG/1.1/DTD/svg11.dtd">
<svg version="1.1" id="Layer_1" xmlns="http://www.w3.org/2000/svg" xmlns:xlink="http://www.w3.org/1999/xlink" x="0px" y="0px"
	 viewBox="0 0 512 512" enable-background="new 0 0 512 512" xml:space="preserve">
<g>
	<path fill="#0099CC" d="M27.9,159.6l42.4-42.4l42.4,42.4c3.2,3.2,7.4,4.8,11.5,4.8c4.2,0,8.4-1.6,11.5-4.8c6.4-6.4,6.4-16.7,0-23.1
		L93.4,94l42.4-42.4c6.4-6.4,6.4-16.7,0-23.1c-6.4-6.4-16.7-6.4-23.1,0L70.3,70.9L27.9,28.5c-6.4-6.4-16.7-6.4-23.1,0
		c-6.4,6.4-6.4,16.7,0,23.1L47.2,94L4.8,136.5c-6.4,6.4-6.4,16.7,0,23.1c3.2,3.2,7.4,4.8,11.5,4.8S24.7,162.7,27.9,159.6L27.9,159.6
		z"/>
	<path fill="#0099CC" d="M351.9,352.4c-6.4-6.4-16.7-6.4-23.1,0l-42.4,42.4l-42.4-42.4c-6.4-6.4-16.7-6.4-23.1,0
		c-6.4,6.4-6.4,16.7,0,23.1l42.4,42.4l-42.4,42.4c-6.4,6.4-6.4,16.7,0,23.1c3.2,3.2,7.4,4.8,11.5,4.8c4.2,0,8.4-1.6,11.5-4.8
		l42.4-42.4l42.4,42.4c3.2,3.2,7.4,4.8,11.5,4.8s8.4-1.6,11.5-4.8c6.4-6.4,6.4-16.7,0-23.1L309.4,418l42.4-42.4
		C358.2,369.2,358.2,358.8,351.9,352.4L351.9,352.4z"/>
	<path fill="#0099CC" d="M353.1,123.4l-65.9-57.3c-6.8-5.9-17.1-5.2-23,1.6c-5.9,6.8-5.2,17.1,1.6,23l34.9,30.4
		c-103.1,13.5-164.1,67.4-198.1,112.9c-31.4,42.1-45.1,83.5-50,101.7c3.3-0.4,6.6-0.7,10-0.7c8.1,0,15.9,1.3,23.2,3.7
		c5.5-18,18.2-52.2,43.9-86.2c42.5-56.4,101.5-89.6,175.7-99.1l-32.5,37.4c-5.9,6.8-5.2,17.1,1.6,23c3.1,2.7,6.9,4,10.7,4
		c4.6,0,9.1-1.9,12.3-5.6l57.3-65.9C360.7,139.7,359.9,129.3,353.1,123.4L353.1,123.4z"/>
	<path fill="#0099CC" d="M62.6,362c-26.6,0-48.3,21.6-48.3,48.3c0,26.6,21.6,48.3,48.3,48.3s48.3-21.7,48.3-48.3
		C110.9,383.7,89.2,362,62.6,362L62.6,362z"/>
	<path fill="#0099CC" d="M463.7,84.3c-26.6,0-48.3,21.6-48.3,48.3s21.6,48.3,48.3,48.3c26.6,0,48.3-21.6,48.3-48.3
		C512,106,490.4,84.3,463.7,84.3z"/>
</g>
</svg>
