<?xml version="1.0" encoding="utf-8"?>
<!-- Generator: Adobe Illustrator 18.0.0, SVG Export Plug-In . SVG Version: 6.00 Build 0)  -->
<!DOCTYPE svg PUBLIC "-//W3C//DTD SVG 1.1//EN" "http://www.w3.org/Graphics/SVG/1.1/DTD/svg11.dtd">
<svg version="1.1" id="Capa_1" xmlns="http://www.w3.org/2000/svg" xmlns:xlink="http://www.w3.org/1999/xlink" x="0px" y="0px"
	 viewBox="0 0 512 512" enable-background="new 0 0 512 512" xml:space="preserve">
<path fill="#0099CC" d="M512,224C512,224,512,224,512,224c0-0.1,0-0.1,0-0.2c0-0.2,0-0.4,0-0.6c0-0.1,0-0.2,0-0.3
	c0-0.2,0-0.3-0.1-0.5c0-0.2-0.1-0.3-0.1-0.5c0-0.1,0-0.2-0.1-0.3c-0.1-0.2-0.1-0.4-0.2-0.6c0,0,0-0.1,0-0.1l0,0c0,0,0,0,0-0.1
	L439.4,45c-0.3-0.6-0.6-1.2-1-1.8c5.8-4.4,9.6-11.4,9.6-19.2c0-13.2-10.8-24-24-24c-12.8,0-23.3,10.1-24,22.8l-116.4,33
	c-7.2-12.3-22-18.7-36.4-14.6c-8.2,2.3-15,7.7-19.2,15.2c-2.8,5.1-4.2,10.7-4.1,16.4l-116.6,33.1C103,99.9,96,96,88,96
	c-13.2,0-24,10.8-24,24c0,7.5,3.5,14.3,8.9,18.7L0.6,316.9c0,0,0,0,0,0l0,0.1c0,0.1,0,0.1-0.1,0.2c-0.1,0.2-0.1,0.4-0.2,0.6
	c0,0.1-0.1,0.2-0.1,0.3c0,0.1-0.1,0.3-0.1,0.4c0,0.2,0,0.3-0.1,0.5c0,0.1,0,0.2,0,0.3c0,0.2,0,0.4,0,0.6c0,0.1,0,0.1,0,0.2
	c0,0,0,0,0,0.1c0,0,0,0.1,0,0.1C0.1,368.6,39.5,408,88,408c48.5,0,87.9-39.4,88-87.9c0,0,0-0.1,0-0.1c0,0,0,0,0,0c0-0.1,0-0.1,0-0.2
	c0-0.2,0-0.4,0-0.6c0-0.1,0-0.2,0-0.3c0-0.2,0-0.3-0.1-0.5c0-0.2-0.1-0.3-0.1-0.5c0-0.1,0-0.2-0.1-0.3c-0.1-0.2-0.1-0.4-0.2-0.6
	c0,0,0-0.1,0-0.1l0,0c0,0,0,0,0-0.1l-72-175.9c-0.3-0.6-0.6-1.2-1-1.8c5.5-4.2,9.2-10.7,9.6-18l116.4-33c1.1,2,2.5,3.8,4,5.4
	c-0.2,0.8-0.4,1.6-0.4,2.4v328c-13.2,0-24,10.8-24,24v16h-40c-13.2,0-24,10.8-24,24v16c0,4.4,3.6,8,8,8h208c4.4,0,8-3.6,8-8v-16
	c0-13.2-10.8-24-24-24h-40v-16c0-13.2-10.8-24-24-24V96c0-0.8-0.1-1.7-0.4-2.4c1.6-1.8,3.1-3.8,4.3-6c2.8-5.1,4.2-10.7,4.1-16.4
	l116.6-33.1c1.2,1.7,2.7,3.2,4.3,4.5l-72.3,178.2c0,0,0,0,0,0l0,0.1c0,0.1,0,0.1-0.1,0.2c-0.1,0.2-0.1,0.4-0.2,0.6
	c0,0.1-0.1,0.2-0.1,0.3c0,0.1-0.1,0.3-0.1,0.4c0,0.2,0,0.3-0.1,0.5c0,0.1,0,0.2,0,0.3c0,0.2,0,0.4,0,0.6c0,0.1,0,0.1,0,0.2
	c0,0,0,0,0,0.1c0,0,0,0.1,0,0.1c0.1,48.4,39.5,87.8,88,87.8c48.5,0,87.9-39.4,88-87.9C512,224.1,512,224.1,512,224z M424,16
	c4.4,0,8,3.6,8,8s-3.6,8-8,8s-8-3.6-8-8S419.6,16,424,16z M242,64.2c2.1-3.7,5.5-6.4,9.6-7.6c1.5-0.4,2.9-0.6,4.4-0.6
	c7,0,13.4,4.6,15.4,11.6c0,0,0,0,0,0c0,0,0,0,0,0c1.2,4.1,0.7,8.4-1.4,12.2c-2.1,3.7-5.5,6.4-9.6,7.6c-8.5,2.4-17.4-2.5-19.8-11
	c0,0,0,0,0,0c0,0,0,0,0,0C239.4,72.3,239.9,67.9,242,64.2z M88,112c4.4,0,8,3.6,8,8s-3.6,8-8,8s-8-3.6-8-8S83.6,112,88,112z
	 M156.1,312H152c-4.4,0-8,3.6-8,8s3.6,8,8,8h7.6c-4,35.9-34.6,64-71.6,64s-67.6-28.1-71.6-64H120c4.4,0,8-3.6,8-8s-3.6-8-8-8H19.9
	L88,144.1c0,1,0.2,2,0.6,2.9L156.1,312z M288,448v24c0,0,0,0,0,0c0,4.4,3.6,8,8,8h48c4.4,0,8,3.6,8,8v8H160v-8c0-4.4,3.6-8,8-8h96
	c4.4,0,8-3.6,8-8s-3.6-8-8-8h-40v-16c0-4.4,3.6-8,8-8h48C284.4,440,288,443.6,288,448z M248,424V103c2.6,0.7,5.3,1,8,1
	c2.6,0,5.3-0.3,8-1v321H248z M424,296c-37,0-67.6-28.1-71.6-64H456c4.4,0,8-3.6,8-8s-3.6-8-8-8H355.9L424,48.1c0,1,0.2,2,0.6,2.9
	l67.5,165H488c-4.4,0-8,3.6-8,8s3.6,8,8,8h7.6C491.6,267.9,461,296,424,296z"/>
</svg>
