<?xml version="1.0" encoding="utf-8"?>
<!-- Generator: Adobe Illustrator 18.0.0, SVG Export Plug-In . SVG Version: 6.00 Build 0)  -->
<!DOCTYPE svg PUBLIC "-//W3C//DTD SVG 1.1//EN" "http://www.w3.org/Graphics/SVG/1.1/DTD/svg11.dtd">
<svg version="1.1" id="Capa_1" xmlns="http://www.w3.org/2000/svg" xmlns:xlink="http://www.w3.org/1999/xlink" x="0px" y="0px"
	 viewBox="0 0 512 512" enable-background="new 0 0 512 512" xml:space="preserve">
<path fill="#0099CC" d="M409.7,366l-81.5-40.8c-7.7-3.8-12.5-11.6-12.5-20.2v-28.9c2-2.4,4-5.1,6.1-8.1c10.6-14.9,19-31.6,25.2-49.5
	c12-5.5,19.9-17.4,19.9-30.9v-34.1c0-8.2-3.1-16.2-8.5-22.4V85.8c0.5-4.7,2.4-32.6-17.9-55.7C323,10.1,294.6,0,256,0
	s-67,10.1-84.5,30.1c-20.2,23-18.3,51-17.9,55.7v45.4c-5.5,6.2-8.5,14.2-8.5,22.4v34.1c0,10.4,4.7,20.1,12.8,26.5
	c7.8,31,24.2,54.3,29.9,61.8v28.2c0,8.3-4.5,15.8-11.8,19.8l-76.1,41.5c-24.8,13.5-40.1,39.4-40.1,67.6v27.6
	c0,40.5,128.4,51.2,196.3,51.2s196.3-10.7,196.3-51.2v-26C452.3,405.5,436,379.1,409.7,366z"/>
</svg>
