<?xml version="1.0" encoding="iso-8859-1"?>
<svg xmlns="http://www.w3.org/2000/svg" xmlns:xlink="http://www.w3.org/1999/xlink" version="1.1" viewBox="0 0 18.629 18.629" enable-background="new 0 0 18.629 18.629" width="512px" height="512px">
  <g>
    <g>
      <path fill="#39d969" d="m11.854,9.315v-6.775c0-0.469-0.379-0.847-0.846-0.847h-10.162c-0.467,0-0.846,0.379-0.846,0.847v6.774c0,0.469 0.379,0.847 0.846,0.847h10.163c0.467,0.001 0.845-0.378 0.845-0.846zm-1.693-.848h-8.467v-5.079h8.468v5.079zm7.621,0c-0.469,0-0.848,0.379-0.848,0.848v5.926h-9.313c-0.469,0-0.847,0.379-0.847,0.848s0.379,0.847 0.847,0.847h10.161c0.467,0 0.846-0.379 0.846-0.847v-6.774c0-0.469-0.379-0.848-0.846-0.848zm-2.541,4.234v-6.774c0-0.469-0.379-0.847-0.846-0.847-0.469,0-0.848,0.379-0.848,0.847v5.927h-9.315c-0.467,0-0.846,0.379-0.846,0.847s0.379,0.848 0.846,0.848h10.163c0.467,0 0.846-0.379 0.846-0.848z"/>
    </g>
  </g>
</svg>
