<?xml version="1.0" encoding="utf-8"?>
<!-- Generator: Adobe Illustrator 18.0.0, SVG Export Plug-In . SVG Version: 6.00 Build 0)  -->
<!DOCTYPE svg PUBLIC "-//W3C//DTD SVG 1.1//EN" "http://www.w3.org/Graphics/SVG/1.1/DTD/svg11.dtd">
<svg version="1.1" id="Capa_1" xmlns="http://www.w3.org/2000/svg" xmlns:xlink="http://www.w3.org/1999/xlink" x="0px" y="0px"
	 viewBox="0 0 512 512" enable-background="new 0 0 512 512" xml:space="preserve">
<g>
	<path fill="#354052" d="M382.9,144.6h-78V107c0-11.1-9.1-20.2-20.2-20.2H53.6c-11.2,0-20.2,9.1-20.2,20.2v327
		c0,11.1,9.1,20.2,20.2,20.2h78v37.6c0,11.1,9.1,20.2,20.2,20.2h231.1c11.1,0,20.2-9.1,20.2-20.2v-327
		C403.2,153.7,394.1,144.6,382.9,144.6z M53.6,436.8c-1.6,0-2.9-1.3-2.9-2.9V107c0-1.6,1.3-2.9,2.9-2.9h231.1c1.6,0,2.9,1.3,2.9,2.9
		v37.6v289.4c0,1.6-1.3,2.9-2.9,2.9L53.6,436.8L53.6,436.8z M385.8,491.8c0,1.6-1.3,2.9-2.9,2.9H151.9c-1.6,0-2.9-1.3-2.9-2.9v-36.4
		h135.8c11.1,0,20.2-9.1,20.2-20.2v-1.2V429h41.4c4.8,0,8.7-3.9,8.7-8.7s-3.9-8.7-8.7-8.7H305v-42.4h41.4c4.8,0,8.7-3.9,8.7-8.7
		s-3.9-8.7-8.7-8.7H305v-43.3h41.4c4.8,0,8.7-3.9,8.7-8.7s-3.9-8.7-8.7-8.7H305v-41.6h11.5c4.8,0,8.7-3.9,8.7-8.7
		c0-4.8-3.9-8.7-8.7-8.7H305v-70.4h78c1.6,0,2.9,1.3,2.9,2.9V491.8z M73.4,173.4c0-4.8,3.9-8.7,8.7-8.7h140.6c4.8,0,8.7,3.9,8.7,8.7
		c0,4.8-3.9,8.7-8.7,8.7H82C77.2,182.1,73.4,178.2,73.4,173.4z M261.1,232.4c0,4.8-3.9,8.7-8.7,8.7H82c-4.8,0-8.7-3.9-8.7-8.7
		c0-4.8,3.9-8.7,8.7-8.7h170.4C257.2,223.7,261.1,227.6,261.1,232.4z M261.1,293c0,4.8-3.9,8.7-8.7,8.7H82c-4.8,0-8.7-3.9-8.7-8.7
		s3.9-8.7,8.7-8.7h170.4C257.2,284.3,261.1,288.2,261.1,293z M261.1,352.7c0,4.8-3.9,8.7-8.7,8.7H82c-4.8,0-8.7-3.9-8.7-8.7
		c0-4.8,3.9-8.7,8.7-8.7h170.4C257.2,344,261.1,347.9,261.1,352.7z"/>
</g>
<g>
	<path fill="#2FAE23" d="M493.8,2.8c-18.8-10.1-39.7,9.4-52,20.9c-28.2,27.4-52,59.2-78.7,88.1c-29.6,31.8-57,63.5-87.3,94.6
		c-17.3,17.3-36.1,36.1-47.6,57.7c-26-25.3-48.4-52.7-77.2-75.1c-20.9-15.9-55.6-27.4-54.9,10.8c1.4,49.8,45.5,103.2,78,137.2
		c13.7,14.4,31.8,29.6,52.7,30.3c25.3,1.4,51.3-28.9,66.4-45.5c26.7-28.9,48.4-61.4,72.9-91c31.8-39,64.2-77.2,95.3-116.9
		C480.8,89.4,542.2,28.8,493.8,2.8z M127.8,197c-0.7,0-1.4,0-2.9,0.7c-2.9-0.7-5.1-1.4-7.9-2.9l0,0
		C119.2,193.4,122.8,194.1,127.8,197z"/>
</g>
</svg>
