<?xml version="1.0" encoding="utf-8"?>
<!-- Generator: Adobe Illustrator 19.1.0, SVG Export Plug-In . SVG Version: 6.00 Build 0)  -->
<!DOCTYPE svg PUBLIC "-//W3C//DTD SVG 1.1//EN" "http://www.w3.org/Graphics/SVG/1.1/DTD/svg11.dtd">
<svg version="1.1" id="Layer_1" xmlns="http://www.w3.org/2000/svg" xmlns:xlink="http://www.w3.org/1999/xlink" x="0px" y="0px"
	 viewBox="0 0 221.5 91" enable-background="new 0 0 221.5 91" xml:space="preserve">
<path id="D_Glow_1_" display="none" fill="none" stroke="#683E98" stroke-miterlimit="10" d="M114.9,47.5V36.8l-7.8,3.1v10.2
	c-1.6-0.7-3.3-1-5-1c-7.1,0-12.8,5.7-12.8,12.8c0,0.2,0,0.5,0,0.7c3.2-0.8,5.8-2.9,7.4-5.7c0.5,0.1,1.1,0.2,1.6,0.2
	c1-0.8,2.3-1.3,3.7-1.3c1,0,1.9,0.2,2.7,0.6C109.2,55.1,112.9,51.8,114.9,47.5z"/>
<g>
	<g>
		<g>
			<path fill="#3C5A99" d="M90.6,40.7c-2.2-0.2-4.1,0.4-5.7,2.4v-0.6l0,0V32v-0.1v-0.7l-5.8,0.7v27.5h5.8v-1.6
				c0.8,0.6,1.6,1.2,2.4,1.6c3.4,1.2,7.9,0.2,9.5-4.3c1-2.9,1-5.9,0.2-8.9C96.2,42.9,94,41.1,90.6,40.7z M91.5,52.6
				c-0.3,1.8-1.7,2.8-3.4,2.6c-0.4,0-0.8-0.1-1.2-0.3c-1.4-0.8-1.8-2.1-1.9-3c0,0,0,0,0,0c-0.1-1.3-0.2-4,0.4-5.3
				c0.5-1,1.5-1.5,2.7-1.6c1.8-0.1,3.1,0.8,3.3,2.6C91.7,49.4,91.7,51,91.5,52.6z"/>
			<path fill="#3C5A99" d="M111.3,41c-2-0.5-4.1-0.5-6.1,0c-3,0.8-5.1,2.7-5.7,5.8c-0.4,1.7-0.4,3.4-0.3,5.1
				c0.2,3.9,2.6,6.7,6.4,7.5c0.1,0,0.1,0,0.2,0h0c0,0,0,0,0,0c0.1,0,0.3,0.1,0.4,0.1c0,0,0.1,0,0.1,0c0,0,0,0,0,0
				c0.2,0,0.4,0.1,0.6,0.1c0.7,0.1,1.7,0.1,2.4,0c0,0,0,0,0,0c0,0,0.1,0,0.1,0c3.9-0.2,6.8-2.6,7.7-6.4c0.5-2.1,0.5-4.1,0-6.2
				C116.5,44,114.5,41.9,111.3,41z M111.6,52.3c0,0.1,0,0.2-0.1,0.4c-0.4,1.7-1.6,2.7-3.3,2.6c-1.8-0.1-3-1.1-3.2-2.9
				c-0.1-1.3-0.1-2.6,0-4c0.2-2.1,1.5-3.2,3.4-3.2c1.6,0,2.7,0.9,3.1,2.5C111.9,49.2,111.6,52,111.6,52.3z"/>
			<path fill="#3C5A99" d="M23.7,40.9h-4.2v-2.8c0.3-2.6,4.6-2.1,4.6-2.1l0-0.2l0,0v-4.3h0v0h0c-0.1,0-8.6-2-10.3,4.4c0,0,0,0,0,0
				c0,0,0,0,0,0c-0.3,0.8-0.2,4.5-0.2,5H10v4.9h3.8v13.4h5.6V45.9h4.3l0.5-4.9L23.7,40.9z"/>
			<path fill="#3C5A99" d="M37,43.3c-0.1-0.1-0.1-0.1-0.2-0.2v0c0,0,0,0,0,0c-0.1-0.1-0.1-0.1-0.1-0.1l0,0c-1.3-1.3-1.8-1.7-2.8-2
				c-4-1.2-7.8,0.9-9,4.9c-0.8,2.4-0.8,5-0.3,7.4c0.9,5.4,4.9,7.2,9.2,6.3c1.3-0.3,2.3-1.1,3.2-2.2c0,0,0.1-0.1,0.2-0.3v2.4h5.4V41
				H37L37,43.3L37,43.3z M36.6,52.6c-0.2,1.7-1.6,2.7-3.2,2.7c-1.7-0.1-2.8-1-3.1-2.6c-0.4-2.3,0.1-5,0.1-5.2
				c0.4-1.5,1.6-2.3,3.2-2.3c1.6,0,2.8,1,3,2.7C36.7,49.4,36.7,51,36.6,52.6z"/>
			<path fill="#3C5A99" d="M59.1,58.1c-0.3-0.9-0.5-1.8-0.8-2.7l-0.3-1c0,0-6.8,3.3-7.9-2.9c-0.1-1-0.1-2.1,0.1-3.1
				c0.3-1.9,1.4-2.9,3.3-3.1c0.6-0.1,1.3,0,1.9,0.1c0.8,0.1,1.7,0.4,2.6,0.6c0.3-1,0.7-2,1-2.9c0-0.2,0.1-0.3,0.1-0.4h0l0.2-0.6
				c0-0.1-0.1-0.2-0.3-0.2c0,0,0,0,0,0c-0.2-0.1-0.4-0.2-0.8-0.4c-0.2-0.1-0.3-0.1-0.5-0.2c-0.2,0-0.2-0.1-0.2-0.1h0
				c-1.8-0.5-3.6-0.6-5.5-0.4c-3.9,0.4-6.6,2.7-7.4,6.6c-0.4,2-0.4,4.1,0.1,6.1c0.7,3,2.5,5,5.5,5.9c2,0.6,4,0.6,5.9,0.3
				c0.8-0.1,2-0.6,2.9-0.9l0.3-0.1L59.1,58.1L59.1,58.1z"/>
			<path fill="#3C5A99" d="M77.1,50.9c0-1.3,0-2.6-0.2-3.8c-0.5-3.4-2.6-5.6-6-6.2c-1.3-0.2-2.7-0.2-4-0.1c-3.6,0.3-6.3,2.6-6.9,6
				c-0.3,2-0.4,4.2-0.1,6.3c0.4,3.1,1.9,5.1,4.5,6c0,0,0,0,0,0c0,0,0,0,0,0c0,0,0,0,0,0c1.2,0.4,7,1.9,12.1-0.7l-0.2-0.8
				c0,0,0,0,0,0c-0.2-1-0.5-2-0.8-3l0-0.1c0,0-0.1,0-0.3,0.1c0,0,0,0,0,0c-0.2,0.1-0.4,0.1-0.7,0.2c0,0-0.1,0-0.1,0
				c-0.8,0.2-1.9,0.5-3.1,0.6c-1,0.1-2,0.1-3,0c-1.6-0.3-2.9-1.1-2.8-3.2h0.9c3.2,0,6.4,0,9.6,0c0.1,0,0.2,0,0.2,0l0,0
				c0,0,0.7,0,0.7,0c0,0,0-0.2,0-0.2L77.1,50.9z M71.8,48.4h-6.3c0-1.3,0.2-2.4,1.3-3.1c1.2-0.8,2.5-0.8,3.7-0.1
				C71.8,45.8,71.9,47,71.8,48.4z"/>
			<polygon fill="#3C5A99" points="156.7,41.2 150.5,41.2 145.1,49.6 145.1,32 145.1,31.9 145.1,31.2 139.3,31.9 139.3,59.4 
				145.1,59.4 145.1,51 150.5,59.4 156.7,59.4 150.8,50.3 			"/>
			<path fill="#3C5A99" d="M131.2,41c-2-0.5-4.1-0.5-6.1,0c-3,0.8-5.1,2.7-5.7,5.8c-0.4,1.7-0.4,3.4-0.3,5.1
				c0.2,3.9,2.6,6.7,6.4,7.5c0.1,0,0.1,0,0.2,0h0c0,0,0,0,0,0c0.1,0,0.3,0.1,0.4,0.1c0,0,0.1,0,0.1,0c0,0,0,0,0,0
				c0.2,0,0.4,0.1,0.6,0.1c0.7,0.1,1.7,0.1,2.4,0c0,0,0,0,0,0c0,0,0.1,0,0.1,0c3.9-0.2,6.8-2.6,7.7-6.4c0.5-2.1,0.5-4.1,0-6.2
				C136.4,44,134.4,41.9,131.2,41z M131.5,52.3c0,0.1,0,0.2-0.1,0.4c-0.4,1.7-1.6,2.7-3.3,2.6c-1.8-0.1-3-1.1-3.2-2.9
				c-0.1-1.3-0.1-2.6,0-4c0.2-2.1,1.5-3.2,3.4-3.2c1.6,0,2.7,0.9,3.1,2.5C131.8,49.2,131.5,52,131.5,52.3z"/>
		</g>
	</g>
	<g>
		<path fill="#828282" d="M181.7,58.9l-1.6-5.6h-8.5l-1.6,5.6h-2.1l6.8-22.7h2.3l6.8,22.7H181.7z M175.8,38.5l-3.9,13.2h7.7
			L175.8,38.5z"/>
		<path fill="#828282" d="M195.9,58.9v-2.4c-0.9,1.7-2.6,2.9-4.4,2.9c-3.7,0-5.8-3.5-5.8-8.6c0-5.1,2.1-8.6,5.8-8.6
			c1.7,0,3.4,1,4.4,2.9v-8.8h1.7v22.7H195.9z M195.9,54.8v-8.1c-0.7-1.6-2.3-3.1-4.1-3.1c-3,0-4.3,3.3-4.3,7.1
			c0,3.8,1.3,7.1,4.3,7.1C193.6,57.8,195.2,56.4,195.9,54.8z"/>
		<path fill="#828282" d="M201.1,57l1-1.2c0.9,1.2,2.3,2.1,4.2,2.1c2.1,0,3.5-1.2,3.5-3c0-4.3-8.2-3-8.2-8.6c0-2.3,1.9-4.2,4.9-4.2
			c2.1,0,3.7,0.8,4.7,2.1l-0.9,1.2c-0.8-1.2-2.2-1.8-3.8-1.8c-2,0-3.2,1.2-3.2,2.7c0,4,8.2,2.8,8.2,8.6c0,2.6-2,4.5-5.1,4.5
			C204.1,59.4,202.5,58.6,201.1,57z"/>
	</g>
</g>
</svg>
