<?xml version="1.0" encoding="utf-8"?>
<!-- Generator: Adobe Illustrator 18.0.0, SVG Export Plug-In . SVG Version: 6.00 Build 0)  -->
<!DOCTYPE svg PUBLIC "-//W3C//DTD SVG 1.1//EN" "http://www.w3.org/Graphics/SVG/1.1/DTD/svg11.dtd">
<svg version="1.1" id="Capa_1" xmlns="http://www.w3.org/2000/svg" xmlns:xlink="http://www.w3.org/1999/xlink" x="0px" y="0px"
	 viewBox="0 0 512 512" enable-background="new 0 0 512 512" xml:space="preserve">
<g>
	<path fill="#2FB22F" d="M359.4,367c-4.7-0.6-8.9,2.8-9.5,7.5c-0.5,4.7,2.8,8.9,7.5,9.5c89.7,10.6,137.5,39,137.5,55.5
		c0,23.2-90.9,55.5-238.9,55.5S17.1,462.6,17.1,439.5c0-16.5,47.8-45,137.5-55.5c4.7-0.5,8-4.8,7.5-9.5c-0.6-4.7-4.8-8.1-9.5-7.5
		C62.8,377.6,0,407.4,0,439.5c0,36,87.9,72.5,256,72.5s256-36.5,256-72.5C512,407.4,449.2,377.6,359.4,367z"/>
	<path fill="#0195C7" d="M254.5,467.3l130.9-189.1c49.1-65.5,42-173.1-15.2-230.2C339.3,17,298.2,0,254.5,0s-84.8,17-115.7,47.9
		c-57.2,57.2-64.3,164.8-15.4,230L254.5,467.3z M256,102.4c32.9,0,59.7,26.8,59.7,59.7s-26.8,59.7-59.7,59.7s-59.7-26.8-59.7-59.7
		S223.1,102.4,256,102.4z"/>
</g>
</svg>
