<?xml version="1.0" encoding="UTF-8"?>
<svg width="45px" height="13px" viewBox="0 0 45 13" version="1.1" xmlns="http://www.w3.org/2000/svg" xmlns:xlink="http://www.w3.org/1999/xlink">
    <!-- Generator: Sketch 52.5 (67469) - http://www.bohemiancoding.com/sketch -->
    <title>Path</title>
    <desc>Created with Sketch.</desc>
    <g id="Page-1" stroke="none" stroke-width="1" fill="none" fill-rule="evenodd">
        <g id="channels-settings" transform="translate(-1039.000000, -729.000000)" fill="#EE2032">
            <g id="minus-black-symbol" transform="translate(1039.000000, 729.000000)">
                <path d="M44.1044776,1.25839552 C43.5077239,0.661753731 42.7829104,0.363544776 41.9309328,0.363544776 L28.6355597,0.363544776 L16.363209,0.363656716 L3.06794776,0.363656716 C2.21597015,0.363656716 1.4913806,0.661865672 0.894738806,1.25850746 C0.298097015,1.85514925 0,2.57906716 0,3.43160448 L0,9.5680597 C0,10.4208209 0.297985075,11.1448507 0.894626866,11.7409328 C1.49126866,12.3377985 2.21585821,12.6357836 3.06783582,12.6357836 L16.363097,12.6357836 L28.6356716,12.6357836 L41.9308209,12.6357836 C42.7835821,12.6357836 43.5079478,12.3377985 44.1043657,11.7409328 C44.7008955,11.1448507 44.9992164,10.4208209 44.9992164,9.5680597 L44.9992164,3.43160448 C44.9989925,2.57906716 44.7013433,1.85470149 44.1044776,1.25839552 Z" id="Path"></path>
            </g>
        </g>
    </g>
</svg>