<?xml version="1.0" encoding="UTF-8"?>
<svg width="45px" height="45px" viewBox="0 0 45 45" version="1.1" xmlns="http://www.w3.org/2000/svg" xmlns:xlink="http://www.w3.org/1999/xlink">
    <!-- Generator: Sketch 52.5 (67469) - http://www.bohemiancoding.com/sketch -->
    <title>plus-black-symbol</title>
    <desc>Created with Sketch.</desc>
    <g id="Page-1" stroke="none" stroke-width="1" fill="none" fill-rule="evenodd">
        <g id="channels-settings" transform="translate(-979.000000, -713.000000)" fill="#2FCF5F">
            <g id="plus-black-symbol" transform="translate(979.000000, 713.000000)">
                <path d="M44.1044776,17.2583955 C43.5077239,16.6617537 42.7829104,16.3635448 41.9309328,16.3635448 L28.6355597,16.3635448 L28.6355597,3.06783582 C28.6355597,2.21585821 28.3371269,1.49126866 27.740709,0.894626866 C27.1441791,0.298432836 26.4201493,0 25.5669403,0 L19.4312687,0 C18.5791791,0 17.8547015,0.298097015 17.2580597,0.894738806 C16.6614179,1.4913806 16.363209,2.21597015 16.363209,3.06794776 L16.363209,16.3636567 L3.06794776,16.3636567 C2.21597015,16.3636567 1.4913806,16.6618657 0.894738806,17.2585075 C0.298097015,17.8551493 0,18.5790672 0,19.4316045 L0,25.5680597 C0,26.4208209 0.297985075,27.1448507 0.894626866,27.7409328 C1.49126866,28.3377985 2.21585821,28.6357836 3.06783582,28.6357836 L16.363097,28.6357836 L16.363097,41.9317164 C16.363097,42.783694 16.661306,43.5088433 17.2579478,44.1052612 C17.8545896,44.7013433 18.5790672,44.9993284 19.4311567,44.9993284 L25.5672761,44.9993284 C26.4199254,44.9993284 27.1440672,44.7013433 27.7408209,44.1052612 C28.3376866,43.5085075 28.6356716,42.783694 28.6356716,41.9317164 L28.6356716,28.6357836 L41.9308209,28.6357836 C42.7835821,28.6357836 43.5079478,28.3377985 44.1043657,27.7409328 C44.7008955,27.1448507 44.9992164,26.4208209 44.9992164,25.5680597 L44.9992164,19.4316045 C44.9989925,18.5790672 44.7013433,17.8547015 44.1044776,17.2583955 Z" id="Path"></path>
            </g>
        </g>
    </g>
</svg>