<?xml version="1.0" encoding="UTF-8"?>
<svg width="12px" height="12px" viewBox="0 0 12 12" version="1.1" xmlns="http://www.w3.org/2000/svg" xmlns:xlink="http://www.w3.org/1999/xlink">
    <!-- Generator: Sketch 52.4 (67378) - http://www.bohemiancoding.com/sketch -->
    <title>calendar</title>
    <desc>Created with Sketch.</desc>
    <g id="Page-1" stroke="none" stroke-width="1" fill="none" fill-rule="evenodd">
        <g id="StyleGuide-Copy" transform="translate(-247.000000, -2462.000000)" fill="#B2BBD5" fill-rule="nonzero">
            <g id="calendar" transform="translate(247.000000, 2462.000000)">
                <path d="M1.39625,11.409375 L10.60375,11.409375 C11.3742708,11.406875 11.998125,10.7825 12,10.0119792 L12,2.39906251 C11.9973958,1.63 11.3727083,1.00822917 10.60375,1.00937499 L9.6,1.00937499 L9.6,0.266666667 C9.6,0.119374987 9.48062501,-2.84217094e-14 9.33333333,-2.84217094e-14 C9.18604165,-2.84217094e-14 9.06666667,0.119374987 9.06666667,0.266666667 L9.06666667,1.00937499 L3.04,1.00937499 L3.04,0.266666667 C3.04,0.119374987 2.92062501,-2.84217094e-14 2.77333333,-2.84217094e-14 C2.62604165,-2.84217094e-14 2.50666667,0.119374987 2.50666667,0.266666667 L2.50666667,1.00937499 L1.39625,1.00937499 C0.62729168,1.00822917 0.00260416533,1.63 0,2.39906251 L0,10.0119792 C0.001875,10.7825 0.625729173,11.406875 1.39625,11.409375 Z M0.533333333,2.39906251 C0.535520827,1.92437499 0.921666667,1.54125 1.39625,1.54270832 L2.50666667,1.54270832 L2.50666667,2.27812501 C2.50666667,2.42541667 2.62604165,2.54479168 2.77333333,2.54479168 C2.92062501,2.54479168 3.04,2.42541667 3.04,2.27812501 L3.04,1.54270832 L9.06666667,1.54270832 L9.06666667,2.27812501 C9.06666667,2.42541667 9.18604165,2.54479168 9.33333333,2.54479168 C9.48062501,2.54479168 9.6,2.42541667 9.6,2.27812501 L9.6,1.54270832 L10.60375,1.54270832 C11.0783333,1.54125 11.4644792,1.92437499 11.4666667,2.39906251 L11.4666667,3.59604165 L0.533333333,3.59604165 L0.533333333,2.39906251 Z M11.4666667,4.12937499 L11.4666667,10.0119792 C11.4651042,10.488125 11.0797917,10.8738542 10.60375,10.8760417 L1.39625,10.8760417 C0.92020832,10.8738542 0.53489584,10.488125 0.533333333,10.0119792 L0.533333333,4.12937499 L11.4666667,4.12937499 Z" id="Shape"></path>
            </g>
        </g>
    </g>
</svg>