<svg id="Layer_1" data-name="Layer 1" xmlns="http://www.w3.org/2000/svg" viewBox="0 0 120 120"><defs><style>.cls-1{fill:#fff;stroke-linecap:round;stroke-linejoin:round;}.cls-1,.cls-2{stroke:#252e4a;stroke-width:3px;}.cls-2,.cls-3{fill:#579bfc;}.cls-2{stroke-miterlimit:10;}</style></defs><title>Get control &amp;amp; Visibility over my marketing mix and data</title><path class="cls-1" d="M14.32,10h91.36A4.32,4.32,0,0,1,110,14.32V24a0,0,0,0,1,0,0H10a0,0,0,0,1,0,0V14.32A4.32,4.32,0,0,1,14.32,10Z"/><path class="cls-2" d="M10,24H110a0,0,0,0,1,0,0v82a4,4,0,0,1-4,4H14a4,4,0,0,1-4-4V24A0,0,0,0,1,10,24Z"/><circle class="cls-3" cx="16.5" cy="17" r="2"/><circle class="cls-3" cx="21.5" cy="17" r="2"/><circle class="cls-3" cx="26.5" cy="17" r="2"/><line class="cls-1" x1="60" y1="36" x2="60" y2="97"/><line class="cls-1" x1="35" y1="36" x2="35" y2="97"/><line class="cls-1" x1="85" y1="36" x2="85" y2="97"/><circle class="cls-1" cx="35" cy="72" r="8"/><circle class="cls-1" cx="60" cy="57" r="8"/><circle class="cls-1" cx="85" cy="78" r="8"/></svg>