<svg id="Layer_1" data-name="Layer 1" xmlns="http://www.w3.org/2000/svg" viewBox="0 0 120 120"><defs><style>.cls-1{fill:#579bfc;}.cls-1,.cls-2{stroke:#252e4a;stroke-linecap:round;stroke-linejoin:round;stroke-width:3px;}.cls-2{fill:#fff;}</style></defs><title>Optimize my current marketing mix</title><circle class="cls-1" cx="60" cy="60" r="50"/><circle class="cls-2" cx="60" cy="60" r="35"/><line class="cls-1" x1="42" y1="78" x2="39.5" y2="80.5"/><line class="cls-1" x1="34.54" y1="60" x2="31.01" y2="60"/><line class="cls-1" x1="42" y1="42" x2="39.5" y2="39.5"/><line class="cls-1" x1="60" y1="34.54" x2="60" y2="31.01"/><line class="cls-1" x1="78" y1="42" x2="80.5" y2="39.5"/><line class="cls-1" x1="85.46" y1="60" x2="88.99" y2="60"/><line class="cls-1" x1="78" y1="78" x2="80.5" y2="80.5"/><path class="cls-1" d="M57.88,57.88,69.19,46.56a3,3,0,0,1,4.25,0h0a3,3,0,0,1,0,4.25L62.12,62.12Z"/><circle class="cls-1" cx="60" cy="60" r="8"/><path class="cls-1" d="M66,76l6.6,8.25S68.4,88,60,88s-12.6-3.75-12.6-3.75L54,76Z"/></svg>