<svg id="Layer_1" data-name="Layer 1" xmlns="http://www.w3.org/2000/svg" viewBox="0 0 120 120"><defs><style>.cls-1{fill:#579bfc;}.cls-1,.cls-2{stroke:#252e4a;stroke-linecap:round;stroke-linejoin:round;stroke-width:3px;}.cls-2{fill:#fff;}</style></defs><title>Create a marketing mix from scratch</title><path class="cls-1" d="M22,97V14a4,4,0,0,1,4-4H88a4,4,0,0,1,4,4V98.6A11.27,11.27,0,0,1,80.85,110,13,13,0,0,1,68,97H10a13,13,0,0,0,13,13H81s-13-1-13-13"/><rect class="cls-2" x="28.39" y="40.79" width="3.77" height="6.79"/><path class="cls-2" d="M36.17,33.24H54.05a0,0,0,0,1,0,0V55.13a0,0,0,0,1,0,0H36.17a4,4,0,0,1-4-4V37.24A4,4,0,0,1,36.17,33.24Z"/><polygon class="cls-2" points="54.05 33.24 77.45 23.43 77.45 65.7 54.05 55.13 54.05 33.24"/><path class="cls-2" d="M51.79,55.13,48,61.92l3,8A3,3,0,0,1,48.19,74h-6a3,3,0,0,1-3-2.43L35.94,55.13Z"/><path class="cls-2" d="M77.45,51.36a6.8,6.8,0,0,0,0-13.59Z"/><circle class="cls-2" cx="85" cy="85" r="25"/><path class="cls-1" d="M92,81H89V78a4,4,0,0,0-8,0v3H78a4,4,0,0,0,0,8h3v3a4,4,0,0,0,8,0V89h3a4,4,0,0,0,0-8Z"/></svg>